solid CATIA STL
  facet normal -1.000000e+000  -0.000000e+000  0.000000e+000
    outer loop
      vertex -2.725000e+001 -5.000000e+000  1.100000e+001
      vertex -2.725000e+001  5.000000e+000  1.100000e+001
      vertex -2.725000e+001  3.491481e-015  7.000000e+000
    endloop
  endfacet
  facet normal -1.000000e+000  -0.000000e+000  0.000000e+000
    outer loop
      vertex -2.725000e+001 -5.000000e+000  1.100000e+001
      vertex -2.725000e+001  3.491481e-015  7.000000e+000
      vertex -2.725000e+001 -1.950903e-001  6.980785e+000
    endloop
  endfacet
  facet normal -1.000000e+000  -0.000000e+000  0.000000e+000
    outer loop
      vertex -2.725000e+001 -5.000000e+000  1.100000e+001
      vertex -2.725000e+001 -1.950903e-001  6.980785e+000
      vertex -2.725000e+001 -3.826834e-001  6.923880e+000
    endloop
  endfacet
  facet normal -1.000000e+000  -0.000000e+000  0.000000e+000
    outer loop
      vertex -2.725000e+001 -5.000000e+000  1.100000e+001
      vertex -2.725000e+001 -3.826834e-001  6.923880e+000
      vertex -2.725000e+001 -5.555702e-001  6.831470e+000
    endloop
  endfacet
  facet normal -1.000000e+000  -0.000000e+000  0.000000e+000
    outer loop
      vertex -2.725000e+001 -5.000000e+000  1.100000e+001
      vertex -2.725000e+001 -5.555702e-001  6.831470e+000
      vertex -2.725000e+001 -7.071068e-001  6.707107e+000
    endloop
  endfacet
  facet normal -1.000000e+000  -0.000000e+000  0.000000e+000
    outer loop
      vertex -2.725000e+001 -5.000000e+000  1.100000e+001
      vertex -2.725000e+001 -7.071068e-001  6.707107e+000
      vertex -2.725000e+001 -4.000000e+000  4.000000e+000
    endloop
  endfacet
  facet normal -1.000000e+000  -0.000000e+000  -0.000000e+000
    outer loop
      vertex -2.725000e+001 -5.000000e+000  1.100000e+001
      vertex -2.725000e+001 -4.000000e+000  4.000000e+000
      vertex -2.725000e+001 -4.000000e+000  0.000000e+000
    endloop
  endfacet
  facet normal -1.000000e+000  0.000000e+000  0.000000e+000
    outer loop
      vertex -2.725000e+001 -5.000000e+000  1.100000e+001
      vertex -2.725000e+001 -4.000000e+000  0.000000e+000
      vertex -2.725000e+001 -5.000000e+000  0.000000e+000
    endloop
  endfacet
  facet normal -1.000000e+000  0.000000e+000  0.000000e+000
    outer loop
      vertex -2.725000e+001 -4.000000e+000  4.000000e+000
      vertex -2.725000e+001 -7.071068e-001  6.707107e+000
      vertex -2.725000e+001 -8.314696e-001  6.555570e+000
    endloop
  endfacet
  facet normal -1.000000e+000  0.000000e+000  0.000000e+000
    outer loop
      vertex -2.725000e+001 -4.000000e+000  4.000000e+000
      vertex -2.725000e+001 -8.314696e-001  6.555570e+000
      vertex -2.725000e+001 -9.238795e-001  6.382683e+000
    endloop
  endfacet
  facet normal -1.000000e+000  0.000000e+000  0.000000e+000
    outer loop
      vertex -2.725000e+001 -4.000000e+000  4.000000e+000
      vertex -2.725000e+001 -9.238795e-001  6.382683e+000
      vertex -2.725000e+001 -9.807853e-001  6.195090e+000
    endloop
  endfacet
  facet normal -1.000000e+000  0.000000e+000  0.000000e+000
    outer loop
      vertex -2.725000e+001 -4.000000e+000  4.000000e+000
      vertex -2.725000e+001 -9.807853e-001  6.195090e+000
      vertex -2.725000e+001 -1.000000e+000  6.000000e+000
    endloop
  endfacet
  facet normal -1.000000e+000  0.000000e+000  -0.000000e+000
    outer loop
      vertex -2.725000e+001 -4.000000e+000  4.000000e+000
      vertex -2.725000e+001 -1.000000e+000  6.000000e+000
      vertex -2.725000e+001 -9.807853e-001  5.804910e+000
    endloop
  endfacet
  facet normal -1.000000e+000  0.000000e+000  -0.000000e+000
    outer loop
      vertex -2.725000e+001 -4.000000e+000  4.000000e+000
      vertex -2.725000e+001 -9.807853e-001  5.804910e+000
      vertex -2.725000e+001 -9.238795e-001  5.617317e+000
    endloop
  endfacet
  facet normal -1.000000e+000  0.000000e+000  -0.000000e+000
    outer loop
      vertex -2.725000e+001 -4.000000e+000  4.000000e+000
      vertex -2.725000e+001 -9.238795e-001  5.617317e+000
      vertex -2.725000e+001 -8.314696e-001  5.444430e+000
    endloop
  endfacet
  facet normal -1.000000e+000  0.000000e+000  -0.000000e+000
    outer loop
      vertex -2.725000e+001 -4.000000e+000  4.000000e+000
      vertex -2.725000e+001 -8.314696e-001  5.444430e+000
      vertex -2.725000e+001 -7.071068e-001  5.292893e+000
    endloop
  endfacet
  facet normal -1.000000e+000  0.000000e+000  -0.000000e+000
    outer loop
      vertex -2.725000e+001 -4.000000e+000  4.000000e+000
      vertex -2.725000e+001 -7.071068e-001  5.292893e+000
      vertex -2.725000e+001 -5.555702e-001  5.168530e+000
    endloop
  endfacet
  facet normal -1.000000e+000  0.000000e+000  -0.000000e+000
    outer loop
      vertex -2.725000e+001 -4.000000e+000  4.000000e+000
      vertex -2.725000e+001 -5.555702e-001  5.168530e+000
      vertex -2.725000e+001 -3.826834e-001  5.076120e+000
    endloop
  endfacet
  facet normal -1.000000e+000  0.000000e+000  -0.000000e+000
    outer loop
      vertex -2.725000e+001 -4.000000e+000  4.000000e+000
      vertex -2.725000e+001 -3.826834e-001  5.076120e+000
      vertex -2.725000e+001 -1.950903e-001  5.019215e+000
    endloop
  endfacet
  facet normal -1.000000e+000  0.000000e+000  -0.000000e+000
    outer loop
      vertex -2.725000e+001 -4.000000e+000  4.000000e+000
      vertex -2.725000e+001 -1.950903e-001  5.019215e+000
      vertex -2.725000e+001  3.736411e-015  5.000000e+000
    endloop
  endfacet
  facet normal -1.000000e+000  0.000000e+000  -0.000000e+000
    outer loop
      vertex -2.725000e+001 -4.000000e+000  4.000000e+000
      vertex -2.725000e+001  3.736411e-015  5.000000e+000
      vertex -2.725000e+001  5.000000e+000  4.000000e+000
    endloop
  endfacet
  facet normal -1.000000e+000  0.000000e+000  0.000000e+000
    outer loop
      vertex -2.725000e+001  5.000000e+000  4.000000e+000
      vertex -2.725000e+001  3.736411e-015  5.000000e+000
      vertex -2.725000e+001  1.950903e-001  5.019215e+000
    endloop
  endfacet
  facet normal -1.000000e+000  0.000000e+000  0.000000e+000
    outer loop
      vertex -2.725000e+001  5.000000e+000  4.000000e+000
      vertex -2.725000e+001  1.950903e-001  5.019215e+000
      vertex -2.725000e+001  3.826834e-001  5.076120e+000
    endloop
  endfacet
  facet normal -1.000000e+000  0.000000e+000  0.000000e+000
    outer loop
      vertex -2.725000e+001  5.000000e+000  4.000000e+000
      vertex -2.725000e+001  3.826834e-001  5.076120e+000
      vertex -2.725000e+001  5.555702e-001  5.168530e+000
    endloop
  endfacet
  facet normal -1.000000e+000  0.000000e+000  0.000000e+000
    outer loop
      vertex -2.725000e+001  5.000000e+000  4.000000e+000
      vertex -2.725000e+001  5.555702e-001  5.168530e+000
      vertex -2.725000e+001  7.071068e-001  5.292893e+000
    endloop
  endfacet
  facet normal -9.999999e-001  0.000000e+000  0.000000e+000
    outer loop
      vertex -2.725000e+001  5.000000e+000  4.000000e+000
      vertex -2.725000e+001  7.071068e-001  5.292893e+000
      vertex -2.725000e+001  8.314696e-001  5.444430e+000
    endloop
  endfacet
  facet normal -1.000000e+000  0.000000e+000  0.000000e+000
    outer loop
      vertex -2.725000e+001  5.000000e+000  4.000000e+000
      vertex -2.725000e+001  8.314696e-001  5.444430e+000
      vertex -2.725000e+001  9.238795e-001  5.617317e+000
    endloop
  endfacet
  facet normal -1.000000e+000  0.000000e+000  0.000000e+000
    outer loop
      vertex -2.725000e+001  5.000000e+000  4.000000e+000
      vertex -2.725000e+001  9.238795e-001  5.617317e+000
      vertex -2.725000e+001  9.807853e-001  5.804910e+000
    endloop
  endfacet
  facet normal -1.000000e+000  0.000000e+000  0.000000e+000
    outer loop
      vertex -2.725000e+001  5.000000e+000  4.000000e+000
      vertex -2.725000e+001  9.807853e-001  5.804910e+000
      vertex -2.725000e+001  1.000000e+000  6.000000e+000
    endloop
  endfacet
  facet normal -1.000000e+000  0.000000e+000  0.000000e+000
    outer loop
      vertex -2.725000e+001  5.000000e+000  4.000000e+000
      vertex -2.725000e+001  1.000000e+000  6.000000e+000
      vertex -2.725000e+001  9.807853e-001  6.195090e+000
    endloop
  endfacet
  facet normal -1.000000e+000  0.000000e+000  0.000000e+000
    outer loop
      vertex -2.725000e+001  5.000000e+000  4.000000e+000
      vertex -2.725000e+001  9.807853e-001  6.195090e+000
      vertex -2.725000e+001  9.238795e-001  6.382683e+000
    endloop
  endfacet
  facet normal -1.000000e+000  0.000000e+000  0.000000e+000
    outer loop
      vertex -2.725000e+001  5.000000e+000  4.000000e+000
      vertex -2.725000e+001  9.238795e-001  6.382683e+000
      vertex -2.725000e+001  8.314696e-001  6.555570e+000
    endloop
  endfacet
  facet normal -1.000000e+000  0.000000e+000  0.000000e+000
    outer loop
      vertex -2.725000e+001  5.000000e+000  4.000000e+000
      vertex -2.725000e+001  8.314696e-001  6.555570e+000
      vertex -2.725000e+001  7.071068e-001  6.707107e+000
    endloop
  endfacet
  facet normal -1.000000e+000  0.000000e+000  0.000000e+000
    outer loop
      vertex -2.725000e+001  5.000000e+000  4.000000e+000
      vertex -2.725000e+001  7.071068e-001  6.707107e+000
      vertex -2.725000e+001  5.555702e-001  6.831470e+000
    endloop
  endfacet
  facet normal -1.000000e+000  0.000000e+000  0.000000e+000
    outer loop
      vertex -2.725000e+001  5.000000e+000  1.100000e+001
      vertex -2.725000e+001  5.000000e+000  4.000000e+000
      vertex -2.725000e+001  5.555702e-001  6.831470e+000
    endloop
  endfacet
  facet normal -1.000000e+000  0.000000e+000  0.000000e+000
    outer loop
      vertex -2.725000e+001  5.000000e+000  1.100000e+001
      vertex -2.725000e+001  5.555702e-001  6.831470e+000
      vertex -2.725000e+001  3.826834e-001  6.923880e+000
    endloop
  endfacet
  facet normal -1.000000e+000  0.000000e+000  0.000000e+000
    outer loop
      vertex -2.725000e+001  5.000000e+000  1.100000e+001
      vertex -2.725000e+001  3.826834e-001  6.923880e+000
      vertex -2.725000e+001  1.950903e-001  6.980785e+000
    endloop
  endfacet
  facet normal -1.000000e+000  0.000000e+000  0.000000e+000
    outer loop
      vertex -2.725000e+001  5.000000e+000  1.100000e+001
      vertex -2.725000e+001  1.950903e-001  6.980785e+000
      vertex -2.725000e+001  3.491481e-015  7.000000e+000
    endloop
  endfacet
  facet normal  1.000000e+000  -0.000000e+000  0.000000e+000
    outer loop
      vertex  2.725000e+001  5.000000e+000  1.100000e+001
      vertex  2.725000e+001 -5.000000e+000  1.100000e+001
      vertex  2.725000e+001  5.053215e-016  7.000000e+000
    endloop
  endfacet
  facet normal  1.000000e+000  -0.000000e+000  0.000000e+000
    outer loop
      vertex  2.725000e+001  5.000000e+000  1.100000e+001
      vertex  2.725000e+001  5.053215e-016  7.000000e+000
      vertex  2.725000e+001  1.950903e-001  6.980785e+000
    endloop
  endfacet
  facet normal  1.000000e+000  -0.000000e+000  0.000000e+000
    outer loop
      vertex  2.725000e+001  5.000000e+000  1.100000e+001
      vertex  2.725000e+001  1.950903e-001  6.980785e+000
      vertex  2.725000e+001  3.826834e-001  6.923880e+000
    endloop
  endfacet
  facet normal  1.000000e+000  -0.000000e+000  0.000000e+000
    outer loop
      vertex  2.725000e+001  5.000000e+000  1.100000e+001
      vertex  2.725000e+001  3.826834e-001  6.923880e+000
      vertex  2.725000e+001  5.555702e-001  6.831470e+000
    endloop
  endfacet
  facet normal  1.000000e+000  -0.000000e+000  0.000000e+000
    outer loop
      vertex  2.725000e+001  5.000000e+000  1.100000e+001
      vertex  2.725000e+001  5.555702e-001  6.831470e+000
      vertex  2.725000e+001  5.000000e+000  4.000000e+000
    endloop
  endfacet
  facet normal  1.000000e+000  0.000000e+000  0.000000e+000
    outer loop
      vertex  2.725000e+001  5.000000e+000  4.000000e+000
      vertex  2.725000e+001  5.555702e-001  6.831470e+000
      vertex  2.725000e+001  7.071068e-001  6.707107e+000
    endloop
  endfacet
  facet normal  1.000000e+000  0.000000e+000  0.000000e+000
    outer loop
      vertex  2.725000e+001  5.000000e+000  4.000000e+000
      vertex  2.725000e+001  7.071068e-001  6.707107e+000
      vertex  2.725000e+001  8.314696e-001  6.555570e+000
    endloop
  endfacet
  facet normal  1.000000e+000  0.000000e+000  0.000000e+000
    outer loop
      vertex  2.725000e+001  5.000000e+000  4.000000e+000
      vertex  2.725000e+001  8.314696e-001  6.555570e+000
      vertex  2.725000e+001  9.238795e-001  6.382683e+000
    endloop
  endfacet
  facet normal  1.000000e+000  0.000000e+000  0.000000e+000
    outer loop
      vertex  2.725000e+001  5.000000e+000  4.000000e+000
      vertex  2.725000e+001  9.238795e-001  6.382683e+000
      vertex  2.725000e+001  9.807853e-001  6.195090e+000
    endloop
  endfacet
  facet normal  1.000000e+000  0.000000e+000  0.000000e+000
    outer loop
      vertex  2.725000e+001  5.000000e+000  4.000000e+000
      vertex  2.725000e+001  9.807853e-001  6.195090e+000
      vertex  2.725000e+001  1.000000e+000  6.000000e+000
    endloop
  endfacet
  facet normal  1.000000e+000  0.000000e+000  0.000000e+000
    outer loop
      vertex  2.725000e+001  5.000000e+000  4.000000e+000
      vertex  2.725000e+001  1.000000e+000  6.000000e+000
      vertex  2.725000e+001  9.807853e-001  5.804910e+000
    endloop
  endfacet
  facet normal  9.999999e-001  0.000000e+000  0.000000e+000
    outer loop
      vertex  2.725000e+001  5.000000e+000  4.000000e+000
      vertex  2.725000e+001  9.807853e-001  5.804910e+000
      vertex  2.725000e+001  9.238795e-001  5.617317e+000
    endloop
  endfacet
  facet normal  9.999999e-001  0.000000e+000  0.000000e+000
    outer loop
      vertex  2.725000e+001  5.000000e+000  4.000000e+000
      vertex  2.725000e+001  9.238795e-001  5.617317e+000
      vertex  2.725000e+001  8.314696e-001  5.444430e+000
    endloop
  endfacet
  facet normal  9.999999e-001  0.000000e+000  0.000000e+000
    outer loop
      vertex  2.725000e+001  5.000000e+000  4.000000e+000
      vertex  2.725000e+001  8.314696e-001  5.444430e+000
      vertex  2.725000e+001  7.071068e-001  5.292893e+000
    endloop
  endfacet
  facet normal  1.000000e+000  0.000000e+000  0.000000e+000
    outer loop
      vertex  2.725000e+001  5.000000e+000  4.000000e+000
      vertex  2.725000e+001  7.071068e-001  5.292893e+000
      vertex  2.725000e+001  5.555702e-001  5.168530e+000
    endloop
  endfacet
  facet normal  1.000000e+000  0.000000e+000  0.000000e+000
    outer loop
      vertex  2.725000e+001  5.000000e+000  4.000000e+000
      vertex  2.725000e+001  5.555702e-001  5.168530e+000
      vertex  2.725000e+001  3.826834e-001  5.076120e+000
    endloop
  endfacet
  facet normal  1.000000e+000  0.000000e+000  0.000000e+000
    outer loop
      vertex  2.725000e+001  5.000000e+000  4.000000e+000
      vertex  2.725000e+001  3.826834e-001  5.076120e+000
      vertex  2.725000e+001  1.950903e-001  5.019215e+000
    endloop
  endfacet
  facet normal  1.000000e+000  0.000000e+000  0.000000e+000
    outer loop
      vertex  2.725000e+001  5.000000e+000  4.000000e+000
      vertex  2.725000e+001  1.950903e-001  5.019215e+000
      vertex  2.725000e+001 -1.960054e-015  5.000000e+000
    endloop
  endfacet
  facet normal  1.000000e+000  0.000000e+000  0.000000e+000
    outer loop
      vertex  2.725000e+001  5.000000e+000  4.000000e+000
      vertex  2.725000e+001 -1.960054e-015  5.000000e+000
      vertex  2.725000e+001 -4.000000e+000  4.000000e+000
    endloop
  endfacet
  facet normal  1.000000e+000  0.000000e+000  0.000000e+000
    outer loop
      vertex  2.725000e+001 -4.000000e+000  4.000000e+000
      vertex  2.725000e+001 -1.960054e-015  5.000000e+000
      vertex  2.725000e+001 -1.950903e-001  5.019215e+000
    endloop
  endfacet
  facet normal  1.000000e+000  0.000000e+000  0.000000e+000
    outer loop
      vertex  2.725000e+001 -4.000000e+000  4.000000e+000
      vertex  2.725000e+001 -1.950903e-001  5.019215e+000
      vertex  2.725000e+001 -3.826834e-001  5.076120e+000
    endloop
  endfacet
  facet normal  1.000000e+000  0.000000e+000  0.000000e+000
    outer loop
      vertex  2.725000e+001 -4.000000e+000  4.000000e+000
      vertex  2.725000e+001 -3.826834e-001  5.076120e+000
      vertex  2.725000e+001 -5.555702e-001  5.168530e+000
    endloop
  endfacet
  facet normal  1.000000e+000  0.000000e+000  0.000000e+000
    outer loop
      vertex  2.725000e+001 -4.000000e+000  4.000000e+000
      vertex  2.725000e+001 -5.555702e-001  5.168530e+000
      vertex  2.725000e+001 -7.071068e-001  5.292893e+000
    endloop
  endfacet
  facet normal  1.000000e+000  0.000000e+000  0.000000e+000
    outer loop
      vertex  2.725000e+001 -4.000000e+000  4.000000e+000
      vertex  2.725000e+001 -7.071068e-001  5.292893e+000
      vertex  2.725000e+001 -8.314696e-001  5.444430e+000
    endloop
  endfacet
  facet normal  1.000000e+000  0.000000e+000  0.000000e+000
    outer loop
      vertex  2.725000e+001 -4.000000e+000  4.000000e+000
      vertex  2.725000e+001 -8.314696e-001  5.444430e+000
      vertex  2.725000e+001 -9.238795e-001  5.617317e+000
    endloop
  endfacet
  facet normal  1.000000e+000  0.000000e+000  0.000000e+000
    outer loop
      vertex  2.725000e+001 -4.000000e+000  4.000000e+000
      vertex  2.725000e+001 -9.238795e-001  5.617317e+000
      vertex  2.725000e+001 -9.807853e-001  5.804910e+000
    endloop
  endfacet
  facet normal  1.000000e+000  0.000000e+000  0.000000e+000
    outer loop
      vertex  2.725000e+001 -4.000000e+000  4.000000e+000
      vertex  2.725000e+001 -9.807853e-001  5.804910e+000
      vertex  2.725000e+001 -1.000000e+000  6.000000e+000
    endloop
  endfacet
  facet normal  1.000000e+000  0.000000e+000  -0.000000e+000
    outer loop
      vertex  2.725000e+001 -4.000000e+000  4.000000e+000
      vertex  2.725000e+001 -1.000000e+000  6.000000e+000
      vertex  2.725000e+001 -9.807853e-001  6.195090e+000
    endloop
  endfacet
  facet normal  1.000000e+000  0.000000e+000  -0.000000e+000
    outer loop
      vertex  2.725000e+001 -4.000000e+000  4.000000e+000
      vertex  2.725000e+001 -9.807853e-001  6.195090e+000
      vertex  2.725000e+001 -9.238795e-001  6.382683e+000
    endloop
  endfacet
  facet normal  1.000000e+000  0.000000e+000  -0.000000e+000
    outer loop
      vertex  2.725000e+001 -4.000000e+000  4.000000e+000
      vertex  2.725000e+001 -9.238795e-001  6.382683e+000
      vertex  2.725000e+001 -8.314696e-001  6.555570e+000
    endloop
  endfacet
  facet normal  1.000000e+000  0.000000e+000  -0.000000e+000
    outer loop
      vertex  2.725000e+001 -4.000000e+000  4.000000e+000
      vertex  2.725000e+001 -8.314696e-001  6.555570e+000
      vertex  2.725000e+001 -7.071068e-001  6.707107e+000
    endloop
  endfacet
  facet normal  1.000000e+000  0.000000e+000  0.000000e+000
    outer loop
      vertex  2.725000e+001 -5.000000e+000  1.100000e+001
      vertex  2.725000e+001 -5.000000e+000  0.000000e+000
      vertex  2.725000e+001 -4.000000e+000  0.000000e+000
    endloop
  endfacet
  facet normal  1.000000e+000  0.000000e+000  -0.000000e+000
    outer loop
      vertex  2.725000e+001 -5.000000e+000  1.100000e+001
      vertex  2.725000e+001 -4.000000e+000  0.000000e+000
      vertex  2.725000e+001 -4.000000e+000  4.000000e+000
    endloop
  endfacet
  facet normal  1.000000e+000  0.000000e+000  -0.000000e+000
    outer loop
      vertex  2.725000e+001 -5.000000e+000  1.100000e+001
      vertex  2.725000e+001 -4.000000e+000  4.000000e+000
      vertex  2.725000e+001 -7.071068e-001  6.707107e+000
    endloop
  endfacet
  facet normal  1.000000e+000  0.000000e+000  -0.000000e+000
    outer loop
      vertex  2.725000e+001 -5.000000e+000  1.100000e+001
      vertex  2.725000e+001 -7.071068e-001  6.707107e+000
      vertex  2.725000e+001 -5.555702e-001  6.831470e+000
    endloop
  endfacet
  facet normal  1.000000e+000  0.000000e+000  -0.000000e+000
    outer loop
      vertex  2.725000e+001 -5.000000e+000  1.100000e+001
      vertex  2.725000e+001 -5.555702e-001  6.831470e+000
      vertex  2.725000e+001 -3.826834e-001  6.923880e+000
    endloop
  endfacet
  facet normal  1.000000e+000  0.000000e+000  -0.000000e+000
    outer loop
      vertex  2.725000e+001 -5.000000e+000  1.100000e+001
      vertex  2.725000e+001 -3.826834e-001  6.923880e+000
      vertex  2.725000e+001 -1.950903e-001  6.980785e+000
    endloop
  endfacet
  facet normal  1.000000e+000  0.000000e+000  -0.000000e+000
    outer loop
      vertex  2.725000e+001 -5.000000e+000  1.100000e+001
      vertex  2.725000e+001 -1.950903e-001  6.980785e+000
      vertex  2.725000e+001  5.053215e-016  7.000000e+000
    endloop
  endfacet
  facet normal  0.000000e+000  0.000000e+000 -1.000000e+000
    outer loop
      vertex -1.935000e+001  5.000000e+000  0.000000e+000
      vertex -1.935000e+001 -5.000000e+000  0.000000e+000
      vertex -2.035000e+001  5.000000e+000  0.000000e+000
    endloop
  endfacet
  facet normal  0.000000e+000  0.000000e+000 -1.000000e+000
    outer loop
      vertex -2.035000e+001  5.000000e+000  0.000000e+000
      vertex -1.935000e+001 -5.000000e+000  0.000000e+000
      vertex -2.035000e+001 -4.000000e+000  0.000000e+000
    endloop
  endfacet
  facet normal  0.000000e+000  0.000000e+000 -9.999999e-001
    outer loop
      vertex -1.935000e+001 -5.000000e+000  0.000000e+000
      vertex -2.725000e+001 -5.000000e+000  0.000000e+000
      vertex -2.035000e+001 -4.000000e+000  0.000000e+000
    endloop
  endfacet
  facet normal  -0.000000e+000  0.000000e+000 -1.000000e+000
    outer loop
      vertex -2.035000e+001 -4.000000e+000  0.000000e+000
      vertex -2.725000e+001 -5.000000e+000  0.000000e+000
      vertex -2.725000e+001 -4.000000e+000  0.000000e+000
    endloop
  endfacet
  facet normal  0.000000e+000  0.000000e+000 -1.000000e+000
    outer loop
      vertex  2.085000e+001  5.000000e+000  0.000000e+000
      vertex  2.085000e+001 -4.000000e+000  0.000000e+000
      vertex  1.985000e+001  5.000000e+000  0.000000e+000
    endloop
  endfacet
  facet normal  0.000000e+000  0.000000e+000 -1.000000e+000
    outer loop
      vertex  1.985000e+001  5.000000e+000  0.000000e+000
      vertex  2.085000e+001 -4.000000e+000  0.000000e+000
      vertex  1.985000e+001 -5.000000e+000  0.000000e+000
    endloop
  endfacet
  facet normal  -0.000000e+000  0.000000e+000 -1.000000e+000
    outer loop
      vertex  2.085000e+001 -4.000000e+000  0.000000e+000
      vertex  2.725000e+001 -4.000000e+000  0.000000e+000
      vertex  1.985000e+001 -5.000000e+000  0.000000e+000
    endloop
  endfacet
  facet normal  0.000000e+000  0.000000e+000 -1.000000e+000
    outer loop
      vertex  1.985000e+001 -5.000000e+000  0.000000e+000
      vertex  2.725000e+001 -4.000000e+000  0.000000e+000
      vertex  2.725000e+001 -5.000000e+000  0.000000e+000
    endloop
  endfacet
  facet normal  0.000000e+000  1.000000e+000  0.000000e+000
    outer loop
      vertex -2.725000e+001  5.000000e+000  1.100000e+001
      vertex  2.725000e+001  5.000000e+000  1.100000e+001
      vertex  1.985000e+001  5.000000e+000  8.700000e+000
    endloop
  endfacet
  facet normal  0.000000e+000  1.000000e+000  0.000000e+000
    outer loop
      vertex -2.725000e+001  5.000000e+000  1.100000e+001
      vertex  1.985000e+001  5.000000e+000  8.700000e+000
      vertex -1.935000e+001  5.000000e+000  8.700000e+000
    endloop
  endfacet
  facet normal  0.000000e+000  1.000000e+000  0.000000e+000
    outer loop
      vertex -2.725000e+001  5.000000e+000  1.100000e+001
      vertex -1.935000e+001  5.000000e+000  8.700000e+000
      vertex -2.035000e+001  5.000000e+000  4.000000e+000
    endloop
  endfacet
  facet normal  0.000000e+000  1.000000e+000  0.000000e+000
    outer loop
      vertex -2.725000e+001  5.000000e+000  1.100000e+001
      vertex -2.035000e+001  5.000000e+000  4.000000e+000
      vertex -2.725000e+001  5.000000e+000  4.000000e+000
    endloop
  endfacet
  facet normal  0.000000e+000  1.000000e+000  0.000000e+000
    outer loop
      vertex  1.985000e+001  5.000000e+000  8.700000e+000
      vertex  2.725000e+001  5.000000e+000  1.100000e+001
      vertex  2.725000e+001  5.000000e+000  4.000000e+000
    endloop
  endfacet
  facet normal  0.000000e+000  1.000000e+000  0.000000e+000
    outer loop
      vertex  1.985000e+001  5.000000e+000  8.700000e+000
      vertex  2.725000e+001  5.000000e+000  4.000000e+000
      vertex  2.085000e+001  5.000000e+000  4.000000e+000
    endloop
  endfacet
  facet normal  0.000000e+000  1.000000e+000  0.000000e+000
    outer loop
      vertex  1.985000e+001  5.000000e+000  8.700000e+000
      vertex  2.085000e+001  5.000000e+000  4.000000e+000
      vertex  2.085000e+001  5.000000e+000  0.000000e+000
    endloop
  endfacet
  facet normal  0.000000e+000  1.000000e+000  0.000000e+000
    outer loop
      vertex  1.985000e+001  5.000000e+000  8.700000e+000
      vertex  2.085000e+001  5.000000e+000  0.000000e+000
      vertex  1.985000e+001  5.000000e+000  0.000000e+000
    endloop
  endfacet
  facet normal  0.000000e+000  1.000000e+000  0.000000e+000
    outer loop
      vertex -2.035000e+001  5.000000e+000  4.000000e+000
      vertex -1.935000e+001  5.000000e+000  8.700000e+000
      vertex -2.035000e+001  5.000000e+000  0.000000e+000
    endloop
  endfacet
  facet normal  0.000000e+000  1.000000e+000  0.000000e+000
    outer loop
      vertex -2.035000e+001  5.000000e+000  0.000000e+000
      vertex -1.935000e+001  5.000000e+000  8.700000e+000
      vertex -1.935000e+001  5.000000e+000  0.000000e+000
    endloop
  endfacet
  facet normal -1.000000e+000  0.000000e+000  0.000000e+000
    outer loop
      vertex -2.035000e+001  5.000000e+000  4.000000e+000
      vertex -2.035000e+001  5.000000e+000  0.000000e+000
      vertex -2.035000e+001 -4.000000e+000  4.000000e+000
    endloop
  endfacet
  facet normal -1.000000e+000  0.000000e+000  0.000000e+000
    outer loop
      vertex -2.035000e+001 -4.000000e+000  4.000000e+000
      vertex -2.035000e+001  5.000000e+000  0.000000e+000
      vertex -2.035000e+001 -4.000000e+000  0.000000e+000
    endloop
  endfacet
  facet normal  0.000000e+000  1.000000e+000  0.000000e+000
    outer loop
      vertex -2.725000e+001 -4.000000e+000  4.000000e+000
      vertex -2.035000e+001 -4.000000e+000  4.000000e+000
      vertex -2.725000e+001 -4.000000e+000  0.000000e+000
    endloop
  endfacet
  facet normal  0.000000e+000  1.000000e+000  0.000000e+000
    outer loop
      vertex -2.725000e+001 -4.000000e+000  0.000000e+000
      vertex -2.035000e+001 -4.000000e+000  4.000000e+000
      vertex -2.035000e+001 -4.000000e+000  0.000000e+000
    endloop
  endfacet
  facet normal  -0.000000e+000  0.000000e+000 -9.999999e-001
    outer loop
      vertex -2.725000e+001  5.000000e+000  4.000000e+000
      vertex -2.035000e+001  5.000000e+000  4.000000e+000
      vertex -2.725000e+001 -4.000000e+000  4.000000e+000
    endloop
  endfacet
  facet normal  0.000000e+000  0.000000e+000 -9.999999e-001
    outer loop
      vertex -2.725000e+001 -4.000000e+000  4.000000e+000
      vertex -2.035000e+001  5.000000e+000  4.000000e+000
      vertex -2.035000e+001 -4.000000e+000  4.000000e+000
    endloop
  endfacet
  facet normal  1.000000e+000  0.000000e+000  0.000000e+000
    outer loop
      vertex  2.085000e+001 -4.000000e+000  4.000000e+000
      vertex  2.085000e+001 -4.000000e+000  0.000000e+000
      vertex  2.085000e+001  5.000000e+000  4.000000e+000
    endloop
  endfacet
  facet normal  1.000000e+000  0.000000e+000  0.000000e+000
    outer loop
      vertex  2.085000e+001  5.000000e+000  4.000000e+000
      vertex  2.085000e+001 -4.000000e+000  0.000000e+000
      vertex  2.085000e+001  5.000000e+000  0.000000e+000
    endloop
  endfacet
  facet normal  0.000000e+000  1.000000e+000  0.000000e+000
    outer loop
      vertex  2.085000e+001 -4.000000e+000  4.000000e+000
      vertex  2.725000e+001 -4.000000e+000  4.000000e+000
      vertex  2.085000e+001 -4.000000e+000  0.000000e+000
    endloop
  endfacet
  facet normal  0.000000e+000  1.000000e+000  0.000000e+000
    outer loop
      vertex  2.085000e+001 -4.000000e+000  0.000000e+000
      vertex  2.725000e+001 -4.000000e+000  4.000000e+000
      vertex  2.725000e+001 -4.000000e+000  0.000000e+000
    endloop
  endfacet
  facet normal  -0.000000e+000  0.000000e+000 -1.000000e+000
    outer loop
      vertex  2.085000e+001  5.000000e+000  4.000000e+000
      vertex  2.725000e+001  5.000000e+000  4.000000e+000
      vertex  2.085000e+001 -4.000000e+000  4.000000e+000
    endloop
  endfacet
  facet normal  0.000000e+000  0.000000e+000 -1.000000e+000
    outer loop
      vertex  2.085000e+001 -4.000000e+000  4.000000e+000
      vertex  2.725000e+001  5.000000e+000  4.000000e+000
      vertex  2.725000e+001 -4.000000e+000  4.000000e+000
    endloop
  endfacet
  facet normal  0.000000e+000 -9.999999e-001  0.000000e+000
    outer loop
      vertex  2.725000e+001 -5.000000e+000  1.100000e+001
      vertex  1.985000e+001 -5.000000e+000  0.000000e+000
      vertex  2.725000e+001 -5.000000e+000  0.000000e+000
    endloop
  endfacet
  facet normal  0.000000e+000 -1.000000e+000  0.000000e+000
    outer loop
      vertex  1.985000e+001 -5.000000e+000  0.000000e+000
      vertex  2.725000e+001 -5.000000e+000  1.100000e+001
      vertex  1.985000e+001 -5.000000e+000  8.700000e+000
    endloop
  endfacet
  facet normal  0.000000e+000 -1.000000e+000  0.000000e+000
    outer loop
      vertex  1.985000e+001 -5.000000e+000  8.700000e+000
      vertex  2.725000e+001 -5.000000e+000  1.100000e+001
      vertex -2.725000e+001 -5.000000e+000  1.100000e+001
    endloop
  endfacet
  facet normal  0.000000e+000 -1.000000e+000  0.000000e+000
    outer loop
      vertex  1.985000e+001 -5.000000e+000  8.700000e+000
      vertex -2.725000e+001 -5.000000e+000  1.100000e+001
      vertex -1.935000e+001 -5.000000e+000  8.700000e+000
    endloop
  endfacet
  facet normal  -0.000000e+000 -1.000000e+000  0.000000e+000
    outer loop
      vertex -1.935000e+001 -5.000000e+000  8.700000e+000
      vertex -2.725000e+001 -5.000000e+000  1.100000e+001
      vertex -2.725000e+001 -5.000000e+000  0.000000e+000
    endloop
  endfacet
  facet normal  0.000000e+000 -1.000000e+000  0.000000e+000
    outer loop
      vertex -1.935000e+001 -5.000000e+000  8.700000e+000
      vertex -2.725000e+001 -5.000000e+000  0.000000e+000
      vertex -1.935000e+001 -5.000000e+000  0.000000e+000
    endloop
  endfacet
  facet normal  -0.000000e+000  0.000000e+000 -1.000000e+000
    outer loop
      vertex -1.935000e+001  5.000000e+000  8.700000e+000
      vertex  1.985000e+001  5.000000e+000  8.700000e+000
      vertex -1.935000e+001 -5.000000e+000  8.700000e+000
    endloop
  endfacet
  facet normal  0.000000e+000  0.000000e+000 -1.000000e+000
    outer loop
      vertex -1.935000e+001 -5.000000e+000  8.700000e+000
      vertex  1.985000e+001  5.000000e+000  8.700000e+000
      vertex  1.985000e+001 -5.000000e+000  8.700000e+000
    endloop
  endfacet
  facet normal -1.000000e+000  0.000000e+000  0.000000e+000
    outer loop
      vertex  1.985000e+001 -5.000000e+000  0.000000e+000
      vertex  1.985000e+001 -5.000000e+000  8.700000e+000
      vertex  1.985000e+001  5.000000e+000  0.000000e+000
    endloop
  endfacet
  facet normal -1.000000e+000  0.000000e+000  0.000000e+000
    outer loop
      vertex  1.985000e+001  5.000000e+000  0.000000e+000
      vertex  1.985000e+001 -5.000000e+000  8.700000e+000
      vertex  1.985000e+001  5.000000e+000  8.700000e+000
    endloop
  endfacet
  facet normal  1.000000e+000  0.000000e+000  0.000000e+000
    outer loop
      vertex -1.935000e+001 -5.000000e+000  8.700000e+000
      vertex -1.935000e+001 -5.000000e+000  0.000000e+000
      vertex -1.935000e+001  5.000000e+000  8.700000e+000
    endloop
  endfacet
  facet normal  1.000000e+000  0.000000e+000  0.000000e+000
    outer loop
      vertex -1.935000e+001  5.000000e+000  8.700000e+000
      vertex -1.935000e+001 -5.000000e+000  0.000000e+000
      vertex -1.935000e+001  5.000000e+000  0.000000e+000
    endloop
  endfacet
  facet normal  0.000000e+000 -9.801668e-002  9.951847e-001
    outer loop
      vertex  2.025000e+001 -1.836970e-016  5.000000e+000
      vertex  2.725000e+001  1.950903e-001  5.019215e+000
      vertex  2.025000e+001  1.950903e-001  5.019215e+000
    endloop
  endfacet
  facet normal  0.000000e+000 -2.902847e-001  9.569403e-001
    outer loop
      vertex  2.025000e+001  1.950903e-001  5.019215e+000
      vertex  2.725000e+001  1.950903e-001  5.019215e+000
      vertex  2.725000e+001  3.826834e-001  5.076120e+000
    endloop
  endfacet
  facet normal  0.000000e+000 -2.902847e-001  9.569403e-001
    outer loop
      vertex  2.025000e+001  1.950903e-001  5.019215e+000
      vertex  2.725000e+001  3.826834e-001  5.076120e+000
      vertex  2.025000e+001  3.826834e-001  5.076120e+000
    endloop
  endfacet
  facet normal  0.000000e+000 -4.713974e-001  8.819209e-001
    outer loop
      vertex  2.025000e+001  3.826834e-001  5.076120e+000
      vertex  2.725000e+001  3.826834e-001  5.076120e+000
      vertex  2.725000e+001  5.555702e-001  5.168530e+000
    endloop
  endfacet
  facet normal  0.000000e+000 -4.713974e-001  8.819209e-001
    outer loop
      vertex  2.025000e+001  3.826834e-001  5.076120e+000
      vertex  2.725000e+001  5.555702e-001  5.168530e+000
      vertex  2.025000e+001  5.555702e-001  5.168530e+000
    endloop
  endfacet
  facet normal  0.000000e+000 -6.343936e-001  7.730101e-001
    outer loop
      vertex  2.025000e+001  5.555702e-001  5.168530e+000
      vertex  2.725000e+001  5.555702e-001  5.168530e+000
      vertex  2.725000e+001  7.071068e-001  5.292893e+000
    endloop
  endfacet
  facet normal  0.000000e+000 -6.343936e-001  7.730101e-001
    outer loop
      vertex  2.025000e+001  5.555702e-001  5.168530e+000
      vertex  2.725000e+001  7.071068e-001  5.292893e+000
      vertex  2.025000e+001  7.071068e-001  5.292893e+000
    endloop
  endfacet
  facet normal  0.000000e+000 -7.730103e-001  6.343935e-001
    outer loop
      vertex  2.025000e+001  7.071068e-001  5.292893e+000
      vertex  2.725000e+001  7.071068e-001  5.292893e+000
      vertex  2.725000e+001  8.314696e-001  5.444430e+000
    endloop
  endfacet
  facet normal  0.000000e+000 -7.730103e-001  6.343935e-001
    outer loop
      vertex  2.025000e+001  7.071068e-001  5.292893e+000
      vertex  2.725000e+001  8.314696e-001  5.444430e+000
      vertex  2.025000e+001  8.314696e-001  5.444430e+000
    endloop
  endfacet
  facet normal  0.000000e+000 -8.819214e-001  4.713966e-001
    outer loop
      vertex  2.025000e+001  8.314696e-001  5.444430e+000
      vertex  2.725000e+001  8.314696e-001  5.444430e+000
      vertex  2.725000e+001  9.238795e-001  5.617317e+000
    endloop
  endfacet
  facet normal  0.000000e+000 -8.819214e-001  4.713966e-001
    outer loop
      vertex  2.025000e+001  8.314696e-001  5.444430e+000
      vertex  2.725000e+001  9.238795e-001  5.617317e+000
      vertex  2.025000e+001  9.238795e-001  5.617317e+000
    endloop
  endfacet
  facet normal  0.000000e+000 -9.569403e-001  2.902848e-001
    outer loop
      vertex  2.025000e+001  9.238795e-001  5.617317e+000
      vertex  2.725000e+001  9.238795e-001  5.617317e+000
      vertex  2.725000e+001  9.807853e-001  5.804910e+000
    endloop
  endfacet
  facet normal  0.000000e+000 -9.569403e-001  2.902848e-001
    outer loop
      vertex  2.025000e+001  9.238795e-001  5.617317e+000
      vertex  2.725000e+001  9.807853e-001  5.804910e+000
      vertex  2.025000e+001  9.807853e-001  5.804910e+000
    endloop
  endfacet
  facet normal  0.000000e+000 -9.951847e-001  9.801731e-002
    outer loop
      vertex  2.025000e+001  9.807853e-001  5.804910e+000
      vertex  2.725000e+001  9.807853e-001  5.804910e+000
      vertex  2.725000e+001  1.000000e+000  6.000000e+000
    endloop
  endfacet
  facet normal  0.000000e+000 -9.951847e-001  9.801731e-002
    outer loop
      vertex  2.025000e+001  9.807853e-001  5.804910e+000
      vertex  2.725000e+001  1.000000e+000  6.000000e+000
      vertex  2.025000e+001  1.000000e+000  6.000000e+000
    endloop
  endfacet
  facet normal -2.487323e-017 -9.801668e-002  9.951847e-001
    outer loop
      vertex  2.725000e+001  1.950903e-001  5.019215e+000
      vertex  2.025000e+001 -1.836970e-016  5.000000e+000
      vertex  2.725000e+001 -1.960054e-015  5.000000e+000
    endloop
  endfacet
  facet normal  2.487323e-017  9.801668e-002  9.951847e-001
    outer loop
      vertex  2.725000e+001 -1.960054e-015  5.000000e+000
      vertex  2.025000e+001 -1.836970e-016  5.000000e+000
      vertex  2.025000e+001 -1.950903e-001  5.019215e+000
    endloop
  endfacet
  facet normal  -0.000000e+000  9.801668e-002  9.951847e-001
    outer loop
      vertex  2.725000e+001 -1.960054e-015  5.000000e+000
      vertex  2.025000e+001 -1.950903e-001  5.019215e+000
      vertex  2.725000e+001 -1.950903e-001  5.019215e+000
    endloop
  endfacet
  facet normal  0.000000e+000  2.902847e-001  9.569403e-001
    outer loop
      vertex  2.725000e+001 -1.950903e-001  5.019215e+000
      vertex  2.025000e+001 -1.950903e-001  5.019215e+000
      vertex  2.025000e+001 -3.826834e-001  5.076120e+000
    endloop
  endfacet
  facet normal  -0.000000e+000  2.902847e-001  9.569403e-001
    outer loop
      vertex  2.725000e+001 -1.950903e-001  5.019215e+000
      vertex  2.025000e+001 -3.826834e-001  5.076120e+000
      vertex  2.725000e+001 -3.826834e-001  5.076120e+000
    endloop
  endfacet
  facet normal  0.000000e+000  4.713974e-001  8.819209e-001
    outer loop
      vertex  2.725000e+001 -3.826834e-001  5.076120e+000
      vertex  2.025000e+001 -3.826834e-001  5.076120e+000
      vertex  2.025000e+001 -5.555702e-001  5.168530e+000
    endloop
  endfacet
  facet normal  -0.000000e+000  4.713974e-001  8.819209e-001
    outer loop
      vertex  2.725000e+001 -3.826834e-001  5.076120e+000
      vertex  2.025000e+001 -5.555702e-001  5.168530e+000
      vertex  2.725000e+001 -5.555702e-001  5.168530e+000
    endloop
  endfacet
  facet normal  0.000000e+000  6.343936e-001  7.730101e-001
    outer loop
      vertex  2.725000e+001 -5.555702e-001  5.168530e+000
      vertex  2.025000e+001 -5.555702e-001  5.168530e+000
      vertex  2.025000e+001 -7.071068e-001  5.292893e+000
    endloop
  endfacet
  facet normal  -0.000000e+000  6.343936e-001  7.730101e-001
    outer loop
      vertex  2.725000e+001 -5.555702e-001  5.168530e+000
      vertex  2.025000e+001 -7.071068e-001  5.292893e+000
      vertex  2.725000e+001 -7.071068e-001  5.292893e+000
    endloop
  endfacet
  facet normal  0.000000e+000  7.730103e-001  6.343935e-001
    outer loop
      vertex  2.725000e+001 -7.071068e-001  5.292893e+000
      vertex  2.025000e+001 -7.071068e-001  5.292893e+000
      vertex  2.025000e+001 -8.314696e-001  5.444430e+000
    endloop
  endfacet
  facet normal  -0.000000e+000  7.730103e-001  6.343935e-001
    outer loop
      vertex  2.725000e+001 -7.071068e-001  5.292893e+000
      vertex  2.025000e+001 -8.314696e-001  5.444430e+000
      vertex  2.725000e+001 -8.314696e-001  5.444430e+000
    endloop
  endfacet
  facet normal  0.000000e+000  8.819214e-001  4.713966e-001
    outer loop
      vertex  2.725000e+001 -8.314696e-001  5.444430e+000
      vertex  2.025000e+001 -8.314696e-001  5.444430e+000
      vertex  2.025000e+001 -9.238795e-001  5.617317e+000
    endloop
  endfacet
  facet normal  -0.000000e+000  8.819214e-001  4.713966e-001
    outer loop
      vertex  2.725000e+001 -8.314696e-001  5.444430e+000
      vertex  2.025000e+001 -9.238795e-001  5.617317e+000
      vertex  2.725000e+001 -9.238795e-001  5.617317e+000
    endloop
  endfacet
  facet normal  0.000000e+000  9.569403e-001  2.902848e-001
    outer loop
      vertex  2.725000e+001 -9.238795e-001  5.617317e+000
      vertex  2.025000e+001 -9.238795e-001  5.617317e+000
      vertex  2.025000e+001 -9.807853e-001  5.804910e+000
    endloop
  endfacet
  facet normal  -0.000000e+000  9.569403e-001  2.902848e-001
    outer loop
      vertex  2.725000e+001 -9.238795e-001  5.617317e+000
      vertex  2.025000e+001 -9.807853e-001  5.804910e+000
      vertex  2.725000e+001 -9.807853e-001  5.804910e+000
    endloop
  endfacet
  facet normal  0.000000e+000  9.951847e-001  9.801731e-002
    outer loop
      vertex  2.725000e+001 -9.807853e-001  5.804910e+000
      vertex  2.025000e+001 -9.807853e-001  5.804910e+000
      vertex  2.025000e+001 -1.000000e+000  6.000000e+000
    endloop
  endfacet
  facet normal  -0.000000e+000  9.951847e-001  9.801731e-002
    outer loop
      vertex  2.725000e+001 -9.807853e-001  5.804910e+000
      vertex  2.025000e+001 -1.000000e+000  6.000000e+000
      vertex  2.725000e+001 -1.000000e+000  6.000000e+000
    endloop
  endfacet
  facet normal  0.000000e+000  9.801668e-002 -9.951847e-001
    outer loop
      vertex  2.025000e+001  6.123234e-017  7.000000e+000
      vertex  2.725000e+001 -1.950903e-001  6.980785e+000
      vertex  2.025000e+001 -1.950903e-001  6.980785e+000
    endloop
  endfacet
  facet normal  0.000000e+000  2.902847e-001 -9.569403e-001
    outer loop
      vertex  2.025000e+001 -1.950903e-001  6.980785e+000
      vertex  2.725000e+001 -1.950903e-001  6.980785e+000
      vertex  2.725000e+001 -3.826834e-001  6.923880e+000
    endloop
  endfacet
  facet normal  0.000000e+000  2.902847e-001 -9.569403e-001
    outer loop
      vertex  2.025000e+001 -1.950903e-001  6.980785e+000
      vertex  2.725000e+001 -3.826834e-001  6.923880e+000
      vertex  2.025000e+001 -3.826834e-001  6.923880e+000
    endloop
  endfacet
  facet normal  0.000000e+000  4.713974e-001 -8.819209e-001
    outer loop
      vertex  2.025000e+001 -3.826834e-001  6.923880e+000
      vertex  2.725000e+001 -3.826834e-001  6.923880e+000
      vertex  2.725000e+001 -5.555702e-001  6.831470e+000
    endloop
  endfacet
  facet normal  0.000000e+000  4.713974e-001 -8.819209e-001
    outer loop
      vertex  2.025000e+001 -3.826834e-001  6.923880e+000
      vertex  2.725000e+001 -5.555702e-001  6.831470e+000
      vertex  2.025000e+001 -5.555702e-001  6.831470e+000
    endloop
  endfacet
  facet normal  0.000000e+000  6.343936e-001 -7.730101e-001
    outer loop
      vertex  2.025000e+001 -5.555702e-001  6.831470e+000
      vertex  2.725000e+001 -5.555702e-001  6.831470e+000
      vertex  2.725000e+001 -7.071068e-001  6.707107e+000
    endloop
  endfacet
  facet normal  0.000000e+000  6.343936e-001 -7.730101e-001
    outer loop
      vertex  2.025000e+001 -5.555702e-001  6.831470e+000
      vertex  2.725000e+001 -7.071068e-001  6.707107e+000
      vertex  2.025000e+001 -7.071068e-001  6.707107e+000
    endloop
  endfacet
  facet normal  0.000000e+000  7.730103e-001 -6.343935e-001
    outer loop
      vertex  2.025000e+001 -7.071068e-001  6.707107e+000
      vertex  2.725000e+001 -7.071068e-001  6.707107e+000
      vertex  2.725000e+001 -8.314696e-001  6.555570e+000
    endloop
  endfacet
  facet normal  0.000000e+000  7.730103e-001 -6.343935e-001
    outer loop
      vertex  2.025000e+001 -7.071068e-001  6.707107e+000
      vertex  2.725000e+001 -8.314696e-001  6.555570e+000
      vertex  2.025000e+001 -8.314696e-001  6.555570e+000
    endloop
  endfacet
  facet normal  0.000000e+000  8.819214e-001 -4.713966e-001
    outer loop
      vertex  2.025000e+001 -8.314696e-001  6.555570e+000
      vertex  2.725000e+001 -8.314696e-001  6.555570e+000
      vertex  2.725000e+001 -9.238795e-001  6.382683e+000
    endloop
  endfacet
  facet normal  0.000000e+000  8.819214e-001 -4.713966e-001
    outer loop
      vertex  2.025000e+001 -8.314696e-001  6.555570e+000
      vertex  2.725000e+001 -9.238795e-001  6.382683e+000
      vertex  2.025000e+001 -9.238795e-001  6.382683e+000
    endloop
  endfacet
  facet normal  0.000000e+000  9.569403e-001 -2.902848e-001
    outer loop
      vertex  2.025000e+001 -9.238795e-001  6.382683e+000
      vertex  2.725000e+001 -9.238795e-001  6.382683e+000
      vertex  2.725000e+001 -9.807853e-001  6.195090e+000
    endloop
  endfacet
  facet normal  0.000000e+000  9.569403e-001 -2.902848e-001
    outer loop
      vertex  2.025000e+001 -9.238795e-001  6.382683e+000
      vertex  2.725000e+001 -9.807853e-001  6.195090e+000
      vertex  2.025000e+001 -9.807853e-001  6.195090e+000
    endloop
  endfacet
  facet normal  0.000000e+000  9.951847e-001 -9.801731e-002
    outer loop
      vertex  2.025000e+001 -9.807853e-001  6.195090e+000
      vertex  2.725000e+001 -9.807853e-001  6.195090e+000
      vertex  2.725000e+001 -1.000000e+000  6.000000e+000
    endloop
  endfacet
  facet normal  0.000000e+000  9.951847e-001 -9.801731e-002
    outer loop
      vertex  2.025000e+001 -9.807853e-001  6.195090e+000
      vertex  2.725000e+001 -1.000000e+000  6.000000e+000
      vertex  2.025000e+001 -1.000000e+000  6.000000e+000
    endloop
  endfacet
  facet normal -6.218307e-018  9.801668e-002 -9.951847e-001
    outer loop
      vertex  2.725000e+001 -1.950903e-001  6.980785e+000
      vertex  2.025000e+001  6.123234e-017  7.000000e+000
      vertex  2.725000e+001  5.053215e-016  7.000000e+000
    endloop
  endfacet
  facet normal  6.218307e-018 -9.801668e-002 -9.951847e-001
    outer loop
      vertex  2.725000e+001  5.053215e-016  7.000000e+000
      vertex  2.025000e+001  6.123234e-017  7.000000e+000
      vertex  2.025000e+001  1.950903e-001  6.980785e+000
    endloop
  endfacet
  facet normal  0.000000e+000 -9.801668e-002 -9.951847e-001
    outer loop
      vertex  2.725000e+001  5.053215e-016  7.000000e+000
      vertex  2.025000e+001  1.950903e-001  6.980785e+000
      vertex  2.725000e+001  1.950903e-001  6.980785e+000
    endloop
  endfacet
  facet normal  -0.000000e+000 -2.902847e-001 -9.569403e-001
    outer loop
      vertex  2.725000e+001  1.950903e-001  6.980785e+000
      vertex  2.025000e+001  1.950903e-001  6.980785e+000
      vertex  2.025000e+001  3.826834e-001  6.923880e+000
    endloop
  endfacet
  facet normal  0.000000e+000 -2.902847e-001 -9.569403e-001
    outer loop
      vertex  2.725000e+001  1.950903e-001  6.980785e+000
      vertex  2.025000e+001  3.826834e-001  6.923880e+000
      vertex  2.725000e+001  3.826834e-001  6.923880e+000
    endloop
  endfacet
  facet normal  -0.000000e+000 -4.713974e-001 -8.819209e-001
    outer loop
      vertex  2.725000e+001  3.826834e-001  6.923880e+000
      vertex  2.025000e+001  3.826834e-001  6.923880e+000
      vertex  2.025000e+001  5.555702e-001  6.831470e+000
    endloop
  endfacet
  facet normal  0.000000e+000 -4.713974e-001 -8.819209e-001
    outer loop
      vertex  2.725000e+001  3.826834e-001  6.923880e+000
      vertex  2.025000e+001  5.555702e-001  6.831470e+000
      vertex  2.725000e+001  5.555702e-001  6.831470e+000
    endloop
  endfacet
  facet normal  -0.000000e+000 -6.343936e-001 -7.730101e-001
    outer loop
      vertex  2.725000e+001  5.555702e-001  6.831470e+000
      vertex  2.025000e+001  5.555702e-001  6.831470e+000
      vertex  2.025000e+001  7.071068e-001  6.707107e+000
    endloop
  endfacet
  facet normal  0.000000e+000 -6.343936e-001 -7.730101e-001
    outer loop
      vertex  2.725000e+001  5.555702e-001  6.831470e+000
      vertex  2.025000e+001  7.071068e-001  6.707107e+000
      vertex  2.725000e+001  7.071068e-001  6.707107e+000
    endloop
  endfacet
  facet normal  -0.000000e+000 -7.730103e-001 -6.343935e-001
    outer loop
      vertex  2.725000e+001  7.071068e-001  6.707107e+000
      vertex  2.025000e+001  7.071068e-001  6.707107e+000
      vertex  2.025000e+001  8.314696e-001  6.555570e+000
    endloop
  endfacet
  facet normal  0.000000e+000 -7.730103e-001 -6.343935e-001
    outer loop
      vertex  2.725000e+001  7.071068e-001  6.707107e+000
      vertex  2.025000e+001  8.314696e-001  6.555570e+000
      vertex  2.725000e+001  8.314696e-001  6.555570e+000
    endloop
  endfacet
  facet normal  -0.000000e+000 -8.819214e-001 -4.713966e-001
    outer loop
      vertex  2.725000e+001  8.314696e-001  6.555570e+000
      vertex  2.025000e+001  8.314696e-001  6.555570e+000
      vertex  2.025000e+001  9.238795e-001  6.382683e+000
    endloop
  endfacet
  facet normal  0.000000e+000 -8.819214e-001 -4.713966e-001
    outer loop
      vertex  2.725000e+001  8.314696e-001  6.555570e+000
      vertex  2.025000e+001  9.238795e-001  6.382683e+000
      vertex  2.725000e+001  9.238795e-001  6.382683e+000
    endloop
  endfacet
  facet normal  -0.000000e+000 -9.569403e-001 -2.902848e-001
    outer loop
      vertex  2.725000e+001  9.238795e-001  6.382683e+000
      vertex  2.025000e+001  9.238795e-001  6.382683e+000
      vertex  2.025000e+001  9.807853e-001  6.195090e+000
    endloop
  endfacet
  facet normal  0.000000e+000 -9.569403e-001 -2.902848e-001
    outer loop
      vertex  2.725000e+001  9.238795e-001  6.382683e+000
      vertex  2.025000e+001  9.807853e-001  6.195090e+000
      vertex  2.725000e+001  9.807853e-001  6.195090e+000
    endloop
  endfacet
  facet normal  -0.000000e+000 -9.951847e-001 -9.801731e-002
    outer loop
      vertex  2.725000e+001  9.807853e-001  6.195090e+000
      vertex  2.025000e+001  9.807853e-001  6.195090e+000
      vertex  2.025000e+001  1.000000e+000  6.000000e+000
    endloop
  endfacet
  facet normal  0.000000e+000 -9.951847e-001 -9.801731e-002
    outer loop
      vertex  2.725000e+001  9.807853e-001  6.195090e+000
      vertex  2.025000e+001  1.000000e+000  6.000000e+000
      vertex  2.725000e+001  1.000000e+000  6.000000e+000
    endloop
  endfacet
  facet normal  1.000000e+000  0.000000e+000  0.000000e+000
    outer loop
      vertex  2.025000e+001 -1.950903e-001  6.980785e+000
      vertex  2.025000e+001  1.950903e-001  6.980785e+000
      vertex  2.025000e+001  6.123234e-017  7.000000e+000
    endloop
  endfacet
  facet normal  1.000000e+000  -0.000000e+000  0.000000e+000
    outer loop
      vertex  2.025000e+001  1.950903e-001  6.980785e+000
      vertex  2.025000e+001 -1.950903e-001  6.980785e+000
      vertex  2.025000e+001  3.826834e-001  6.923880e+000
    endloop
  endfacet
  facet normal  1.000000e+000  0.000000e+000  0.000000e+000
    outer loop
      vertex  2.025000e+001  3.826834e-001  6.923880e+000
      vertex  2.025000e+001 -1.950903e-001  6.980785e+000
      vertex  2.025000e+001 -3.826834e-001  6.923880e+000
    endloop
  endfacet
  facet normal  1.000000e+000  -0.000000e+000  0.000000e+000
    outer loop
      vertex  2.025000e+001  3.826834e-001  6.923880e+000
      vertex  2.025000e+001 -3.826834e-001  6.923880e+000
      vertex  2.025000e+001  5.555702e-001  6.831470e+000
    endloop
  endfacet
  facet normal  1.000000e+000  0.000000e+000  0.000000e+000
    outer loop
      vertex  2.025000e+001  5.555702e-001  6.831470e+000
      vertex  2.025000e+001 -3.826834e-001  6.923880e+000
      vertex  2.025000e+001 -5.555702e-001  6.831470e+000
    endloop
  endfacet
  facet normal  1.000000e+000  -0.000000e+000  0.000000e+000
    outer loop
      vertex  2.025000e+001  5.555702e-001  6.831470e+000
      vertex  2.025000e+001 -5.555702e-001  6.831470e+000
      vertex  2.025000e+001  7.071068e-001  6.707107e+000
    endloop
  endfacet
  facet normal  1.000000e+000  0.000000e+000  0.000000e+000
    outer loop
      vertex  2.025000e+001  7.071068e-001  6.707107e+000
      vertex  2.025000e+001 -5.555702e-001  6.831470e+000
      vertex  2.025000e+001 -7.071068e-001  6.707107e+000
    endloop
  endfacet
  facet normal  1.000000e+000  -0.000000e+000  0.000000e+000
    outer loop
      vertex  2.025000e+001  7.071068e-001  6.707107e+000
      vertex  2.025000e+001 -7.071068e-001  6.707107e+000
      vertex  2.025000e+001  8.314696e-001  6.555570e+000
    endloop
  endfacet
  facet normal  1.000000e+000  0.000000e+000  0.000000e+000
    outer loop
      vertex  2.025000e+001  8.314696e-001  6.555570e+000
      vertex  2.025000e+001 -7.071068e-001  6.707107e+000
      vertex  2.025000e+001 -8.314696e-001  6.555570e+000
    endloop
  endfacet
  facet normal  1.000000e+000  -0.000000e+000  0.000000e+000
    outer loop
      vertex  2.025000e+001  8.314696e-001  6.555570e+000
      vertex  2.025000e+001 -8.314696e-001  6.555570e+000
      vertex  2.025000e+001  9.238795e-001  6.382683e+000
    endloop
  endfacet
  facet normal  1.000000e+000  0.000000e+000  0.000000e+000
    outer loop
      vertex  2.025000e+001  9.238795e-001  6.382683e+000
      vertex  2.025000e+001 -8.314696e-001  6.555570e+000
      vertex  2.025000e+001 -9.238795e-001  6.382683e+000
    endloop
  endfacet
  facet normal  1.000000e+000  -0.000000e+000  0.000000e+000
    outer loop
      vertex  2.025000e+001  9.238795e-001  6.382683e+000
      vertex  2.025000e+001 -9.238795e-001  6.382683e+000
      vertex  2.025000e+001  9.807853e-001  6.195090e+000
    endloop
  endfacet
  facet normal  1.000000e+000  0.000000e+000  0.000000e+000
    outer loop
      vertex  2.025000e+001  9.807853e-001  6.195090e+000
      vertex  2.025000e+001 -9.238795e-001  6.382683e+000
      vertex  2.025000e+001 -9.807853e-001  6.195090e+000
    endloop
  endfacet
  facet normal  9.999999e-001  -0.000000e+000  0.000000e+000
    outer loop
      vertex  2.025000e+001  9.807853e-001  6.195090e+000
      vertex  2.025000e+001 -9.807853e-001  6.195090e+000
      vertex  2.025000e+001  1.000000e+000  6.000000e+000
    endloop
  endfacet
  facet normal  1.000000e+000  0.000000e+000  0.000000e+000
    outer loop
      vertex  2.025000e+001  1.000000e+000  6.000000e+000
      vertex  2.025000e+001 -9.807853e-001  6.195090e+000
      vertex  2.025000e+001 -1.000000e+000  6.000000e+000
    endloop
  endfacet
  facet normal  1.000000e+000  -0.000000e+000  0.000000e+000
    outer loop
      vertex  2.025000e+001  1.000000e+000  6.000000e+000
      vertex  2.025000e+001 -1.000000e+000  6.000000e+000
      vertex  2.025000e+001  9.807853e-001  5.804910e+000
    endloop
  endfacet
  facet normal  9.999999e-001  0.000000e+000  0.000000e+000
    outer loop
      vertex  2.025000e+001  9.807853e-001  5.804910e+000
      vertex  2.025000e+001 -1.000000e+000  6.000000e+000
      vertex  2.025000e+001 -9.807853e-001  5.804910e+000
    endloop
  endfacet
  facet normal  1.000000e+000  -0.000000e+000  0.000000e+000
    outer loop
      vertex  2.025000e+001  9.807853e-001  5.804910e+000
      vertex  2.025000e+001 -9.807853e-001  5.804910e+000
      vertex  2.025000e+001  9.238795e-001  5.617317e+000
    endloop
  endfacet
  facet normal  1.000000e+000  0.000000e+000  0.000000e+000
    outer loop
      vertex  2.025000e+001  9.238795e-001  5.617317e+000
      vertex  2.025000e+001 -9.807853e-001  5.804910e+000
      vertex  2.025000e+001 -9.238795e-001  5.617317e+000
    endloop
  endfacet
  facet normal  1.000000e+000  -0.000000e+000  0.000000e+000
    outer loop
      vertex  2.025000e+001  9.238795e-001  5.617317e+000
      vertex  2.025000e+001 -9.238795e-001  5.617317e+000
      vertex  2.025000e+001  8.314696e-001  5.444430e+000
    endloop
  endfacet
  facet normal  1.000000e+000  0.000000e+000  0.000000e+000
    outer loop
      vertex  2.025000e+001  8.314696e-001  5.444430e+000
      vertex  2.025000e+001 -9.238795e-001  5.617317e+000
      vertex  2.025000e+001 -8.314696e-001  5.444430e+000
    endloop
  endfacet
  facet normal  1.000000e+000  -0.000000e+000  0.000000e+000
    outer loop
      vertex  2.025000e+001  8.314696e-001  5.444430e+000
      vertex  2.025000e+001 -8.314696e-001  5.444430e+000
      vertex  2.025000e+001  7.071068e-001  5.292893e+000
    endloop
  endfacet
  facet normal  1.000000e+000  0.000000e+000  0.000000e+000
    outer loop
      vertex  2.025000e+001  7.071068e-001  5.292893e+000
      vertex  2.025000e+001 -8.314696e-001  5.444430e+000
      vertex  2.025000e+001 -7.071068e-001  5.292893e+000
    endloop
  endfacet
  facet normal  1.000000e+000  -0.000000e+000  0.000000e+000
    outer loop
      vertex  2.025000e+001  7.071068e-001  5.292893e+000
      vertex  2.025000e+001 -7.071068e-001  5.292893e+000
      vertex  2.025000e+001  5.555702e-001  5.168530e+000
    endloop
  endfacet
  facet normal  1.000000e+000  0.000000e+000  0.000000e+000
    outer loop
      vertex  2.025000e+001  5.555702e-001  5.168530e+000
      vertex  2.025000e+001 -7.071068e-001  5.292893e+000
      vertex  2.025000e+001 -5.555702e-001  5.168530e+000
    endloop
  endfacet
  facet normal  1.000000e+000  -0.000000e+000  0.000000e+000
    outer loop
      vertex  2.025000e+001  5.555702e-001  5.168530e+000
      vertex  2.025000e+001 -5.555702e-001  5.168530e+000
      vertex  2.025000e+001  3.826834e-001  5.076120e+000
    endloop
  endfacet
  facet normal  1.000000e+000  0.000000e+000  0.000000e+000
    outer loop
      vertex  2.025000e+001  3.826834e-001  5.076120e+000
      vertex  2.025000e+001 -5.555702e-001  5.168530e+000
      vertex  2.025000e+001 -3.826834e-001  5.076120e+000
    endloop
  endfacet
  facet normal  1.000000e+000  -0.000000e+000  0.000000e+000
    outer loop
      vertex  2.025000e+001  3.826834e-001  5.076120e+000
      vertex  2.025000e+001 -3.826834e-001  5.076120e+000
      vertex  2.025000e+001  1.950903e-001  5.019215e+000
    endloop
  endfacet
  facet normal  1.000000e+000  0.000000e+000  0.000000e+000
    outer loop
      vertex  2.025000e+001  1.950903e-001  5.019215e+000
      vertex  2.025000e+001 -3.826834e-001  5.076120e+000
      vertex  2.025000e+001 -1.950903e-001  5.019215e+000
    endloop
  endfacet
  facet normal  1.000000e+000  -0.000000e+000  0.000000e+000
    outer loop
      vertex  2.025000e+001  1.950903e-001  5.019215e+000
      vertex  2.025000e+001 -1.950903e-001  5.019215e+000
      vertex  2.025000e+001 -1.836970e-016  5.000000e+000
    endloop
  endfacet
  facet normal  -0.000000e+000  9.801669e-002  9.951848e-001
    outer loop
      vertex -2.225000e+001  3.736411e-015  5.000000e+000
      vertex -2.725000e+001 -1.950903e-001  5.019215e+000
      vertex -2.225000e+001 -1.950903e-001  5.019215e+000
    endloop
  endfacet
  facet normal  0.000000e+000  2.902847e-001  9.569404e-001
    outer loop
      vertex -2.225000e+001 -1.950903e-001  5.019215e+000
      vertex -2.725000e+001 -1.950903e-001  5.019215e+000
      vertex -2.725000e+001 -3.826834e-001  5.076120e+000
    endloop
  endfacet
  facet normal  -0.000000e+000  2.902847e-001  9.569404e-001
    outer loop
      vertex -2.225000e+001 -1.950903e-001  5.019215e+000
      vertex -2.725000e+001 -3.826834e-001  5.076120e+000
      vertex -2.225000e+001 -3.826834e-001  5.076120e+000
    endloop
  endfacet
  facet normal  0.000000e+000  4.713974e-001  8.819209e-001
    outer loop
      vertex -2.225000e+001 -3.826834e-001  5.076120e+000
      vertex -2.725000e+001 -3.826834e-001  5.076120e+000
      vertex -2.725000e+001 -5.555702e-001  5.168530e+000
    endloop
  endfacet
  facet normal  -0.000000e+000  4.713974e-001  8.819209e-001
    outer loop
      vertex -2.225000e+001 -3.826834e-001  5.076120e+000
      vertex -2.725000e+001 -5.555702e-001  5.168530e+000
      vertex -2.225000e+001 -5.555702e-001  5.168530e+000
    endloop
  endfacet
  facet normal  0.000000e+000  6.343937e-001  7.730101e-001
    outer loop
      vertex -2.225000e+001 -5.555702e-001  5.168530e+000
      vertex -2.725000e+001 -5.555702e-001  5.168530e+000
      vertex -2.725000e+001 -7.071068e-001  5.292893e+000
    endloop
  endfacet
  facet normal  -0.000000e+000  6.343937e-001  7.730101e-001
    outer loop
      vertex -2.225000e+001 -5.555702e-001  5.168530e+000
      vertex -2.725000e+001 -7.071068e-001  5.292893e+000
      vertex -2.225000e+001 -7.071068e-001  5.292893e+000
    endloop
  endfacet
  facet normal  0.000000e+000  7.730103e-001  6.343935e-001
    outer loop
      vertex -2.225000e+001 -7.071068e-001  5.292893e+000
      vertex -2.725000e+001 -7.071068e-001  5.292893e+000
      vertex -2.725000e+001 -8.314696e-001  5.444430e+000
    endloop
  endfacet
  facet normal  -0.000000e+000  7.730103e-001  6.343935e-001
    outer loop
      vertex -2.225000e+001 -7.071068e-001  5.292893e+000
      vertex -2.725000e+001 -8.314696e-001  5.444430e+000
      vertex -2.225000e+001 -8.314696e-001  5.444430e+000
    endloop
  endfacet
  facet normal  0.000000e+000  8.819214e-001  4.713966e-001
    outer loop
      vertex -2.225000e+001 -8.314696e-001  5.444430e+000
      vertex -2.725000e+001 -8.314696e-001  5.444430e+000
      vertex -2.725000e+001 -9.238795e-001  5.617317e+000
    endloop
  endfacet
  facet normal  -0.000000e+000  8.819214e-001  4.713966e-001
    outer loop
      vertex -2.225000e+001 -8.314696e-001  5.444430e+000
      vertex -2.725000e+001 -9.238795e-001  5.617317e+000
      vertex -2.225000e+001 -9.238795e-001  5.617317e+000
    endloop
  endfacet
  facet normal  0.000000e+000  9.569404e-001  2.902849e-001
    outer loop
      vertex -2.225000e+001 -9.238795e-001  5.617317e+000
      vertex -2.725000e+001 -9.238795e-001  5.617317e+000
      vertex -2.725000e+001 -9.807853e-001  5.804910e+000
    endloop
  endfacet
  facet normal  -0.000000e+000  9.569404e-001  2.902849e-001
    outer loop
      vertex -2.225000e+001 -9.238795e-001  5.617317e+000
      vertex -2.725000e+001 -9.807853e-001  5.804910e+000
      vertex -2.225000e+001 -9.807853e-001  5.804910e+000
    endloop
  endfacet
  facet normal  0.000000e+000  9.951847e-001  9.801730e-002
    outer loop
      vertex -2.225000e+001 -9.807853e-001  5.804910e+000
      vertex -2.725000e+001 -9.807853e-001  5.804910e+000
      vertex -2.725000e+001 -1.000000e+000  6.000000e+000
    endloop
  endfacet
  facet normal  -0.000000e+000  9.951847e-001  9.801730e-002
    outer loop
      vertex -2.225000e+001 -9.807853e-001  5.804910e+000
      vertex -2.725000e+001 -1.000000e+000  6.000000e+000
      vertex -2.225000e+001 -1.000000e+000  6.000000e+000
    endloop
  endfacet
  facet normal  0.000000e+000  9.801669e-002  9.951848e-001
    outer loop
      vertex -2.725000e+001 -1.950903e-001  5.019215e+000
      vertex -2.225000e+001  3.736411e-015  5.000000e+000
      vertex -2.725000e+001  3.736411e-015  5.000000e+000
    endloop
  endfacet
  facet normal  0.000000e+000 -9.801669e-002  9.951848e-001
    outer loop
      vertex -2.725000e+001  3.736411e-015  5.000000e+000
      vertex -2.225000e+001  3.736411e-015  5.000000e+000
      vertex -2.225000e+001  1.950903e-001  5.019215e+000
    endloop
  endfacet
  facet normal  0.000000e+000 -9.801669e-002  9.951848e-001
    outer loop
      vertex -2.725000e+001  3.736411e-015  5.000000e+000
      vertex -2.225000e+001  1.950903e-001  5.019215e+000
      vertex -2.725000e+001  1.950903e-001  5.019215e+000
    endloop
  endfacet
  facet normal  0.000000e+000 -2.902847e-001  9.569404e-001
    outer loop
      vertex -2.725000e+001  1.950903e-001  5.019215e+000
      vertex -2.225000e+001  1.950903e-001  5.019215e+000
      vertex -2.225000e+001  3.826834e-001  5.076120e+000
    endloop
  endfacet
  facet normal  0.000000e+000 -2.902847e-001  9.569404e-001
    outer loop
      vertex -2.725000e+001  1.950903e-001  5.019215e+000
      vertex -2.225000e+001  3.826834e-001  5.076120e+000
      vertex -2.725000e+001  3.826834e-001  5.076120e+000
    endloop
  endfacet
  facet normal  0.000000e+000 -4.713974e-001  8.819209e-001
    outer loop
      vertex -2.725000e+001  3.826834e-001  5.076120e+000
      vertex -2.225000e+001  3.826834e-001  5.076120e+000
      vertex -2.225000e+001  5.555702e-001  5.168530e+000
    endloop
  endfacet
  facet normal  0.000000e+000 -4.713974e-001  8.819209e-001
    outer loop
      vertex -2.725000e+001  3.826834e-001  5.076120e+000
      vertex -2.225000e+001  5.555702e-001  5.168530e+000
      vertex -2.725000e+001  5.555702e-001  5.168530e+000
    endloop
  endfacet
  facet normal  0.000000e+000 -6.343937e-001  7.730101e-001
    outer loop
      vertex -2.725000e+001  5.555702e-001  5.168530e+000
      vertex -2.225000e+001  5.555702e-001  5.168530e+000
      vertex -2.225000e+001  7.071068e-001  5.292893e+000
    endloop
  endfacet
  facet normal  0.000000e+000 -6.343937e-001  7.730101e-001
    outer loop
      vertex -2.725000e+001  5.555702e-001  5.168530e+000
      vertex -2.225000e+001  7.071068e-001  5.292893e+000
      vertex -2.725000e+001  7.071068e-001  5.292893e+000
    endloop
  endfacet
  facet normal  0.000000e+000 -7.730103e-001  6.343935e-001
    outer loop
      vertex -2.725000e+001  7.071068e-001  5.292893e+000
      vertex -2.225000e+001  7.071068e-001  5.292893e+000
      vertex -2.225000e+001  8.314696e-001  5.444430e+000
    endloop
  endfacet
  facet normal  0.000000e+000 -7.730103e-001  6.343935e-001
    outer loop
      vertex -2.725000e+001  7.071068e-001  5.292893e+000
      vertex -2.225000e+001  8.314696e-001  5.444430e+000
      vertex -2.725000e+001  8.314696e-001  5.444430e+000
    endloop
  endfacet
  facet normal  0.000000e+000 -8.819214e-001  4.713966e-001
    outer loop
      vertex -2.725000e+001  8.314696e-001  5.444430e+000
      vertex -2.225000e+001  8.314696e-001  5.444430e+000
      vertex -2.225000e+001  9.238795e-001  5.617317e+000
    endloop
  endfacet
  facet normal  0.000000e+000 -8.819214e-001  4.713966e-001
    outer loop
      vertex -2.725000e+001  8.314696e-001  5.444430e+000
      vertex -2.225000e+001  9.238795e-001  5.617317e+000
      vertex -2.725000e+001  9.238795e-001  5.617317e+000
    endloop
  endfacet
  facet normal  0.000000e+000 -9.569404e-001  2.902849e-001
    outer loop
      vertex -2.725000e+001  9.238795e-001  5.617317e+000
      vertex -2.225000e+001  9.238795e-001  5.617317e+000
      vertex -2.225000e+001  9.807853e-001  5.804910e+000
    endloop
  endfacet
  facet normal  0.000000e+000 -9.569404e-001  2.902849e-001
    outer loop
      vertex -2.725000e+001  9.238795e-001  5.617317e+000
      vertex -2.225000e+001  9.807853e-001  5.804910e+000
      vertex -2.725000e+001  9.807853e-001  5.804910e+000
    endloop
  endfacet
  facet normal  0.000000e+000 -9.951847e-001  9.801730e-002
    outer loop
      vertex -2.725000e+001  9.807853e-001  5.804910e+000
      vertex -2.225000e+001  9.807853e-001  5.804910e+000
      vertex -2.225000e+001  1.000000e+000  6.000000e+000
    endloop
  endfacet
  facet normal  0.000000e+000 -9.951847e-001  9.801730e-002
    outer loop
      vertex -2.725000e+001  9.807853e-001  5.804910e+000
      vertex -2.225000e+001  1.000000e+000  6.000000e+000
      vertex -2.725000e+001  1.000000e+000  6.000000e+000
    endloop
  endfacet
  facet normal  0.000000e+000 -9.801669e-002 -9.951848e-001
    outer loop
      vertex -2.225000e+001  3.491481e-015  7.000000e+000
      vertex -2.725000e+001  1.950903e-001  6.980785e+000
      vertex -2.225000e+001  1.950903e-001  6.980785e+000
    endloop
  endfacet
  facet normal  -0.000000e+000 -2.902847e-001 -9.569404e-001
    outer loop
      vertex -2.225000e+001  1.950903e-001  6.980785e+000
      vertex -2.725000e+001  1.950903e-001  6.980785e+000
      vertex -2.725000e+001  3.826834e-001  6.923880e+000
    endloop
  endfacet
  facet normal  0.000000e+000 -2.902847e-001 -9.569404e-001
    outer loop
      vertex -2.225000e+001  1.950903e-001  6.980785e+000
      vertex -2.725000e+001  3.826834e-001  6.923880e+000
      vertex -2.225000e+001  3.826834e-001  6.923880e+000
    endloop
  endfacet
  facet normal  -0.000000e+000 -4.713974e-001 -8.819209e-001
    outer loop
      vertex -2.225000e+001  3.826834e-001  6.923880e+000
      vertex -2.725000e+001  3.826834e-001  6.923880e+000
      vertex -2.725000e+001  5.555702e-001  6.831470e+000
    endloop
  endfacet
  facet normal  0.000000e+000 -4.713974e-001 -8.819209e-001
    outer loop
      vertex -2.225000e+001  3.826834e-001  6.923880e+000
      vertex -2.725000e+001  5.555702e-001  6.831470e+000
      vertex -2.225000e+001  5.555702e-001  6.831470e+000
    endloop
  endfacet
  facet normal  -0.000000e+000 -6.343937e-001 -7.730101e-001
    outer loop
      vertex -2.225000e+001  5.555702e-001  6.831470e+000
      vertex -2.725000e+001  5.555702e-001  6.831470e+000
      vertex -2.725000e+001  7.071068e-001  6.707107e+000
    endloop
  endfacet
  facet normal  0.000000e+000 -6.343937e-001 -7.730101e-001
    outer loop
      vertex -2.225000e+001  5.555702e-001  6.831470e+000
      vertex -2.725000e+001  7.071068e-001  6.707107e+000
      vertex -2.225000e+001  7.071068e-001  6.707107e+000
    endloop
  endfacet
  facet normal  -0.000000e+000 -7.730103e-001 -6.343935e-001
    outer loop
      vertex -2.225000e+001  7.071068e-001  6.707107e+000
      vertex -2.725000e+001  7.071068e-001  6.707107e+000
      vertex -2.725000e+001  8.314696e-001  6.555570e+000
    endloop
  endfacet
  facet normal  0.000000e+000 -7.730103e-001 -6.343935e-001
    outer loop
      vertex -2.225000e+001  7.071068e-001  6.707107e+000
      vertex -2.725000e+001  8.314696e-001  6.555570e+000
      vertex -2.225000e+001  8.314696e-001  6.555570e+000
    endloop
  endfacet
  facet normal  -0.000000e+000 -8.819214e-001 -4.713966e-001
    outer loop
      vertex -2.225000e+001  8.314696e-001  6.555570e+000
      vertex -2.725000e+001  8.314696e-001  6.555570e+000
      vertex -2.725000e+001  9.238795e-001  6.382683e+000
    endloop
  endfacet
  facet normal  0.000000e+000 -8.819214e-001 -4.713966e-001
    outer loop
      vertex -2.225000e+001  8.314696e-001  6.555570e+000
      vertex -2.725000e+001  9.238795e-001  6.382683e+000
      vertex -2.225000e+001  9.238795e-001  6.382683e+000
    endloop
  endfacet
  facet normal  -0.000000e+000 -9.569404e-001 -2.902849e-001
    outer loop
      vertex -2.225000e+001  9.238795e-001  6.382683e+000
      vertex -2.725000e+001  9.238795e-001  6.382683e+000
      vertex -2.725000e+001  9.807853e-001  6.195090e+000
    endloop
  endfacet
  facet normal  0.000000e+000 -9.569404e-001 -2.902849e-001
    outer loop
      vertex -2.225000e+001  9.238795e-001  6.382683e+000
      vertex -2.725000e+001  9.807853e-001  6.195090e+000
      vertex -2.225000e+001  9.807853e-001  6.195090e+000
    endloop
  endfacet
  facet normal  -0.000000e+000 -9.951847e-001 -9.801730e-002
    outer loop
      vertex -2.225000e+001  9.807853e-001  6.195090e+000
      vertex -2.725000e+001  9.807853e-001  6.195090e+000
      vertex -2.725000e+001  1.000000e+000  6.000000e+000
    endloop
  endfacet
  facet normal  0.000000e+000 -9.951847e-001 -9.801730e-002
    outer loop
      vertex -2.225000e+001  9.807853e-001  6.195090e+000
      vertex -2.725000e+001  1.000000e+000  6.000000e+000
      vertex -2.225000e+001  1.000000e+000  6.000000e+000
    endloop
  endfacet
  facet normal  -0.000000e+000 -9.801669e-002 -9.951848e-001
    outer loop
      vertex -2.725000e+001  1.950903e-001  6.980785e+000
      vertex -2.225000e+001  3.491481e-015  7.000000e+000
      vertex -2.725000e+001  3.491481e-015  7.000000e+000
    endloop
  endfacet
  facet normal  0.000000e+000  9.801669e-002 -9.951848e-001
    outer loop
      vertex -2.725000e+001  3.491481e-015  7.000000e+000
      vertex -2.225000e+001  3.491481e-015  7.000000e+000
      vertex -2.225000e+001 -1.950903e-001  6.980785e+000
    endloop
  endfacet
  facet normal  0.000000e+000  9.801669e-002 -9.951848e-001
    outer loop
      vertex -2.725000e+001  3.491481e-015  7.000000e+000
      vertex -2.225000e+001 -1.950903e-001  6.980785e+000
      vertex -2.725000e+001 -1.950903e-001  6.980785e+000
    endloop
  endfacet
  facet normal  0.000000e+000  2.902847e-001 -9.569404e-001
    outer loop
      vertex -2.725000e+001 -1.950903e-001  6.980785e+000
      vertex -2.225000e+001 -1.950903e-001  6.980785e+000
      vertex -2.225000e+001 -3.826834e-001  6.923880e+000
    endloop
  endfacet
  facet normal  0.000000e+000  2.902847e-001 -9.569404e-001
    outer loop
      vertex -2.725000e+001 -1.950903e-001  6.980785e+000
      vertex -2.225000e+001 -3.826834e-001  6.923880e+000
      vertex -2.725000e+001 -3.826834e-001  6.923880e+000
    endloop
  endfacet
  facet normal  0.000000e+000  4.713974e-001 -8.819209e-001
    outer loop
      vertex -2.725000e+001 -3.826834e-001  6.923880e+000
      vertex -2.225000e+001 -3.826834e-001  6.923880e+000
      vertex -2.225000e+001 -5.555702e-001  6.831470e+000
    endloop
  endfacet
  facet normal  0.000000e+000  4.713974e-001 -8.819209e-001
    outer loop
      vertex -2.725000e+001 -3.826834e-001  6.923880e+000
      vertex -2.225000e+001 -5.555702e-001  6.831470e+000
      vertex -2.725000e+001 -5.555702e-001  6.831470e+000
    endloop
  endfacet
  facet normal  0.000000e+000  6.343937e-001 -7.730101e-001
    outer loop
      vertex -2.725000e+001 -5.555702e-001  6.831470e+000
      vertex -2.225000e+001 -5.555702e-001  6.831470e+000
      vertex -2.225000e+001 -7.071068e-001  6.707107e+000
    endloop
  endfacet
  facet normal  0.000000e+000  6.343937e-001 -7.730101e-001
    outer loop
      vertex -2.725000e+001 -5.555702e-001  6.831470e+000
      vertex -2.225000e+001 -7.071068e-001  6.707107e+000
      vertex -2.725000e+001 -7.071068e-001  6.707107e+000
    endloop
  endfacet
  facet normal  0.000000e+000  7.730103e-001 -6.343935e-001
    outer loop
      vertex -2.725000e+001 -7.071068e-001  6.707107e+000
      vertex -2.225000e+001 -7.071068e-001  6.707107e+000
      vertex -2.225000e+001 -8.314696e-001  6.555570e+000
    endloop
  endfacet
  facet normal  0.000000e+000  7.730103e-001 -6.343935e-001
    outer loop
      vertex -2.725000e+001 -7.071068e-001  6.707107e+000
      vertex -2.225000e+001 -8.314696e-001  6.555570e+000
      vertex -2.725000e+001 -8.314696e-001  6.555570e+000
    endloop
  endfacet
  facet normal  0.000000e+000  8.819214e-001 -4.713966e-001
    outer loop
      vertex -2.725000e+001 -8.314696e-001  6.555570e+000
      vertex -2.225000e+001 -8.314696e-001  6.555570e+000
      vertex -2.225000e+001 -9.238795e-001  6.382683e+000
    endloop
  endfacet
  facet normal  0.000000e+000  8.819214e-001 -4.713966e-001
    outer loop
      vertex -2.725000e+001 -8.314696e-001  6.555570e+000
      vertex -2.225000e+001 -9.238795e-001  6.382683e+000
      vertex -2.725000e+001 -9.238795e-001  6.382683e+000
    endloop
  endfacet
  facet normal  0.000000e+000  9.569404e-001 -2.902849e-001
    outer loop
      vertex -2.725000e+001 -9.238795e-001  6.382683e+000
      vertex -2.225000e+001 -9.238795e-001  6.382683e+000
      vertex -2.225000e+001 -9.807853e-001  6.195090e+000
    endloop
  endfacet
  facet normal  0.000000e+000  9.569404e-001 -2.902849e-001
    outer loop
      vertex -2.725000e+001 -9.238795e-001  6.382683e+000
      vertex -2.225000e+001 -9.807853e-001  6.195090e+000
      vertex -2.725000e+001 -9.807853e-001  6.195090e+000
    endloop
  endfacet
  facet normal  0.000000e+000  9.951847e-001 -9.801730e-002
    outer loop
      vertex -2.725000e+001 -9.807853e-001  6.195090e+000
      vertex -2.225000e+001 -9.807853e-001  6.195090e+000
      vertex -2.225000e+001 -1.000000e+000  6.000000e+000
    endloop
  endfacet
  facet normal  0.000000e+000  9.951847e-001 -9.801730e-002
    outer loop
      vertex -2.725000e+001 -9.807853e-001  6.195090e+000
      vertex -2.225000e+001 -1.000000e+000  6.000000e+000
      vertex -2.725000e+001 -1.000000e+000  6.000000e+000
    endloop
  endfacet
  facet normal -1.000000e+000  0.000000e+000  0.000000e+000
    outer loop
      vertex -2.225000e+001  1.950903e-001  6.980785e+000
      vertex -2.225000e+001 -1.950903e-001  6.980785e+000
      vertex -2.225000e+001  3.491481e-015  7.000000e+000
    endloop
  endfacet
  facet normal -1.000000e+000  -0.000000e+000  0.000000e+000
    outer loop
      vertex -2.225000e+001 -1.950903e-001  6.980785e+000
      vertex -2.225000e+001  1.950903e-001  6.980785e+000
      vertex -2.225000e+001 -3.826834e-001  6.923880e+000
    endloop
  endfacet
  facet normal -1.000000e+000  0.000000e+000  0.000000e+000
    outer loop
      vertex -2.225000e+001 -3.826834e-001  6.923880e+000
      vertex -2.225000e+001  1.950903e-001  6.980785e+000
      vertex -2.225000e+001  3.826834e-001  6.923880e+000
    endloop
  endfacet
  facet normal -1.000000e+000  -0.000000e+000  0.000000e+000
    outer loop
      vertex -2.225000e+001 -3.826834e-001  6.923880e+000
      vertex -2.225000e+001  3.826834e-001  6.923880e+000
      vertex -2.225000e+001 -5.555702e-001  6.831470e+000
    endloop
  endfacet
  facet normal -1.000000e+000  0.000000e+000  0.000000e+000
    outer loop
      vertex -2.225000e+001 -5.555702e-001  6.831470e+000
      vertex -2.225000e+001  3.826834e-001  6.923880e+000
      vertex -2.225000e+001  5.555702e-001  6.831470e+000
    endloop
  endfacet
  facet normal -1.000000e+000  -0.000000e+000  0.000000e+000
    outer loop
      vertex -2.225000e+001 -5.555702e-001  6.831470e+000
      vertex -2.225000e+001  5.555702e-001  6.831470e+000
      vertex -2.225000e+001 -7.071068e-001  6.707107e+000
    endloop
  endfacet
  facet normal -1.000000e+000  0.000000e+000  0.000000e+000
    outer loop
      vertex -2.225000e+001 -7.071068e-001  6.707107e+000
      vertex -2.225000e+001  5.555702e-001  6.831470e+000
      vertex -2.225000e+001  7.071068e-001  6.707107e+000
    endloop
  endfacet
  facet normal -1.000000e+000  -0.000000e+000  0.000000e+000
    outer loop
      vertex -2.225000e+001 -7.071068e-001  6.707107e+000
      vertex -2.225000e+001  7.071068e-001  6.707107e+000
      vertex -2.225000e+001 -8.314696e-001  6.555570e+000
    endloop
  endfacet
  facet normal -1.000000e+000  0.000000e+000  0.000000e+000
    outer loop
      vertex -2.225000e+001 -8.314696e-001  6.555570e+000
      vertex -2.225000e+001  7.071068e-001  6.707107e+000
      vertex -2.225000e+001  8.314696e-001  6.555570e+000
    endloop
  endfacet
  facet normal -1.000000e+000  -0.000000e+000  0.000000e+000
    outer loop
      vertex -2.225000e+001 -8.314696e-001  6.555570e+000
      vertex -2.225000e+001  8.314696e-001  6.555570e+000
      vertex -2.225000e+001 -9.238795e-001  6.382683e+000
    endloop
  endfacet
  facet normal -1.000000e+000  0.000000e+000  0.000000e+000
    outer loop
      vertex -2.225000e+001 -9.238795e-001  6.382683e+000
      vertex -2.225000e+001  8.314696e-001  6.555570e+000
      vertex -2.225000e+001  9.238795e-001  6.382683e+000
    endloop
  endfacet
  facet normal -1.000000e+000  -0.000000e+000  0.000000e+000
    outer loop
      vertex -2.225000e+001 -9.238795e-001  6.382683e+000
      vertex -2.225000e+001  9.238795e-001  6.382683e+000
      vertex -2.225000e+001 -9.807853e-001  6.195090e+000
    endloop
  endfacet
  facet normal -1.000000e+000  0.000000e+000  0.000000e+000
    outer loop
      vertex -2.225000e+001 -9.807853e-001  6.195090e+000
      vertex -2.225000e+001  9.238795e-001  6.382683e+000
      vertex -2.225000e+001  9.807853e-001  6.195090e+000
    endloop
  endfacet
  facet normal -9.999999e-001  -0.000000e+000  0.000000e+000
    outer loop
      vertex -2.225000e+001 -9.807853e-001  6.195090e+000
      vertex -2.225000e+001  9.807853e-001  6.195090e+000
      vertex -2.225000e+001 -1.000000e+000  6.000000e+000
    endloop
  endfacet
  facet normal -1.000000e+000  0.000000e+000  0.000000e+000
    outer loop
      vertex -2.225000e+001 -1.000000e+000  6.000000e+000
      vertex -2.225000e+001  9.807853e-001  6.195090e+000
      vertex -2.225000e+001  1.000000e+000  6.000000e+000
    endloop
  endfacet
  facet normal -1.000000e+000  -0.000000e+000  0.000000e+000
    outer loop
      vertex -2.225000e+001 -1.000000e+000  6.000000e+000
      vertex -2.225000e+001  1.000000e+000  6.000000e+000
      vertex -2.225000e+001 -9.807853e-001  5.804910e+000
    endloop
  endfacet
  facet normal -9.999999e-001  0.000000e+000  0.000000e+000
    outer loop
      vertex -2.225000e+001 -9.807853e-001  5.804910e+000
      vertex -2.225000e+001  1.000000e+000  6.000000e+000
      vertex -2.225000e+001  9.807853e-001  5.804910e+000
    endloop
  endfacet
  facet normal -1.000000e+000  -0.000000e+000  0.000000e+000
    outer loop
      vertex -2.225000e+001 -9.807853e-001  5.804910e+000
      vertex -2.225000e+001  9.807853e-001  5.804910e+000
      vertex -2.225000e+001 -9.238795e-001  5.617317e+000
    endloop
  endfacet
  facet normal -1.000000e+000  0.000000e+000  0.000000e+000
    outer loop
      vertex -2.225000e+001 -9.238795e-001  5.617317e+000
      vertex -2.225000e+001  9.807853e-001  5.804910e+000
      vertex -2.225000e+001  9.238795e-001  5.617317e+000
    endloop
  endfacet
  facet normal -1.000000e+000  -0.000000e+000  0.000000e+000
    outer loop
      vertex -2.225000e+001 -9.238795e-001  5.617317e+000
      vertex -2.225000e+001  9.238795e-001  5.617317e+000
      vertex -2.225000e+001 -8.314696e-001  5.444430e+000
    endloop
  endfacet
  facet normal -1.000000e+000  0.000000e+000  0.000000e+000
    outer loop
      vertex -2.225000e+001 -8.314696e-001  5.444430e+000
      vertex -2.225000e+001  9.238795e-001  5.617317e+000
      vertex -2.225000e+001  8.314696e-001  5.444430e+000
    endloop
  endfacet
  facet normal -1.000000e+000  -0.000000e+000  0.000000e+000
    outer loop
      vertex -2.225000e+001 -8.314696e-001  5.444430e+000
      vertex -2.225000e+001  8.314696e-001  5.444430e+000
      vertex -2.225000e+001 -7.071068e-001  5.292893e+000
    endloop
  endfacet
  facet normal -1.000000e+000  0.000000e+000  0.000000e+000
    outer loop
      vertex -2.225000e+001 -7.071068e-001  5.292893e+000
      vertex -2.225000e+001  8.314696e-001  5.444430e+000
      vertex -2.225000e+001  7.071068e-001  5.292893e+000
    endloop
  endfacet
  facet normal -1.000000e+000  -0.000000e+000  0.000000e+000
    outer loop
      vertex -2.225000e+001 -7.071068e-001  5.292893e+000
      vertex -2.225000e+001  7.071068e-001  5.292893e+000
      vertex -2.225000e+001 -5.555702e-001  5.168530e+000
    endloop
  endfacet
  facet normal -1.000000e+000  0.000000e+000  0.000000e+000
    outer loop
      vertex -2.225000e+001 -5.555702e-001  5.168530e+000
      vertex -2.225000e+001  7.071068e-001  5.292893e+000
      vertex -2.225000e+001  5.555702e-001  5.168530e+000
    endloop
  endfacet
  facet normal -1.000000e+000  -0.000000e+000  0.000000e+000
    outer loop
      vertex -2.225000e+001 -5.555702e-001  5.168530e+000
      vertex -2.225000e+001  5.555702e-001  5.168530e+000
      vertex -2.225000e+001 -3.826834e-001  5.076120e+000
    endloop
  endfacet
  facet normal -1.000000e+000  0.000000e+000  0.000000e+000
    outer loop
      vertex -2.225000e+001 -3.826834e-001  5.076120e+000
      vertex -2.225000e+001  5.555702e-001  5.168530e+000
      vertex -2.225000e+001  3.826834e-001  5.076120e+000
    endloop
  endfacet
  facet normal -1.000000e+000  -0.000000e+000  0.000000e+000
    outer loop
      vertex -2.225000e+001 -3.826834e-001  5.076120e+000
      vertex -2.225000e+001  3.826834e-001  5.076120e+000
      vertex -2.225000e+001 -1.950903e-001  5.019215e+000
    endloop
  endfacet
  facet normal -1.000000e+000  0.000000e+000  0.000000e+000
    outer loop
      vertex -2.225000e+001 -1.950903e-001  5.019215e+000
      vertex -2.225000e+001  3.826834e-001  5.076120e+000
      vertex -2.225000e+001  1.950903e-001  5.019215e+000
    endloop
  endfacet
  facet normal -1.000000e+000  -0.000000e+000  0.000000e+000
    outer loop
      vertex -2.225000e+001 -1.950903e-001  5.019215e+000
      vertex -2.225000e+001  1.950903e-001  5.019215e+000
      vertex -2.225000e+001  3.736411e-015  5.000000e+000
    endloop
  endfacet
  facet normal  0.000000e+000  0.000000e+000  1.000000e+000
    outer loop
      vertex -2.725000e+001 -5.000000e+000  1.100000e+001
      vertex  2.725000e+001 -5.000000e+000  1.100000e+001
      vertex -2.725000e+001  5.000000e+000  1.100000e+001
    endloop
  endfacet
  facet normal  -0.000000e+000  0.000000e+000  1.000000e+000
    outer loop
      vertex -2.725000e+001  5.000000e+000  1.100000e+001
      vertex  2.725000e+001 -5.000000e+000  1.100000e+001
      vertex  2.725000e+001  5.000000e+000  1.100000e+001
    endloop
  endfacet
endsolid CATIA STL
