solid CATIA STL
  facet normal  -0.000000e+000  0.000000e+000  1.000000e+000
    outer loop
      vertex -8.235133e+001  1.635237e+001  1.100000e+001
      vertex -8.432986e+001  1.627927e+001  1.100000e+001
      vertex -8.261396e+001  1.627270e+001  1.100000e+001
    endloop
  endfacet
  facet normal  0.000000e+000  -0.000000e+000  1.000000e+000
    outer loop
      vertex -8.463870e+001  1.543076e+001  1.100000e+001
      vertex -8.337164e+001  1.551503e+001  1.100000e+001
      vertex -8.324226e+001  1.575707e+001  1.100000e+001
    endloop
  endfacet
  facet normal  0.000000e+000  -0.000000e+000  1.000000e+000
    outer loop
      vertex -8.180508e+001  1.635237e+001  1.100000e+001
      vertex -8.154244e+001  1.627270e+001  1.100000e+001
      vertex -7.982654e+001  1.627927e+001  1.100000e+001
    endloop
  endfacet
  facet normal  -0.000000e+000  -0.000000e+000  1.000000e+000
    outer loop
      vertex -8.207820e+001  1.637927e+001  1.100000e+001
      vertex -8.180508e+001  1.635237e+001  1.100000e+001
      vertex -7.982654e+001  1.627927e+001  1.100000e+001
    endloop
  endfacet
  facet normal  0.000000e+000  0.000000e+000  1.000000e+000
    outer loop
      vertex -8.207820e+001  1.637927e+001  1.100000e+001
      vertex -7.982654e+001  1.627927e+001  1.100000e+001
      vertex -8.008649e+001  1.665052e+001  1.100000e+001
    endloop
  endfacet
  facet normal  0.000000e+000  0.000000e+000  9.999999e-001
    outer loop
      vertex -8.207820e+001  1.637927e+001  1.100000e+001
      vertex -8.008649e+001  1.665052e+001  1.100000e+001
      vertex -8.040695e+001  1.697099e+001  1.100000e+001
    endloop
  endfacet
  facet normal  0.000000e+000  0.000000e+000  1.000000e+000
    outer loop
      vertex -8.207820e+001  1.637927e+001  1.100000e+001
      vertex -8.040695e+001  1.697099e+001  1.100000e+001
      vertex -8.077820e+001  1.723094e+001  1.100000e+001
    endloop
  endfacet
  facet normal  0.000000e+000  0.000000e+000  1.000000e+000
    outer loop
      vertex -8.207820e+001  1.637927e+001  1.100000e+001
      vertex -8.077820e+001  1.723094e+001  1.100000e+001
      vertex -8.118895e+001  1.742247e+001  1.100000e+001
    endloop
  endfacet
  facet normal  0.000000e+000  0.000000e+000  1.000000e+000
    outer loop
      vertex -8.207820e+001  1.637927e+001  1.100000e+001
      vertex -8.118895e+001  1.742247e+001  1.100000e+001
      vertex -8.162672e+001  1.753977e+001  1.100000e+001
    endloop
  endfacet
  facet normal  0.000000e+000  0.000000e+000  1.000000e+000
    outer loop
      vertex -8.207820e+001  1.637927e+001  1.100000e+001
      vertex -8.162672e+001  1.753977e+001  1.100000e+001
      vertex -8.207820e+001  1.757927e+001  1.100000e+001
    endloop
  endfacet
  facet normal  0.000000e+000  0.000000e+000  1.000000e+000
    outer loop
      vertex -8.207820e+001  1.637927e+001  1.100000e+001
      vertex -8.207820e+001  1.757927e+001  1.100000e+001
      vertex -8.252969e+001  1.753977e+001  1.100000e+001
    endloop
  endfacet
  facet normal  0.000000e+000  0.000000e+000  1.000000e+000
    outer loop
      vertex -8.207820e+001  1.637927e+001  1.100000e+001
      vertex -8.252969e+001  1.753977e+001  1.100000e+001
      vertex -8.296745e+001  1.742247e+001  1.100000e+001
    endloop
  endfacet
  facet normal  0.000000e+000  0.000000e+000  1.000000e+000
    outer loop
      vertex -8.207820e+001  1.637927e+001  1.100000e+001
      vertex -8.296745e+001  1.742247e+001  1.100000e+001
      vertex -8.337820e+001  1.723094e+001  1.100000e+001
    endloop
  endfacet
  facet normal  0.000000e+000  0.000000e+000  1.000000e+000
    outer loop
      vertex -8.207820e+001  1.637927e+001  1.100000e+001
      vertex -8.337820e+001  1.723094e+001  1.100000e+001
      vertex -8.374945e+001  1.697099e+001  1.100000e+001
    endloop
  endfacet
  facet normal  0.000000e+000  0.000000e+000  9.999999e-001
    outer loop
      vertex -8.207820e+001  1.637927e+001  1.100000e+001
      vertex -8.374945e+001  1.697099e+001  1.100000e+001
      vertex -8.406992e+001  1.665052e+001  1.100000e+001
    endloop
  endfacet
  facet normal  0.000000e+000  0.000000e+000  1.000000e+000
    outer loop
      vertex -8.207820e+001  1.637927e+001  1.100000e+001
      vertex -8.406992e+001  1.665052e+001  1.100000e+001
      vertex -8.432986e+001  1.627927e+001  1.100000e+001
    endloop
  endfacet
  facet normal  0.000000e+000  0.000000e+000  1.000000e+000
    outer loop
      vertex -8.207820e+001  1.637927e+001  1.100000e+001
      vertex -8.432986e+001  1.627927e+001  1.100000e+001
      vertex -8.235133e+001  1.635237e+001  1.100000e+001
    endloop
  endfacet
  facet normal  0.000000e+000  0.000000e+000  1.000000e+000
    outer loop
      vertex -8.452140e+001  1.586852e+001  1.100000e+001
      vertex -8.463870e+001  1.543076e+001  1.100000e+001
      vertex -8.324226e+001  1.575707e+001  1.100000e+001
    endloop
  endfacet
  facet normal  0.000000e+000  -0.000000e+000  1.000000e+000
    outer loop
      vertex -8.452140e+001  1.586852e+001  1.100000e+001
      vertex -8.324226e+001  1.575707e+001  1.100000e+001
      vertex -8.306815e+001  1.596922e+001  1.100000e+001
    endloop
  endfacet
  facet normal  0.000000e+000  -0.000000e+000  9.999999e-001
    outer loop
      vertex -8.452140e+001  1.586852e+001  1.100000e+001
      vertex -8.306815e+001  1.596922e+001  1.100000e+001
      vertex -8.285600e+001  1.614333e+001  1.100000e+001
    endloop
  endfacet
  facet normal  0.000000e+000  -0.000000e+000  1.000000e+000
    outer loop
      vertex -8.452140e+001  1.586852e+001  1.100000e+001
      vertex -8.285600e+001  1.614333e+001  1.100000e+001
      vertex -8.261396e+001  1.627270e+001  1.100000e+001
    endloop
  endfacet
  facet normal  0.000000e+000  0.000000e+000  9.999999e-001
    outer loop
      vertex -8.452140e+001  1.586852e+001  1.100000e+001
      vertex -8.261396e+001  1.627270e+001  1.100000e+001
      vertex -8.432986e+001  1.627927e+001  1.100000e+001
    endloop
  endfacet
  facet normal  0.000000e+000  0.000000e+000  1.000000e+000
    outer loop
      vertex -8.432986e+001  1.367927e+001  1.100000e+001
      vertex -8.261396e+001  1.368584e+001  1.100000e+001
      vertex -8.285600e+001  1.381521e+001  1.100000e+001
    endloop
  endfacet
  facet normal  0.000000e+000  0.000000e+000  1.000000e+000
    outer loop
      vertex -8.432986e+001  1.367927e+001  1.100000e+001
      vertex -8.285600e+001  1.381521e+001  1.100000e+001
      vertex -8.306815e+001  1.398932e+001  1.100000e+001
    endloop
  endfacet
  facet normal  0.000000e+000  0.000000e+000  1.000000e+000
    outer loop
      vertex -8.432986e+001  1.367927e+001  1.100000e+001
      vertex -8.306815e+001  1.398932e+001  1.100000e+001
      vertex -8.452140e+001  1.409002e+001  1.100000e+001
    endloop
  endfacet
  facet normal  0.000000e+000  0.000000e+000  9.999999e-001
    outer loop
      vertex -8.207820e+001  1.237927e+001  1.100000e+001
      vertex -8.406992e+001  1.330802e+001  1.100000e+001
      vertex -8.374945e+001  1.298756e+001  1.100000e+001
    endloop
  endfacet
  facet normal  0.000000e+000  0.000000e+000  9.999999e-001
    outer loop
      vertex -8.207820e+001  1.237927e+001  1.100000e+001
      vertex -8.374945e+001  1.298756e+001  1.100000e+001
      vertex -8.337820e+001  1.272760e+001  1.100000e+001
    endloop
  endfacet
  facet normal  0.000000e+000  0.000000e+000  1.000000e+000
    outer loop
      vertex -8.207820e+001  1.237927e+001  1.100000e+001
      vertex -8.337820e+001  1.272760e+001  1.100000e+001
      vertex -8.296745e+001  1.253607e+001  1.100000e+001
    endloop
  endfacet
  facet normal  0.000000e+000  0.000000e+000  1.000000e+000
    outer loop
      vertex -8.207820e+001  1.237927e+001  1.100000e+001
      vertex -8.296745e+001  1.253607e+001  1.100000e+001
      vertex -8.252969e+001  1.241877e+001  1.100000e+001
    endloop
  endfacet
  facet normal  0.000000e+000  -0.000000e+000  1.000000e+000
    outer loop
      vertex -8.207820e+001  1.237927e+001  1.100000e+001
      vertex -8.162672e+001  1.241877e+001  1.100000e+001
      vertex -8.118895e+001  1.253607e+001  1.100000e+001
    endloop
  endfacet
  facet normal  0.000000e+000  -0.000000e+000  1.000000e+000
    outer loop
      vertex -8.207820e+001  1.237927e+001  1.100000e+001
      vertex -8.118895e+001  1.253607e+001  1.100000e+001
      vertex -8.077820e+001  1.272760e+001  1.100000e+001
    endloop
  endfacet
  facet normal  0.000000e+000  -0.000000e+000  9.999999e-001
    outer loop
      vertex -8.207820e+001  1.237927e+001  1.100000e+001
      vertex -8.077820e+001  1.272760e+001  1.100000e+001
      vertex -8.040695e+001  1.298756e+001  1.100000e+001
    endloop
  endfacet
  facet normal  0.000000e+000  -0.000000e+000  1.000000e+000
    outer loop
      vertex -8.207820e+001  1.237927e+001  1.100000e+001
      vertex -8.040695e+001  1.298756e+001  1.100000e+001
      vertex -8.008649e+001  1.330802e+001  1.100000e+001
    endloop
  endfacet
  facet normal  -0.000000e+000  0.000000e+000  1.000000e+000
    outer loop
      vertex -8.337164e+001  1.551503e+001  1.100000e+001
      vertex -8.463870e+001  1.543076e+001  1.100000e+001
      vertex -8.345130e+001  1.525240e+001  1.100000e+001
    endloop
  endfacet
  facet normal  0.000000e+000  0.000000e+000  1.000000e+000
    outer loop
      vertex -8.345130e+001  1.525240e+001  1.100000e+001
      vertex -8.463870e+001  1.543076e+001  1.100000e+001
      vertex -8.467820e+001  1.497927e+001  1.100000e+001
    endloop
  endfacet
  facet normal  0.000000e+000  0.000000e+000  1.000000e+000
    outer loop
      vertex -8.345130e+001  1.525240e+001  1.100000e+001
      vertex -8.467820e+001  1.497927e+001  1.100000e+001
      vertex -8.347820e+001  1.497927e+001  1.100000e+001
    endloop
  endfacet
  facet normal  -0.000000e+000  0.000000e+000  1.000000e+000
    outer loop
      vertex -8.347820e+001  1.497927e+001  1.100000e+001
      vertex -8.467820e+001  1.497927e+001  1.100000e+001
      vertex -8.345130e+001  1.470614e+001  1.100000e+001
    endloop
  endfacet
  facet normal  0.000000e+000  0.000000e+000  1.000000e+000
    outer loop
      vertex -8.345130e+001  1.470614e+001  1.100000e+001
      vertex -8.467820e+001  1.497927e+001  1.100000e+001
      vertex -8.463870e+001  1.452779e+001  1.100000e+001
    endloop
  endfacet
  facet normal  -0.000000e+000  0.000000e+000  1.000000e+000
    outer loop
      vertex -8.345130e+001  1.470614e+001  1.100000e+001
      vertex -8.463870e+001  1.452779e+001  1.100000e+001
      vertex -8.337164e+001  1.444351e+001  1.100000e+001
    endloop
  endfacet
  facet normal  0.000000e+000  0.000000e+000  1.000000e+000
    outer loop
      vertex -8.337164e+001  1.444351e+001  1.100000e+001
      vertex -8.463870e+001  1.452779e+001  1.100000e+001
      vertex -8.324226e+001  1.420147e+001  1.100000e+001
    endloop
  endfacet
  facet normal  0.000000e+000  0.000000e+000  1.000000e+000
    outer loop
      vertex -8.324226e+001  1.420147e+001  1.100000e+001
      vertex -8.463870e+001  1.452779e+001  1.100000e+001
      vertex -8.452140e+001  1.409002e+001  1.100000e+001
    endloop
  endfacet
  facet normal  -0.000000e+000  0.000000e+000  1.000000e+000
    outer loop
      vertex -8.324226e+001  1.420147e+001  1.100000e+001
      vertex -8.452140e+001  1.409002e+001  1.100000e+001
      vertex -8.306815e+001  1.398932e+001  1.100000e+001
    endloop
  endfacet
  facet normal  -0.000000e+000  0.000000e+000  1.000000e+000
    outer loop
      vertex -8.261396e+001  1.368584e+001  1.100000e+001
      vertex -8.432986e+001  1.367927e+001  1.100000e+001
      vertex -8.235133e+001  1.360617e+001  1.100000e+001
    endloop
  endfacet
  facet normal  0.000000e+000  0.000000e+000  1.000000e+000
    outer loop
      vertex -8.235133e+001  1.360617e+001  1.100000e+001
      vertex -8.432986e+001  1.367927e+001  1.100000e+001
      vertex -8.406992e+001  1.330802e+001  1.100000e+001
    endloop
  endfacet
  facet normal  0.000000e+000  0.000000e+000  1.000000e+000
    outer loop
      vertex -8.235133e+001  1.360617e+001  1.100000e+001
      vertex -8.406992e+001  1.330802e+001  1.100000e+001
      vertex -8.207820e+001  1.357927e+001  1.100000e+001
    endloop
  endfacet
  facet normal  0.000000e+000  0.000000e+000  1.000000e+000
    outer loop
      vertex -8.207820e+001  1.357927e+001  1.100000e+001
      vertex -8.406992e+001  1.330802e+001  1.100000e+001
      vertex -8.207820e+001  1.237927e+001  1.100000e+001
    endloop
  endfacet
  facet normal  0.000000e+000  0.000000e+000  1.000000e+000
    outer loop
      vertex -8.207820e+001  1.357927e+001  1.100000e+001
      vertex -8.207820e+001  1.237927e+001  1.100000e+001
      vertex -8.180508e+001  1.360617e+001  1.100000e+001
    endloop
  endfacet
  facet normal  0.000000e+000  0.000000e+000  1.000000e+000
    outer loop
      vertex -8.180508e+001  1.360617e+001  1.100000e+001
      vertex -8.207820e+001  1.237927e+001  1.100000e+001
      vertex -8.008649e+001  1.330802e+001  1.100000e+001
    endloop
  endfacet
  facet normal  0.000000e+000  0.000000e+000  1.000000e+000
    outer loop
      vertex -8.180508e+001  1.360617e+001  1.100000e+001
      vertex -8.008649e+001  1.330802e+001  1.100000e+001
      vertex -8.154244e+001  1.368584e+001  1.100000e+001
    endloop
  endfacet
  facet normal  0.000000e+000  0.000000e+000  1.000000e+000
    outer loop
      vertex -8.154244e+001  1.368584e+001  1.100000e+001
      vertex -8.008649e+001  1.330802e+001  1.100000e+001
      vertex -7.982654e+001  1.367927e+001  1.100000e+001
    endloop
  endfacet
  facet normal  0.000000e+000  0.000000e+000  1.000000e+000
    outer loop
      vertex -8.154244e+001  1.368584e+001  1.100000e+001
      vertex -7.982654e+001  1.367927e+001  1.100000e+001
      vertex -8.130040e+001  1.381521e+001  1.100000e+001
    endloop
  endfacet
  facet normal  -0.000000e+000  0.000000e+000  9.999999e-001
    outer loop
      vertex -7.982654e+001  1.627927e+001  1.100000e+001
      vertex -8.154244e+001  1.627270e+001  1.100000e+001
      vertex -7.963500e+001  1.586852e+001  1.100000e+001
    endloop
  endfacet
  facet normal  0.000000e+000  0.000000e+000  1.000000e+000
    outer loop
      vertex -7.963500e+001  1.586852e+001  1.100000e+001
      vertex -8.154244e+001  1.627270e+001  1.100000e+001
      vertex -8.130040e+001  1.614333e+001  1.100000e+001
    endloop
  endfacet
  facet normal  0.000000e+000  0.000000e+000  1.000000e+000
    outer loop
      vertex -7.963500e+001  1.586852e+001  1.100000e+001
      vertex -8.130040e+001  1.614333e+001  1.100000e+001
      vertex -8.108825e+001  1.596922e+001  1.100000e+001
    endloop
  endfacet
  facet normal  0.000000e+000  0.000000e+000  1.000000e+000
    outer loop
      vertex -7.963500e+001  1.586852e+001  1.100000e+001
      vertex -8.108825e+001  1.596922e+001  1.100000e+001
      vertex -7.951770e+001  1.543076e+001  1.100000e+001
    endloop
  endfacet
  facet normal  0.000000e+000  0.000000e+000  9.999999e-001
    outer loop
      vertex -7.951770e+001  1.543076e+001  1.100000e+001
      vertex -8.108825e+001  1.596922e+001  1.100000e+001
      vertex -8.091415e+001  1.575707e+001  1.100000e+001
    endloop
  endfacet
  facet normal  0.000000e+000  0.000000e+000  1.000000e+000
    outer loop
      vertex -7.951770e+001  1.543076e+001  1.100000e+001
      vertex -8.091415e+001  1.575707e+001  1.100000e+001
      vertex -8.078477e+001  1.551503e+001  1.100000e+001
    endloop
  endfacet
  facet normal  0.000000e+000  0.000000e+000  1.000000e+000
    outer loop
      vertex -7.951770e+001  1.543076e+001  1.100000e+001
      vertex -8.078477e+001  1.551503e+001  1.100000e+001
      vertex -7.947820e+001  1.497927e+001  1.100000e+001
    endloop
  endfacet
  facet normal  0.000000e+000  0.000000e+000  1.000000e+000
    outer loop
      vertex -7.947820e+001  1.497927e+001  1.100000e+001
      vertex -8.078477e+001  1.551503e+001  1.100000e+001
      vertex -8.070510e+001  1.525240e+001  1.100000e+001
    endloop
  endfacet
  facet normal  0.000000e+000  0.000000e+000  1.000000e+000
    outer loop
      vertex -7.947820e+001  1.497927e+001  1.100000e+001
      vertex -8.070510e+001  1.525240e+001  1.100000e+001
      vertex -8.067820e+001  1.497927e+001  1.100000e+001
    endloop
  endfacet
  facet normal  -0.000000e+000  0.000000e+000  1.000000e+000
    outer loop
      vertex -7.947820e+001  1.497927e+001  1.100000e+001
      vertex -8.067820e+001  1.497927e+001  1.100000e+001
      vertex -7.951770e+001  1.452779e+001  1.100000e+001
    endloop
  endfacet
  facet normal  0.000000e+000  0.000000e+000  9.999999e-001
    outer loop
      vertex -7.951770e+001  1.452779e+001  1.100000e+001
      vertex -8.067820e+001  1.497927e+001  1.100000e+001
      vertex -8.070510e+001  1.470614e+001  1.100000e+001
    endloop
  endfacet
  facet normal  0.000000e+000  0.000000e+000  1.000000e+000
    outer loop
      vertex -7.951770e+001  1.452779e+001  1.100000e+001
      vertex -8.070510e+001  1.470614e+001  1.100000e+001
      vertex -8.078477e+001  1.444351e+001  1.100000e+001
    endloop
  endfacet
  facet normal  -0.000000e+000  0.000000e+000  1.000000e+000
    outer loop
      vertex -7.951770e+001  1.452779e+001  1.100000e+001
      vertex -8.078477e+001  1.444351e+001  1.100000e+001
      vertex -7.963500e+001  1.409002e+001  1.100000e+001
    endloop
  endfacet
  facet normal  0.000000e+000  0.000000e+000  1.000000e+000
    outer loop
      vertex -7.963500e+001  1.409002e+001  1.100000e+001
      vertex -8.078477e+001  1.444351e+001  1.100000e+001
      vertex -8.091415e+001  1.420147e+001  1.100000e+001
    endloop
  endfacet
  facet normal  0.000000e+000  0.000000e+000  1.000000e+000
    outer loop
      vertex -7.963500e+001  1.409002e+001  1.100000e+001
      vertex -8.091415e+001  1.420147e+001  1.100000e+001
      vertex -8.108825e+001  1.398932e+001  1.100000e+001
    endloop
  endfacet
  facet normal  0.000000e+000  0.000000e+000  1.000000e+000
    outer loop
      vertex -8.108825e+001  1.398932e+001  1.100000e+001
      vertex -8.130040e+001  1.381521e+001  1.100000e+001
      vertex -7.963500e+001  1.409002e+001  1.100000e+001
    endloop
  endfacet
  facet normal  0.000000e+000  0.000000e+000  1.000000e+000
    outer loop
      vertex -7.963500e+001  1.409002e+001  1.100000e+001
      vertex -8.130040e+001  1.381521e+001  1.100000e+001
      vertex -7.982654e+001  1.367927e+001  1.100000e+001
    endloop
  endfacet
  facet normal  0.000000e+000  0.000000e+000 -1.000000e+000
    outer loop
      vertex -8.261396e+001  1.627270e+001  0.000000e+000
      vertex -8.432986e+001  1.627927e+001  0.000000e+000
      vertex -8.235133e+001  1.635237e+001  0.000000e+000
    endloop
  endfacet
  facet normal  -0.000000e+000  0.000000e+000 -1.000000e+000
    outer loop
      vertex -8.324226e+001  1.575707e+001  0.000000e+000
      vertex -8.337164e+001  1.551503e+001  0.000000e+000
      vertex -8.463870e+001  1.543076e+001  0.000000e+000
    endloop
  endfacet
  facet normal  0.000000e+000  0.000000e+000 -1.000000e+000
    outer loop
      vertex -7.982654e+001  1.627927e+001  0.000000e+000
      vertex -8.154244e+001  1.627270e+001  0.000000e+000
      vertex -8.180508e+001  1.635237e+001  0.000000e+000
    endloop
  endfacet
  facet normal  -0.000000e+000  0.000000e+000 -1.000000e+000
    outer loop
      vertex -8.207820e+001  1.637927e+001  0.000000e+000
      vertex -8.235133e+001  1.635237e+001  0.000000e+000
      vertex -8.432986e+001  1.627927e+001  0.000000e+000
    endloop
  endfacet
  facet normal  0.000000e+000  0.000000e+000 -1.000000e+000
    outer loop
      vertex -8.207820e+001  1.637927e+001  0.000000e+000
      vertex -8.432986e+001  1.627927e+001  0.000000e+000
      vertex -8.406992e+001  1.665052e+001  0.000000e+000
    endloop
  endfacet
  facet normal  0.000000e+000  0.000000e+000 -9.999999e-001
    outer loop
      vertex -8.207820e+001  1.637927e+001  0.000000e+000
      vertex -8.406992e+001  1.665052e+001  0.000000e+000
      vertex -8.374945e+001  1.697099e+001  0.000000e+000
    endloop
  endfacet
  facet normal  0.000000e+000  0.000000e+000 -1.000000e+000
    outer loop
      vertex -8.207820e+001  1.637927e+001  0.000000e+000
      vertex -8.374945e+001  1.697099e+001  0.000000e+000
      vertex -8.337820e+001  1.723094e+001  0.000000e+000
    endloop
  endfacet
  facet normal  0.000000e+000  0.000000e+000 -1.000000e+000
    outer loop
      vertex -8.207820e+001  1.637927e+001  0.000000e+000
      vertex -8.337820e+001  1.723094e+001  0.000000e+000
      vertex -8.296745e+001  1.742247e+001  0.000000e+000
    endloop
  endfacet
  facet normal  0.000000e+000  0.000000e+000 -1.000000e+000
    outer loop
      vertex -8.207820e+001  1.637927e+001  0.000000e+000
      vertex -8.296745e+001  1.742247e+001  0.000000e+000
      vertex -8.252969e+001  1.753977e+001  0.000000e+000
    endloop
  endfacet
  facet normal  0.000000e+000  0.000000e+000 -1.000000e+000
    outer loop
      vertex -8.207820e+001  1.637927e+001  0.000000e+000
      vertex -8.252969e+001  1.753977e+001  0.000000e+000
      vertex -8.207820e+001  1.757927e+001  0.000000e+000
    endloop
  endfacet
  facet normal  0.000000e+000  0.000000e+000 -1.000000e+000
    outer loop
      vertex -8.207820e+001  1.637927e+001  0.000000e+000
      vertex -8.207820e+001  1.757927e+001  0.000000e+000
      vertex -8.162672e+001  1.753977e+001  0.000000e+000
    endloop
  endfacet
  facet normal  0.000000e+000  -0.000000e+000 -1.000000e+000
    outer loop
      vertex -8.207820e+001  1.637927e+001  0.000000e+000
      vertex -8.162672e+001  1.753977e+001  0.000000e+000
      vertex -8.118895e+001  1.742247e+001  0.000000e+000
    endloop
  endfacet
  facet normal  0.000000e+000  -0.000000e+000 -1.000000e+000
    outer loop
      vertex -8.207820e+001  1.637927e+001  0.000000e+000
      vertex -8.118895e+001  1.742247e+001  0.000000e+000
      vertex -8.077820e+001  1.723094e+001  0.000000e+000
    endloop
  endfacet
  facet normal  0.000000e+000  -0.000000e+000 -1.000000e+000
    outer loop
      vertex -8.207820e+001  1.637927e+001  0.000000e+000
      vertex -8.077820e+001  1.723094e+001  0.000000e+000
      vertex -8.040695e+001  1.697099e+001  0.000000e+000
    endloop
  endfacet
  facet normal  0.000000e+000  -0.000000e+000 -9.999999e-001
    outer loop
      vertex -8.207820e+001  1.637927e+001  0.000000e+000
      vertex -8.040695e+001  1.697099e+001  0.000000e+000
      vertex -8.008649e+001  1.665052e+001  0.000000e+000
    endloop
  endfacet
  facet normal  0.000000e+000  -0.000000e+000 -1.000000e+000
    outer loop
      vertex -8.207820e+001  1.637927e+001  0.000000e+000
      vertex -8.008649e+001  1.665052e+001  0.000000e+000
      vertex -7.982654e+001  1.627927e+001  0.000000e+000
    endloop
  endfacet
  facet normal  0.000000e+000  0.000000e+000 -1.000000e+000
    outer loop
      vertex -8.207820e+001  1.637927e+001  0.000000e+000
      vertex -7.982654e+001  1.627927e+001  0.000000e+000
      vertex -8.180508e+001  1.635237e+001  0.000000e+000
    endloop
  endfacet
  facet normal  0.000000e+000  -0.000000e+000 -9.999999e-001
    outer loop
      vertex -8.452140e+001  1.586852e+001  0.000000e+000
      vertex -8.432986e+001  1.627927e+001  0.000000e+000
      vertex -8.261396e+001  1.627270e+001  0.000000e+000
    endloop
  endfacet
  facet normal  0.000000e+000  0.000000e+000 -1.000000e+000
    outer loop
      vertex -8.452140e+001  1.586852e+001  0.000000e+000
      vertex -8.261396e+001  1.627270e+001  0.000000e+000
      vertex -8.285600e+001  1.614333e+001  0.000000e+000
    endloop
  endfacet
  facet normal  0.000000e+000  0.000000e+000 -1.000000e+000
    outer loop
      vertex -8.452140e+001  1.586852e+001  0.000000e+000
      vertex -8.285600e+001  1.614333e+001  0.000000e+000
      vertex -8.306815e+001  1.596922e+001  0.000000e+000
    endloop
  endfacet
  facet normal  0.000000e+000  0.000000e+000 -1.000000e+000
    outer loop
      vertex -8.452140e+001  1.586852e+001  0.000000e+000
      vertex -8.306815e+001  1.596922e+001  0.000000e+000
      vertex -8.324226e+001  1.575707e+001  0.000000e+000
    endloop
  endfacet
  facet normal  -0.000000e+000  0.000000e+000 -1.000000e+000
    outer loop
      vertex -8.452140e+001  1.586852e+001  0.000000e+000
      vertex -8.324226e+001  1.575707e+001  0.000000e+000
      vertex -8.463870e+001  1.543076e+001  0.000000e+000
    endloop
  endfacet
  facet normal  0.000000e+000  0.000000e+000 -1.000000e+000
    outer loop
      vertex -8.432986e+001  1.367927e+001  0.000000e+000
      vertex -8.452140e+001  1.409002e+001  0.000000e+000
      vertex -8.306815e+001  1.398932e+001  0.000000e+000
    endloop
  endfacet
  facet normal  0.000000e+000  -0.000000e+000 -1.000000e+000
    outer loop
      vertex -8.432986e+001  1.367927e+001  0.000000e+000
      vertex -8.306815e+001  1.398932e+001  0.000000e+000
      vertex -8.285600e+001  1.381521e+001  0.000000e+000
    endloop
  endfacet
  facet normal  0.000000e+000  -0.000000e+000 -9.999999e-001
    outer loop
      vertex -8.432986e+001  1.367927e+001  0.000000e+000
      vertex -8.285600e+001  1.381521e+001  0.000000e+000
      vertex -8.261396e+001  1.368584e+001  0.000000e+000
    endloop
  endfacet
  facet normal  0.000000e+000  0.000000e+000 -1.000000e+000
    outer loop
      vertex -8.207820e+001  1.237927e+001  0.000000e+000
      vertex -8.252969e+001  1.241877e+001  0.000000e+000
      vertex -8.296745e+001  1.253607e+001  0.000000e+000
    endloop
  endfacet
  facet normal  0.000000e+000  0.000000e+000 -1.000000e+000
    outer loop
      vertex -8.207820e+001  1.237927e+001  0.000000e+000
      vertex -8.296745e+001  1.253607e+001  0.000000e+000
      vertex -8.337820e+001  1.272760e+001  0.000000e+000
    endloop
  endfacet
  facet normal  0.000000e+000  0.000000e+000 -9.999999e-001
    outer loop
      vertex -8.207820e+001  1.237927e+001  0.000000e+000
      vertex -8.337820e+001  1.272760e+001  0.000000e+000
      vertex -8.374945e+001  1.298756e+001  0.000000e+000
    endloop
  endfacet
  facet normal  0.000000e+000  0.000000e+000 -1.000000e+000
    outer loop
      vertex -8.207820e+001  1.237927e+001  0.000000e+000
      vertex -8.374945e+001  1.298756e+001  0.000000e+000
      vertex -8.406992e+001  1.330802e+001  0.000000e+000
    endloop
  endfacet
  facet normal  0.000000e+000  0.000000e+000 -9.999999e-001
    outer loop
      vertex -8.207820e+001  1.237927e+001  0.000000e+000
      vertex -8.008649e+001  1.330802e+001  0.000000e+000
      vertex -8.040695e+001  1.298756e+001  0.000000e+000
    endloop
  endfacet
  facet normal  0.000000e+000  0.000000e+000 -9.999999e-001
    outer loop
      vertex -8.207820e+001  1.237927e+001  0.000000e+000
      vertex -8.040695e+001  1.298756e+001  0.000000e+000
      vertex -8.077820e+001  1.272760e+001  0.000000e+000
    endloop
  endfacet
  facet normal  0.000000e+000  0.000000e+000 -1.000000e+000
    outer loop
      vertex -8.207820e+001  1.237927e+001  0.000000e+000
      vertex -8.077820e+001  1.272760e+001  0.000000e+000
      vertex -8.118895e+001  1.253607e+001  0.000000e+000
    endloop
  endfacet
  facet normal  0.000000e+000  0.000000e+000 -1.000000e+000
    outer loop
      vertex -8.207820e+001  1.237927e+001  0.000000e+000
      vertex -8.118895e+001  1.253607e+001  0.000000e+000
      vertex -8.162672e+001  1.241877e+001  0.000000e+000
    endloop
  endfacet
  facet normal  0.000000e+000  0.000000e+000 -1.000000e+000
    outer loop
      vertex -8.347820e+001  1.497927e+001  0.000000e+000
      vertex -8.467820e+001  1.497927e+001  0.000000e+000
      vertex -8.345130e+001  1.525240e+001  0.000000e+000
    endloop
  endfacet
  facet normal  -0.000000e+000  0.000000e+000 -1.000000e+000
    outer loop
      vertex -8.345130e+001  1.525240e+001  0.000000e+000
      vertex -8.467820e+001  1.497927e+001  0.000000e+000
      vertex -8.463870e+001  1.543076e+001  0.000000e+000
    endloop
  endfacet
  facet normal  0.000000e+000  0.000000e+000 -1.000000e+000
    outer loop
      vertex -8.345130e+001  1.525240e+001  0.000000e+000
      vertex -8.463870e+001  1.543076e+001  0.000000e+000
      vertex -8.337164e+001  1.551503e+001  0.000000e+000
    endloop
  endfacet
  facet normal  0.000000e+000  0.000000e+000 -1.000000e+000
    outer loop
      vertex -8.337164e+001  1.444351e+001  0.000000e+000
      vertex -8.463870e+001  1.452779e+001  0.000000e+000
      vertex -8.345130e+001  1.470614e+001  0.000000e+000
    endloop
  endfacet
  facet normal  -0.000000e+000  0.000000e+000 -1.000000e+000
    outer loop
      vertex -8.345130e+001  1.470614e+001  0.000000e+000
      vertex -8.463870e+001  1.452779e+001  0.000000e+000
      vertex -8.467820e+001  1.497927e+001  0.000000e+000
    endloop
  endfacet
  facet normal  0.000000e+000  0.000000e+000 -1.000000e+000
    outer loop
      vertex -8.345130e+001  1.470614e+001  0.000000e+000
      vertex -8.467820e+001  1.497927e+001  0.000000e+000
      vertex -8.347820e+001  1.497927e+001  0.000000e+000
    endloop
  endfacet
  facet normal  0.000000e+000  0.000000e+000 -1.000000e+000
    outer loop
      vertex -8.306815e+001  1.398932e+001  0.000000e+000
      vertex -8.452140e+001  1.409002e+001  0.000000e+000
      vertex -8.324226e+001  1.420147e+001  0.000000e+000
    endloop
  endfacet
  facet normal  -0.000000e+000  0.000000e+000 -1.000000e+000
    outer loop
      vertex -8.324226e+001  1.420147e+001  0.000000e+000
      vertex -8.452140e+001  1.409002e+001  0.000000e+000
      vertex -8.463870e+001  1.452779e+001  0.000000e+000
    endloop
  endfacet
  facet normal  0.000000e+000  0.000000e+000 -1.000000e+000
    outer loop
      vertex -8.324226e+001  1.420147e+001  0.000000e+000
      vertex -8.463870e+001  1.452779e+001  0.000000e+000
      vertex -8.337164e+001  1.444351e+001  0.000000e+000
    endloop
  endfacet
  facet normal  0.000000e+000  0.000000e+000 -1.000000e+000
    outer loop
      vertex -8.130040e+001  1.381521e+001  0.000000e+000
      vertex -7.982654e+001  1.367927e+001  0.000000e+000
      vertex -8.154244e+001  1.368584e+001  0.000000e+000
    endloop
  endfacet
  facet normal  0.000000e+000  0.000000e+000 -1.000000e+000
    outer loop
      vertex -8.154244e+001  1.368584e+001  0.000000e+000
      vertex -7.982654e+001  1.367927e+001  0.000000e+000
      vertex -8.008649e+001  1.330802e+001  0.000000e+000
    endloop
  endfacet
  facet normal  0.000000e+000  0.000000e+000 -1.000000e+000
    outer loop
      vertex -8.154244e+001  1.368584e+001  0.000000e+000
      vertex -8.008649e+001  1.330802e+001  0.000000e+000
      vertex -8.180508e+001  1.360617e+001  0.000000e+000
    endloop
  endfacet
  facet normal  0.000000e+000  -0.000000e+000 -1.000000e+000
    outer loop
      vertex -8.180508e+001  1.360617e+001  0.000000e+000
      vertex -8.008649e+001  1.330802e+001  0.000000e+000
      vertex -8.207820e+001  1.237927e+001  0.000000e+000
    endloop
  endfacet
  facet normal  0.000000e+000  0.000000e+000 -1.000000e+000
    outer loop
      vertex -8.180508e+001  1.360617e+001  0.000000e+000
      vertex -8.207820e+001  1.237927e+001  0.000000e+000
      vertex -8.207820e+001  1.357927e+001  0.000000e+000
    endloop
  endfacet
  facet normal  0.000000e+000  -0.000000e+000 -1.000000e+000
    outer loop
      vertex -8.207820e+001  1.357927e+001  0.000000e+000
      vertex -8.207820e+001  1.237927e+001  0.000000e+000
      vertex -8.406992e+001  1.330802e+001  0.000000e+000
    endloop
  endfacet
  facet normal  0.000000e+000  0.000000e+000 -1.000000e+000
    outer loop
      vertex -8.207820e+001  1.357927e+001  0.000000e+000
      vertex -8.406992e+001  1.330802e+001  0.000000e+000
      vertex -8.235133e+001  1.360617e+001  0.000000e+000
    endloop
  endfacet
  facet normal  -0.000000e+000  0.000000e+000 -1.000000e+000
    outer loop
      vertex -8.235133e+001  1.360617e+001  0.000000e+000
      vertex -8.406992e+001  1.330802e+001  0.000000e+000
      vertex -8.432986e+001  1.367927e+001  0.000000e+000
    endloop
  endfacet
  facet normal  0.000000e+000  0.000000e+000 -1.000000e+000
    outer loop
      vertex -8.235133e+001  1.360617e+001  0.000000e+000
      vertex -8.432986e+001  1.367927e+001  0.000000e+000
      vertex -8.261396e+001  1.368584e+001  0.000000e+000
    endloop
  endfacet
  facet normal  0.000000e+000  0.000000e+000 -1.000000e+000
    outer loop
      vertex -8.108825e+001  1.596922e+001  0.000000e+000
      vertex -8.130040e+001  1.614333e+001  0.000000e+000
      vertex -7.963500e+001  1.586852e+001  0.000000e+000
    endloop
  endfacet
  facet normal  0.000000e+000  0.000000e+000 -1.000000e+000
    outer loop
      vertex -7.963500e+001  1.586852e+001  0.000000e+000
      vertex -8.130040e+001  1.614333e+001  0.000000e+000
      vertex -8.154244e+001  1.627270e+001  0.000000e+000
    endloop
  endfacet
  facet normal  0.000000e+000  0.000000e+000 -9.999999e-001
    outer loop
      vertex -7.963500e+001  1.586852e+001  0.000000e+000
      vertex -8.154244e+001  1.627270e+001  0.000000e+000
      vertex -7.982654e+001  1.627927e+001  0.000000e+000
    endloop
  endfacet
  facet normal  0.000000e+000  0.000000e+000 -1.000000e+000
    outer loop
      vertex -8.078477e+001  1.551503e+001  0.000000e+000
      vertex -8.091415e+001  1.575707e+001  0.000000e+000
      vertex -7.951770e+001  1.543076e+001  0.000000e+000
    endloop
  endfacet
  facet normal  0.000000e+000  0.000000e+000 -9.999999e-001
    outer loop
      vertex -7.951770e+001  1.543076e+001  0.000000e+000
      vertex -8.091415e+001  1.575707e+001  0.000000e+000
      vertex -8.108825e+001  1.596922e+001  0.000000e+000
    endloop
  endfacet
  facet normal  0.000000e+000  0.000000e+000 -1.000000e+000
    outer loop
      vertex -7.951770e+001  1.543076e+001  0.000000e+000
      vertex -8.108825e+001  1.596922e+001  0.000000e+000
      vertex -7.963500e+001  1.586852e+001  0.000000e+000
    endloop
  endfacet
  facet normal  0.000000e+000  0.000000e+000 -1.000000e+000
    outer loop
      vertex -8.067820e+001  1.497927e+001  0.000000e+000
      vertex -8.070510e+001  1.525240e+001  0.000000e+000
      vertex -7.947820e+001  1.497927e+001  0.000000e+000
    endloop
  endfacet
  facet normal  0.000000e+000  0.000000e+000 -1.000000e+000
    outer loop
      vertex -7.947820e+001  1.497927e+001  0.000000e+000
      vertex -8.070510e+001  1.525240e+001  0.000000e+000
      vertex -8.078477e+001  1.551503e+001  0.000000e+000
    endloop
  endfacet
  facet normal  0.000000e+000  0.000000e+000 -1.000000e+000
    outer loop
      vertex -7.947820e+001  1.497927e+001  0.000000e+000
      vertex -8.078477e+001  1.551503e+001  0.000000e+000
      vertex -7.951770e+001  1.543076e+001  0.000000e+000
    endloop
  endfacet
  facet normal  0.000000e+000  -0.000000e+000 -1.000000e+000
    outer loop
      vertex -8.078477e+001  1.444351e+001  0.000000e+000
      vertex -8.070510e+001  1.470614e+001  0.000000e+000
      vertex -7.951770e+001  1.452779e+001  0.000000e+000
    endloop
  endfacet
  facet normal  0.000000e+000  0.000000e+000 -9.999999e-001
    outer loop
      vertex -7.951770e+001  1.452779e+001  0.000000e+000
      vertex -8.070510e+001  1.470614e+001  0.000000e+000
      vertex -8.067820e+001  1.497927e+001  0.000000e+000
    endloop
  endfacet
  facet normal  0.000000e+000  0.000000e+000 -1.000000e+000
    outer loop
      vertex -7.951770e+001  1.452779e+001  0.000000e+000
      vertex -8.067820e+001  1.497927e+001  0.000000e+000
      vertex -7.947820e+001  1.497927e+001  0.000000e+000
    endloop
  endfacet
  facet normal  0.000000e+000  -0.000000e+000 -1.000000e+000
    outer loop
      vertex -8.108825e+001  1.398932e+001  0.000000e+000
      vertex -8.091415e+001  1.420147e+001  0.000000e+000
      vertex -7.963500e+001  1.409002e+001  0.000000e+000
    endloop
  endfacet
  facet normal  0.000000e+000  0.000000e+000 -1.000000e+000
    outer loop
      vertex -7.963500e+001  1.409002e+001  0.000000e+000
      vertex -8.091415e+001  1.420147e+001  0.000000e+000
      vertex -8.078477e+001  1.444351e+001  0.000000e+000
    endloop
  endfacet
  facet normal  0.000000e+000  0.000000e+000 -1.000000e+000
    outer loop
      vertex -7.963500e+001  1.409002e+001  0.000000e+000
      vertex -8.078477e+001  1.444351e+001  0.000000e+000
      vertex -7.951770e+001  1.452779e+001  0.000000e+000
    endloop
  endfacet
  facet normal  0.000000e+000  0.000000e+000 -1.000000e+000
    outer loop
      vertex -8.108825e+001  1.398932e+001  0.000000e+000
      vertex -7.963500e+001  1.409002e+001  0.000000e+000
      vertex -8.130040e+001  1.381521e+001  0.000000e+000
    endloop
  endfacet
  facet normal  0.000000e+000  0.000000e+000 -1.000000e+000
    outer loop
      vertex -8.130040e+001  1.381521e+001  0.000000e+000
      vertex -7.963500e+001  1.409002e+001  0.000000e+000
      vertex -7.982654e+001  1.367927e+001  0.000000e+000
    endloop
  endfacet
  facet normal  9.801318e-002 -9.951851e-001  0.000000e+000
    outer loop
      vertex -8.207820e+001  1.637927e+001  0.000000e+000
      vertex -8.235133e+001  1.635237e+001  1.100000e+001
      vertex -8.235133e+001  1.635237e+001  0.000000e+000
    endloop
  endfacet
  facet normal  2.902807e-001 -9.569415e-001  0.000000e+000
    outer loop
      vertex -8.235133e+001  1.635237e+001  0.000000e+000
      vertex -8.235133e+001  1.635237e+001  1.100000e+001
      vertex -8.261396e+001  1.627270e+001  1.100000e+001
    endloop
  endfacet
  facet normal  2.902807e-001 -9.569415e-001  0.000000e+000
    outer loop
      vertex -8.235133e+001  1.635237e+001  0.000000e+000
      vertex -8.261396e+001  1.627270e+001  1.100000e+001
      vertex -8.261396e+001  1.627270e+001  0.000000e+000
    endloop
  endfacet
  facet normal  4.713996e-001 -8.819197e-001  0.000000e+000
    outer loop
      vertex -8.261396e+001  1.627270e+001  0.000000e+000
      vertex -8.261396e+001  1.627270e+001  1.100000e+001
      vertex -8.285600e+001  1.614333e+001  1.100000e+001
    endloop
  endfacet
  facet normal  4.713996e-001 -8.819197e-001  0.000000e+000
    outer loop
      vertex -8.261396e+001  1.627270e+001  0.000000e+000
      vertex -8.285600e+001  1.614333e+001  1.100000e+001
      vertex -8.285600e+001  1.614333e+001  0.000000e+000
    endloop
  endfacet
  facet normal  6.343935e-001 -7.730103e-001  0.000000e+000
    outer loop
      vertex -8.285600e+001  1.614333e+001  0.000000e+000
      vertex -8.285600e+001  1.614333e+001  1.100000e+001
      vertex -8.306815e+001  1.596922e+001  1.100000e+001
    endloop
  endfacet
  facet normal  6.343935e-001 -7.730103e-001  0.000000e+000
    outer loop
      vertex -8.285600e+001  1.614333e+001  0.000000e+000
      vertex -8.306815e+001  1.596922e+001  1.100000e+001
      vertex -8.306815e+001  1.596922e+001  0.000000e+000
    endloop
  endfacet
  facet normal  7.730188e-001 -6.343830e-001  0.000000e+000
    outer loop
      vertex -8.306815e+001  1.596922e+001  0.000000e+000
      vertex -8.306815e+001  1.596922e+001  1.100000e+001
      vertex -8.324226e+001  1.575707e+001  1.100000e+001
    endloop
  endfacet
  facet normal  7.730188e-001 -6.343830e-001  0.000000e+000
    outer loop
      vertex -8.306815e+001  1.596922e+001  0.000000e+000
      vertex -8.324226e+001  1.575707e+001  1.100000e+001
      vertex -8.324226e+001  1.575707e+001  0.000000e+000
    endloop
  endfacet
  facet normal  8.819132e-001 -4.714119e-001  0.000000e+000
    outer loop
      vertex -8.324226e+001  1.575707e+001  0.000000e+000
      vertex -8.324226e+001  1.575707e+001  1.100000e+001
      vertex -8.337164e+001  1.551503e+001  1.100000e+001
    endloop
  endfacet
  facet normal  8.819132e-001 -4.714119e-001  0.000000e+000
    outer loop
      vertex -8.324226e+001  1.575707e+001  0.000000e+000
      vertex -8.337164e+001  1.551503e+001  1.100000e+001
      vertex -8.337164e+001  1.551503e+001  0.000000e+000
    endloop
  endfacet
  facet normal  9.569423e-001 -2.902782e-001  0.000000e+000
    outer loop
      vertex -8.337164e+001  1.551503e+001  0.000000e+000
      vertex -8.337164e+001  1.551503e+001  1.100000e+001
      vertex -8.345130e+001  1.525240e+001  1.100000e+001
    endloop
  endfacet
  facet normal  9.569423e-001 -2.902782e-001  0.000000e+000
    outer loop
      vertex -8.337164e+001  1.551503e+001  0.000000e+000
      vertex -8.345130e+001  1.525240e+001  1.100000e+001
      vertex -8.345130e+001  1.525240e+001  0.000000e+000
    endloop
  endfacet
  facet normal  9.951845e-001 -9.801938e-002  0.000000e+000
    outer loop
      vertex -8.345130e+001  1.525240e+001  0.000000e+000
      vertex -8.345130e+001  1.525240e+001  1.100000e+001
      vertex -8.347820e+001  1.497927e+001  1.100000e+001
    endloop
  endfacet
  facet normal  9.951845e-001 -9.801938e-002  0.000000e+000
    outer loop
      vertex -8.345130e+001  1.525240e+001  0.000000e+000
      vertex -8.347820e+001  1.497927e+001  1.100000e+001
      vertex -8.347820e+001  1.497927e+001  0.000000e+000
    endloop
  endfacet
  facet normal  9.801318e-002 -9.951851e-001  0.000000e+000
    outer loop
      vertex -8.235133e+001  1.635237e+001  1.100000e+001
      vertex -8.207820e+001  1.637927e+001  0.000000e+000
      vertex -8.207820e+001  1.637927e+001  1.100000e+001
    endloop
  endfacet
  facet normal -9.801318e-002 -9.951851e-001  -0.000000e+000
    outer loop
      vertex -8.207820e+001  1.637927e+001  1.100000e+001
      vertex -8.207820e+001  1.637927e+001  0.000000e+000
      vertex -8.180508e+001  1.635237e+001  0.000000e+000
    endloop
  endfacet
  facet normal -9.801318e-002 -9.951851e-001  0.000000e+000
    outer loop
      vertex -8.207820e+001  1.637927e+001  1.100000e+001
      vertex -8.180508e+001  1.635237e+001  0.000000e+000
      vertex -8.180508e+001  1.635237e+001  1.100000e+001
    endloop
  endfacet
  facet normal -2.902807e-001 -9.569415e-001  -0.000000e+000
    outer loop
      vertex -8.180508e+001  1.635237e+001  1.100000e+001
      vertex -8.180508e+001  1.635237e+001  0.000000e+000
      vertex -8.154244e+001  1.627270e+001  0.000000e+000
    endloop
  endfacet
  facet normal -2.902807e-001 -9.569415e-001  0.000000e+000
    outer loop
      vertex -8.180508e+001  1.635237e+001  1.100000e+001
      vertex -8.154244e+001  1.627270e+001  0.000000e+000
      vertex -8.154244e+001  1.627270e+001  1.100000e+001
    endloop
  endfacet
  facet normal -4.713996e-001 -8.819197e-001  -0.000000e+000
    outer loop
      vertex -8.154244e+001  1.627270e+001  1.100000e+001
      vertex -8.154244e+001  1.627270e+001  0.000000e+000
      vertex -8.130040e+001  1.614333e+001  0.000000e+000
    endloop
  endfacet
  facet normal -4.713996e-001 -8.819197e-001  0.000000e+000
    outer loop
      vertex -8.154244e+001  1.627270e+001  1.100000e+001
      vertex -8.130040e+001  1.614333e+001  0.000000e+000
      vertex -8.130040e+001  1.614333e+001  1.100000e+001
    endloop
  endfacet
  facet normal -6.343935e-001 -7.730103e-001  -0.000000e+000
    outer loop
      vertex -8.130040e+001  1.614333e+001  1.100000e+001
      vertex -8.130040e+001  1.614333e+001  0.000000e+000
      vertex -8.108825e+001  1.596922e+001  0.000000e+000
    endloop
  endfacet
  facet normal -6.343935e-001 -7.730103e-001  0.000000e+000
    outer loop
      vertex -8.130040e+001  1.614333e+001  1.100000e+001
      vertex -8.108825e+001  1.596922e+001  0.000000e+000
      vertex -8.108825e+001  1.596922e+001  1.100000e+001
    endloop
  endfacet
  facet normal -7.730188e-001 -6.343830e-001  -0.000000e+000
    outer loop
      vertex -8.108825e+001  1.596922e+001  1.100000e+001
      vertex -8.108825e+001  1.596922e+001  0.000000e+000
      vertex -8.091415e+001  1.575707e+001  0.000000e+000
    endloop
  endfacet
  facet normal -7.730188e-001 -6.343830e-001  0.000000e+000
    outer loop
      vertex -8.108825e+001  1.596922e+001  1.100000e+001
      vertex -8.091415e+001  1.575707e+001  0.000000e+000
      vertex -8.091415e+001  1.575707e+001  1.100000e+001
    endloop
  endfacet
  facet normal -8.819132e-001 -4.714119e-001  -0.000000e+000
    outer loop
      vertex -8.091415e+001  1.575707e+001  1.100000e+001
      vertex -8.091415e+001  1.575707e+001  0.000000e+000
      vertex -8.078477e+001  1.551503e+001  0.000000e+000
    endloop
  endfacet
  facet normal -8.819132e-001 -4.714119e-001  0.000000e+000
    outer loop
      vertex -8.091415e+001  1.575707e+001  1.100000e+001
      vertex -8.078477e+001  1.551503e+001  0.000000e+000
      vertex -8.078477e+001  1.551503e+001  1.100000e+001
    endloop
  endfacet
  facet normal -9.569423e-001 -2.902782e-001  -0.000000e+000
    outer loop
      vertex -8.078477e+001  1.551503e+001  1.100000e+001
      vertex -8.078477e+001  1.551503e+001  0.000000e+000
      vertex -8.070510e+001  1.525240e+001  0.000000e+000
    endloop
  endfacet
  facet normal -9.569423e-001 -2.902782e-001  0.000000e+000
    outer loop
      vertex -8.078477e+001  1.551503e+001  1.100000e+001
      vertex -8.070510e+001  1.525240e+001  0.000000e+000
      vertex -8.070510e+001  1.525240e+001  1.100000e+001
    endloop
  endfacet
  facet normal -9.951845e-001 -9.801938e-002  -0.000000e+000
    outer loop
      vertex -8.070510e+001  1.525240e+001  1.100000e+001
      vertex -8.070510e+001  1.525240e+001  0.000000e+000
      vertex -8.067820e+001  1.497927e+001  0.000000e+000
    endloop
  endfacet
  facet normal -9.951845e-001 -9.801938e-002  0.000000e+000
    outer loop
      vertex -8.070510e+001  1.525240e+001  1.100000e+001
      vertex -8.067820e+001  1.497927e+001  0.000000e+000
      vertex -8.067820e+001  1.497927e+001  1.100000e+001
    endloop
  endfacet
  facet normal -9.801663e-002  9.951848e-001  0.000000e+000
    outer loop
      vertex -8.207820e+001  1.357927e+001  0.000000e+000
      vertex -8.180508e+001  1.360617e+001  1.100000e+001
      vertex -8.180508e+001  1.360617e+001  0.000000e+000
    endloop
  endfacet
  facet normal -2.902807e-001  9.569415e-001  0.000000e+000
    outer loop
      vertex -8.180508e+001  1.360617e+001  0.000000e+000
      vertex -8.180508e+001  1.360617e+001  1.100000e+001
      vertex -8.154244e+001  1.368584e+001  1.100000e+001
    endloop
  endfacet
  facet normal -2.902807e-001  9.569415e-001  0.000000e+000
    outer loop
      vertex -8.180508e+001  1.360617e+001  0.000000e+000
      vertex -8.154244e+001  1.368584e+001  1.100000e+001
      vertex -8.154244e+001  1.368584e+001  0.000000e+000
    endloop
  endfacet
  facet normal -4.713942e-001  8.819225e-001  0.000000e+000
    outer loop
      vertex -8.154244e+001  1.368584e+001  0.000000e+000
      vertex -8.154244e+001  1.368584e+001  1.100000e+001
      vertex -8.130040e+001  1.381521e+001  1.100000e+001
    endloop
  endfacet
  facet normal -4.713942e-001  8.819225e-001  0.000000e+000
    outer loop
      vertex -8.154244e+001  1.368584e+001  0.000000e+000
      vertex -8.130040e+001  1.381521e+001  1.100000e+001
      vertex -8.130040e+001  1.381521e+001  0.000000e+000
    endloop
  endfacet
  facet normal -6.343955e-001  7.730086e-001  0.000000e+000
    outer loop
      vertex -8.130040e+001  1.381521e+001  0.000000e+000
      vertex -8.130040e+001  1.381521e+001  1.100000e+001
      vertex -8.108825e+001  1.398932e+001  1.100000e+001
    endloop
  endfacet
  facet normal -6.343955e-001  7.730086e-001  0.000000e+000
    outer loop
      vertex -8.130040e+001  1.381521e+001  0.000000e+000
      vertex -8.108825e+001  1.398932e+001  1.100000e+001
      vertex -8.108825e+001  1.398932e+001  0.000000e+000
    endloop
  endfacet
  facet normal -7.730188e-001  6.343830e-001  0.000000e+000
    outer loop
      vertex -8.108825e+001  1.398932e+001  0.000000e+000
      vertex -8.108825e+001  1.398932e+001  1.100000e+001
      vertex -8.091415e+001  1.420147e+001  1.100000e+001
    endloop
  endfacet
  facet normal -7.730188e-001  6.343830e-001  0.000000e+000
    outer loop
      vertex -8.108825e+001  1.398932e+001  0.000000e+000
      vertex -8.091415e+001  1.420147e+001  1.100000e+001
      vertex -8.091415e+001  1.420147e+001  0.000000e+000
    endloop
  endfacet
  facet normal -8.819132e-001  4.714119e-001  0.000000e+000
    outer loop
      vertex -8.091415e+001  1.420147e+001  0.000000e+000
      vertex -8.091415e+001  1.420147e+001  1.100000e+001
      vertex -8.078477e+001  1.444351e+001  1.100000e+001
    endloop
  endfacet
  facet normal -8.819132e-001  4.714119e-001  0.000000e+000
    outer loop
      vertex -8.091415e+001  1.420147e+001  0.000000e+000
      vertex -8.078477e+001  1.444351e+001  1.100000e+001
      vertex -8.078477e+001  1.444351e+001  0.000000e+000
    endloop
  endfacet
  facet normal -9.569423e-001  2.902782e-001  0.000000e+000
    outer loop
      vertex -8.078477e+001  1.444351e+001  0.000000e+000
      vertex -8.078477e+001  1.444351e+001  1.100000e+001
      vertex -8.070510e+001  1.470614e+001  1.100000e+001
    endloop
  endfacet
  facet normal -9.569423e-001  2.902782e-001  0.000000e+000
    outer loop
      vertex -8.078477e+001  1.444351e+001  0.000000e+000
      vertex -8.070510e+001  1.470614e+001  1.100000e+001
      vertex -8.070510e+001  1.470614e+001  0.000000e+000
    endloop
  endfacet
  facet normal -9.951845e-001  9.801938e-002  0.000000e+000
    outer loop
      vertex -8.070510e+001  1.470614e+001  0.000000e+000
      vertex -8.070510e+001  1.470614e+001  1.100000e+001
      vertex -8.067820e+001  1.497927e+001  1.100000e+001
    endloop
  endfacet
  facet normal -9.951845e-001  9.801938e-002  0.000000e+000
    outer loop
      vertex -8.070510e+001  1.470614e+001  0.000000e+000
      vertex -8.067820e+001  1.497927e+001  1.100000e+001
      vertex -8.067820e+001  1.497927e+001  0.000000e+000
    endloop
  endfacet
  facet normal -9.801663e-002  9.951848e-001  0.000000e+000
    outer loop
      vertex -8.180508e+001  1.360617e+001  1.100000e+001
      vertex -8.207820e+001  1.357927e+001  0.000000e+000
      vertex -8.207820e+001  1.357927e+001  1.100000e+001
    endloop
  endfacet
  facet normal  9.801663e-002  9.951848e-001  0.000000e+000
    outer loop
      vertex -8.207820e+001  1.357927e+001  1.100000e+001
      vertex -8.207820e+001  1.357927e+001  0.000000e+000
      vertex -8.235133e+001  1.360617e+001  0.000000e+000
    endloop
  endfacet
  facet normal  9.801663e-002  9.951848e-001  -0.000000e+000
    outer loop
      vertex -8.207820e+001  1.357927e+001  1.100000e+001
      vertex -8.235133e+001  1.360617e+001  0.000000e+000
      vertex -8.235133e+001  1.360617e+001  1.100000e+001
    endloop
  endfacet
  facet normal  2.902807e-001  9.569415e-001  0.000000e+000
    outer loop
      vertex -8.235133e+001  1.360617e+001  1.100000e+001
      vertex -8.235133e+001  1.360617e+001  0.000000e+000
      vertex -8.261396e+001  1.368584e+001  0.000000e+000
    endloop
  endfacet
  facet normal  2.902807e-001  9.569415e-001  -0.000000e+000
    outer loop
      vertex -8.235133e+001  1.360617e+001  1.100000e+001
      vertex -8.261396e+001  1.368584e+001  0.000000e+000
      vertex -8.261396e+001  1.368584e+001  1.100000e+001
    endloop
  endfacet
  facet normal  4.713942e-001  8.819225e-001  0.000000e+000
    outer loop
      vertex -8.261396e+001  1.368584e+001  1.100000e+001
      vertex -8.261396e+001  1.368584e+001  0.000000e+000
      vertex -8.285600e+001  1.381521e+001  0.000000e+000
    endloop
  endfacet
  facet normal  4.713942e-001  8.819225e-001  -0.000000e+000
    outer loop
      vertex -8.261396e+001  1.368584e+001  1.100000e+001
      vertex -8.285600e+001  1.381521e+001  0.000000e+000
      vertex -8.285600e+001  1.381521e+001  1.100000e+001
    endloop
  endfacet
  facet normal  6.343955e-001  7.730086e-001  0.000000e+000
    outer loop
      vertex -8.285600e+001  1.381521e+001  1.100000e+001
      vertex -8.285600e+001  1.381521e+001  0.000000e+000
      vertex -8.306815e+001  1.398932e+001  0.000000e+000
    endloop
  endfacet
  facet normal  6.343955e-001  7.730086e-001  -0.000000e+000
    outer loop
      vertex -8.285600e+001  1.381521e+001  1.100000e+001
      vertex -8.306815e+001  1.398932e+001  0.000000e+000
      vertex -8.306815e+001  1.398932e+001  1.100000e+001
    endloop
  endfacet
  facet normal  7.730188e-001  6.343830e-001  0.000000e+000
    outer loop
      vertex -8.306815e+001  1.398932e+001  1.100000e+001
      vertex -8.306815e+001  1.398932e+001  0.000000e+000
      vertex -8.324226e+001  1.420147e+001  0.000000e+000
    endloop
  endfacet
  facet normal  7.730188e-001  6.343830e-001  -0.000000e+000
    outer loop
      vertex -8.306815e+001  1.398932e+001  1.100000e+001
      vertex -8.324226e+001  1.420147e+001  0.000000e+000
      vertex -8.324226e+001  1.420147e+001  1.100000e+001
    endloop
  endfacet
  facet normal  8.819132e-001  4.714119e-001  0.000000e+000
    outer loop
      vertex -8.324226e+001  1.420147e+001  1.100000e+001
      vertex -8.324226e+001  1.420147e+001  0.000000e+000
      vertex -8.337164e+001  1.444351e+001  0.000000e+000
    endloop
  endfacet
  facet normal  8.819132e-001  4.714119e-001  -0.000000e+000
    outer loop
      vertex -8.324226e+001  1.420147e+001  1.100000e+001
      vertex -8.337164e+001  1.444351e+001  0.000000e+000
      vertex -8.337164e+001  1.444351e+001  1.100000e+001
    endloop
  endfacet
  facet normal  9.569423e-001  2.902782e-001  0.000000e+000
    outer loop
      vertex -8.337164e+001  1.444351e+001  1.100000e+001
      vertex -8.337164e+001  1.444351e+001  0.000000e+000
      vertex -8.345130e+001  1.470614e+001  0.000000e+000
    endloop
  endfacet
  facet normal  9.569423e-001  2.902782e-001  -0.000000e+000
    outer loop
      vertex -8.337164e+001  1.444351e+001  1.100000e+001
      vertex -8.345130e+001  1.470614e+001  0.000000e+000
      vertex -8.345130e+001  1.470614e+001  1.100000e+001
    endloop
  endfacet
  facet normal  9.951845e-001  9.801938e-002  0.000000e+000
    outer loop
      vertex -8.345130e+001  1.470614e+001  1.100000e+001
      vertex -8.345130e+001  1.470614e+001  0.000000e+000
      vertex -8.347820e+001  1.497927e+001  0.000000e+000
    endloop
  endfacet
  facet normal  9.951845e-001  9.801938e-002  -0.000000e+000
    outer loop
      vertex -8.345130e+001  1.470614e+001  1.100000e+001
      vertex -8.347820e+001  1.497927e+001  0.000000e+000
      vertex -8.347820e+001  1.497927e+001  1.100000e+001
    endloop
  endfacet
  facet normal  9.961952e-001 -8.715028e-002  0.000000e+000
    outer loop
      vertex -7.947820e+001  1.497927e+001  0.000000e+000
      vertex -7.947820e+001  1.497927e+001  1.100000e+001
      vertex -7.951770e+001  1.452779e+001  0.000000e+000
    endloop
  endfacet
  facet normal  9.961952e-001 -8.715028e-002  0.000000e+000
    outer loop
      vertex -7.951770e+001  1.452779e+001  0.000000e+000
      vertex -7.947820e+001  1.497927e+001  1.100000e+001
      vertex -7.951770e+001  1.452779e+001  1.100000e+001
    endloop
  endfacet
  facet normal  9.659244e-001 -2.588244e-001  0.000000e+000
    outer loop
      vertex -7.951770e+001  1.452779e+001  0.000000e+000
      vertex -7.951770e+001  1.452779e+001  1.100000e+001
      vertex -7.963500e+001  1.409002e+001  0.000000e+000
    endloop
  endfacet
  facet normal  9.659244e-001 -2.588244e-001  0.000000e+000
    outer loop
      vertex -7.963500e+001  1.409002e+001  0.000000e+000
      vertex -7.951770e+001  1.452779e+001  1.100000e+001
      vertex -7.963500e+001  1.409002e+001  1.100000e+001
    endloop
  endfacet
  facet normal  9.063067e-001 -4.226205e-001  0.000000e+000
    outer loop
      vertex -7.963500e+001  1.409002e+001  0.000000e+000
      vertex -7.963500e+001  1.409002e+001  1.100000e+001
      vertex -7.982654e+001  1.367927e+001  0.000000e+000
    endloop
  endfacet
  facet normal  9.063067e-001 -4.226205e-001  0.000000e+000
    outer loop
      vertex -7.982654e+001  1.367927e+001  0.000000e+000
      vertex -7.963500e+001  1.409002e+001  1.100000e+001
      vertex -7.982654e+001  1.367927e+001  1.100000e+001
    endloop
  endfacet
  facet normal  8.191535e-001 -5.735743e-001  0.000000e+000
    outer loop
      vertex -7.982654e+001  1.367927e+001  0.000000e+000
      vertex -7.982654e+001  1.367927e+001  1.100000e+001
      vertex -8.008649e+001  1.330802e+001  0.000000e+000
    endloop
  endfacet
  facet normal  8.191535e-001 -5.735743e-001  0.000000e+000
    outer loop
      vertex -8.008649e+001  1.330802e+001  0.000000e+000
      vertex -7.982654e+001  1.367927e+001  1.100000e+001
      vertex -8.008649e+001  1.330802e+001  1.100000e+001
    endloop
  endfacet
  facet normal  7.071099e-001 -7.071037e-001  0.000000e+000
    outer loop
      vertex -8.008649e+001  1.330802e+001  0.000000e+000
      vertex -8.008649e+001  1.330802e+001  1.100000e+001
      vertex -8.040695e+001  1.298756e+001  0.000000e+000
    endloop
  endfacet
  facet normal  7.071099e-001 -7.071037e-001  0.000000e+000
    outer loop
      vertex -8.040695e+001  1.298756e+001  0.000000e+000
      vertex -8.008649e+001  1.330802e+001  1.100000e+001
      vertex -8.040695e+001  1.298756e+001  1.100000e+001
    endloop
  endfacet
  facet normal  5.735781e-001 -8.191509e-001  0.000000e+000
    outer loop
      vertex -8.040695e+001  1.298756e+001  0.000000e+000
      vertex -8.040695e+001  1.298756e+001  1.100000e+001
      vertex -8.077820e+001  1.272760e+001  0.000000e+000
    endloop
  endfacet
  facet normal  5.735781e-001 -8.191509e-001  0.000000e+000
    outer loop
      vertex -8.077820e+001  1.272760e+001  0.000000e+000
      vertex -8.040695e+001  1.298756e+001  1.100000e+001
      vertex -8.077820e+001  1.272760e+001  1.100000e+001
    endloop
  endfacet
  facet normal  4.226155e-001 -9.063090e-001  0.000000e+000
    outer loop
      vertex -8.077820e+001  1.272760e+001  0.000000e+000
      vertex -8.077820e+001  1.272760e+001  1.100000e+001
      vertex -8.118895e+001  1.253607e+001  0.000000e+000
    endloop
  endfacet
  facet normal  4.226155e-001 -9.063090e-001  0.000000e+000
    outer loop
      vertex -8.118895e+001  1.253607e+001  0.000000e+000
      vertex -8.077820e+001  1.272760e+001  1.100000e+001
      vertex -8.118895e+001  1.253607e+001  1.100000e+001
    endloop
  endfacet
  facet normal  2.588186e-001 -9.659260e-001  0.000000e+000
    outer loop
      vertex -8.118895e+001  1.253607e+001  0.000000e+000
      vertex -8.118895e+001  1.253607e+001  1.100000e+001
      vertex -8.162672e+001  1.241877e+001  0.000000e+000
    endloop
  endfacet
  facet normal  2.588186e-001 -9.659260e-001  0.000000e+000
    outer loop
      vertex -8.162672e+001  1.241877e+001  0.000000e+000
      vertex -8.118895e+001  1.253607e+001  1.100000e+001
      vertex -8.162672e+001  1.241877e+001  1.100000e+001
    endloop
  endfacet
  facet normal  8.715672e-002 -9.961947e-001  0.000000e+000
    outer loop
      vertex -8.162672e+001  1.241877e+001  0.000000e+000
      vertex -8.162672e+001  1.241877e+001  1.100000e+001
      vertex -8.207820e+001  1.237927e+001  0.000000e+000
    endloop
  endfacet
  facet normal  8.715672e-002 -9.961947e-001  0.000000e+000
    outer loop
      vertex -8.207820e+001  1.237927e+001  0.000000e+000
      vertex -8.162672e+001  1.241877e+001  1.100000e+001
      vertex -8.207820e+001  1.237927e+001  1.100000e+001
    endloop
  endfacet
  facet normal -8.715672e-002 -9.961947e-001  -0.000000e+000
    outer loop
      vertex -8.207820e+001  1.237927e+001  0.000000e+000
      vertex -8.207820e+001  1.237927e+001  1.100000e+001
      vertex -8.252969e+001  1.241877e+001  0.000000e+000
    endloop
  endfacet
  facet normal -8.715672e-002 -9.961947e-001  0.000000e+000
    outer loop
      vertex -8.252969e+001  1.241877e+001  0.000000e+000
      vertex -8.207820e+001  1.237927e+001  1.100000e+001
      vertex -8.252969e+001  1.241877e+001  1.100000e+001
    endloop
  endfacet
  facet normal -2.588186e-001 -9.659260e-001  -0.000000e+000
    outer loop
      vertex -8.252969e+001  1.241877e+001  0.000000e+000
      vertex -8.252969e+001  1.241877e+001  1.100000e+001
      vertex -8.296745e+001  1.253607e+001  0.000000e+000
    endloop
  endfacet
  facet normal -2.588186e-001 -9.659260e-001  0.000000e+000
    outer loop
      vertex -8.296745e+001  1.253607e+001  0.000000e+000
      vertex -8.252969e+001  1.241877e+001  1.100000e+001
      vertex -8.296745e+001  1.253607e+001  1.100000e+001
    endloop
  endfacet
  facet normal -4.226155e-001 -9.063090e-001  -0.000000e+000
    outer loop
      vertex -8.296745e+001  1.253607e+001  0.000000e+000
      vertex -8.296745e+001  1.253607e+001  1.100000e+001
      vertex -8.337820e+001  1.272760e+001  0.000000e+000
    endloop
  endfacet
  facet normal -4.226155e-001 -9.063090e-001  0.000000e+000
    outer loop
      vertex -8.337820e+001  1.272760e+001  0.000000e+000
      vertex -8.296745e+001  1.253607e+001  1.100000e+001
      vertex -8.337820e+001  1.272760e+001  1.100000e+001
    endloop
  endfacet
  facet normal -5.735781e-001 -8.191509e-001  -0.000000e+000
    outer loop
      vertex -8.337820e+001  1.272760e+001  0.000000e+000
      vertex -8.337820e+001  1.272760e+001  1.100000e+001
      vertex -8.374945e+001  1.298756e+001  0.000000e+000
    endloop
  endfacet
  facet normal -5.735781e-001 -8.191509e-001  0.000000e+000
    outer loop
      vertex -8.374945e+001  1.298756e+001  0.000000e+000
      vertex -8.337820e+001  1.272760e+001  1.100000e+001
      vertex -8.374945e+001  1.298756e+001  1.100000e+001
    endloop
  endfacet
  facet normal -7.071099e-001 -7.071037e-001  -0.000000e+000
    outer loop
      vertex -8.374945e+001  1.298756e+001  0.000000e+000
      vertex -8.374945e+001  1.298756e+001  1.100000e+001
      vertex -8.406992e+001  1.330802e+001  0.000000e+000
    endloop
  endfacet
  facet normal -7.071099e-001 -7.071037e-001  0.000000e+000
    outer loop
      vertex -8.406992e+001  1.330802e+001  0.000000e+000
      vertex -8.374945e+001  1.298756e+001  1.100000e+001
      vertex -8.406992e+001  1.330802e+001  1.100000e+001
    endloop
  endfacet
  facet normal -8.191535e-001 -5.735743e-001  -0.000000e+000
    outer loop
      vertex -8.406992e+001  1.330802e+001  0.000000e+000
      vertex -8.406992e+001  1.330802e+001  1.100000e+001
      vertex -8.432986e+001  1.367927e+001  0.000000e+000
    endloop
  endfacet
  facet normal -8.191535e-001 -5.735743e-001  0.000000e+000
    outer loop
      vertex -8.432986e+001  1.367927e+001  0.000000e+000
      vertex -8.406992e+001  1.330802e+001  1.100000e+001
      vertex -8.432986e+001  1.367927e+001  1.100000e+001
    endloop
  endfacet
  facet normal -9.063067e-001 -4.226205e-001  -0.000000e+000
    outer loop
      vertex -8.432986e+001  1.367927e+001  0.000000e+000
      vertex -8.432986e+001  1.367927e+001  1.100000e+001
      vertex -8.452140e+001  1.409002e+001  0.000000e+000
    endloop
  endfacet
  facet normal -9.063067e-001 -4.226205e-001  0.000000e+000
    outer loop
      vertex -8.452140e+001  1.409002e+001  0.000000e+000
      vertex -8.432986e+001  1.367927e+001  1.100000e+001
      vertex -8.452140e+001  1.409002e+001  1.100000e+001
    endloop
  endfacet
  facet normal -9.659244e-001 -2.588244e-001  -0.000000e+000
    outer loop
      vertex -8.452140e+001  1.409002e+001  0.000000e+000
      vertex -8.452140e+001  1.409002e+001  1.100000e+001
      vertex -8.463870e+001  1.452779e+001  0.000000e+000
    endloop
  endfacet
  facet normal -9.659244e-001 -2.588244e-001  0.000000e+000
    outer loop
      vertex -8.463870e+001  1.452779e+001  0.000000e+000
      vertex -8.452140e+001  1.409002e+001  1.100000e+001
      vertex -8.463870e+001  1.452779e+001  1.100000e+001
    endloop
  endfacet
  facet normal -9.961952e-001 -8.715028e-002  -0.000000e+000
    outer loop
      vertex -8.463870e+001  1.452779e+001  0.000000e+000
      vertex -8.463870e+001  1.452779e+001  1.100000e+001
      vertex -8.467820e+001  1.497927e+001  0.000000e+000
    endloop
  endfacet
  facet normal -9.961952e-001 -8.715028e-002  0.000000e+000
    outer loop
      vertex -8.467820e+001  1.497927e+001  0.000000e+000
      vertex -8.463870e+001  1.452779e+001  1.100000e+001
      vertex -8.467820e+001  1.497927e+001  1.100000e+001
    endloop
  endfacet
  facet normal -9.961952e-001  8.715028e-002  0.000000e+000
    outer loop
      vertex -8.467820e+001  1.497927e+001  0.000000e+000
      vertex -8.467820e+001  1.497927e+001  1.100000e+001
      vertex -8.463870e+001  1.543076e+001  0.000000e+000
    endloop
  endfacet
  facet normal -9.961952e-001  8.715028e-002  0.000000e+000
    outer loop
      vertex -8.463870e+001  1.543076e+001  0.000000e+000
      vertex -8.467820e+001  1.497927e+001  1.100000e+001
      vertex -8.463870e+001  1.543076e+001  1.100000e+001
    endloop
  endfacet
  facet normal -9.659244e-001  2.588244e-001  0.000000e+000
    outer loop
      vertex -8.463870e+001  1.543076e+001  0.000000e+000
      vertex -8.463870e+001  1.543076e+001  1.100000e+001
      vertex -8.452140e+001  1.586852e+001  0.000000e+000
    endloop
  endfacet
  facet normal -9.659244e-001  2.588244e-001  0.000000e+000
    outer loop
      vertex -8.452140e+001  1.586852e+001  0.000000e+000
      vertex -8.463870e+001  1.543076e+001  1.100000e+001
      vertex -8.452140e+001  1.586852e+001  1.100000e+001
    endloop
  endfacet
  facet normal -9.063064e-001  4.226213e-001  0.000000e+000
    outer loop
      vertex -8.452140e+001  1.586852e+001  0.000000e+000
      vertex -8.452140e+001  1.586852e+001  1.100000e+001
      vertex -8.432986e+001  1.627927e+001  0.000000e+000
    endloop
  endfacet
  facet normal -9.063064e-001  4.226213e-001  0.000000e+000
    outer loop
      vertex -8.432986e+001  1.627927e+001  0.000000e+000
      vertex -8.452140e+001  1.586852e+001  1.100000e+001
      vertex -8.432986e+001  1.627927e+001  1.100000e+001
    endloop
  endfacet
  facet normal -8.191542e-001  5.735734e-001  0.000000e+000
    outer loop
      vertex -8.432986e+001  1.627927e+001  0.000000e+000
      vertex -8.432986e+001  1.627927e+001  1.100000e+001
      vertex -8.406992e+001  1.665052e+001  0.000000e+000
    endloop
  endfacet
  facet normal -8.191542e-001  5.735734e-001  0.000000e+000
    outer loop
      vertex -8.406992e+001  1.665052e+001  0.000000e+000
      vertex -8.432986e+001  1.627927e+001  1.100000e+001
      vertex -8.406992e+001  1.665052e+001  1.100000e+001
    endloop
  endfacet
  facet normal -7.071110e-001  7.071026e-001  0.000000e+000
    outer loop
      vertex -8.406992e+001  1.665052e+001  0.000000e+000
      vertex -8.406992e+001  1.665052e+001  1.100000e+001
      vertex -8.374945e+001  1.697099e+001  0.000000e+000
    endloop
  endfacet
  facet normal -7.071110e-001  7.071026e-001  0.000000e+000
    outer loop
      vertex -8.374945e+001  1.697099e+001  0.000000e+000
      vertex -8.406992e+001  1.665052e+001  1.100000e+001
      vertex -8.374945e+001  1.697099e+001  1.100000e+001
    endloop
  endfacet
  facet normal -5.735753e-001  8.191528e-001  0.000000e+000
    outer loop
      vertex -8.374945e+001  1.697099e+001  0.000000e+000
      vertex -8.374945e+001  1.697099e+001  1.100000e+001
      vertex -8.337820e+001  1.723094e+001  0.000000e+000
    endloop
  endfacet
  facet normal -5.735753e-001  8.191528e-001  0.000000e+000
    outer loop
      vertex -8.337820e+001  1.723094e+001  0.000000e+000
      vertex -8.374945e+001  1.697099e+001  1.100000e+001
      vertex -8.337820e+001  1.723094e+001  1.100000e+001
    endloop
  endfacet
  facet normal -4.226173e-001  9.063082e-001  0.000000e+000
    outer loop
      vertex -8.337820e+001  1.723094e+001  0.000000e+000
      vertex -8.337820e+001  1.723094e+001  1.100000e+001
      vertex -8.296745e+001  1.742247e+001  0.000000e+000
    endloop
  endfacet
  facet normal -4.226173e-001  9.063082e-001  0.000000e+000
    outer loop
      vertex -8.296745e+001  1.742247e+001  0.000000e+000
      vertex -8.337820e+001  1.723094e+001  1.100000e+001
      vertex -8.296745e+001  1.742247e+001  1.100000e+001
    endloop
  endfacet
  facet normal -2.588205e-001  9.659254e-001  0.000000e+000
    outer loop
      vertex -8.296745e+001  1.742247e+001  0.000000e+000
      vertex -8.296745e+001  1.742247e+001  1.100000e+001
      vertex -8.252969e+001  1.753977e+001  0.000000e+000
    endloop
  endfacet
  facet normal -2.588205e-001  9.659254e-001  0.000000e+000
    outer loop
      vertex -8.252969e+001  1.753977e+001  0.000000e+000
      vertex -8.296745e+001  1.742247e+001  1.100000e+001
      vertex -8.252969e+001  1.753977e+001  1.100000e+001
    endloop
  endfacet
  facet normal -8.715463e-002  9.961948e-001  0.000000e+000
    outer loop
      vertex -8.252969e+001  1.753977e+001  0.000000e+000
      vertex -8.252969e+001  1.753977e+001  1.100000e+001
      vertex -8.207820e+001  1.757927e+001  0.000000e+000
    endloop
  endfacet
  facet normal -8.715463e-002  9.961948e-001  0.000000e+000
    outer loop
      vertex -8.207820e+001  1.757927e+001  0.000000e+000
      vertex -8.252969e+001  1.753977e+001  1.100000e+001
      vertex -8.207820e+001  1.757927e+001  1.100000e+001
    endloop
  endfacet
  facet normal  8.715463e-002  9.961948e-001  0.000000e+000
    outer loop
      vertex -8.207820e+001  1.757927e+001  0.000000e+000
      vertex -8.207820e+001  1.757927e+001  1.100000e+001
      vertex -8.162672e+001  1.753977e+001  0.000000e+000
    endloop
  endfacet
  facet normal  8.715463e-002  9.961948e-001  -0.000000e+000
    outer loop
      vertex -8.162672e+001  1.753977e+001  0.000000e+000
      vertex -8.207820e+001  1.757927e+001  1.100000e+001
      vertex -8.162672e+001  1.753977e+001  1.100000e+001
    endloop
  endfacet
  facet normal  2.588205e-001  9.659254e-001  0.000000e+000
    outer loop
      vertex -8.162672e+001  1.753977e+001  0.000000e+000
      vertex -8.162672e+001  1.753977e+001  1.100000e+001
      vertex -8.118895e+001  1.742247e+001  0.000000e+000
    endloop
  endfacet
  facet normal  2.588205e-001  9.659254e-001  -0.000000e+000
    outer loop
      vertex -8.118895e+001  1.742247e+001  0.000000e+000
      vertex -8.162672e+001  1.753977e+001  1.100000e+001
      vertex -8.118895e+001  1.742247e+001  1.100000e+001
    endloop
  endfacet
  facet normal  4.226173e-001  9.063082e-001  0.000000e+000
    outer loop
      vertex -8.118895e+001  1.742247e+001  0.000000e+000
      vertex -8.118895e+001  1.742247e+001  1.100000e+001
      vertex -8.077820e+001  1.723094e+001  0.000000e+000
    endloop
  endfacet
  facet normal  4.226173e-001  9.063082e-001  -0.000000e+000
    outer loop
      vertex -8.077820e+001  1.723094e+001  0.000000e+000
      vertex -8.118895e+001  1.742247e+001  1.100000e+001
      vertex -8.077820e+001  1.723094e+001  1.100000e+001
    endloop
  endfacet
  facet normal  5.735753e-001  8.191528e-001  0.000000e+000
    outer loop
      vertex -8.077820e+001  1.723094e+001  0.000000e+000
      vertex -8.077820e+001  1.723094e+001  1.100000e+001
      vertex -8.040695e+001  1.697099e+001  0.000000e+000
    endloop
  endfacet
  facet normal  5.735753e-001  8.191528e-001  -0.000000e+000
    outer loop
      vertex -8.040695e+001  1.697099e+001  0.000000e+000
      vertex -8.077820e+001  1.723094e+001  1.100000e+001
      vertex -8.040695e+001  1.697099e+001  1.100000e+001
    endloop
  endfacet
  facet normal  7.071110e-001  7.071026e-001  0.000000e+000
    outer loop
      vertex -8.040695e+001  1.697099e+001  0.000000e+000
      vertex -8.040695e+001  1.697099e+001  1.100000e+001
      vertex -8.008649e+001  1.665052e+001  0.000000e+000
    endloop
  endfacet
  facet normal  7.071110e-001  7.071026e-001  -0.000000e+000
    outer loop
      vertex -8.008649e+001  1.665052e+001  0.000000e+000
      vertex -8.040695e+001  1.697099e+001  1.100000e+001
      vertex -8.008649e+001  1.665052e+001  1.100000e+001
    endloop
  endfacet
  facet normal  8.191542e-001  5.735734e-001  0.000000e+000
    outer loop
      vertex -8.008649e+001  1.665052e+001  0.000000e+000
      vertex -8.008649e+001  1.665052e+001  1.100000e+001
      vertex -7.982654e+001  1.627927e+001  0.000000e+000
    endloop
  endfacet
  facet normal  8.191542e-001  5.735734e-001  -0.000000e+000
    outer loop
      vertex -7.982654e+001  1.627927e+001  0.000000e+000
      vertex -8.008649e+001  1.665052e+001  1.100000e+001
      vertex -7.982654e+001  1.627927e+001  1.100000e+001
    endloop
  endfacet
  facet normal  9.063064e-001  4.226213e-001  0.000000e+000
    outer loop
      vertex -7.982654e+001  1.627927e+001  0.000000e+000
      vertex -7.982654e+001  1.627927e+001  1.100000e+001
      vertex -7.963500e+001  1.586852e+001  0.000000e+000
    endloop
  endfacet
  facet normal  9.063064e-001  4.226213e-001  -0.000000e+000
    outer loop
      vertex -7.963500e+001  1.586852e+001  0.000000e+000
      vertex -7.982654e+001  1.627927e+001  1.100000e+001
      vertex -7.963500e+001  1.586852e+001  1.100000e+001
    endloop
  endfacet
  facet normal  9.659244e-001  2.588244e-001  0.000000e+000
    outer loop
      vertex -7.963500e+001  1.586852e+001  0.000000e+000
      vertex -7.963500e+001  1.586852e+001  1.100000e+001
      vertex -7.951770e+001  1.543076e+001  0.000000e+000
    endloop
  endfacet
  facet normal  9.659244e-001  2.588244e-001  -0.000000e+000
    outer loop
      vertex -7.951770e+001  1.543076e+001  0.000000e+000
      vertex -7.963500e+001  1.586852e+001  1.100000e+001
      vertex -7.951770e+001  1.543076e+001  1.100000e+001
    endloop
  endfacet
  facet normal  9.961952e-001  8.715028e-002  0.000000e+000
    outer loop
      vertex -7.951770e+001  1.543076e+001  0.000000e+000
      vertex -7.951770e+001  1.543076e+001  1.100000e+001
      vertex -7.947820e+001  1.497927e+001  0.000000e+000
    endloop
  endfacet
  facet normal  9.961952e-001  8.715028e-002  -0.000000e+000
    outer loop
      vertex -7.947820e+001  1.497927e+001  0.000000e+000
      vertex -7.951770e+001  1.543076e+001  1.100000e+001
      vertex -7.947820e+001  1.497927e+001  1.100000e+001
    endloop
  endfacet
endsolid CATIA STL
