G04 #@! TF.GenerationSoftware,KiCad,Pcbnew,(5.1.4)-1*
G04 #@! TF.CreationDate,2023-01-05T18:52:54+01:00*
G04 #@! TF.ProjectId,RasPi-HAT,52617350-692d-4484-9154-2e6b69636164,V00.20*
G04 #@! TF.SameCoordinates,Original*
G04 #@! TF.FileFunction,Copper,L1,Top*
G04 #@! TF.FilePolarity,Positive*
%FSLAX46Y46*%
G04 Gerber Fmt 4.6, Leading zero omitted, Abs format (unit mm)*
G04 Created by KiCad (PCBNEW (5.1.4)-1) date 2023-01-05 18:52:54*
%MOMM*%
%LPD*%
G04 APERTURE LIST*
%ADD10R,1.800000X2.500000*%
%ADD11R,2.500000X1.800000*%
%ADD12C,2.500000*%
%ADD13R,1.000000X2.510000*%
%ADD14C,0.100000*%
%ADD15C,0.875000*%
%ADD16O,1.700000X1.700000*%
%ADD17R,1.700000X1.700000*%
%ADD18R,4.500000X6.500000*%
%ADD19C,1.150000*%
%ADD20C,1.300000*%
%ADD21C,2.000000*%
%ADD22R,2.000000X2.000000*%
%ADD23R,2.300000X2.500000*%
%ADD24R,9.400000X10.800000*%
%ADD25R,4.600000X1.100000*%
%ADD26C,0.600000*%
%ADD27C,0.250000*%
%ADD28C,1.000000*%
%ADD29C,1.250000*%
%ADD30C,0.400000*%
%ADD31C,2.000000*%
%ADD32C,0.254000*%
G04 APERTURE END LIST*
D10*
X64770000Y-90540000D03*
X64770000Y-86540000D03*
D11*
X73510000Y-90210000D03*
X77510000Y-90210000D03*
D10*
X64770000Y-77462000D03*
X64770000Y-81462000D03*
X64800000Y-64254000D03*
X64800000Y-68254000D03*
X64800000Y-51200000D03*
X64800000Y-55200000D03*
D12*
X56600000Y-75800000D03*
X56600000Y-81550000D03*
X56600000Y-61300000D03*
X56600000Y-67050000D03*
X56600000Y-46800000D03*
X56600000Y-52550000D03*
D13*
X84582000Y-71243000D03*
X79502000Y-71243000D03*
X74422000Y-71243000D03*
X87122000Y-74553000D03*
X82042000Y-74553000D03*
X76922000Y-74553000D03*
X71882000Y-74553000D03*
X84582000Y-50161000D03*
X79502000Y-50161000D03*
X74422000Y-50161000D03*
X87122000Y-53471000D03*
X82042000Y-53471000D03*
X76922000Y-53471000D03*
X71882000Y-53471000D03*
D14*
G36*
X80527691Y-75526053D02*
G01*
X80548926Y-75529203D01*
X80569750Y-75534419D01*
X80589962Y-75541651D01*
X80609368Y-75550830D01*
X80627781Y-75561866D01*
X80645024Y-75574654D01*
X80660930Y-75589070D01*
X80675346Y-75604976D01*
X80688134Y-75622219D01*
X80699170Y-75640632D01*
X80708349Y-75660038D01*
X80715581Y-75680250D01*
X80720797Y-75701074D01*
X80723947Y-75722309D01*
X80725000Y-75743750D01*
X80725000Y-76256250D01*
X80723947Y-76277691D01*
X80720797Y-76298926D01*
X80715581Y-76319750D01*
X80708349Y-76339962D01*
X80699170Y-76359368D01*
X80688134Y-76377781D01*
X80675346Y-76395024D01*
X80660930Y-76410930D01*
X80645024Y-76425346D01*
X80627781Y-76438134D01*
X80609368Y-76449170D01*
X80589962Y-76458349D01*
X80569750Y-76465581D01*
X80548926Y-76470797D01*
X80527691Y-76473947D01*
X80506250Y-76475000D01*
X80068750Y-76475000D01*
X80047309Y-76473947D01*
X80026074Y-76470797D01*
X80005250Y-76465581D01*
X79985038Y-76458349D01*
X79965632Y-76449170D01*
X79947219Y-76438134D01*
X79929976Y-76425346D01*
X79914070Y-76410930D01*
X79899654Y-76395024D01*
X79886866Y-76377781D01*
X79875830Y-76359368D01*
X79866651Y-76339962D01*
X79859419Y-76319750D01*
X79854203Y-76298926D01*
X79851053Y-76277691D01*
X79850000Y-76256250D01*
X79850000Y-75743750D01*
X79851053Y-75722309D01*
X79854203Y-75701074D01*
X79859419Y-75680250D01*
X79866651Y-75660038D01*
X79875830Y-75640632D01*
X79886866Y-75622219D01*
X79899654Y-75604976D01*
X79914070Y-75589070D01*
X79929976Y-75574654D01*
X79947219Y-75561866D01*
X79965632Y-75550830D01*
X79985038Y-75541651D01*
X80005250Y-75534419D01*
X80026074Y-75529203D01*
X80047309Y-75526053D01*
X80068750Y-75525000D01*
X80506250Y-75525000D01*
X80527691Y-75526053D01*
X80527691Y-75526053D01*
G37*
D15*
X80287500Y-76000000D03*
D14*
G36*
X78952691Y-75526053D02*
G01*
X78973926Y-75529203D01*
X78994750Y-75534419D01*
X79014962Y-75541651D01*
X79034368Y-75550830D01*
X79052781Y-75561866D01*
X79070024Y-75574654D01*
X79085930Y-75589070D01*
X79100346Y-75604976D01*
X79113134Y-75622219D01*
X79124170Y-75640632D01*
X79133349Y-75660038D01*
X79140581Y-75680250D01*
X79145797Y-75701074D01*
X79148947Y-75722309D01*
X79150000Y-75743750D01*
X79150000Y-76256250D01*
X79148947Y-76277691D01*
X79145797Y-76298926D01*
X79140581Y-76319750D01*
X79133349Y-76339962D01*
X79124170Y-76359368D01*
X79113134Y-76377781D01*
X79100346Y-76395024D01*
X79085930Y-76410930D01*
X79070024Y-76425346D01*
X79052781Y-76438134D01*
X79034368Y-76449170D01*
X79014962Y-76458349D01*
X78994750Y-76465581D01*
X78973926Y-76470797D01*
X78952691Y-76473947D01*
X78931250Y-76475000D01*
X78493750Y-76475000D01*
X78472309Y-76473947D01*
X78451074Y-76470797D01*
X78430250Y-76465581D01*
X78410038Y-76458349D01*
X78390632Y-76449170D01*
X78372219Y-76438134D01*
X78354976Y-76425346D01*
X78339070Y-76410930D01*
X78324654Y-76395024D01*
X78311866Y-76377781D01*
X78300830Y-76359368D01*
X78291651Y-76339962D01*
X78284419Y-76319750D01*
X78279203Y-76298926D01*
X78276053Y-76277691D01*
X78275000Y-76256250D01*
X78275000Y-75743750D01*
X78276053Y-75722309D01*
X78279203Y-75701074D01*
X78284419Y-75680250D01*
X78291651Y-75660038D01*
X78300830Y-75640632D01*
X78311866Y-75622219D01*
X78324654Y-75604976D01*
X78339070Y-75589070D01*
X78354976Y-75574654D01*
X78372219Y-75561866D01*
X78390632Y-75550830D01*
X78410038Y-75541651D01*
X78430250Y-75534419D01*
X78451074Y-75529203D01*
X78472309Y-75526053D01*
X78493750Y-75525000D01*
X78931250Y-75525000D01*
X78952691Y-75526053D01*
X78952691Y-75526053D01*
G37*
D15*
X78712500Y-76000000D03*
D16*
X110078520Y-39608760D03*
X110078520Y-42148760D03*
X107538520Y-39608760D03*
X107538520Y-42148760D03*
X104998520Y-39608760D03*
X104998520Y-42148760D03*
X102458520Y-39608760D03*
X102458520Y-42148760D03*
X99918520Y-39608760D03*
X99918520Y-42148760D03*
X97378520Y-39608760D03*
X97378520Y-42148760D03*
X94838520Y-39608760D03*
X94838520Y-42148760D03*
X92298520Y-39608760D03*
X92298520Y-42148760D03*
X89758520Y-39608760D03*
X89758520Y-42148760D03*
X87218520Y-39608760D03*
X87218520Y-42148760D03*
X84678520Y-39608760D03*
X84678520Y-42148760D03*
X82138520Y-39608760D03*
X82138520Y-42148760D03*
X79598520Y-39608760D03*
X79598520Y-42148760D03*
X77058520Y-39608760D03*
X77058520Y-42148760D03*
X74518520Y-39608760D03*
X74518520Y-42148760D03*
X71978520Y-39608760D03*
X71978520Y-42148760D03*
X69438520Y-39608760D03*
X69438520Y-42148760D03*
X66898520Y-39608760D03*
X66898520Y-42148760D03*
X64358520Y-39608760D03*
X64358520Y-42148760D03*
X61818520Y-39608760D03*
D17*
X61818520Y-42148760D03*
D18*
X110100000Y-64438000D03*
X97600000Y-64438000D03*
D14*
G36*
X100697505Y-48831204D02*
G01*
X100721773Y-48834804D01*
X100745572Y-48840765D01*
X100768671Y-48849030D01*
X100790850Y-48859520D01*
X100811893Y-48872132D01*
X100831599Y-48886747D01*
X100849777Y-48903223D01*
X100866253Y-48921401D01*
X100880868Y-48941107D01*
X100893480Y-48962150D01*
X100903970Y-48984329D01*
X100912235Y-49007428D01*
X100918196Y-49031227D01*
X100921796Y-49055495D01*
X100923000Y-49079999D01*
X100923000Y-49980001D01*
X100921796Y-50004505D01*
X100918196Y-50028773D01*
X100912235Y-50052572D01*
X100903970Y-50075671D01*
X100893480Y-50097850D01*
X100880868Y-50118893D01*
X100866253Y-50138599D01*
X100849777Y-50156777D01*
X100831599Y-50173253D01*
X100811893Y-50187868D01*
X100790850Y-50200480D01*
X100768671Y-50210970D01*
X100745572Y-50219235D01*
X100721773Y-50225196D01*
X100697505Y-50228796D01*
X100673001Y-50230000D01*
X100022999Y-50230000D01*
X99998495Y-50228796D01*
X99974227Y-50225196D01*
X99950428Y-50219235D01*
X99927329Y-50210970D01*
X99905150Y-50200480D01*
X99884107Y-50187868D01*
X99864401Y-50173253D01*
X99846223Y-50156777D01*
X99829747Y-50138599D01*
X99815132Y-50118893D01*
X99802520Y-50097850D01*
X99792030Y-50075671D01*
X99783765Y-50052572D01*
X99777804Y-50028773D01*
X99774204Y-50004505D01*
X99773000Y-49980001D01*
X99773000Y-49079999D01*
X99774204Y-49055495D01*
X99777804Y-49031227D01*
X99783765Y-49007428D01*
X99792030Y-48984329D01*
X99802520Y-48962150D01*
X99815132Y-48941107D01*
X99829747Y-48921401D01*
X99846223Y-48903223D01*
X99864401Y-48886747D01*
X99884107Y-48872132D01*
X99905150Y-48859520D01*
X99927329Y-48849030D01*
X99950428Y-48840765D01*
X99974227Y-48834804D01*
X99998495Y-48831204D01*
X100022999Y-48830000D01*
X100673001Y-48830000D01*
X100697505Y-48831204D01*
X100697505Y-48831204D01*
G37*
D19*
X100348000Y-49530000D03*
D14*
G36*
X98647505Y-48831204D02*
G01*
X98671773Y-48834804D01*
X98695572Y-48840765D01*
X98718671Y-48849030D01*
X98740850Y-48859520D01*
X98761893Y-48872132D01*
X98781599Y-48886747D01*
X98799777Y-48903223D01*
X98816253Y-48921401D01*
X98830868Y-48941107D01*
X98843480Y-48962150D01*
X98853970Y-48984329D01*
X98862235Y-49007428D01*
X98868196Y-49031227D01*
X98871796Y-49055495D01*
X98873000Y-49079999D01*
X98873000Y-49980001D01*
X98871796Y-50004505D01*
X98868196Y-50028773D01*
X98862235Y-50052572D01*
X98853970Y-50075671D01*
X98843480Y-50097850D01*
X98830868Y-50118893D01*
X98816253Y-50138599D01*
X98799777Y-50156777D01*
X98781599Y-50173253D01*
X98761893Y-50187868D01*
X98740850Y-50200480D01*
X98718671Y-50210970D01*
X98695572Y-50219235D01*
X98671773Y-50225196D01*
X98647505Y-50228796D01*
X98623001Y-50230000D01*
X97972999Y-50230000D01*
X97948495Y-50228796D01*
X97924227Y-50225196D01*
X97900428Y-50219235D01*
X97877329Y-50210970D01*
X97855150Y-50200480D01*
X97834107Y-50187868D01*
X97814401Y-50173253D01*
X97796223Y-50156777D01*
X97779747Y-50138599D01*
X97765132Y-50118893D01*
X97752520Y-50097850D01*
X97742030Y-50075671D01*
X97733765Y-50052572D01*
X97727804Y-50028773D01*
X97724204Y-50004505D01*
X97723000Y-49980001D01*
X97723000Y-49079999D01*
X97724204Y-49055495D01*
X97727804Y-49031227D01*
X97733765Y-49007428D01*
X97742030Y-48984329D01*
X97752520Y-48962150D01*
X97765132Y-48941107D01*
X97779747Y-48921401D01*
X97796223Y-48903223D01*
X97814401Y-48886747D01*
X97834107Y-48872132D01*
X97855150Y-48859520D01*
X97877329Y-48849030D01*
X97900428Y-48840765D01*
X97924227Y-48834804D01*
X97948495Y-48831204D01*
X97972999Y-48830000D01*
X98623001Y-48830000D01*
X98647505Y-48831204D01*
X98647505Y-48831204D01*
G37*
D19*
X98298000Y-49530000D03*
D14*
G36*
X88874505Y-83301204D02*
G01*
X88898773Y-83304804D01*
X88922572Y-83310765D01*
X88945671Y-83319030D01*
X88967850Y-83329520D01*
X88988893Y-83342132D01*
X89008599Y-83356747D01*
X89026777Y-83373223D01*
X89043253Y-83391401D01*
X89057868Y-83411107D01*
X89070480Y-83432150D01*
X89080970Y-83454329D01*
X89089235Y-83477428D01*
X89095196Y-83501227D01*
X89098796Y-83525495D01*
X89100000Y-83549999D01*
X89100000Y-84450001D01*
X89098796Y-84474505D01*
X89095196Y-84498773D01*
X89089235Y-84522572D01*
X89080970Y-84545671D01*
X89070480Y-84567850D01*
X89057868Y-84588893D01*
X89043253Y-84608599D01*
X89026777Y-84626777D01*
X89008599Y-84643253D01*
X88988893Y-84657868D01*
X88967850Y-84670480D01*
X88945671Y-84680970D01*
X88922572Y-84689235D01*
X88898773Y-84695196D01*
X88874505Y-84698796D01*
X88850001Y-84700000D01*
X88199999Y-84700000D01*
X88175495Y-84698796D01*
X88151227Y-84695196D01*
X88127428Y-84689235D01*
X88104329Y-84680970D01*
X88082150Y-84670480D01*
X88061107Y-84657868D01*
X88041401Y-84643253D01*
X88023223Y-84626777D01*
X88006747Y-84608599D01*
X87992132Y-84588893D01*
X87979520Y-84567850D01*
X87969030Y-84545671D01*
X87960765Y-84522572D01*
X87954804Y-84498773D01*
X87951204Y-84474505D01*
X87950000Y-84450001D01*
X87950000Y-83549999D01*
X87951204Y-83525495D01*
X87954804Y-83501227D01*
X87960765Y-83477428D01*
X87969030Y-83454329D01*
X87979520Y-83432150D01*
X87992132Y-83411107D01*
X88006747Y-83391401D01*
X88023223Y-83373223D01*
X88041401Y-83356747D01*
X88061107Y-83342132D01*
X88082150Y-83329520D01*
X88104329Y-83319030D01*
X88127428Y-83310765D01*
X88151227Y-83304804D01*
X88175495Y-83301204D01*
X88199999Y-83300000D01*
X88850001Y-83300000D01*
X88874505Y-83301204D01*
X88874505Y-83301204D01*
G37*
D19*
X88525000Y-84000000D03*
D14*
G36*
X86824505Y-83301204D02*
G01*
X86848773Y-83304804D01*
X86872572Y-83310765D01*
X86895671Y-83319030D01*
X86917850Y-83329520D01*
X86938893Y-83342132D01*
X86958599Y-83356747D01*
X86976777Y-83373223D01*
X86993253Y-83391401D01*
X87007868Y-83411107D01*
X87020480Y-83432150D01*
X87030970Y-83454329D01*
X87039235Y-83477428D01*
X87045196Y-83501227D01*
X87048796Y-83525495D01*
X87050000Y-83549999D01*
X87050000Y-84450001D01*
X87048796Y-84474505D01*
X87045196Y-84498773D01*
X87039235Y-84522572D01*
X87030970Y-84545671D01*
X87020480Y-84567850D01*
X87007868Y-84588893D01*
X86993253Y-84608599D01*
X86976777Y-84626777D01*
X86958599Y-84643253D01*
X86938893Y-84657868D01*
X86917850Y-84670480D01*
X86895671Y-84680970D01*
X86872572Y-84689235D01*
X86848773Y-84695196D01*
X86824505Y-84698796D01*
X86800001Y-84700000D01*
X86149999Y-84700000D01*
X86125495Y-84698796D01*
X86101227Y-84695196D01*
X86077428Y-84689235D01*
X86054329Y-84680970D01*
X86032150Y-84670480D01*
X86011107Y-84657868D01*
X85991401Y-84643253D01*
X85973223Y-84626777D01*
X85956747Y-84608599D01*
X85942132Y-84588893D01*
X85929520Y-84567850D01*
X85919030Y-84545671D01*
X85910765Y-84522572D01*
X85904804Y-84498773D01*
X85901204Y-84474505D01*
X85900000Y-84450001D01*
X85900000Y-83549999D01*
X85901204Y-83525495D01*
X85904804Y-83501227D01*
X85910765Y-83477428D01*
X85919030Y-83454329D01*
X85929520Y-83432150D01*
X85942132Y-83411107D01*
X85956747Y-83391401D01*
X85973223Y-83373223D01*
X85991401Y-83356747D01*
X86011107Y-83342132D01*
X86032150Y-83329520D01*
X86054329Y-83319030D01*
X86077428Y-83310765D01*
X86101227Y-83304804D01*
X86125495Y-83301204D01*
X86149999Y-83300000D01*
X86800001Y-83300000D01*
X86824505Y-83301204D01*
X86824505Y-83301204D01*
G37*
D19*
X86475000Y-84000000D03*
D14*
G36*
X88874505Y-78801204D02*
G01*
X88898773Y-78804804D01*
X88922572Y-78810765D01*
X88945671Y-78819030D01*
X88967850Y-78829520D01*
X88988893Y-78842132D01*
X89008599Y-78856747D01*
X89026777Y-78873223D01*
X89043253Y-78891401D01*
X89057868Y-78911107D01*
X89070480Y-78932150D01*
X89080970Y-78954329D01*
X89089235Y-78977428D01*
X89095196Y-79001227D01*
X89098796Y-79025495D01*
X89100000Y-79049999D01*
X89100000Y-79950001D01*
X89098796Y-79974505D01*
X89095196Y-79998773D01*
X89089235Y-80022572D01*
X89080970Y-80045671D01*
X89070480Y-80067850D01*
X89057868Y-80088893D01*
X89043253Y-80108599D01*
X89026777Y-80126777D01*
X89008599Y-80143253D01*
X88988893Y-80157868D01*
X88967850Y-80170480D01*
X88945671Y-80180970D01*
X88922572Y-80189235D01*
X88898773Y-80195196D01*
X88874505Y-80198796D01*
X88850001Y-80200000D01*
X88199999Y-80200000D01*
X88175495Y-80198796D01*
X88151227Y-80195196D01*
X88127428Y-80189235D01*
X88104329Y-80180970D01*
X88082150Y-80170480D01*
X88061107Y-80157868D01*
X88041401Y-80143253D01*
X88023223Y-80126777D01*
X88006747Y-80108599D01*
X87992132Y-80088893D01*
X87979520Y-80067850D01*
X87969030Y-80045671D01*
X87960765Y-80022572D01*
X87954804Y-79998773D01*
X87951204Y-79974505D01*
X87950000Y-79950001D01*
X87950000Y-79049999D01*
X87951204Y-79025495D01*
X87954804Y-79001227D01*
X87960765Y-78977428D01*
X87969030Y-78954329D01*
X87979520Y-78932150D01*
X87992132Y-78911107D01*
X88006747Y-78891401D01*
X88023223Y-78873223D01*
X88041401Y-78856747D01*
X88061107Y-78842132D01*
X88082150Y-78829520D01*
X88104329Y-78819030D01*
X88127428Y-78810765D01*
X88151227Y-78804804D01*
X88175495Y-78801204D01*
X88199999Y-78800000D01*
X88850001Y-78800000D01*
X88874505Y-78801204D01*
X88874505Y-78801204D01*
G37*
D19*
X88525000Y-79500000D03*
D14*
G36*
X86824505Y-78801204D02*
G01*
X86848773Y-78804804D01*
X86872572Y-78810765D01*
X86895671Y-78819030D01*
X86917850Y-78829520D01*
X86938893Y-78842132D01*
X86958599Y-78856747D01*
X86976777Y-78873223D01*
X86993253Y-78891401D01*
X87007868Y-78911107D01*
X87020480Y-78932150D01*
X87030970Y-78954329D01*
X87039235Y-78977428D01*
X87045196Y-79001227D01*
X87048796Y-79025495D01*
X87050000Y-79049999D01*
X87050000Y-79950001D01*
X87048796Y-79974505D01*
X87045196Y-79998773D01*
X87039235Y-80022572D01*
X87030970Y-80045671D01*
X87020480Y-80067850D01*
X87007868Y-80088893D01*
X86993253Y-80108599D01*
X86976777Y-80126777D01*
X86958599Y-80143253D01*
X86938893Y-80157868D01*
X86917850Y-80170480D01*
X86895671Y-80180970D01*
X86872572Y-80189235D01*
X86848773Y-80195196D01*
X86824505Y-80198796D01*
X86800001Y-80200000D01*
X86149999Y-80200000D01*
X86125495Y-80198796D01*
X86101227Y-80195196D01*
X86077428Y-80189235D01*
X86054329Y-80180970D01*
X86032150Y-80170480D01*
X86011107Y-80157868D01*
X85991401Y-80143253D01*
X85973223Y-80126777D01*
X85956747Y-80108599D01*
X85942132Y-80088893D01*
X85929520Y-80067850D01*
X85919030Y-80045671D01*
X85910765Y-80022572D01*
X85904804Y-79998773D01*
X85901204Y-79974505D01*
X85900000Y-79950001D01*
X85900000Y-79049999D01*
X85901204Y-79025495D01*
X85904804Y-79001227D01*
X85910765Y-78977428D01*
X85919030Y-78954329D01*
X85929520Y-78932150D01*
X85942132Y-78911107D01*
X85956747Y-78891401D01*
X85973223Y-78873223D01*
X85991401Y-78856747D01*
X86011107Y-78842132D01*
X86032150Y-78829520D01*
X86054329Y-78819030D01*
X86077428Y-78810765D01*
X86101227Y-78804804D01*
X86125495Y-78801204D01*
X86149999Y-78800000D01*
X86800001Y-78800000D01*
X86824505Y-78801204D01*
X86824505Y-78801204D01*
G37*
D19*
X86475000Y-79500000D03*
D14*
G36*
X88874505Y-76551204D02*
G01*
X88898773Y-76554804D01*
X88922572Y-76560765D01*
X88945671Y-76569030D01*
X88967850Y-76579520D01*
X88988893Y-76592132D01*
X89008599Y-76606747D01*
X89026777Y-76623223D01*
X89043253Y-76641401D01*
X89057868Y-76661107D01*
X89070480Y-76682150D01*
X89080970Y-76704329D01*
X89089235Y-76727428D01*
X89095196Y-76751227D01*
X89098796Y-76775495D01*
X89100000Y-76799999D01*
X89100000Y-77700001D01*
X89098796Y-77724505D01*
X89095196Y-77748773D01*
X89089235Y-77772572D01*
X89080970Y-77795671D01*
X89070480Y-77817850D01*
X89057868Y-77838893D01*
X89043253Y-77858599D01*
X89026777Y-77876777D01*
X89008599Y-77893253D01*
X88988893Y-77907868D01*
X88967850Y-77920480D01*
X88945671Y-77930970D01*
X88922572Y-77939235D01*
X88898773Y-77945196D01*
X88874505Y-77948796D01*
X88850001Y-77950000D01*
X88199999Y-77950000D01*
X88175495Y-77948796D01*
X88151227Y-77945196D01*
X88127428Y-77939235D01*
X88104329Y-77930970D01*
X88082150Y-77920480D01*
X88061107Y-77907868D01*
X88041401Y-77893253D01*
X88023223Y-77876777D01*
X88006747Y-77858599D01*
X87992132Y-77838893D01*
X87979520Y-77817850D01*
X87969030Y-77795671D01*
X87960765Y-77772572D01*
X87954804Y-77748773D01*
X87951204Y-77724505D01*
X87950000Y-77700001D01*
X87950000Y-76799999D01*
X87951204Y-76775495D01*
X87954804Y-76751227D01*
X87960765Y-76727428D01*
X87969030Y-76704329D01*
X87979520Y-76682150D01*
X87992132Y-76661107D01*
X88006747Y-76641401D01*
X88023223Y-76623223D01*
X88041401Y-76606747D01*
X88061107Y-76592132D01*
X88082150Y-76579520D01*
X88104329Y-76569030D01*
X88127428Y-76560765D01*
X88151227Y-76554804D01*
X88175495Y-76551204D01*
X88199999Y-76550000D01*
X88850001Y-76550000D01*
X88874505Y-76551204D01*
X88874505Y-76551204D01*
G37*
D19*
X88525000Y-77250000D03*
D14*
G36*
X86824505Y-76551204D02*
G01*
X86848773Y-76554804D01*
X86872572Y-76560765D01*
X86895671Y-76569030D01*
X86917850Y-76579520D01*
X86938893Y-76592132D01*
X86958599Y-76606747D01*
X86976777Y-76623223D01*
X86993253Y-76641401D01*
X87007868Y-76661107D01*
X87020480Y-76682150D01*
X87030970Y-76704329D01*
X87039235Y-76727428D01*
X87045196Y-76751227D01*
X87048796Y-76775495D01*
X87050000Y-76799999D01*
X87050000Y-77700001D01*
X87048796Y-77724505D01*
X87045196Y-77748773D01*
X87039235Y-77772572D01*
X87030970Y-77795671D01*
X87020480Y-77817850D01*
X87007868Y-77838893D01*
X86993253Y-77858599D01*
X86976777Y-77876777D01*
X86958599Y-77893253D01*
X86938893Y-77907868D01*
X86917850Y-77920480D01*
X86895671Y-77930970D01*
X86872572Y-77939235D01*
X86848773Y-77945196D01*
X86824505Y-77948796D01*
X86800001Y-77950000D01*
X86149999Y-77950000D01*
X86125495Y-77948796D01*
X86101227Y-77945196D01*
X86077428Y-77939235D01*
X86054329Y-77930970D01*
X86032150Y-77920480D01*
X86011107Y-77907868D01*
X85991401Y-77893253D01*
X85973223Y-77876777D01*
X85956747Y-77858599D01*
X85942132Y-77838893D01*
X85929520Y-77817850D01*
X85919030Y-77795671D01*
X85910765Y-77772572D01*
X85904804Y-77748773D01*
X85901204Y-77724505D01*
X85900000Y-77700001D01*
X85900000Y-76799999D01*
X85901204Y-76775495D01*
X85904804Y-76751227D01*
X85910765Y-76727428D01*
X85919030Y-76704329D01*
X85929520Y-76682150D01*
X85942132Y-76661107D01*
X85956747Y-76641401D01*
X85973223Y-76623223D01*
X85991401Y-76606747D01*
X86011107Y-76592132D01*
X86032150Y-76579520D01*
X86054329Y-76569030D01*
X86077428Y-76560765D01*
X86101227Y-76554804D01*
X86125495Y-76551204D01*
X86149999Y-76550000D01*
X86800001Y-76550000D01*
X86824505Y-76551204D01*
X86824505Y-76551204D01*
G37*
D19*
X86475000Y-77250000D03*
D14*
G36*
X88874505Y-62301204D02*
G01*
X88898773Y-62304804D01*
X88922572Y-62310765D01*
X88945671Y-62319030D01*
X88967850Y-62329520D01*
X88988893Y-62342132D01*
X89008599Y-62356747D01*
X89026777Y-62373223D01*
X89043253Y-62391401D01*
X89057868Y-62411107D01*
X89070480Y-62432150D01*
X89080970Y-62454329D01*
X89089235Y-62477428D01*
X89095196Y-62501227D01*
X89098796Y-62525495D01*
X89100000Y-62549999D01*
X89100000Y-63450001D01*
X89098796Y-63474505D01*
X89095196Y-63498773D01*
X89089235Y-63522572D01*
X89080970Y-63545671D01*
X89070480Y-63567850D01*
X89057868Y-63588893D01*
X89043253Y-63608599D01*
X89026777Y-63626777D01*
X89008599Y-63643253D01*
X88988893Y-63657868D01*
X88967850Y-63670480D01*
X88945671Y-63680970D01*
X88922572Y-63689235D01*
X88898773Y-63695196D01*
X88874505Y-63698796D01*
X88850001Y-63700000D01*
X88199999Y-63700000D01*
X88175495Y-63698796D01*
X88151227Y-63695196D01*
X88127428Y-63689235D01*
X88104329Y-63680970D01*
X88082150Y-63670480D01*
X88061107Y-63657868D01*
X88041401Y-63643253D01*
X88023223Y-63626777D01*
X88006747Y-63608599D01*
X87992132Y-63588893D01*
X87979520Y-63567850D01*
X87969030Y-63545671D01*
X87960765Y-63522572D01*
X87954804Y-63498773D01*
X87951204Y-63474505D01*
X87950000Y-63450001D01*
X87950000Y-62549999D01*
X87951204Y-62525495D01*
X87954804Y-62501227D01*
X87960765Y-62477428D01*
X87969030Y-62454329D01*
X87979520Y-62432150D01*
X87992132Y-62411107D01*
X88006747Y-62391401D01*
X88023223Y-62373223D01*
X88041401Y-62356747D01*
X88061107Y-62342132D01*
X88082150Y-62329520D01*
X88104329Y-62319030D01*
X88127428Y-62310765D01*
X88151227Y-62304804D01*
X88175495Y-62301204D01*
X88199999Y-62300000D01*
X88850001Y-62300000D01*
X88874505Y-62301204D01*
X88874505Y-62301204D01*
G37*
D19*
X88525000Y-63000000D03*
D14*
G36*
X86824505Y-62301204D02*
G01*
X86848773Y-62304804D01*
X86872572Y-62310765D01*
X86895671Y-62319030D01*
X86917850Y-62329520D01*
X86938893Y-62342132D01*
X86958599Y-62356747D01*
X86976777Y-62373223D01*
X86993253Y-62391401D01*
X87007868Y-62411107D01*
X87020480Y-62432150D01*
X87030970Y-62454329D01*
X87039235Y-62477428D01*
X87045196Y-62501227D01*
X87048796Y-62525495D01*
X87050000Y-62549999D01*
X87050000Y-63450001D01*
X87048796Y-63474505D01*
X87045196Y-63498773D01*
X87039235Y-63522572D01*
X87030970Y-63545671D01*
X87020480Y-63567850D01*
X87007868Y-63588893D01*
X86993253Y-63608599D01*
X86976777Y-63626777D01*
X86958599Y-63643253D01*
X86938893Y-63657868D01*
X86917850Y-63670480D01*
X86895671Y-63680970D01*
X86872572Y-63689235D01*
X86848773Y-63695196D01*
X86824505Y-63698796D01*
X86800001Y-63700000D01*
X86149999Y-63700000D01*
X86125495Y-63698796D01*
X86101227Y-63695196D01*
X86077428Y-63689235D01*
X86054329Y-63680970D01*
X86032150Y-63670480D01*
X86011107Y-63657868D01*
X85991401Y-63643253D01*
X85973223Y-63626777D01*
X85956747Y-63608599D01*
X85942132Y-63588893D01*
X85929520Y-63567850D01*
X85919030Y-63545671D01*
X85910765Y-63522572D01*
X85904804Y-63498773D01*
X85901204Y-63474505D01*
X85900000Y-63450001D01*
X85900000Y-62549999D01*
X85901204Y-62525495D01*
X85904804Y-62501227D01*
X85910765Y-62477428D01*
X85919030Y-62454329D01*
X85929520Y-62432150D01*
X85942132Y-62411107D01*
X85956747Y-62391401D01*
X85973223Y-62373223D01*
X85991401Y-62356747D01*
X86011107Y-62342132D01*
X86032150Y-62329520D01*
X86054329Y-62319030D01*
X86077428Y-62310765D01*
X86101227Y-62304804D01*
X86125495Y-62301204D01*
X86149999Y-62300000D01*
X86800001Y-62300000D01*
X86824505Y-62301204D01*
X86824505Y-62301204D01*
G37*
D19*
X86475000Y-63000000D03*
D14*
G36*
X88862005Y-57801204D02*
G01*
X88886273Y-57804804D01*
X88910072Y-57810765D01*
X88933171Y-57819030D01*
X88955350Y-57829520D01*
X88976393Y-57842132D01*
X88996099Y-57856747D01*
X89014277Y-57873223D01*
X89030753Y-57891401D01*
X89045368Y-57911107D01*
X89057980Y-57932150D01*
X89068470Y-57954329D01*
X89076735Y-57977428D01*
X89082696Y-58001227D01*
X89086296Y-58025495D01*
X89087500Y-58049999D01*
X89087500Y-58950001D01*
X89086296Y-58974505D01*
X89082696Y-58998773D01*
X89076735Y-59022572D01*
X89068470Y-59045671D01*
X89057980Y-59067850D01*
X89045368Y-59088893D01*
X89030753Y-59108599D01*
X89014277Y-59126777D01*
X88996099Y-59143253D01*
X88976393Y-59157868D01*
X88955350Y-59170480D01*
X88933171Y-59180970D01*
X88910072Y-59189235D01*
X88886273Y-59195196D01*
X88862005Y-59198796D01*
X88837501Y-59200000D01*
X88187499Y-59200000D01*
X88162995Y-59198796D01*
X88138727Y-59195196D01*
X88114928Y-59189235D01*
X88091829Y-59180970D01*
X88069650Y-59170480D01*
X88048607Y-59157868D01*
X88028901Y-59143253D01*
X88010723Y-59126777D01*
X87994247Y-59108599D01*
X87979632Y-59088893D01*
X87967020Y-59067850D01*
X87956530Y-59045671D01*
X87948265Y-59022572D01*
X87942304Y-58998773D01*
X87938704Y-58974505D01*
X87937500Y-58950001D01*
X87937500Y-58049999D01*
X87938704Y-58025495D01*
X87942304Y-58001227D01*
X87948265Y-57977428D01*
X87956530Y-57954329D01*
X87967020Y-57932150D01*
X87979632Y-57911107D01*
X87994247Y-57891401D01*
X88010723Y-57873223D01*
X88028901Y-57856747D01*
X88048607Y-57842132D01*
X88069650Y-57829520D01*
X88091829Y-57819030D01*
X88114928Y-57810765D01*
X88138727Y-57804804D01*
X88162995Y-57801204D01*
X88187499Y-57800000D01*
X88837501Y-57800000D01*
X88862005Y-57801204D01*
X88862005Y-57801204D01*
G37*
D19*
X88512500Y-58500000D03*
D14*
G36*
X86812005Y-57801204D02*
G01*
X86836273Y-57804804D01*
X86860072Y-57810765D01*
X86883171Y-57819030D01*
X86905350Y-57829520D01*
X86926393Y-57842132D01*
X86946099Y-57856747D01*
X86964277Y-57873223D01*
X86980753Y-57891401D01*
X86995368Y-57911107D01*
X87007980Y-57932150D01*
X87018470Y-57954329D01*
X87026735Y-57977428D01*
X87032696Y-58001227D01*
X87036296Y-58025495D01*
X87037500Y-58049999D01*
X87037500Y-58950001D01*
X87036296Y-58974505D01*
X87032696Y-58998773D01*
X87026735Y-59022572D01*
X87018470Y-59045671D01*
X87007980Y-59067850D01*
X86995368Y-59088893D01*
X86980753Y-59108599D01*
X86964277Y-59126777D01*
X86946099Y-59143253D01*
X86926393Y-59157868D01*
X86905350Y-59170480D01*
X86883171Y-59180970D01*
X86860072Y-59189235D01*
X86836273Y-59195196D01*
X86812005Y-59198796D01*
X86787501Y-59200000D01*
X86137499Y-59200000D01*
X86112995Y-59198796D01*
X86088727Y-59195196D01*
X86064928Y-59189235D01*
X86041829Y-59180970D01*
X86019650Y-59170480D01*
X85998607Y-59157868D01*
X85978901Y-59143253D01*
X85960723Y-59126777D01*
X85944247Y-59108599D01*
X85929632Y-59088893D01*
X85917020Y-59067850D01*
X85906530Y-59045671D01*
X85898265Y-59022572D01*
X85892304Y-58998773D01*
X85888704Y-58974505D01*
X85887500Y-58950001D01*
X85887500Y-58049999D01*
X85888704Y-58025495D01*
X85892304Y-58001227D01*
X85898265Y-57977428D01*
X85906530Y-57954329D01*
X85917020Y-57932150D01*
X85929632Y-57911107D01*
X85944247Y-57891401D01*
X85960723Y-57873223D01*
X85978901Y-57856747D01*
X85998607Y-57842132D01*
X86019650Y-57829520D01*
X86041829Y-57819030D01*
X86064928Y-57810765D01*
X86088727Y-57804804D01*
X86112995Y-57801204D01*
X86137499Y-57800000D01*
X86787501Y-57800000D01*
X86812005Y-57801204D01*
X86812005Y-57801204D01*
G37*
D19*
X86462500Y-58500000D03*
D14*
G36*
X88862005Y-55435204D02*
G01*
X88886273Y-55438804D01*
X88910072Y-55444765D01*
X88933171Y-55453030D01*
X88955350Y-55463520D01*
X88976393Y-55476132D01*
X88996099Y-55490747D01*
X89014277Y-55507223D01*
X89030753Y-55525401D01*
X89045368Y-55545107D01*
X89057980Y-55566150D01*
X89068470Y-55588329D01*
X89076735Y-55611428D01*
X89082696Y-55635227D01*
X89086296Y-55659495D01*
X89087500Y-55683999D01*
X89087500Y-56584001D01*
X89086296Y-56608505D01*
X89082696Y-56632773D01*
X89076735Y-56656572D01*
X89068470Y-56679671D01*
X89057980Y-56701850D01*
X89045368Y-56722893D01*
X89030753Y-56742599D01*
X89014277Y-56760777D01*
X88996099Y-56777253D01*
X88976393Y-56791868D01*
X88955350Y-56804480D01*
X88933171Y-56814970D01*
X88910072Y-56823235D01*
X88886273Y-56829196D01*
X88862005Y-56832796D01*
X88837501Y-56834000D01*
X88187499Y-56834000D01*
X88162995Y-56832796D01*
X88138727Y-56829196D01*
X88114928Y-56823235D01*
X88091829Y-56814970D01*
X88069650Y-56804480D01*
X88048607Y-56791868D01*
X88028901Y-56777253D01*
X88010723Y-56760777D01*
X87994247Y-56742599D01*
X87979632Y-56722893D01*
X87967020Y-56701850D01*
X87956530Y-56679671D01*
X87948265Y-56656572D01*
X87942304Y-56632773D01*
X87938704Y-56608505D01*
X87937500Y-56584001D01*
X87937500Y-55683999D01*
X87938704Y-55659495D01*
X87942304Y-55635227D01*
X87948265Y-55611428D01*
X87956530Y-55588329D01*
X87967020Y-55566150D01*
X87979632Y-55545107D01*
X87994247Y-55525401D01*
X88010723Y-55507223D01*
X88028901Y-55490747D01*
X88048607Y-55476132D01*
X88069650Y-55463520D01*
X88091829Y-55453030D01*
X88114928Y-55444765D01*
X88138727Y-55438804D01*
X88162995Y-55435204D01*
X88187499Y-55434000D01*
X88837501Y-55434000D01*
X88862005Y-55435204D01*
X88862005Y-55435204D01*
G37*
D19*
X88512500Y-56134000D03*
D14*
G36*
X86812005Y-55435204D02*
G01*
X86836273Y-55438804D01*
X86860072Y-55444765D01*
X86883171Y-55453030D01*
X86905350Y-55463520D01*
X86926393Y-55476132D01*
X86946099Y-55490747D01*
X86964277Y-55507223D01*
X86980753Y-55525401D01*
X86995368Y-55545107D01*
X87007980Y-55566150D01*
X87018470Y-55588329D01*
X87026735Y-55611428D01*
X87032696Y-55635227D01*
X87036296Y-55659495D01*
X87037500Y-55683999D01*
X87037500Y-56584001D01*
X87036296Y-56608505D01*
X87032696Y-56632773D01*
X87026735Y-56656572D01*
X87018470Y-56679671D01*
X87007980Y-56701850D01*
X86995368Y-56722893D01*
X86980753Y-56742599D01*
X86964277Y-56760777D01*
X86946099Y-56777253D01*
X86926393Y-56791868D01*
X86905350Y-56804480D01*
X86883171Y-56814970D01*
X86860072Y-56823235D01*
X86836273Y-56829196D01*
X86812005Y-56832796D01*
X86787501Y-56834000D01*
X86137499Y-56834000D01*
X86112995Y-56832796D01*
X86088727Y-56829196D01*
X86064928Y-56823235D01*
X86041829Y-56814970D01*
X86019650Y-56804480D01*
X85998607Y-56791868D01*
X85978901Y-56777253D01*
X85960723Y-56760777D01*
X85944247Y-56742599D01*
X85929632Y-56722893D01*
X85917020Y-56701850D01*
X85906530Y-56679671D01*
X85898265Y-56656572D01*
X85892304Y-56632773D01*
X85888704Y-56608505D01*
X85887500Y-56584001D01*
X85887500Y-55683999D01*
X85888704Y-55659495D01*
X85892304Y-55635227D01*
X85898265Y-55611428D01*
X85906530Y-55588329D01*
X85917020Y-55566150D01*
X85929632Y-55545107D01*
X85944247Y-55525401D01*
X85960723Y-55507223D01*
X85978901Y-55490747D01*
X85998607Y-55476132D01*
X86019650Y-55463520D01*
X86041829Y-55453030D01*
X86064928Y-55444765D01*
X86088727Y-55438804D01*
X86112995Y-55435204D01*
X86137499Y-55434000D01*
X86787501Y-55434000D01*
X86812005Y-55435204D01*
X86812005Y-55435204D01*
G37*
D19*
X86462500Y-56134000D03*
D14*
G36*
X100713504Y-46849204D02*
G01*
X100737773Y-46852804D01*
X100761571Y-46858765D01*
X100784671Y-46867030D01*
X100806849Y-46877520D01*
X100827893Y-46890133D01*
X100847598Y-46904747D01*
X100865777Y-46921223D01*
X100882253Y-46939402D01*
X100896867Y-46959107D01*
X100909480Y-46980151D01*
X100919970Y-47002329D01*
X100928235Y-47025429D01*
X100934196Y-47049227D01*
X100937796Y-47073496D01*
X100939000Y-47098000D01*
X100939000Y-47898000D01*
X100937796Y-47922504D01*
X100934196Y-47946773D01*
X100928235Y-47970571D01*
X100919970Y-47993671D01*
X100909480Y-48015849D01*
X100896867Y-48036893D01*
X100882253Y-48056598D01*
X100865777Y-48074777D01*
X100847598Y-48091253D01*
X100827893Y-48105867D01*
X100806849Y-48118480D01*
X100784671Y-48128970D01*
X100761571Y-48137235D01*
X100737773Y-48143196D01*
X100713504Y-48146796D01*
X100689000Y-48148000D01*
X99864000Y-48148000D01*
X99839496Y-48146796D01*
X99815227Y-48143196D01*
X99791429Y-48137235D01*
X99768329Y-48128970D01*
X99746151Y-48118480D01*
X99725107Y-48105867D01*
X99705402Y-48091253D01*
X99687223Y-48074777D01*
X99670747Y-48056598D01*
X99656133Y-48036893D01*
X99643520Y-48015849D01*
X99633030Y-47993671D01*
X99624765Y-47970571D01*
X99618804Y-47946773D01*
X99615204Y-47922504D01*
X99614000Y-47898000D01*
X99614000Y-47098000D01*
X99615204Y-47073496D01*
X99618804Y-47049227D01*
X99624765Y-47025429D01*
X99633030Y-47002329D01*
X99643520Y-46980151D01*
X99656133Y-46959107D01*
X99670747Y-46939402D01*
X99687223Y-46921223D01*
X99705402Y-46904747D01*
X99725107Y-46890133D01*
X99746151Y-46877520D01*
X99768329Y-46867030D01*
X99791429Y-46858765D01*
X99815227Y-46852804D01*
X99839496Y-46849204D01*
X99864000Y-46848000D01*
X100689000Y-46848000D01*
X100713504Y-46849204D01*
X100713504Y-46849204D01*
G37*
D20*
X100276500Y-47498000D03*
D14*
G36*
X98788504Y-46849204D02*
G01*
X98812773Y-46852804D01*
X98836571Y-46858765D01*
X98859671Y-46867030D01*
X98881849Y-46877520D01*
X98902893Y-46890133D01*
X98922598Y-46904747D01*
X98940777Y-46921223D01*
X98957253Y-46939402D01*
X98971867Y-46959107D01*
X98984480Y-46980151D01*
X98994970Y-47002329D01*
X99003235Y-47025429D01*
X99009196Y-47049227D01*
X99012796Y-47073496D01*
X99014000Y-47098000D01*
X99014000Y-47898000D01*
X99012796Y-47922504D01*
X99009196Y-47946773D01*
X99003235Y-47970571D01*
X98994970Y-47993671D01*
X98984480Y-48015849D01*
X98971867Y-48036893D01*
X98957253Y-48056598D01*
X98940777Y-48074777D01*
X98922598Y-48091253D01*
X98902893Y-48105867D01*
X98881849Y-48118480D01*
X98859671Y-48128970D01*
X98836571Y-48137235D01*
X98812773Y-48143196D01*
X98788504Y-48146796D01*
X98764000Y-48148000D01*
X97939000Y-48148000D01*
X97914496Y-48146796D01*
X97890227Y-48143196D01*
X97866429Y-48137235D01*
X97843329Y-48128970D01*
X97821151Y-48118480D01*
X97800107Y-48105867D01*
X97780402Y-48091253D01*
X97762223Y-48074777D01*
X97745747Y-48056598D01*
X97731133Y-48036893D01*
X97718520Y-48015849D01*
X97708030Y-47993671D01*
X97699765Y-47970571D01*
X97693804Y-47946773D01*
X97690204Y-47922504D01*
X97689000Y-47898000D01*
X97689000Y-47098000D01*
X97690204Y-47073496D01*
X97693804Y-47049227D01*
X97699765Y-47025429D01*
X97708030Y-47002329D01*
X97718520Y-46980151D01*
X97731133Y-46959107D01*
X97745747Y-46939402D01*
X97762223Y-46921223D01*
X97780402Y-46904747D01*
X97800107Y-46890133D01*
X97821151Y-46877520D01*
X97843329Y-46867030D01*
X97866429Y-46858765D01*
X97890227Y-46852804D01*
X97914496Y-46849204D01*
X97939000Y-46848000D01*
X98764000Y-46848000D01*
X98788504Y-46849204D01*
X98788504Y-46849204D01*
G37*
D20*
X98351500Y-47498000D03*
D14*
G36*
X91924504Y-82876204D02*
G01*
X91948773Y-82879804D01*
X91972571Y-82885765D01*
X91995671Y-82894030D01*
X92017849Y-82904520D01*
X92038893Y-82917133D01*
X92058598Y-82931747D01*
X92076777Y-82948223D01*
X92093253Y-82966402D01*
X92107867Y-82986107D01*
X92120480Y-83007151D01*
X92130970Y-83029329D01*
X92139235Y-83052429D01*
X92145196Y-83076227D01*
X92148796Y-83100496D01*
X92150000Y-83125000D01*
X92150000Y-83950000D01*
X92148796Y-83974504D01*
X92145196Y-83998773D01*
X92139235Y-84022571D01*
X92130970Y-84045671D01*
X92120480Y-84067849D01*
X92107867Y-84088893D01*
X92093253Y-84108598D01*
X92076777Y-84126777D01*
X92058598Y-84143253D01*
X92038893Y-84157867D01*
X92017849Y-84170480D01*
X91995671Y-84180970D01*
X91972571Y-84189235D01*
X91948773Y-84195196D01*
X91924504Y-84198796D01*
X91900000Y-84200000D01*
X91100000Y-84200000D01*
X91075496Y-84198796D01*
X91051227Y-84195196D01*
X91027429Y-84189235D01*
X91004329Y-84180970D01*
X90982151Y-84170480D01*
X90961107Y-84157867D01*
X90941402Y-84143253D01*
X90923223Y-84126777D01*
X90906747Y-84108598D01*
X90892133Y-84088893D01*
X90879520Y-84067849D01*
X90869030Y-84045671D01*
X90860765Y-84022571D01*
X90854804Y-83998773D01*
X90851204Y-83974504D01*
X90850000Y-83950000D01*
X90850000Y-83125000D01*
X90851204Y-83100496D01*
X90854804Y-83076227D01*
X90860765Y-83052429D01*
X90869030Y-83029329D01*
X90879520Y-83007151D01*
X90892133Y-82986107D01*
X90906747Y-82966402D01*
X90923223Y-82948223D01*
X90941402Y-82931747D01*
X90961107Y-82917133D01*
X90982151Y-82904520D01*
X91004329Y-82894030D01*
X91027429Y-82885765D01*
X91051227Y-82879804D01*
X91075496Y-82876204D01*
X91100000Y-82875000D01*
X91900000Y-82875000D01*
X91924504Y-82876204D01*
X91924504Y-82876204D01*
G37*
D20*
X91500000Y-83537500D03*
D14*
G36*
X91924504Y-84801204D02*
G01*
X91948773Y-84804804D01*
X91972571Y-84810765D01*
X91995671Y-84819030D01*
X92017849Y-84829520D01*
X92038893Y-84842133D01*
X92058598Y-84856747D01*
X92076777Y-84873223D01*
X92093253Y-84891402D01*
X92107867Y-84911107D01*
X92120480Y-84932151D01*
X92130970Y-84954329D01*
X92139235Y-84977429D01*
X92145196Y-85001227D01*
X92148796Y-85025496D01*
X92150000Y-85050000D01*
X92150000Y-85875000D01*
X92148796Y-85899504D01*
X92145196Y-85923773D01*
X92139235Y-85947571D01*
X92130970Y-85970671D01*
X92120480Y-85992849D01*
X92107867Y-86013893D01*
X92093253Y-86033598D01*
X92076777Y-86051777D01*
X92058598Y-86068253D01*
X92038893Y-86082867D01*
X92017849Y-86095480D01*
X91995671Y-86105970D01*
X91972571Y-86114235D01*
X91948773Y-86120196D01*
X91924504Y-86123796D01*
X91900000Y-86125000D01*
X91100000Y-86125000D01*
X91075496Y-86123796D01*
X91051227Y-86120196D01*
X91027429Y-86114235D01*
X91004329Y-86105970D01*
X90982151Y-86095480D01*
X90961107Y-86082867D01*
X90941402Y-86068253D01*
X90923223Y-86051777D01*
X90906747Y-86033598D01*
X90892133Y-86013893D01*
X90879520Y-85992849D01*
X90869030Y-85970671D01*
X90860765Y-85947571D01*
X90854804Y-85923773D01*
X90851204Y-85899504D01*
X90850000Y-85875000D01*
X90850000Y-85050000D01*
X90851204Y-85025496D01*
X90854804Y-85001227D01*
X90860765Y-84977429D01*
X90869030Y-84954329D01*
X90879520Y-84932151D01*
X90892133Y-84911107D01*
X90906747Y-84891402D01*
X90923223Y-84873223D01*
X90941402Y-84856747D01*
X90961107Y-84842133D01*
X90982151Y-84829520D01*
X91004329Y-84819030D01*
X91027429Y-84810765D01*
X91051227Y-84804804D01*
X91075496Y-84801204D01*
X91100000Y-84800000D01*
X91900000Y-84800000D01*
X91924504Y-84801204D01*
X91924504Y-84801204D01*
G37*
D20*
X91500000Y-85462500D03*
D14*
G36*
X91924504Y-77376204D02*
G01*
X91948773Y-77379804D01*
X91972571Y-77385765D01*
X91995671Y-77394030D01*
X92017849Y-77404520D01*
X92038893Y-77417133D01*
X92058598Y-77431747D01*
X92076777Y-77448223D01*
X92093253Y-77466402D01*
X92107867Y-77486107D01*
X92120480Y-77507151D01*
X92130970Y-77529329D01*
X92139235Y-77552429D01*
X92145196Y-77576227D01*
X92148796Y-77600496D01*
X92150000Y-77625000D01*
X92150000Y-78450000D01*
X92148796Y-78474504D01*
X92145196Y-78498773D01*
X92139235Y-78522571D01*
X92130970Y-78545671D01*
X92120480Y-78567849D01*
X92107867Y-78588893D01*
X92093253Y-78608598D01*
X92076777Y-78626777D01*
X92058598Y-78643253D01*
X92038893Y-78657867D01*
X92017849Y-78670480D01*
X91995671Y-78680970D01*
X91972571Y-78689235D01*
X91948773Y-78695196D01*
X91924504Y-78698796D01*
X91900000Y-78700000D01*
X91100000Y-78700000D01*
X91075496Y-78698796D01*
X91051227Y-78695196D01*
X91027429Y-78689235D01*
X91004329Y-78680970D01*
X90982151Y-78670480D01*
X90961107Y-78657867D01*
X90941402Y-78643253D01*
X90923223Y-78626777D01*
X90906747Y-78608598D01*
X90892133Y-78588893D01*
X90879520Y-78567849D01*
X90869030Y-78545671D01*
X90860765Y-78522571D01*
X90854804Y-78498773D01*
X90851204Y-78474504D01*
X90850000Y-78450000D01*
X90850000Y-77625000D01*
X90851204Y-77600496D01*
X90854804Y-77576227D01*
X90860765Y-77552429D01*
X90869030Y-77529329D01*
X90879520Y-77507151D01*
X90892133Y-77486107D01*
X90906747Y-77466402D01*
X90923223Y-77448223D01*
X90941402Y-77431747D01*
X90961107Y-77417133D01*
X90982151Y-77404520D01*
X91004329Y-77394030D01*
X91027429Y-77385765D01*
X91051227Y-77379804D01*
X91075496Y-77376204D01*
X91100000Y-77375000D01*
X91900000Y-77375000D01*
X91924504Y-77376204D01*
X91924504Y-77376204D01*
G37*
D20*
X91500000Y-78037500D03*
D14*
G36*
X91924504Y-79301204D02*
G01*
X91948773Y-79304804D01*
X91972571Y-79310765D01*
X91995671Y-79319030D01*
X92017849Y-79329520D01*
X92038893Y-79342133D01*
X92058598Y-79356747D01*
X92076777Y-79373223D01*
X92093253Y-79391402D01*
X92107867Y-79411107D01*
X92120480Y-79432151D01*
X92130970Y-79454329D01*
X92139235Y-79477429D01*
X92145196Y-79501227D01*
X92148796Y-79525496D01*
X92150000Y-79550000D01*
X92150000Y-80375000D01*
X92148796Y-80399504D01*
X92145196Y-80423773D01*
X92139235Y-80447571D01*
X92130970Y-80470671D01*
X92120480Y-80492849D01*
X92107867Y-80513893D01*
X92093253Y-80533598D01*
X92076777Y-80551777D01*
X92058598Y-80568253D01*
X92038893Y-80582867D01*
X92017849Y-80595480D01*
X91995671Y-80605970D01*
X91972571Y-80614235D01*
X91948773Y-80620196D01*
X91924504Y-80623796D01*
X91900000Y-80625000D01*
X91100000Y-80625000D01*
X91075496Y-80623796D01*
X91051227Y-80620196D01*
X91027429Y-80614235D01*
X91004329Y-80605970D01*
X90982151Y-80595480D01*
X90961107Y-80582867D01*
X90941402Y-80568253D01*
X90923223Y-80551777D01*
X90906747Y-80533598D01*
X90892133Y-80513893D01*
X90879520Y-80492849D01*
X90869030Y-80470671D01*
X90860765Y-80447571D01*
X90854804Y-80423773D01*
X90851204Y-80399504D01*
X90850000Y-80375000D01*
X90850000Y-79550000D01*
X90851204Y-79525496D01*
X90854804Y-79501227D01*
X90860765Y-79477429D01*
X90869030Y-79454329D01*
X90879520Y-79432151D01*
X90892133Y-79411107D01*
X90906747Y-79391402D01*
X90923223Y-79373223D01*
X90941402Y-79356747D01*
X90961107Y-79342133D01*
X90982151Y-79329520D01*
X91004329Y-79319030D01*
X91027429Y-79310765D01*
X91051227Y-79304804D01*
X91075496Y-79301204D01*
X91100000Y-79300000D01*
X91900000Y-79300000D01*
X91924504Y-79301204D01*
X91924504Y-79301204D01*
G37*
D20*
X91500000Y-79962500D03*
D14*
G36*
X91924504Y-71876204D02*
G01*
X91948773Y-71879804D01*
X91972571Y-71885765D01*
X91995671Y-71894030D01*
X92017849Y-71904520D01*
X92038893Y-71917133D01*
X92058598Y-71931747D01*
X92076777Y-71948223D01*
X92093253Y-71966402D01*
X92107867Y-71986107D01*
X92120480Y-72007151D01*
X92130970Y-72029329D01*
X92139235Y-72052429D01*
X92145196Y-72076227D01*
X92148796Y-72100496D01*
X92150000Y-72125000D01*
X92150000Y-72950000D01*
X92148796Y-72974504D01*
X92145196Y-72998773D01*
X92139235Y-73022571D01*
X92130970Y-73045671D01*
X92120480Y-73067849D01*
X92107867Y-73088893D01*
X92093253Y-73108598D01*
X92076777Y-73126777D01*
X92058598Y-73143253D01*
X92038893Y-73157867D01*
X92017849Y-73170480D01*
X91995671Y-73180970D01*
X91972571Y-73189235D01*
X91948773Y-73195196D01*
X91924504Y-73198796D01*
X91900000Y-73200000D01*
X91100000Y-73200000D01*
X91075496Y-73198796D01*
X91051227Y-73195196D01*
X91027429Y-73189235D01*
X91004329Y-73180970D01*
X90982151Y-73170480D01*
X90961107Y-73157867D01*
X90941402Y-73143253D01*
X90923223Y-73126777D01*
X90906747Y-73108598D01*
X90892133Y-73088893D01*
X90879520Y-73067849D01*
X90869030Y-73045671D01*
X90860765Y-73022571D01*
X90854804Y-72998773D01*
X90851204Y-72974504D01*
X90850000Y-72950000D01*
X90850000Y-72125000D01*
X90851204Y-72100496D01*
X90854804Y-72076227D01*
X90860765Y-72052429D01*
X90869030Y-72029329D01*
X90879520Y-72007151D01*
X90892133Y-71986107D01*
X90906747Y-71966402D01*
X90923223Y-71948223D01*
X90941402Y-71931747D01*
X90961107Y-71917133D01*
X90982151Y-71904520D01*
X91004329Y-71894030D01*
X91027429Y-71885765D01*
X91051227Y-71879804D01*
X91075496Y-71876204D01*
X91100000Y-71875000D01*
X91900000Y-71875000D01*
X91924504Y-71876204D01*
X91924504Y-71876204D01*
G37*
D20*
X91500000Y-72537500D03*
D14*
G36*
X91924504Y-73801204D02*
G01*
X91948773Y-73804804D01*
X91972571Y-73810765D01*
X91995671Y-73819030D01*
X92017849Y-73829520D01*
X92038893Y-73842133D01*
X92058598Y-73856747D01*
X92076777Y-73873223D01*
X92093253Y-73891402D01*
X92107867Y-73911107D01*
X92120480Y-73932151D01*
X92130970Y-73954329D01*
X92139235Y-73977429D01*
X92145196Y-74001227D01*
X92148796Y-74025496D01*
X92150000Y-74050000D01*
X92150000Y-74875000D01*
X92148796Y-74899504D01*
X92145196Y-74923773D01*
X92139235Y-74947571D01*
X92130970Y-74970671D01*
X92120480Y-74992849D01*
X92107867Y-75013893D01*
X92093253Y-75033598D01*
X92076777Y-75051777D01*
X92058598Y-75068253D01*
X92038893Y-75082867D01*
X92017849Y-75095480D01*
X91995671Y-75105970D01*
X91972571Y-75114235D01*
X91948773Y-75120196D01*
X91924504Y-75123796D01*
X91900000Y-75125000D01*
X91100000Y-75125000D01*
X91075496Y-75123796D01*
X91051227Y-75120196D01*
X91027429Y-75114235D01*
X91004329Y-75105970D01*
X90982151Y-75095480D01*
X90961107Y-75082867D01*
X90941402Y-75068253D01*
X90923223Y-75051777D01*
X90906747Y-75033598D01*
X90892133Y-75013893D01*
X90879520Y-74992849D01*
X90869030Y-74970671D01*
X90860765Y-74947571D01*
X90854804Y-74923773D01*
X90851204Y-74899504D01*
X90850000Y-74875000D01*
X90850000Y-74050000D01*
X90851204Y-74025496D01*
X90854804Y-74001227D01*
X90860765Y-73977429D01*
X90869030Y-73954329D01*
X90879520Y-73932151D01*
X90892133Y-73911107D01*
X90906747Y-73891402D01*
X90923223Y-73873223D01*
X90941402Y-73856747D01*
X90961107Y-73842133D01*
X90982151Y-73829520D01*
X91004329Y-73819030D01*
X91027429Y-73810765D01*
X91051227Y-73804804D01*
X91075496Y-73801204D01*
X91100000Y-73800000D01*
X91900000Y-73800000D01*
X91924504Y-73801204D01*
X91924504Y-73801204D01*
G37*
D20*
X91500000Y-74462500D03*
D14*
G36*
X91924504Y-61876204D02*
G01*
X91948773Y-61879804D01*
X91972571Y-61885765D01*
X91995671Y-61894030D01*
X92017849Y-61904520D01*
X92038893Y-61917133D01*
X92058598Y-61931747D01*
X92076777Y-61948223D01*
X92093253Y-61966402D01*
X92107867Y-61986107D01*
X92120480Y-62007151D01*
X92130970Y-62029329D01*
X92139235Y-62052429D01*
X92145196Y-62076227D01*
X92148796Y-62100496D01*
X92150000Y-62125000D01*
X92150000Y-62950000D01*
X92148796Y-62974504D01*
X92145196Y-62998773D01*
X92139235Y-63022571D01*
X92130970Y-63045671D01*
X92120480Y-63067849D01*
X92107867Y-63088893D01*
X92093253Y-63108598D01*
X92076777Y-63126777D01*
X92058598Y-63143253D01*
X92038893Y-63157867D01*
X92017849Y-63170480D01*
X91995671Y-63180970D01*
X91972571Y-63189235D01*
X91948773Y-63195196D01*
X91924504Y-63198796D01*
X91900000Y-63200000D01*
X91100000Y-63200000D01*
X91075496Y-63198796D01*
X91051227Y-63195196D01*
X91027429Y-63189235D01*
X91004329Y-63180970D01*
X90982151Y-63170480D01*
X90961107Y-63157867D01*
X90941402Y-63143253D01*
X90923223Y-63126777D01*
X90906747Y-63108598D01*
X90892133Y-63088893D01*
X90879520Y-63067849D01*
X90869030Y-63045671D01*
X90860765Y-63022571D01*
X90854804Y-62998773D01*
X90851204Y-62974504D01*
X90850000Y-62950000D01*
X90850000Y-62125000D01*
X90851204Y-62100496D01*
X90854804Y-62076227D01*
X90860765Y-62052429D01*
X90869030Y-62029329D01*
X90879520Y-62007151D01*
X90892133Y-61986107D01*
X90906747Y-61966402D01*
X90923223Y-61948223D01*
X90941402Y-61931747D01*
X90961107Y-61917133D01*
X90982151Y-61904520D01*
X91004329Y-61894030D01*
X91027429Y-61885765D01*
X91051227Y-61879804D01*
X91075496Y-61876204D01*
X91100000Y-61875000D01*
X91900000Y-61875000D01*
X91924504Y-61876204D01*
X91924504Y-61876204D01*
G37*
D20*
X91500000Y-62537500D03*
D14*
G36*
X91924504Y-63801204D02*
G01*
X91948773Y-63804804D01*
X91972571Y-63810765D01*
X91995671Y-63819030D01*
X92017849Y-63829520D01*
X92038893Y-63842133D01*
X92058598Y-63856747D01*
X92076777Y-63873223D01*
X92093253Y-63891402D01*
X92107867Y-63911107D01*
X92120480Y-63932151D01*
X92130970Y-63954329D01*
X92139235Y-63977429D01*
X92145196Y-64001227D01*
X92148796Y-64025496D01*
X92150000Y-64050000D01*
X92150000Y-64875000D01*
X92148796Y-64899504D01*
X92145196Y-64923773D01*
X92139235Y-64947571D01*
X92130970Y-64970671D01*
X92120480Y-64992849D01*
X92107867Y-65013893D01*
X92093253Y-65033598D01*
X92076777Y-65051777D01*
X92058598Y-65068253D01*
X92038893Y-65082867D01*
X92017849Y-65095480D01*
X91995671Y-65105970D01*
X91972571Y-65114235D01*
X91948773Y-65120196D01*
X91924504Y-65123796D01*
X91900000Y-65125000D01*
X91100000Y-65125000D01*
X91075496Y-65123796D01*
X91051227Y-65120196D01*
X91027429Y-65114235D01*
X91004329Y-65105970D01*
X90982151Y-65095480D01*
X90961107Y-65082867D01*
X90941402Y-65068253D01*
X90923223Y-65051777D01*
X90906747Y-65033598D01*
X90892133Y-65013893D01*
X90879520Y-64992849D01*
X90869030Y-64970671D01*
X90860765Y-64947571D01*
X90854804Y-64923773D01*
X90851204Y-64899504D01*
X90850000Y-64875000D01*
X90850000Y-64050000D01*
X90851204Y-64025496D01*
X90854804Y-64001227D01*
X90860765Y-63977429D01*
X90869030Y-63954329D01*
X90879520Y-63932151D01*
X90892133Y-63911107D01*
X90906747Y-63891402D01*
X90923223Y-63873223D01*
X90941402Y-63856747D01*
X90961107Y-63842133D01*
X90982151Y-63829520D01*
X91004329Y-63819030D01*
X91027429Y-63810765D01*
X91051227Y-63804804D01*
X91075496Y-63801204D01*
X91100000Y-63800000D01*
X91900000Y-63800000D01*
X91924504Y-63801204D01*
X91924504Y-63801204D01*
G37*
D20*
X91500000Y-64462500D03*
D14*
G36*
X91924504Y-56376204D02*
G01*
X91948773Y-56379804D01*
X91972571Y-56385765D01*
X91995671Y-56394030D01*
X92017849Y-56404520D01*
X92038893Y-56417133D01*
X92058598Y-56431747D01*
X92076777Y-56448223D01*
X92093253Y-56466402D01*
X92107867Y-56486107D01*
X92120480Y-56507151D01*
X92130970Y-56529329D01*
X92139235Y-56552429D01*
X92145196Y-56576227D01*
X92148796Y-56600496D01*
X92150000Y-56625000D01*
X92150000Y-57450000D01*
X92148796Y-57474504D01*
X92145196Y-57498773D01*
X92139235Y-57522571D01*
X92130970Y-57545671D01*
X92120480Y-57567849D01*
X92107867Y-57588893D01*
X92093253Y-57608598D01*
X92076777Y-57626777D01*
X92058598Y-57643253D01*
X92038893Y-57657867D01*
X92017849Y-57670480D01*
X91995671Y-57680970D01*
X91972571Y-57689235D01*
X91948773Y-57695196D01*
X91924504Y-57698796D01*
X91900000Y-57700000D01*
X91100000Y-57700000D01*
X91075496Y-57698796D01*
X91051227Y-57695196D01*
X91027429Y-57689235D01*
X91004329Y-57680970D01*
X90982151Y-57670480D01*
X90961107Y-57657867D01*
X90941402Y-57643253D01*
X90923223Y-57626777D01*
X90906747Y-57608598D01*
X90892133Y-57588893D01*
X90879520Y-57567849D01*
X90869030Y-57545671D01*
X90860765Y-57522571D01*
X90854804Y-57498773D01*
X90851204Y-57474504D01*
X90850000Y-57450000D01*
X90850000Y-56625000D01*
X90851204Y-56600496D01*
X90854804Y-56576227D01*
X90860765Y-56552429D01*
X90869030Y-56529329D01*
X90879520Y-56507151D01*
X90892133Y-56486107D01*
X90906747Y-56466402D01*
X90923223Y-56448223D01*
X90941402Y-56431747D01*
X90961107Y-56417133D01*
X90982151Y-56404520D01*
X91004329Y-56394030D01*
X91027429Y-56385765D01*
X91051227Y-56379804D01*
X91075496Y-56376204D01*
X91100000Y-56375000D01*
X91900000Y-56375000D01*
X91924504Y-56376204D01*
X91924504Y-56376204D01*
G37*
D20*
X91500000Y-57037500D03*
D14*
G36*
X91924504Y-58301204D02*
G01*
X91948773Y-58304804D01*
X91972571Y-58310765D01*
X91995671Y-58319030D01*
X92017849Y-58329520D01*
X92038893Y-58342133D01*
X92058598Y-58356747D01*
X92076777Y-58373223D01*
X92093253Y-58391402D01*
X92107867Y-58411107D01*
X92120480Y-58432151D01*
X92130970Y-58454329D01*
X92139235Y-58477429D01*
X92145196Y-58501227D01*
X92148796Y-58525496D01*
X92150000Y-58550000D01*
X92150000Y-59375000D01*
X92148796Y-59399504D01*
X92145196Y-59423773D01*
X92139235Y-59447571D01*
X92130970Y-59470671D01*
X92120480Y-59492849D01*
X92107867Y-59513893D01*
X92093253Y-59533598D01*
X92076777Y-59551777D01*
X92058598Y-59568253D01*
X92038893Y-59582867D01*
X92017849Y-59595480D01*
X91995671Y-59605970D01*
X91972571Y-59614235D01*
X91948773Y-59620196D01*
X91924504Y-59623796D01*
X91900000Y-59625000D01*
X91100000Y-59625000D01*
X91075496Y-59623796D01*
X91051227Y-59620196D01*
X91027429Y-59614235D01*
X91004329Y-59605970D01*
X90982151Y-59595480D01*
X90961107Y-59582867D01*
X90941402Y-59568253D01*
X90923223Y-59551777D01*
X90906747Y-59533598D01*
X90892133Y-59513893D01*
X90879520Y-59492849D01*
X90869030Y-59470671D01*
X90860765Y-59447571D01*
X90854804Y-59423773D01*
X90851204Y-59399504D01*
X90850000Y-59375000D01*
X90850000Y-58550000D01*
X90851204Y-58525496D01*
X90854804Y-58501227D01*
X90860765Y-58477429D01*
X90869030Y-58454329D01*
X90879520Y-58432151D01*
X90892133Y-58411107D01*
X90906747Y-58391402D01*
X90923223Y-58373223D01*
X90941402Y-58356747D01*
X90961107Y-58342133D01*
X90982151Y-58329520D01*
X91004329Y-58319030D01*
X91027429Y-58310765D01*
X91051227Y-58304804D01*
X91075496Y-58301204D01*
X91100000Y-58300000D01*
X91900000Y-58300000D01*
X91924504Y-58301204D01*
X91924504Y-58301204D01*
G37*
D20*
X91500000Y-58962500D03*
D14*
G36*
X91924504Y-50876204D02*
G01*
X91948773Y-50879804D01*
X91972571Y-50885765D01*
X91995671Y-50894030D01*
X92017849Y-50904520D01*
X92038893Y-50917133D01*
X92058598Y-50931747D01*
X92076777Y-50948223D01*
X92093253Y-50966402D01*
X92107867Y-50986107D01*
X92120480Y-51007151D01*
X92130970Y-51029329D01*
X92139235Y-51052429D01*
X92145196Y-51076227D01*
X92148796Y-51100496D01*
X92150000Y-51125000D01*
X92150000Y-51950000D01*
X92148796Y-51974504D01*
X92145196Y-51998773D01*
X92139235Y-52022571D01*
X92130970Y-52045671D01*
X92120480Y-52067849D01*
X92107867Y-52088893D01*
X92093253Y-52108598D01*
X92076777Y-52126777D01*
X92058598Y-52143253D01*
X92038893Y-52157867D01*
X92017849Y-52170480D01*
X91995671Y-52180970D01*
X91972571Y-52189235D01*
X91948773Y-52195196D01*
X91924504Y-52198796D01*
X91900000Y-52200000D01*
X91100000Y-52200000D01*
X91075496Y-52198796D01*
X91051227Y-52195196D01*
X91027429Y-52189235D01*
X91004329Y-52180970D01*
X90982151Y-52170480D01*
X90961107Y-52157867D01*
X90941402Y-52143253D01*
X90923223Y-52126777D01*
X90906747Y-52108598D01*
X90892133Y-52088893D01*
X90879520Y-52067849D01*
X90869030Y-52045671D01*
X90860765Y-52022571D01*
X90854804Y-51998773D01*
X90851204Y-51974504D01*
X90850000Y-51950000D01*
X90850000Y-51125000D01*
X90851204Y-51100496D01*
X90854804Y-51076227D01*
X90860765Y-51052429D01*
X90869030Y-51029329D01*
X90879520Y-51007151D01*
X90892133Y-50986107D01*
X90906747Y-50966402D01*
X90923223Y-50948223D01*
X90941402Y-50931747D01*
X90961107Y-50917133D01*
X90982151Y-50904520D01*
X91004329Y-50894030D01*
X91027429Y-50885765D01*
X91051227Y-50879804D01*
X91075496Y-50876204D01*
X91100000Y-50875000D01*
X91900000Y-50875000D01*
X91924504Y-50876204D01*
X91924504Y-50876204D01*
G37*
D20*
X91500000Y-51537500D03*
D14*
G36*
X91924504Y-52801204D02*
G01*
X91948773Y-52804804D01*
X91972571Y-52810765D01*
X91995671Y-52819030D01*
X92017849Y-52829520D01*
X92038893Y-52842133D01*
X92058598Y-52856747D01*
X92076777Y-52873223D01*
X92093253Y-52891402D01*
X92107867Y-52911107D01*
X92120480Y-52932151D01*
X92130970Y-52954329D01*
X92139235Y-52977429D01*
X92145196Y-53001227D01*
X92148796Y-53025496D01*
X92150000Y-53050000D01*
X92150000Y-53875000D01*
X92148796Y-53899504D01*
X92145196Y-53923773D01*
X92139235Y-53947571D01*
X92130970Y-53970671D01*
X92120480Y-53992849D01*
X92107867Y-54013893D01*
X92093253Y-54033598D01*
X92076777Y-54051777D01*
X92058598Y-54068253D01*
X92038893Y-54082867D01*
X92017849Y-54095480D01*
X91995671Y-54105970D01*
X91972571Y-54114235D01*
X91948773Y-54120196D01*
X91924504Y-54123796D01*
X91900000Y-54125000D01*
X91100000Y-54125000D01*
X91075496Y-54123796D01*
X91051227Y-54120196D01*
X91027429Y-54114235D01*
X91004329Y-54105970D01*
X90982151Y-54095480D01*
X90961107Y-54082867D01*
X90941402Y-54068253D01*
X90923223Y-54051777D01*
X90906747Y-54033598D01*
X90892133Y-54013893D01*
X90879520Y-53992849D01*
X90869030Y-53970671D01*
X90860765Y-53947571D01*
X90854804Y-53923773D01*
X90851204Y-53899504D01*
X90850000Y-53875000D01*
X90850000Y-53050000D01*
X90851204Y-53025496D01*
X90854804Y-53001227D01*
X90860765Y-52977429D01*
X90869030Y-52954329D01*
X90879520Y-52932151D01*
X90892133Y-52911107D01*
X90906747Y-52891402D01*
X90923223Y-52873223D01*
X90941402Y-52856747D01*
X90961107Y-52842133D01*
X90982151Y-52829520D01*
X91004329Y-52819030D01*
X91027429Y-52810765D01*
X91051227Y-52804804D01*
X91075496Y-52801204D01*
X91100000Y-52800000D01*
X91900000Y-52800000D01*
X91924504Y-52801204D01*
X91924504Y-52801204D01*
G37*
D20*
X91500000Y-53462500D03*
D14*
G36*
X79440191Y-86476053D02*
G01*
X79461426Y-86479203D01*
X79482250Y-86484419D01*
X79502462Y-86491651D01*
X79521868Y-86500830D01*
X79540281Y-86511866D01*
X79557524Y-86524654D01*
X79573430Y-86539070D01*
X79587846Y-86554976D01*
X79600634Y-86572219D01*
X79611670Y-86590632D01*
X79620849Y-86610038D01*
X79628081Y-86630250D01*
X79633297Y-86651074D01*
X79636447Y-86672309D01*
X79637500Y-86693750D01*
X79637500Y-87206250D01*
X79636447Y-87227691D01*
X79633297Y-87248926D01*
X79628081Y-87269750D01*
X79620849Y-87289962D01*
X79611670Y-87309368D01*
X79600634Y-87327781D01*
X79587846Y-87345024D01*
X79573430Y-87360930D01*
X79557524Y-87375346D01*
X79540281Y-87388134D01*
X79521868Y-87399170D01*
X79502462Y-87408349D01*
X79482250Y-87415581D01*
X79461426Y-87420797D01*
X79440191Y-87423947D01*
X79418750Y-87425000D01*
X78981250Y-87425000D01*
X78959809Y-87423947D01*
X78938574Y-87420797D01*
X78917750Y-87415581D01*
X78897538Y-87408349D01*
X78878132Y-87399170D01*
X78859719Y-87388134D01*
X78842476Y-87375346D01*
X78826570Y-87360930D01*
X78812154Y-87345024D01*
X78799366Y-87327781D01*
X78788330Y-87309368D01*
X78779151Y-87289962D01*
X78771919Y-87269750D01*
X78766703Y-87248926D01*
X78763553Y-87227691D01*
X78762500Y-87206250D01*
X78762500Y-86693750D01*
X78763553Y-86672309D01*
X78766703Y-86651074D01*
X78771919Y-86630250D01*
X78779151Y-86610038D01*
X78788330Y-86590632D01*
X78799366Y-86572219D01*
X78812154Y-86554976D01*
X78826570Y-86539070D01*
X78842476Y-86524654D01*
X78859719Y-86511866D01*
X78878132Y-86500830D01*
X78897538Y-86491651D01*
X78917750Y-86484419D01*
X78938574Y-86479203D01*
X78959809Y-86476053D01*
X78981250Y-86475000D01*
X79418750Y-86475000D01*
X79440191Y-86476053D01*
X79440191Y-86476053D01*
G37*
D15*
X79200000Y-86950000D03*
D14*
G36*
X77865191Y-86476053D02*
G01*
X77886426Y-86479203D01*
X77907250Y-86484419D01*
X77927462Y-86491651D01*
X77946868Y-86500830D01*
X77965281Y-86511866D01*
X77982524Y-86524654D01*
X77998430Y-86539070D01*
X78012846Y-86554976D01*
X78025634Y-86572219D01*
X78036670Y-86590632D01*
X78045849Y-86610038D01*
X78053081Y-86630250D01*
X78058297Y-86651074D01*
X78061447Y-86672309D01*
X78062500Y-86693750D01*
X78062500Y-87206250D01*
X78061447Y-87227691D01*
X78058297Y-87248926D01*
X78053081Y-87269750D01*
X78045849Y-87289962D01*
X78036670Y-87309368D01*
X78025634Y-87327781D01*
X78012846Y-87345024D01*
X77998430Y-87360930D01*
X77982524Y-87375346D01*
X77965281Y-87388134D01*
X77946868Y-87399170D01*
X77927462Y-87408349D01*
X77907250Y-87415581D01*
X77886426Y-87420797D01*
X77865191Y-87423947D01*
X77843750Y-87425000D01*
X77406250Y-87425000D01*
X77384809Y-87423947D01*
X77363574Y-87420797D01*
X77342750Y-87415581D01*
X77322538Y-87408349D01*
X77303132Y-87399170D01*
X77284719Y-87388134D01*
X77267476Y-87375346D01*
X77251570Y-87360930D01*
X77237154Y-87345024D01*
X77224366Y-87327781D01*
X77213330Y-87309368D01*
X77204151Y-87289962D01*
X77196919Y-87269750D01*
X77191703Y-87248926D01*
X77188553Y-87227691D01*
X77187500Y-87206250D01*
X77187500Y-86693750D01*
X77188553Y-86672309D01*
X77191703Y-86651074D01*
X77196919Y-86630250D01*
X77204151Y-86610038D01*
X77213330Y-86590632D01*
X77224366Y-86572219D01*
X77237154Y-86554976D01*
X77251570Y-86539070D01*
X77267476Y-86524654D01*
X77284719Y-86511866D01*
X77303132Y-86500830D01*
X77322538Y-86491651D01*
X77342750Y-86484419D01*
X77363574Y-86479203D01*
X77384809Y-86476053D01*
X77406250Y-86475000D01*
X77843750Y-86475000D01*
X77865191Y-86476053D01*
X77865191Y-86476053D01*
G37*
D15*
X77625000Y-86950000D03*
D14*
G36*
X79027691Y-66126053D02*
G01*
X79048926Y-66129203D01*
X79069750Y-66134419D01*
X79089962Y-66141651D01*
X79109368Y-66150830D01*
X79127781Y-66161866D01*
X79145024Y-66174654D01*
X79160930Y-66189070D01*
X79175346Y-66204976D01*
X79188134Y-66222219D01*
X79199170Y-66240632D01*
X79208349Y-66260038D01*
X79215581Y-66280250D01*
X79220797Y-66301074D01*
X79223947Y-66322309D01*
X79225000Y-66343750D01*
X79225000Y-66856250D01*
X79223947Y-66877691D01*
X79220797Y-66898926D01*
X79215581Y-66919750D01*
X79208349Y-66939962D01*
X79199170Y-66959368D01*
X79188134Y-66977781D01*
X79175346Y-66995024D01*
X79160930Y-67010930D01*
X79145024Y-67025346D01*
X79127781Y-67038134D01*
X79109368Y-67049170D01*
X79089962Y-67058349D01*
X79069750Y-67065581D01*
X79048926Y-67070797D01*
X79027691Y-67073947D01*
X79006250Y-67075000D01*
X78568750Y-67075000D01*
X78547309Y-67073947D01*
X78526074Y-67070797D01*
X78505250Y-67065581D01*
X78485038Y-67058349D01*
X78465632Y-67049170D01*
X78447219Y-67038134D01*
X78429976Y-67025346D01*
X78414070Y-67010930D01*
X78399654Y-66995024D01*
X78386866Y-66977781D01*
X78375830Y-66959368D01*
X78366651Y-66939962D01*
X78359419Y-66919750D01*
X78354203Y-66898926D01*
X78351053Y-66877691D01*
X78350000Y-66856250D01*
X78350000Y-66343750D01*
X78351053Y-66322309D01*
X78354203Y-66301074D01*
X78359419Y-66280250D01*
X78366651Y-66260038D01*
X78375830Y-66240632D01*
X78386866Y-66222219D01*
X78399654Y-66204976D01*
X78414070Y-66189070D01*
X78429976Y-66174654D01*
X78447219Y-66161866D01*
X78465632Y-66150830D01*
X78485038Y-66141651D01*
X78505250Y-66134419D01*
X78526074Y-66129203D01*
X78547309Y-66126053D01*
X78568750Y-66125000D01*
X79006250Y-66125000D01*
X79027691Y-66126053D01*
X79027691Y-66126053D01*
G37*
D15*
X78787500Y-66600000D03*
D14*
G36*
X77452691Y-66126053D02*
G01*
X77473926Y-66129203D01*
X77494750Y-66134419D01*
X77514962Y-66141651D01*
X77534368Y-66150830D01*
X77552781Y-66161866D01*
X77570024Y-66174654D01*
X77585930Y-66189070D01*
X77600346Y-66204976D01*
X77613134Y-66222219D01*
X77624170Y-66240632D01*
X77633349Y-66260038D01*
X77640581Y-66280250D01*
X77645797Y-66301074D01*
X77648947Y-66322309D01*
X77650000Y-66343750D01*
X77650000Y-66856250D01*
X77648947Y-66877691D01*
X77645797Y-66898926D01*
X77640581Y-66919750D01*
X77633349Y-66939962D01*
X77624170Y-66959368D01*
X77613134Y-66977781D01*
X77600346Y-66995024D01*
X77585930Y-67010930D01*
X77570024Y-67025346D01*
X77552781Y-67038134D01*
X77534368Y-67049170D01*
X77514962Y-67058349D01*
X77494750Y-67065581D01*
X77473926Y-67070797D01*
X77452691Y-67073947D01*
X77431250Y-67075000D01*
X76993750Y-67075000D01*
X76972309Y-67073947D01*
X76951074Y-67070797D01*
X76930250Y-67065581D01*
X76910038Y-67058349D01*
X76890632Y-67049170D01*
X76872219Y-67038134D01*
X76854976Y-67025346D01*
X76839070Y-67010930D01*
X76824654Y-66995024D01*
X76811866Y-66977781D01*
X76800830Y-66959368D01*
X76791651Y-66939962D01*
X76784419Y-66919750D01*
X76779203Y-66898926D01*
X76776053Y-66877691D01*
X76775000Y-66856250D01*
X76775000Y-66343750D01*
X76776053Y-66322309D01*
X76779203Y-66301074D01*
X76784419Y-66280250D01*
X76791651Y-66260038D01*
X76800830Y-66240632D01*
X76811866Y-66222219D01*
X76824654Y-66204976D01*
X76839070Y-66189070D01*
X76854976Y-66174654D01*
X76872219Y-66161866D01*
X76890632Y-66150830D01*
X76910038Y-66141651D01*
X76930250Y-66134419D01*
X76951074Y-66129203D01*
X76972309Y-66126053D01*
X76993750Y-66125000D01*
X77431250Y-66125000D01*
X77452691Y-66126053D01*
X77452691Y-66126053D01*
G37*
D15*
X77212500Y-66600000D03*
D14*
G36*
X78777691Y-55026053D02*
G01*
X78798926Y-55029203D01*
X78819750Y-55034419D01*
X78839962Y-55041651D01*
X78859368Y-55050830D01*
X78877781Y-55061866D01*
X78895024Y-55074654D01*
X78910930Y-55089070D01*
X78925346Y-55104976D01*
X78938134Y-55122219D01*
X78949170Y-55140632D01*
X78958349Y-55160038D01*
X78965581Y-55180250D01*
X78970797Y-55201074D01*
X78973947Y-55222309D01*
X78975000Y-55243750D01*
X78975000Y-55756250D01*
X78973947Y-55777691D01*
X78970797Y-55798926D01*
X78965581Y-55819750D01*
X78958349Y-55839962D01*
X78949170Y-55859368D01*
X78938134Y-55877781D01*
X78925346Y-55895024D01*
X78910930Y-55910930D01*
X78895024Y-55925346D01*
X78877781Y-55938134D01*
X78859368Y-55949170D01*
X78839962Y-55958349D01*
X78819750Y-55965581D01*
X78798926Y-55970797D01*
X78777691Y-55973947D01*
X78756250Y-55975000D01*
X78318750Y-55975000D01*
X78297309Y-55973947D01*
X78276074Y-55970797D01*
X78255250Y-55965581D01*
X78235038Y-55958349D01*
X78215632Y-55949170D01*
X78197219Y-55938134D01*
X78179976Y-55925346D01*
X78164070Y-55910930D01*
X78149654Y-55895024D01*
X78136866Y-55877781D01*
X78125830Y-55859368D01*
X78116651Y-55839962D01*
X78109419Y-55819750D01*
X78104203Y-55798926D01*
X78101053Y-55777691D01*
X78100000Y-55756250D01*
X78100000Y-55243750D01*
X78101053Y-55222309D01*
X78104203Y-55201074D01*
X78109419Y-55180250D01*
X78116651Y-55160038D01*
X78125830Y-55140632D01*
X78136866Y-55122219D01*
X78149654Y-55104976D01*
X78164070Y-55089070D01*
X78179976Y-55074654D01*
X78197219Y-55061866D01*
X78215632Y-55050830D01*
X78235038Y-55041651D01*
X78255250Y-55034419D01*
X78276074Y-55029203D01*
X78297309Y-55026053D01*
X78318750Y-55025000D01*
X78756250Y-55025000D01*
X78777691Y-55026053D01*
X78777691Y-55026053D01*
G37*
D15*
X78537500Y-55500000D03*
D14*
G36*
X77202691Y-55026053D02*
G01*
X77223926Y-55029203D01*
X77244750Y-55034419D01*
X77264962Y-55041651D01*
X77284368Y-55050830D01*
X77302781Y-55061866D01*
X77320024Y-55074654D01*
X77335930Y-55089070D01*
X77350346Y-55104976D01*
X77363134Y-55122219D01*
X77374170Y-55140632D01*
X77383349Y-55160038D01*
X77390581Y-55180250D01*
X77395797Y-55201074D01*
X77398947Y-55222309D01*
X77400000Y-55243750D01*
X77400000Y-55756250D01*
X77398947Y-55777691D01*
X77395797Y-55798926D01*
X77390581Y-55819750D01*
X77383349Y-55839962D01*
X77374170Y-55859368D01*
X77363134Y-55877781D01*
X77350346Y-55895024D01*
X77335930Y-55910930D01*
X77320024Y-55925346D01*
X77302781Y-55938134D01*
X77284368Y-55949170D01*
X77264962Y-55958349D01*
X77244750Y-55965581D01*
X77223926Y-55970797D01*
X77202691Y-55973947D01*
X77181250Y-55975000D01*
X76743750Y-55975000D01*
X76722309Y-55973947D01*
X76701074Y-55970797D01*
X76680250Y-55965581D01*
X76660038Y-55958349D01*
X76640632Y-55949170D01*
X76622219Y-55938134D01*
X76604976Y-55925346D01*
X76589070Y-55910930D01*
X76574654Y-55895024D01*
X76561866Y-55877781D01*
X76550830Y-55859368D01*
X76541651Y-55839962D01*
X76534419Y-55819750D01*
X76529203Y-55798926D01*
X76526053Y-55777691D01*
X76525000Y-55756250D01*
X76525000Y-55243750D01*
X76526053Y-55222309D01*
X76529203Y-55201074D01*
X76534419Y-55180250D01*
X76541651Y-55160038D01*
X76550830Y-55140632D01*
X76561866Y-55122219D01*
X76574654Y-55104976D01*
X76589070Y-55089070D01*
X76604976Y-55074654D01*
X76622219Y-55061866D01*
X76640632Y-55050830D01*
X76660038Y-55041651D01*
X76680250Y-55034419D01*
X76701074Y-55029203D01*
X76722309Y-55026053D01*
X76743750Y-55025000D01*
X77181250Y-55025000D01*
X77202691Y-55026053D01*
X77202691Y-55026053D01*
G37*
D15*
X76962500Y-55500000D03*
D21*
X109800000Y-52300000D03*
D22*
X104800000Y-52300000D03*
D21*
X107000000Y-90400000D03*
X107000000Y-85400000D03*
D23*
X115000000Y-69509000D03*
X115000000Y-65209000D03*
D24*
X103825000Y-76800000D03*
D25*
X112975000Y-73400000D03*
X112975000Y-75100000D03*
X112975000Y-76800000D03*
X112975000Y-78500000D03*
X112975000Y-80200000D03*
D17*
X96500000Y-85660000D03*
X96500000Y-88200000D03*
D14*
G36*
X80474703Y-82975722D02*
G01*
X80489264Y-82977882D01*
X80503543Y-82981459D01*
X80517403Y-82986418D01*
X80530710Y-82992712D01*
X80543336Y-83000280D01*
X80555159Y-83009048D01*
X80566066Y-83018934D01*
X80575952Y-83029841D01*
X80584720Y-83041664D01*
X80592288Y-83054290D01*
X80598582Y-83067597D01*
X80603541Y-83081457D01*
X80607118Y-83095736D01*
X80609278Y-83110297D01*
X80610000Y-83125000D01*
X80610000Y-84775000D01*
X80609278Y-84789703D01*
X80607118Y-84804264D01*
X80603541Y-84818543D01*
X80598582Y-84832403D01*
X80592288Y-84845710D01*
X80584720Y-84858336D01*
X80575952Y-84870159D01*
X80566066Y-84881066D01*
X80555159Y-84890952D01*
X80543336Y-84899720D01*
X80530710Y-84907288D01*
X80517403Y-84913582D01*
X80503543Y-84918541D01*
X80489264Y-84922118D01*
X80474703Y-84924278D01*
X80460000Y-84925000D01*
X80160000Y-84925000D01*
X80145297Y-84924278D01*
X80130736Y-84922118D01*
X80116457Y-84918541D01*
X80102597Y-84913582D01*
X80089290Y-84907288D01*
X80076664Y-84899720D01*
X80064841Y-84890952D01*
X80053934Y-84881066D01*
X80044048Y-84870159D01*
X80035280Y-84858336D01*
X80027712Y-84845710D01*
X80021418Y-84832403D01*
X80016459Y-84818543D01*
X80012882Y-84804264D01*
X80010722Y-84789703D01*
X80010000Y-84775000D01*
X80010000Y-83125000D01*
X80010722Y-83110297D01*
X80012882Y-83095736D01*
X80016459Y-83081457D01*
X80021418Y-83067597D01*
X80027712Y-83054290D01*
X80035280Y-83041664D01*
X80044048Y-83029841D01*
X80053934Y-83018934D01*
X80064841Y-83009048D01*
X80076664Y-83000280D01*
X80089290Y-82992712D01*
X80102597Y-82986418D01*
X80116457Y-82981459D01*
X80130736Y-82977882D01*
X80145297Y-82975722D01*
X80160000Y-82975000D01*
X80460000Y-82975000D01*
X80474703Y-82975722D01*
X80474703Y-82975722D01*
G37*
D26*
X80310000Y-83950000D03*
D14*
G36*
X79204703Y-82975722D02*
G01*
X79219264Y-82977882D01*
X79233543Y-82981459D01*
X79247403Y-82986418D01*
X79260710Y-82992712D01*
X79273336Y-83000280D01*
X79285159Y-83009048D01*
X79296066Y-83018934D01*
X79305952Y-83029841D01*
X79314720Y-83041664D01*
X79322288Y-83054290D01*
X79328582Y-83067597D01*
X79333541Y-83081457D01*
X79337118Y-83095736D01*
X79339278Y-83110297D01*
X79340000Y-83125000D01*
X79340000Y-84775000D01*
X79339278Y-84789703D01*
X79337118Y-84804264D01*
X79333541Y-84818543D01*
X79328582Y-84832403D01*
X79322288Y-84845710D01*
X79314720Y-84858336D01*
X79305952Y-84870159D01*
X79296066Y-84881066D01*
X79285159Y-84890952D01*
X79273336Y-84899720D01*
X79260710Y-84907288D01*
X79247403Y-84913582D01*
X79233543Y-84918541D01*
X79219264Y-84922118D01*
X79204703Y-84924278D01*
X79190000Y-84925000D01*
X78890000Y-84925000D01*
X78875297Y-84924278D01*
X78860736Y-84922118D01*
X78846457Y-84918541D01*
X78832597Y-84913582D01*
X78819290Y-84907288D01*
X78806664Y-84899720D01*
X78794841Y-84890952D01*
X78783934Y-84881066D01*
X78774048Y-84870159D01*
X78765280Y-84858336D01*
X78757712Y-84845710D01*
X78751418Y-84832403D01*
X78746459Y-84818543D01*
X78742882Y-84804264D01*
X78740722Y-84789703D01*
X78740000Y-84775000D01*
X78740000Y-83125000D01*
X78740722Y-83110297D01*
X78742882Y-83095736D01*
X78746459Y-83081457D01*
X78751418Y-83067597D01*
X78757712Y-83054290D01*
X78765280Y-83041664D01*
X78774048Y-83029841D01*
X78783934Y-83018934D01*
X78794841Y-83009048D01*
X78806664Y-83000280D01*
X78819290Y-82992712D01*
X78832597Y-82986418D01*
X78846457Y-82981459D01*
X78860736Y-82977882D01*
X78875297Y-82975722D01*
X78890000Y-82975000D01*
X79190000Y-82975000D01*
X79204703Y-82975722D01*
X79204703Y-82975722D01*
G37*
D26*
X79040000Y-83950000D03*
D14*
G36*
X77934703Y-82975722D02*
G01*
X77949264Y-82977882D01*
X77963543Y-82981459D01*
X77977403Y-82986418D01*
X77990710Y-82992712D01*
X78003336Y-83000280D01*
X78015159Y-83009048D01*
X78026066Y-83018934D01*
X78035952Y-83029841D01*
X78044720Y-83041664D01*
X78052288Y-83054290D01*
X78058582Y-83067597D01*
X78063541Y-83081457D01*
X78067118Y-83095736D01*
X78069278Y-83110297D01*
X78070000Y-83125000D01*
X78070000Y-84775000D01*
X78069278Y-84789703D01*
X78067118Y-84804264D01*
X78063541Y-84818543D01*
X78058582Y-84832403D01*
X78052288Y-84845710D01*
X78044720Y-84858336D01*
X78035952Y-84870159D01*
X78026066Y-84881066D01*
X78015159Y-84890952D01*
X78003336Y-84899720D01*
X77990710Y-84907288D01*
X77977403Y-84913582D01*
X77963543Y-84918541D01*
X77949264Y-84922118D01*
X77934703Y-84924278D01*
X77920000Y-84925000D01*
X77620000Y-84925000D01*
X77605297Y-84924278D01*
X77590736Y-84922118D01*
X77576457Y-84918541D01*
X77562597Y-84913582D01*
X77549290Y-84907288D01*
X77536664Y-84899720D01*
X77524841Y-84890952D01*
X77513934Y-84881066D01*
X77504048Y-84870159D01*
X77495280Y-84858336D01*
X77487712Y-84845710D01*
X77481418Y-84832403D01*
X77476459Y-84818543D01*
X77472882Y-84804264D01*
X77470722Y-84789703D01*
X77470000Y-84775000D01*
X77470000Y-83125000D01*
X77470722Y-83110297D01*
X77472882Y-83095736D01*
X77476459Y-83081457D01*
X77481418Y-83067597D01*
X77487712Y-83054290D01*
X77495280Y-83041664D01*
X77504048Y-83029841D01*
X77513934Y-83018934D01*
X77524841Y-83009048D01*
X77536664Y-83000280D01*
X77549290Y-82992712D01*
X77562597Y-82986418D01*
X77576457Y-82981459D01*
X77590736Y-82977882D01*
X77605297Y-82975722D01*
X77620000Y-82975000D01*
X77920000Y-82975000D01*
X77934703Y-82975722D01*
X77934703Y-82975722D01*
G37*
D26*
X77770000Y-83950000D03*
D14*
G36*
X76664703Y-82975722D02*
G01*
X76679264Y-82977882D01*
X76693543Y-82981459D01*
X76707403Y-82986418D01*
X76720710Y-82992712D01*
X76733336Y-83000280D01*
X76745159Y-83009048D01*
X76756066Y-83018934D01*
X76765952Y-83029841D01*
X76774720Y-83041664D01*
X76782288Y-83054290D01*
X76788582Y-83067597D01*
X76793541Y-83081457D01*
X76797118Y-83095736D01*
X76799278Y-83110297D01*
X76800000Y-83125000D01*
X76800000Y-84775000D01*
X76799278Y-84789703D01*
X76797118Y-84804264D01*
X76793541Y-84818543D01*
X76788582Y-84832403D01*
X76782288Y-84845710D01*
X76774720Y-84858336D01*
X76765952Y-84870159D01*
X76756066Y-84881066D01*
X76745159Y-84890952D01*
X76733336Y-84899720D01*
X76720710Y-84907288D01*
X76707403Y-84913582D01*
X76693543Y-84918541D01*
X76679264Y-84922118D01*
X76664703Y-84924278D01*
X76650000Y-84925000D01*
X76350000Y-84925000D01*
X76335297Y-84924278D01*
X76320736Y-84922118D01*
X76306457Y-84918541D01*
X76292597Y-84913582D01*
X76279290Y-84907288D01*
X76266664Y-84899720D01*
X76254841Y-84890952D01*
X76243934Y-84881066D01*
X76234048Y-84870159D01*
X76225280Y-84858336D01*
X76217712Y-84845710D01*
X76211418Y-84832403D01*
X76206459Y-84818543D01*
X76202882Y-84804264D01*
X76200722Y-84789703D01*
X76200000Y-84775000D01*
X76200000Y-83125000D01*
X76200722Y-83110297D01*
X76202882Y-83095736D01*
X76206459Y-83081457D01*
X76211418Y-83067597D01*
X76217712Y-83054290D01*
X76225280Y-83041664D01*
X76234048Y-83029841D01*
X76243934Y-83018934D01*
X76254841Y-83009048D01*
X76266664Y-83000280D01*
X76279290Y-82992712D01*
X76292597Y-82986418D01*
X76306457Y-82981459D01*
X76320736Y-82977882D01*
X76335297Y-82975722D01*
X76350000Y-82975000D01*
X76650000Y-82975000D01*
X76664703Y-82975722D01*
X76664703Y-82975722D01*
G37*
D26*
X76500000Y-83950000D03*
D14*
G36*
X76664703Y-78025722D02*
G01*
X76679264Y-78027882D01*
X76693543Y-78031459D01*
X76707403Y-78036418D01*
X76720710Y-78042712D01*
X76733336Y-78050280D01*
X76745159Y-78059048D01*
X76756066Y-78068934D01*
X76765952Y-78079841D01*
X76774720Y-78091664D01*
X76782288Y-78104290D01*
X76788582Y-78117597D01*
X76793541Y-78131457D01*
X76797118Y-78145736D01*
X76799278Y-78160297D01*
X76800000Y-78175000D01*
X76800000Y-79825000D01*
X76799278Y-79839703D01*
X76797118Y-79854264D01*
X76793541Y-79868543D01*
X76788582Y-79882403D01*
X76782288Y-79895710D01*
X76774720Y-79908336D01*
X76765952Y-79920159D01*
X76756066Y-79931066D01*
X76745159Y-79940952D01*
X76733336Y-79949720D01*
X76720710Y-79957288D01*
X76707403Y-79963582D01*
X76693543Y-79968541D01*
X76679264Y-79972118D01*
X76664703Y-79974278D01*
X76650000Y-79975000D01*
X76350000Y-79975000D01*
X76335297Y-79974278D01*
X76320736Y-79972118D01*
X76306457Y-79968541D01*
X76292597Y-79963582D01*
X76279290Y-79957288D01*
X76266664Y-79949720D01*
X76254841Y-79940952D01*
X76243934Y-79931066D01*
X76234048Y-79920159D01*
X76225280Y-79908336D01*
X76217712Y-79895710D01*
X76211418Y-79882403D01*
X76206459Y-79868543D01*
X76202882Y-79854264D01*
X76200722Y-79839703D01*
X76200000Y-79825000D01*
X76200000Y-78175000D01*
X76200722Y-78160297D01*
X76202882Y-78145736D01*
X76206459Y-78131457D01*
X76211418Y-78117597D01*
X76217712Y-78104290D01*
X76225280Y-78091664D01*
X76234048Y-78079841D01*
X76243934Y-78068934D01*
X76254841Y-78059048D01*
X76266664Y-78050280D01*
X76279290Y-78042712D01*
X76292597Y-78036418D01*
X76306457Y-78031459D01*
X76320736Y-78027882D01*
X76335297Y-78025722D01*
X76350000Y-78025000D01*
X76650000Y-78025000D01*
X76664703Y-78025722D01*
X76664703Y-78025722D01*
G37*
D26*
X76500000Y-79000000D03*
D14*
G36*
X77934703Y-78025722D02*
G01*
X77949264Y-78027882D01*
X77963543Y-78031459D01*
X77977403Y-78036418D01*
X77990710Y-78042712D01*
X78003336Y-78050280D01*
X78015159Y-78059048D01*
X78026066Y-78068934D01*
X78035952Y-78079841D01*
X78044720Y-78091664D01*
X78052288Y-78104290D01*
X78058582Y-78117597D01*
X78063541Y-78131457D01*
X78067118Y-78145736D01*
X78069278Y-78160297D01*
X78070000Y-78175000D01*
X78070000Y-79825000D01*
X78069278Y-79839703D01*
X78067118Y-79854264D01*
X78063541Y-79868543D01*
X78058582Y-79882403D01*
X78052288Y-79895710D01*
X78044720Y-79908336D01*
X78035952Y-79920159D01*
X78026066Y-79931066D01*
X78015159Y-79940952D01*
X78003336Y-79949720D01*
X77990710Y-79957288D01*
X77977403Y-79963582D01*
X77963543Y-79968541D01*
X77949264Y-79972118D01*
X77934703Y-79974278D01*
X77920000Y-79975000D01*
X77620000Y-79975000D01*
X77605297Y-79974278D01*
X77590736Y-79972118D01*
X77576457Y-79968541D01*
X77562597Y-79963582D01*
X77549290Y-79957288D01*
X77536664Y-79949720D01*
X77524841Y-79940952D01*
X77513934Y-79931066D01*
X77504048Y-79920159D01*
X77495280Y-79908336D01*
X77487712Y-79895710D01*
X77481418Y-79882403D01*
X77476459Y-79868543D01*
X77472882Y-79854264D01*
X77470722Y-79839703D01*
X77470000Y-79825000D01*
X77470000Y-78175000D01*
X77470722Y-78160297D01*
X77472882Y-78145736D01*
X77476459Y-78131457D01*
X77481418Y-78117597D01*
X77487712Y-78104290D01*
X77495280Y-78091664D01*
X77504048Y-78079841D01*
X77513934Y-78068934D01*
X77524841Y-78059048D01*
X77536664Y-78050280D01*
X77549290Y-78042712D01*
X77562597Y-78036418D01*
X77576457Y-78031459D01*
X77590736Y-78027882D01*
X77605297Y-78025722D01*
X77620000Y-78025000D01*
X77920000Y-78025000D01*
X77934703Y-78025722D01*
X77934703Y-78025722D01*
G37*
D26*
X77770000Y-79000000D03*
D14*
G36*
X79204703Y-78025722D02*
G01*
X79219264Y-78027882D01*
X79233543Y-78031459D01*
X79247403Y-78036418D01*
X79260710Y-78042712D01*
X79273336Y-78050280D01*
X79285159Y-78059048D01*
X79296066Y-78068934D01*
X79305952Y-78079841D01*
X79314720Y-78091664D01*
X79322288Y-78104290D01*
X79328582Y-78117597D01*
X79333541Y-78131457D01*
X79337118Y-78145736D01*
X79339278Y-78160297D01*
X79340000Y-78175000D01*
X79340000Y-79825000D01*
X79339278Y-79839703D01*
X79337118Y-79854264D01*
X79333541Y-79868543D01*
X79328582Y-79882403D01*
X79322288Y-79895710D01*
X79314720Y-79908336D01*
X79305952Y-79920159D01*
X79296066Y-79931066D01*
X79285159Y-79940952D01*
X79273336Y-79949720D01*
X79260710Y-79957288D01*
X79247403Y-79963582D01*
X79233543Y-79968541D01*
X79219264Y-79972118D01*
X79204703Y-79974278D01*
X79190000Y-79975000D01*
X78890000Y-79975000D01*
X78875297Y-79974278D01*
X78860736Y-79972118D01*
X78846457Y-79968541D01*
X78832597Y-79963582D01*
X78819290Y-79957288D01*
X78806664Y-79949720D01*
X78794841Y-79940952D01*
X78783934Y-79931066D01*
X78774048Y-79920159D01*
X78765280Y-79908336D01*
X78757712Y-79895710D01*
X78751418Y-79882403D01*
X78746459Y-79868543D01*
X78742882Y-79854264D01*
X78740722Y-79839703D01*
X78740000Y-79825000D01*
X78740000Y-78175000D01*
X78740722Y-78160297D01*
X78742882Y-78145736D01*
X78746459Y-78131457D01*
X78751418Y-78117597D01*
X78757712Y-78104290D01*
X78765280Y-78091664D01*
X78774048Y-78079841D01*
X78783934Y-78068934D01*
X78794841Y-78059048D01*
X78806664Y-78050280D01*
X78819290Y-78042712D01*
X78832597Y-78036418D01*
X78846457Y-78031459D01*
X78860736Y-78027882D01*
X78875297Y-78025722D01*
X78890000Y-78025000D01*
X79190000Y-78025000D01*
X79204703Y-78025722D01*
X79204703Y-78025722D01*
G37*
D26*
X79040000Y-79000000D03*
D14*
G36*
X80474703Y-78025722D02*
G01*
X80489264Y-78027882D01*
X80503543Y-78031459D01*
X80517403Y-78036418D01*
X80530710Y-78042712D01*
X80543336Y-78050280D01*
X80555159Y-78059048D01*
X80566066Y-78068934D01*
X80575952Y-78079841D01*
X80584720Y-78091664D01*
X80592288Y-78104290D01*
X80598582Y-78117597D01*
X80603541Y-78131457D01*
X80607118Y-78145736D01*
X80609278Y-78160297D01*
X80610000Y-78175000D01*
X80610000Y-79825000D01*
X80609278Y-79839703D01*
X80607118Y-79854264D01*
X80603541Y-79868543D01*
X80598582Y-79882403D01*
X80592288Y-79895710D01*
X80584720Y-79908336D01*
X80575952Y-79920159D01*
X80566066Y-79931066D01*
X80555159Y-79940952D01*
X80543336Y-79949720D01*
X80530710Y-79957288D01*
X80517403Y-79963582D01*
X80503543Y-79968541D01*
X80489264Y-79972118D01*
X80474703Y-79974278D01*
X80460000Y-79975000D01*
X80160000Y-79975000D01*
X80145297Y-79974278D01*
X80130736Y-79972118D01*
X80116457Y-79968541D01*
X80102597Y-79963582D01*
X80089290Y-79957288D01*
X80076664Y-79949720D01*
X80064841Y-79940952D01*
X80053934Y-79931066D01*
X80044048Y-79920159D01*
X80035280Y-79908336D01*
X80027712Y-79895710D01*
X80021418Y-79882403D01*
X80016459Y-79868543D01*
X80012882Y-79854264D01*
X80010722Y-79839703D01*
X80010000Y-79825000D01*
X80010000Y-78175000D01*
X80010722Y-78160297D01*
X80012882Y-78145736D01*
X80016459Y-78131457D01*
X80021418Y-78117597D01*
X80027712Y-78104290D01*
X80035280Y-78091664D01*
X80044048Y-78079841D01*
X80053934Y-78068934D01*
X80064841Y-78059048D01*
X80076664Y-78050280D01*
X80089290Y-78042712D01*
X80102597Y-78036418D01*
X80116457Y-78031459D01*
X80130736Y-78027882D01*
X80145297Y-78025722D01*
X80160000Y-78025000D01*
X80460000Y-78025000D01*
X80474703Y-78025722D01*
X80474703Y-78025722D01*
G37*
D26*
X80310000Y-79000000D03*
D14*
G36*
X80069703Y-62500722D02*
G01*
X80084264Y-62502882D01*
X80098543Y-62506459D01*
X80112403Y-62511418D01*
X80125710Y-62517712D01*
X80138336Y-62525280D01*
X80150159Y-62534048D01*
X80161066Y-62543934D01*
X80170952Y-62554841D01*
X80179720Y-62566664D01*
X80187288Y-62579290D01*
X80193582Y-62592597D01*
X80198541Y-62606457D01*
X80202118Y-62620736D01*
X80204278Y-62635297D01*
X80205000Y-62650000D01*
X80205000Y-64300000D01*
X80204278Y-64314703D01*
X80202118Y-64329264D01*
X80198541Y-64343543D01*
X80193582Y-64357403D01*
X80187288Y-64370710D01*
X80179720Y-64383336D01*
X80170952Y-64395159D01*
X80161066Y-64406066D01*
X80150159Y-64415952D01*
X80138336Y-64424720D01*
X80125710Y-64432288D01*
X80112403Y-64438582D01*
X80098543Y-64443541D01*
X80084264Y-64447118D01*
X80069703Y-64449278D01*
X80055000Y-64450000D01*
X79755000Y-64450000D01*
X79740297Y-64449278D01*
X79725736Y-64447118D01*
X79711457Y-64443541D01*
X79697597Y-64438582D01*
X79684290Y-64432288D01*
X79671664Y-64424720D01*
X79659841Y-64415952D01*
X79648934Y-64406066D01*
X79639048Y-64395159D01*
X79630280Y-64383336D01*
X79622712Y-64370710D01*
X79616418Y-64357403D01*
X79611459Y-64343543D01*
X79607882Y-64329264D01*
X79605722Y-64314703D01*
X79605000Y-64300000D01*
X79605000Y-62650000D01*
X79605722Y-62635297D01*
X79607882Y-62620736D01*
X79611459Y-62606457D01*
X79616418Y-62592597D01*
X79622712Y-62579290D01*
X79630280Y-62566664D01*
X79639048Y-62554841D01*
X79648934Y-62543934D01*
X79659841Y-62534048D01*
X79671664Y-62525280D01*
X79684290Y-62517712D01*
X79697597Y-62511418D01*
X79711457Y-62506459D01*
X79725736Y-62502882D01*
X79740297Y-62500722D01*
X79755000Y-62500000D01*
X80055000Y-62500000D01*
X80069703Y-62500722D01*
X80069703Y-62500722D01*
G37*
D26*
X79905000Y-63475000D03*
D14*
G36*
X78799703Y-62500722D02*
G01*
X78814264Y-62502882D01*
X78828543Y-62506459D01*
X78842403Y-62511418D01*
X78855710Y-62517712D01*
X78868336Y-62525280D01*
X78880159Y-62534048D01*
X78891066Y-62543934D01*
X78900952Y-62554841D01*
X78909720Y-62566664D01*
X78917288Y-62579290D01*
X78923582Y-62592597D01*
X78928541Y-62606457D01*
X78932118Y-62620736D01*
X78934278Y-62635297D01*
X78935000Y-62650000D01*
X78935000Y-64300000D01*
X78934278Y-64314703D01*
X78932118Y-64329264D01*
X78928541Y-64343543D01*
X78923582Y-64357403D01*
X78917288Y-64370710D01*
X78909720Y-64383336D01*
X78900952Y-64395159D01*
X78891066Y-64406066D01*
X78880159Y-64415952D01*
X78868336Y-64424720D01*
X78855710Y-64432288D01*
X78842403Y-64438582D01*
X78828543Y-64443541D01*
X78814264Y-64447118D01*
X78799703Y-64449278D01*
X78785000Y-64450000D01*
X78485000Y-64450000D01*
X78470297Y-64449278D01*
X78455736Y-64447118D01*
X78441457Y-64443541D01*
X78427597Y-64438582D01*
X78414290Y-64432288D01*
X78401664Y-64424720D01*
X78389841Y-64415952D01*
X78378934Y-64406066D01*
X78369048Y-64395159D01*
X78360280Y-64383336D01*
X78352712Y-64370710D01*
X78346418Y-64357403D01*
X78341459Y-64343543D01*
X78337882Y-64329264D01*
X78335722Y-64314703D01*
X78335000Y-64300000D01*
X78335000Y-62650000D01*
X78335722Y-62635297D01*
X78337882Y-62620736D01*
X78341459Y-62606457D01*
X78346418Y-62592597D01*
X78352712Y-62579290D01*
X78360280Y-62566664D01*
X78369048Y-62554841D01*
X78378934Y-62543934D01*
X78389841Y-62534048D01*
X78401664Y-62525280D01*
X78414290Y-62517712D01*
X78427597Y-62511418D01*
X78441457Y-62506459D01*
X78455736Y-62502882D01*
X78470297Y-62500722D01*
X78485000Y-62500000D01*
X78785000Y-62500000D01*
X78799703Y-62500722D01*
X78799703Y-62500722D01*
G37*
D26*
X78635000Y-63475000D03*
D14*
G36*
X77529703Y-62500722D02*
G01*
X77544264Y-62502882D01*
X77558543Y-62506459D01*
X77572403Y-62511418D01*
X77585710Y-62517712D01*
X77598336Y-62525280D01*
X77610159Y-62534048D01*
X77621066Y-62543934D01*
X77630952Y-62554841D01*
X77639720Y-62566664D01*
X77647288Y-62579290D01*
X77653582Y-62592597D01*
X77658541Y-62606457D01*
X77662118Y-62620736D01*
X77664278Y-62635297D01*
X77665000Y-62650000D01*
X77665000Y-64300000D01*
X77664278Y-64314703D01*
X77662118Y-64329264D01*
X77658541Y-64343543D01*
X77653582Y-64357403D01*
X77647288Y-64370710D01*
X77639720Y-64383336D01*
X77630952Y-64395159D01*
X77621066Y-64406066D01*
X77610159Y-64415952D01*
X77598336Y-64424720D01*
X77585710Y-64432288D01*
X77572403Y-64438582D01*
X77558543Y-64443541D01*
X77544264Y-64447118D01*
X77529703Y-64449278D01*
X77515000Y-64450000D01*
X77215000Y-64450000D01*
X77200297Y-64449278D01*
X77185736Y-64447118D01*
X77171457Y-64443541D01*
X77157597Y-64438582D01*
X77144290Y-64432288D01*
X77131664Y-64424720D01*
X77119841Y-64415952D01*
X77108934Y-64406066D01*
X77099048Y-64395159D01*
X77090280Y-64383336D01*
X77082712Y-64370710D01*
X77076418Y-64357403D01*
X77071459Y-64343543D01*
X77067882Y-64329264D01*
X77065722Y-64314703D01*
X77065000Y-64300000D01*
X77065000Y-62650000D01*
X77065722Y-62635297D01*
X77067882Y-62620736D01*
X77071459Y-62606457D01*
X77076418Y-62592597D01*
X77082712Y-62579290D01*
X77090280Y-62566664D01*
X77099048Y-62554841D01*
X77108934Y-62543934D01*
X77119841Y-62534048D01*
X77131664Y-62525280D01*
X77144290Y-62517712D01*
X77157597Y-62511418D01*
X77171457Y-62506459D01*
X77185736Y-62502882D01*
X77200297Y-62500722D01*
X77215000Y-62500000D01*
X77515000Y-62500000D01*
X77529703Y-62500722D01*
X77529703Y-62500722D01*
G37*
D26*
X77365000Y-63475000D03*
D14*
G36*
X76259703Y-62500722D02*
G01*
X76274264Y-62502882D01*
X76288543Y-62506459D01*
X76302403Y-62511418D01*
X76315710Y-62517712D01*
X76328336Y-62525280D01*
X76340159Y-62534048D01*
X76351066Y-62543934D01*
X76360952Y-62554841D01*
X76369720Y-62566664D01*
X76377288Y-62579290D01*
X76383582Y-62592597D01*
X76388541Y-62606457D01*
X76392118Y-62620736D01*
X76394278Y-62635297D01*
X76395000Y-62650000D01*
X76395000Y-64300000D01*
X76394278Y-64314703D01*
X76392118Y-64329264D01*
X76388541Y-64343543D01*
X76383582Y-64357403D01*
X76377288Y-64370710D01*
X76369720Y-64383336D01*
X76360952Y-64395159D01*
X76351066Y-64406066D01*
X76340159Y-64415952D01*
X76328336Y-64424720D01*
X76315710Y-64432288D01*
X76302403Y-64438582D01*
X76288543Y-64443541D01*
X76274264Y-64447118D01*
X76259703Y-64449278D01*
X76245000Y-64450000D01*
X75945000Y-64450000D01*
X75930297Y-64449278D01*
X75915736Y-64447118D01*
X75901457Y-64443541D01*
X75887597Y-64438582D01*
X75874290Y-64432288D01*
X75861664Y-64424720D01*
X75849841Y-64415952D01*
X75838934Y-64406066D01*
X75829048Y-64395159D01*
X75820280Y-64383336D01*
X75812712Y-64370710D01*
X75806418Y-64357403D01*
X75801459Y-64343543D01*
X75797882Y-64329264D01*
X75795722Y-64314703D01*
X75795000Y-64300000D01*
X75795000Y-62650000D01*
X75795722Y-62635297D01*
X75797882Y-62620736D01*
X75801459Y-62606457D01*
X75806418Y-62592597D01*
X75812712Y-62579290D01*
X75820280Y-62566664D01*
X75829048Y-62554841D01*
X75838934Y-62543934D01*
X75849841Y-62534048D01*
X75861664Y-62525280D01*
X75874290Y-62517712D01*
X75887597Y-62511418D01*
X75901457Y-62506459D01*
X75915736Y-62502882D01*
X75930297Y-62500722D01*
X75945000Y-62500000D01*
X76245000Y-62500000D01*
X76259703Y-62500722D01*
X76259703Y-62500722D01*
G37*
D26*
X76095000Y-63475000D03*
D14*
G36*
X76259703Y-57550722D02*
G01*
X76274264Y-57552882D01*
X76288543Y-57556459D01*
X76302403Y-57561418D01*
X76315710Y-57567712D01*
X76328336Y-57575280D01*
X76340159Y-57584048D01*
X76351066Y-57593934D01*
X76360952Y-57604841D01*
X76369720Y-57616664D01*
X76377288Y-57629290D01*
X76383582Y-57642597D01*
X76388541Y-57656457D01*
X76392118Y-57670736D01*
X76394278Y-57685297D01*
X76395000Y-57700000D01*
X76395000Y-59350000D01*
X76394278Y-59364703D01*
X76392118Y-59379264D01*
X76388541Y-59393543D01*
X76383582Y-59407403D01*
X76377288Y-59420710D01*
X76369720Y-59433336D01*
X76360952Y-59445159D01*
X76351066Y-59456066D01*
X76340159Y-59465952D01*
X76328336Y-59474720D01*
X76315710Y-59482288D01*
X76302403Y-59488582D01*
X76288543Y-59493541D01*
X76274264Y-59497118D01*
X76259703Y-59499278D01*
X76245000Y-59500000D01*
X75945000Y-59500000D01*
X75930297Y-59499278D01*
X75915736Y-59497118D01*
X75901457Y-59493541D01*
X75887597Y-59488582D01*
X75874290Y-59482288D01*
X75861664Y-59474720D01*
X75849841Y-59465952D01*
X75838934Y-59456066D01*
X75829048Y-59445159D01*
X75820280Y-59433336D01*
X75812712Y-59420710D01*
X75806418Y-59407403D01*
X75801459Y-59393543D01*
X75797882Y-59379264D01*
X75795722Y-59364703D01*
X75795000Y-59350000D01*
X75795000Y-57700000D01*
X75795722Y-57685297D01*
X75797882Y-57670736D01*
X75801459Y-57656457D01*
X75806418Y-57642597D01*
X75812712Y-57629290D01*
X75820280Y-57616664D01*
X75829048Y-57604841D01*
X75838934Y-57593934D01*
X75849841Y-57584048D01*
X75861664Y-57575280D01*
X75874290Y-57567712D01*
X75887597Y-57561418D01*
X75901457Y-57556459D01*
X75915736Y-57552882D01*
X75930297Y-57550722D01*
X75945000Y-57550000D01*
X76245000Y-57550000D01*
X76259703Y-57550722D01*
X76259703Y-57550722D01*
G37*
D26*
X76095000Y-58525000D03*
D14*
G36*
X77529703Y-57550722D02*
G01*
X77544264Y-57552882D01*
X77558543Y-57556459D01*
X77572403Y-57561418D01*
X77585710Y-57567712D01*
X77598336Y-57575280D01*
X77610159Y-57584048D01*
X77621066Y-57593934D01*
X77630952Y-57604841D01*
X77639720Y-57616664D01*
X77647288Y-57629290D01*
X77653582Y-57642597D01*
X77658541Y-57656457D01*
X77662118Y-57670736D01*
X77664278Y-57685297D01*
X77665000Y-57700000D01*
X77665000Y-59350000D01*
X77664278Y-59364703D01*
X77662118Y-59379264D01*
X77658541Y-59393543D01*
X77653582Y-59407403D01*
X77647288Y-59420710D01*
X77639720Y-59433336D01*
X77630952Y-59445159D01*
X77621066Y-59456066D01*
X77610159Y-59465952D01*
X77598336Y-59474720D01*
X77585710Y-59482288D01*
X77572403Y-59488582D01*
X77558543Y-59493541D01*
X77544264Y-59497118D01*
X77529703Y-59499278D01*
X77515000Y-59500000D01*
X77215000Y-59500000D01*
X77200297Y-59499278D01*
X77185736Y-59497118D01*
X77171457Y-59493541D01*
X77157597Y-59488582D01*
X77144290Y-59482288D01*
X77131664Y-59474720D01*
X77119841Y-59465952D01*
X77108934Y-59456066D01*
X77099048Y-59445159D01*
X77090280Y-59433336D01*
X77082712Y-59420710D01*
X77076418Y-59407403D01*
X77071459Y-59393543D01*
X77067882Y-59379264D01*
X77065722Y-59364703D01*
X77065000Y-59350000D01*
X77065000Y-57700000D01*
X77065722Y-57685297D01*
X77067882Y-57670736D01*
X77071459Y-57656457D01*
X77076418Y-57642597D01*
X77082712Y-57629290D01*
X77090280Y-57616664D01*
X77099048Y-57604841D01*
X77108934Y-57593934D01*
X77119841Y-57584048D01*
X77131664Y-57575280D01*
X77144290Y-57567712D01*
X77157597Y-57561418D01*
X77171457Y-57556459D01*
X77185736Y-57552882D01*
X77200297Y-57550722D01*
X77215000Y-57550000D01*
X77515000Y-57550000D01*
X77529703Y-57550722D01*
X77529703Y-57550722D01*
G37*
D26*
X77365000Y-58525000D03*
D14*
G36*
X78799703Y-57550722D02*
G01*
X78814264Y-57552882D01*
X78828543Y-57556459D01*
X78842403Y-57561418D01*
X78855710Y-57567712D01*
X78868336Y-57575280D01*
X78880159Y-57584048D01*
X78891066Y-57593934D01*
X78900952Y-57604841D01*
X78909720Y-57616664D01*
X78917288Y-57629290D01*
X78923582Y-57642597D01*
X78928541Y-57656457D01*
X78932118Y-57670736D01*
X78934278Y-57685297D01*
X78935000Y-57700000D01*
X78935000Y-59350000D01*
X78934278Y-59364703D01*
X78932118Y-59379264D01*
X78928541Y-59393543D01*
X78923582Y-59407403D01*
X78917288Y-59420710D01*
X78909720Y-59433336D01*
X78900952Y-59445159D01*
X78891066Y-59456066D01*
X78880159Y-59465952D01*
X78868336Y-59474720D01*
X78855710Y-59482288D01*
X78842403Y-59488582D01*
X78828543Y-59493541D01*
X78814264Y-59497118D01*
X78799703Y-59499278D01*
X78785000Y-59500000D01*
X78485000Y-59500000D01*
X78470297Y-59499278D01*
X78455736Y-59497118D01*
X78441457Y-59493541D01*
X78427597Y-59488582D01*
X78414290Y-59482288D01*
X78401664Y-59474720D01*
X78389841Y-59465952D01*
X78378934Y-59456066D01*
X78369048Y-59445159D01*
X78360280Y-59433336D01*
X78352712Y-59420710D01*
X78346418Y-59407403D01*
X78341459Y-59393543D01*
X78337882Y-59379264D01*
X78335722Y-59364703D01*
X78335000Y-59350000D01*
X78335000Y-57700000D01*
X78335722Y-57685297D01*
X78337882Y-57670736D01*
X78341459Y-57656457D01*
X78346418Y-57642597D01*
X78352712Y-57629290D01*
X78360280Y-57616664D01*
X78369048Y-57604841D01*
X78378934Y-57593934D01*
X78389841Y-57584048D01*
X78401664Y-57575280D01*
X78414290Y-57567712D01*
X78427597Y-57561418D01*
X78441457Y-57556459D01*
X78455736Y-57552882D01*
X78470297Y-57550722D01*
X78485000Y-57550000D01*
X78785000Y-57550000D01*
X78799703Y-57550722D01*
X78799703Y-57550722D01*
G37*
D26*
X78635000Y-58525000D03*
D14*
G36*
X80069703Y-57550722D02*
G01*
X80084264Y-57552882D01*
X80098543Y-57556459D01*
X80112403Y-57561418D01*
X80125710Y-57567712D01*
X80138336Y-57575280D01*
X80150159Y-57584048D01*
X80161066Y-57593934D01*
X80170952Y-57604841D01*
X80179720Y-57616664D01*
X80187288Y-57629290D01*
X80193582Y-57642597D01*
X80198541Y-57656457D01*
X80202118Y-57670736D01*
X80204278Y-57685297D01*
X80205000Y-57700000D01*
X80205000Y-59350000D01*
X80204278Y-59364703D01*
X80202118Y-59379264D01*
X80198541Y-59393543D01*
X80193582Y-59407403D01*
X80187288Y-59420710D01*
X80179720Y-59433336D01*
X80170952Y-59445159D01*
X80161066Y-59456066D01*
X80150159Y-59465952D01*
X80138336Y-59474720D01*
X80125710Y-59482288D01*
X80112403Y-59488582D01*
X80098543Y-59493541D01*
X80084264Y-59497118D01*
X80069703Y-59499278D01*
X80055000Y-59500000D01*
X79755000Y-59500000D01*
X79740297Y-59499278D01*
X79725736Y-59497118D01*
X79711457Y-59493541D01*
X79697597Y-59488582D01*
X79684290Y-59482288D01*
X79671664Y-59474720D01*
X79659841Y-59465952D01*
X79648934Y-59456066D01*
X79639048Y-59445159D01*
X79630280Y-59433336D01*
X79622712Y-59420710D01*
X79616418Y-59407403D01*
X79611459Y-59393543D01*
X79607882Y-59379264D01*
X79605722Y-59364703D01*
X79605000Y-59350000D01*
X79605000Y-57700000D01*
X79605722Y-57685297D01*
X79607882Y-57670736D01*
X79611459Y-57656457D01*
X79616418Y-57642597D01*
X79622712Y-57629290D01*
X79630280Y-57616664D01*
X79639048Y-57604841D01*
X79648934Y-57593934D01*
X79659841Y-57584048D01*
X79671664Y-57575280D01*
X79684290Y-57567712D01*
X79697597Y-57561418D01*
X79711457Y-57556459D01*
X79725736Y-57552882D01*
X79740297Y-57550722D01*
X79755000Y-57550000D01*
X80055000Y-57550000D01*
X80069703Y-57550722D01*
X80069703Y-57550722D01*
G37*
D26*
X79905000Y-58525000D03*
X77370000Y-56700000D03*
X80859000Y-53471000D03*
X84400000Y-58500000D03*
X79502000Y-53848000D03*
X78635000Y-56865000D03*
X81710000Y-57730000D03*
X79900000Y-65250000D03*
X80750000Y-45000000D03*
X95200040Y-50269960D03*
X80300000Y-85800000D03*
X100330000Y-49530000D03*
X76100000Y-65250000D03*
X102870000Y-76200000D03*
X105410000Y-76200000D03*
X105410000Y-81280000D03*
X102870000Y-81280000D03*
X100330000Y-81280000D03*
X104140000Y-72390000D03*
X101600000Y-72390000D03*
X106680000Y-72390000D03*
X106680000Y-80010000D03*
X105410000Y-78740000D03*
X106680000Y-77470000D03*
X104140000Y-77470000D03*
X106680000Y-74930000D03*
X105410000Y-73660000D03*
X104140000Y-74930000D03*
X104140000Y-80010000D03*
X102870000Y-78740000D03*
X102870000Y-73660000D03*
X101600000Y-74930000D03*
X101600000Y-77470000D03*
X101600000Y-80010000D03*
X100330000Y-78740000D03*
X100330000Y-76200000D03*
X100330000Y-73660000D03*
X113700000Y-76800000D03*
X115000000Y-69509000D03*
X115000000Y-71436000D03*
X115975001Y-73508999D03*
X115975001Y-75540999D03*
X106100000Y-92300000D03*
X110800000Y-89500000D03*
X112522000Y-86106000D03*
X116586000Y-82296000D03*
X114808000Y-84328000D03*
X116840000Y-85598000D03*
X103886000Y-84074000D03*
X101346000Y-84074000D03*
X98300000Y-83200000D03*
X101200000Y-87200000D03*
X97536000Y-77470000D03*
X97536000Y-73406000D03*
X110236000Y-49530000D03*
X113284000Y-49530000D03*
X116332000Y-49530000D03*
X113284000Y-52324000D03*
X116332000Y-52324000D03*
X116332000Y-55372000D03*
X113284000Y-55372000D03*
X113284000Y-58166000D03*
X116332000Y-58166000D03*
X116586000Y-60960000D03*
X114300000Y-61976000D03*
X112014000Y-68834000D03*
X112014000Y-70866000D03*
X106500000Y-49500000D03*
X103500000Y-49500000D03*
X97900000Y-91700000D03*
X76450000Y-85800000D03*
X82900000Y-58200000D03*
X74422000Y-55278000D03*
X95000000Y-46000000D03*
X95500000Y-46500000D03*
X96171599Y-47091597D03*
X78000000Y-77250000D03*
X82000000Y-77750000D03*
X82250000Y-79750000D03*
X79502000Y-77248000D03*
X74422000Y-75078000D03*
X84472000Y-75078000D03*
X64770000Y-81462000D03*
X63500000Y-81400000D03*
X62200000Y-81400000D03*
X61400000Y-80600000D03*
X60650000Y-79850000D03*
X69810000Y-45860000D03*
X82750000Y-45340000D03*
X77380000Y-65250000D03*
X78700000Y-65250000D03*
X77750000Y-85800000D03*
X79050000Y-85800000D03*
D27*
X77365000Y-57450000D02*
X77370000Y-57445000D01*
X77365000Y-58525000D02*
X77365000Y-57450000D01*
X77370000Y-57445000D02*
X77370000Y-56700000D01*
X77370000Y-56700000D02*
X77370000Y-56700000D01*
X86462500Y-58500000D02*
X85787500Y-58500000D01*
X85787500Y-58500000D02*
X84400000Y-58500000D01*
X84400000Y-58500000D02*
X84400000Y-58500000D01*
X77370000Y-56700000D02*
X77370000Y-56700000D01*
X82042000Y-53471000D02*
X80859000Y-53471000D01*
X80859000Y-53471000D02*
X80859000Y-53471000D01*
X84400000Y-58500000D02*
X84400000Y-58500000D01*
X86475000Y-63000000D02*
X82975000Y-59500000D01*
X82975000Y-59500000D02*
X82975000Y-59500000D01*
X79502000Y-50161000D02*
X79502000Y-51666000D01*
X79502000Y-51666000D02*
X79502000Y-53848000D01*
X79502000Y-53848000D02*
X79502000Y-53848000D01*
X78635000Y-58525000D02*
X78635000Y-56865000D01*
X78635000Y-56865000D02*
X78635000Y-56865000D01*
X82975000Y-59500000D02*
X82975000Y-59475000D01*
X82975000Y-59475000D02*
X81880000Y-58380000D01*
X81880000Y-58380000D02*
X81710000Y-58210000D01*
X81710000Y-58210000D02*
X81710000Y-57730000D01*
X81710000Y-57730000D02*
X81710000Y-57730000D01*
X79905000Y-65245000D02*
X79900000Y-65250000D01*
X79905000Y-63475000D02*
X79905000Y-65245000D01*
X79900000Y-65487500D02*
X78787500Y-66600000D01*
X79900000Y-65250000D02*
X79900000Y-65487500D01*
X80310000Y-85025000D02*
X80310000Y-83950000D01*
X80310000Y-86377500D02*
X80310000Y-85025000D01*
X79737500Y-86950000D02*
X80310000Y-86377500D01*
X79200000Y-86950000D02*
X79737500Y-86950000D01*
X87710000Y-44690000D02*
X87724000Y-44704000D01*
X80950000Y-44690000D02*
X87710000Y-44690000D01*
X87724000Y-44704000D02*
X86556000Y-44704000D01*
X95200040Y-49845696D02*
X95200000Y-49845656D01*
X95200040Y-50269960D02*
X95200040Y-49845696D01*
X95200000Y-49845656D02*
X95200000Y-47810000D01*
X95120000Y-47810000D02*
X92014000Y-44704000D01*
X95200000Y-47810000D02*
X95120000Y-47810000D01*
X92014000Y-44704000D02*
X87724000Y-44704000D01*
X80750000Y-44890000D02*
X80950000Y-44690000D01*
X80750000Y-45000000D02*
X80750000Y-44890000D01*
D28*
X66670000Y-91040000D02*
X68260790Y-92630790D01*
X64770000Y-91040000D02*
X66670000Y-91040000D01*
X103769210Y-92630790D02*
X108600000Y-87800000D01*
X68260790Y-92630790D02*
X103769210Y-92630790D01*
X115000000Y-71759000D02*
X115000000Y-71436000D01*
X115975001Y-72734001D02*
X115000000Y-71759000D01*
X115385002Y-76800000D02*
X115975001Y-76210001D01*
X112975000Y-76800000D02*
X113700000Y-76800000D01*
X112975000Y-76800000D02*
X112430000Y-76800000D01*
X115880002Y-73400000D02*
X115975001Y-73494999D01*
X112975000Y-73400000D02*
X115880002Y-73400000D01*
X115975001Y-76210001D02*
X115975001Y-75540999D01*
X115975001Y-73494999D02*
X115975001Y-72734001D01*
X112430000Y-76800000D02*
X103825000Y-76800000D01*
X113700000Y-76800000D02*
X115385002Y-76800000D01*
X115000000Y-69509000D02*
X115000000Y-69509000D01*
X115000000Y-71436000D02*
X115000000Y-69509000D01*
X115975001Y-73508999D02*
X115975001Y-73494999D01*
X115975001Y-75540999D02*
X115975001Y-73508999D01*
X98552000Y-72390000D02*
X97536000Y-73406000D01*
X100330000Y-72390000D02*
X98552000Y-72390000D01*
X98044000Y-83566000D02*
X100330000Y-81280000D01*
X98044000Y-84074000D02*
X98044000Y-83566000D01*
D29*
X109800000Y-52300000D02*
X109800000Y-50885787D01*
D27*
X76095000Y-65245000D02*
X76100000Y-65250000D01*
X76095000Y-63475000D02*
X76095000Y-65245000D01*
X76100000Y-65487500D02*
X77212500Y-66600000D01*
X76100000Y-65250000D02*
X76100000Y-65487500D01*
X76500000Y-85025000D02*
X76500000Y-83950000D01*
X76500000Y-86362500D02*
X76500000Y-85025000D01*
X77087500Y-86950000D02*
X76500000Y-86362500D01*
X77625000Y-86950000D02*
X77087500Y-86950000D01*
D28*
X109800000Y-49244242D02*
X103989758Y-43434000D01*
X109800000Y-52300000D02*
X109800000Y-49244242D01*
D30*
X103308519Y-40458759D02*
X102458520Y-39608760D01*
X103708521Y-40858761D02*
X103308519Y-40458759D01*
X103708521Y-43152763D02*
X103708521Y-40858761D01*
X103989758Y-43434000D02*
X103708521Y-43152763D01*
X103462523Y-43398761D02*
X103708521Y-43152763D01*
X101858519Y-43398761D02*
X103462523Y-43398761D01*
X101208519Y-42748761D02*
X101858519Y-43398761D01*
X101208519Y-41548759D02*
X101208519Y-42748761D01*
X100558519Y-40898759D02*
X101208519Y-41548759D01*
X98668519Y-40898759D02*
X100558519Y-40898759D01*
X97378520Y-39608760D02*
X98668519Y-40898759D01*
X85528519Y-40458759D02*
X84678520Y-39608760D01*
X85928521Y-40858761D02*
X85528519Y-40458759D01*
X98628521Y-40858761D02*
X85928521Y-40858761D01*
X98668519Y-40898759D02*
X98628521Y-40858761D01*
X83828521Y-40458759D02*
X84678520Y-39608760D01*
X83428519Y-40858761D02*
X83828521Y-40458759D01*
X78998519Y-40858761D02*
X83428519Y-40858761D01*
X77748518Y-39608760D02*
X78998519Y-40858761D01*
X77058520Y-39608760D02*
X77748518Y-39608760D01*
X72828519Y-41298761D02*
X71978520Y-42148760D01*
X73228521Y-40898759D02*
X72828519Y-41298761D01*
X75768521Y-40898759D02*
X73228521Y-40898759D01*
X77058520Y-39608760D02*
X75768521Y-40898759D01*
D31*
X59250000Y-55200000D02*
X64800000Y-55200000D01*
X56600000Y-52550000D02*
X59250000Y-55200000D01*
D28*
X64800000Y-55200000D02*
X67460000Y-55200000D01*
X69189000Y-53471000D02*
X71882000Y-53471000D01*
X67460000Y-55200000D02*
X69189000Y-53471000D01*
D27*
X76095000Y-56367500D02*
X76962500Y-55500000D01*
X76095000Y-58525000D02*
X76095000Y-56367500D01*
D28*
X74422000Y-50161000D02*
X74422000Y-55278000D01*
D27*
X74550000Y-55500000D02*
X74422000Y-55372000D01*
X76962500Y-55500000D02*
X74550000Y-55500000D01*
X84966000Y-56134000D02*
X82900000Y-58200000D01*
X86462500Y-56134000D02*
X84966000Y-56134000D01*
D28*
X74422000Y-55278000D02*
X74422000Y-55278000D01*
X74422000Y-55278000D02*
X74422000Y-55372000D01*
D31*
X60400000Y-46800000D02*
X64800000Y-51200000D01*
X56600000Y-46800000D02*
X60400000Y-46800000D01*
D28*
X64800000Y-51200000D02*
X66700000Y-51200000D01*
X72921000Y-50160000D02*
X67740000Y-50160000D01*
X72922000Y-50161000D02*
X72921000Y-50160000D01*
X74422000Y-50161000D02*
X72922000Y-50161000D01*
X66700000Y-51200000D02*
X67740000Y-50160000D01*
X109675000Y-75100000D02*
X112975000Y-75100000D01*
X109350001Y-74775001D02*
X109675000Y-75100000D01*
X109350001Y-74110003D02*
X109350001Y-74775001D01*
D31*
X97600000Y-55900000D02*
X97600000Y-64438000D01*
X101200000Y-52300000D02*
X97600000Y-55900000D01*
X104800000Y-52300000D02*
X104800000Y-66798002D01*
X104800000Y-66798002D02*
X107475999Y-69474001D01*
X107475999Y-69474001D02*
X108201997Y-70199999D01*
D29*
X108249999Y-70248001D02*
X107475999Y-69474001D01*
X109350001Y-74110003D02*
X109350001Y-70248001D01*
X109350001Y-70248001D02*
X108249999Y-70248001D01*
X108901999Y-70248001D02*
X108575001Y-70574999D01*
X109350001Y-70248001D02*
X108901999Y-70248001D01*
D27*
X101878000Y-49099500D02*
X101878000Y-52300000D01*
X100276500Y-47498000D02*
X101878000Y-49099500D01*
D31*
X104800000Y-52300000D02*
X101878000Y-52300000D01*
X101878000Y-52300000D02*
X101200000Y-52300000D01*
D28*
X104800000Y-48920000D02*
X104800000Y-52300000D01*
X99578761Y-43698761D02*
X104800000Y-48920000D01*
X65813237Y-43357479D02*
X66154519Y-43698761D01*
D30*
X65648519Y-43192761D02*
X66154519Y-43698761D01*
X65648519Y-40898759D02*
X65648519Y-43192761D01*
X64358520Y-39608760D02*
X65648519Y-40898759D01*
X65854519Y-43398761D02*
X66154519Y-43698761D01*
X63718761Y-43398761D02*
X65854519Y-43398761D01*
X63108519Y-42788519D02*
X63718761Y-43398761D01*
X63108519Y-40898759D02*
X63108519Y-42788519D01*
X61818520Y-39608760D02*
X63108519Y-40898759D01*
D28*
X93551239Y-43698761D02*
X93551239Y-44551239D01*
X93551239Y-43698761D02*
X99578761Y-43698761D01*
X66154519Y-43698761D02*
X93551239Y-43698761D01*
X93551239Y-44551239D02*
X95000000Y-46000000D01*
X95000000Y-46000000D02*
X95500000Y-46500000D01*
X70017000Y-90210000D02*
X73010000Y-90210000D01*
X67056000Y-87249000D02*
X70017000Y-90210000D01*
X67056000Y-77348000D02*
X67056000Y-87249000D01*
X64770000Y-76962000D02*
X66670000Y-76962000D01*
X66670000Y-76962000D02*
X67056000Y-77348000D01*
X62870000Y-77462000D02*
X64770000Y-77462000D01*
X58920234Y-77462000D02*
X62870000Y-77462000D01*
X56600000Y-79782234D02*
X58920234Y-77462000D01*
X56600000Y-81550000D02*
X56600000Y-79782234D01*
D27*
X86475000Y-79500000D02*
X85800000Y-79500000D01*
X85800000Y-79500000D02*
X84300000Y-79500000D01*
X84300000Y-79500000D02*
X84300000Y-79500000D01*
X83750000Y-79500000D02*
X84300000Y-79500000D01*
X82042000Y-74553000D02*
X82042000Y-77792000D01*
X82042000Y-77792000D02*
X83750000Y-79500000D01*
X77770000Y-77480000D02*
X78000000Y-77250000D01*
X77770000Y-79000000D02*
X77770000Y-77480000D01*
X86475000Y-84000000D02*
X85237500Y-82762500D01*
X79502000Y-72748000D02*
X79502000Y-71243000D01*
X79502000Y-77463000D02*
X79502000Y-77248000D01*
X79040000Y-77925000D02*
X79502000Y-77463000D01*
X79040000Y-79000000D02*
X79040000Y-77925000D01*
X79502000Y-77248000D02*
X79502000Y-72748000D01*
X85237500Y-82737500D02*
X82250000Y-79750000D01*
X85237500Y-82762500D02*
X85237500Y-82737500D01*
X78175000Y-76000000D02*
X78712500Y-76000000D01*
X77924998Y-76000000D02*
X78175000Y-76000000D01*
X76500000Y-77424998D02*
X77924998Y-76000000D01*
X76500000Y-79000000D02*
X76500000Y-77424998D01*
X75668998Y-77424998D02*
X74422000Y-76178000D01*
X76500000Y-77424998D02*
X75668998Y-77424998D01*
D28*
X74422000Y-75078000D02*
X74422000Y-71243000D01*
D27*
X84472000Y-75078000D02*
X84472000Y-76272000D01*
X85450000Y-77250000D02*
X86475000Y-77250000D01*
X84472000Y-76272000D02*
X85450000Y-77250000D01*
D31*
X61846000Y-61300000D02*
X64800000Y-64254000D01*
X56600000Y-61300000D02*
X61846000Y-61300000D01*
D28*
X66700000Y-64254000D02*
X64800000Y-64254000D01*
X68188000Y-64254000D02*
X66700000Y-64254000D01*
X74422000Y-70488000D02*
X68188000Y-64254000D01*
X74422000Y-71243000D02*
X74422000Y-70488000D01*
D27*
X74422000Y-75078000D02*
X74422000Y-76178000D01*
X90846571Y-52190929D02*
X91500000Y-51537500D01*
X87612490Y-55425010D02*
X90846571Y-52190929D01*
X87949320Y-57159010D02*
X87612490Y-56822180D01*
X90628490Y-57159010D02*
X87949320Y-57159010D01*
X90750000Y-57037500D02*
X90628490Y-57159010D01*
X91500000Y-57037500D02*
X90750000Y-57037500D01*
X87612490Y-59418490D02*
X87612490Y-56405510D01*
X90731500Y-62537500D02*
X87612490Y-59418490D01*
X91500000Y-62537500D02*
X90731500Y-62537500D01*
X87612490Y-56822180D02*
X87612490Y-56405510D01*
X87612490Y-56405510D02*
X87612490Y-55425010D01*
X78537500Y-55500000D02*
X80898000Y-55500000D01*
X79905000Y-56985000D02*
X79905000Y-58525000D01*
X80898000Y-55500000D02*
X80898000Y-55992000D01*
X80898000Y-55992000D02*
X79905000Y-56985000D01*
X84582000Y-50161000D02*
X84582000Y-54253500D01*
X83335500Y-55500000D02*
X84582000Y-54253500D01*
X80898000Y-55500000D02*
X83335500Y-55500000D01*
X90123500Y-50161000D02*
X91500000Y-51537500D01*
X84582000Y-50161000D02*
X90123500Y-50161000D01*
D31*
X107999999Y-84400001D02*
X109499999Y-84400001D01*
X107000000Y-85400000D02*
X107999999Y-84400001D01*
X109499999Y-84400001D02*
X113000000Y-80900000D01*
D28*
X107000000Y-85400000D02*
X102190000Y-90210000D01*
X102190000Y-90210000D02*
X101190000Y-90210000D01*
X96390000Y-90160000D02*
X96390000Y-90210000D01*
X96500000Y-90050000D02*
X96390000Y-90160000D01*
X96500000Y-88200000D02*
X96500000Y-90050000D01*
X101190000Y-90210000D02*
X96390000Y-90210000D01*
X96390000Y-90210000D02*
X78010000Y-90210000D01*
D31*
X58896000Y-68254000D02*
X64800000Y-68254000D01*
D28*
X66700000Y-68254000D02*
X64800000Y-68254000D01*
X67838000Y-68254000D02*
X66700000Y-68254000D01*
X71882000Y-72298000D02*
X67838000Y-68254000D01*
X71882000Y-74553000D02*
X71882000Y-72298000D01*
D31*
X57849999Y-68299999D02*
X56600000Y-67050000D01*
X58850001Y-68299999D02*
X57849999Y-68299999D01*
X58896000Y-68254000D02*
X58850001Y-68299999D01*
D28*
X64770000Y-81962000D02*
X64770000Y-86106000D01*
X64770000Y-81462000D02*
X64770000Y-81462000D01*
X62262000Y-81462000D02*
X62200000Y-81400000D01*
X64770000Y-81462000D02*
X62262000Y-81462000D01*
X62200000Y-81400000D02*
X61400000Y-80600000D01*
X61400000Y-80600000D02*
X60650000Y-79850000D01*
X60650000Y-79850000D02*
X60500000Y-79700000D01*
X116275000Y-78500000D02*
X112975000Y-78500000D01*
X117175011Y-77599989D02*
X116275000Y-78500000D01*
X117175011Y-67484011D02*
X117175011Y-77599989D01*
X115000000Y-65309000D02*
X117175011Y-67484011D01*
X115000000Y-65209000D02*
X115000000Y-65309000D01*
D29*
X111511000Y-65209000D02*
X110740000Y-64438000D01*
X115000000Y-65209000D02*
X111511000Y-65209000D01*
D27*
X87624990Y-76412510D02*
X88893750Y-75143750D01*
X91500000Y-83537500D02*
X90846571Y-82884071D01*
X90846571Y-82884071D02*
X90320881Y-82884071D01*
X89124990Y-78375010D02*
X87624990Y-78375010D01*
X89462500Y-78037500D02*
X89124990Y-78375010D01*
X91500000Y-78037500D02*
X89462500Y-78037500D01*
X87624990Y-80188180D02*
X87624990Y-78375010D01*
X87624990Y-78375010D02*
X87624990Y-76412510D01*
X88218405Y-80781595D02*
X87624990Y-80188180D01*
X90320881Y-82884071D02*
X88218405Y-80781595D01*
X80310000Y-76022500D02*
X80287500Y-76000000D01*
X80310000Y-79000000D02*
X80310000Y-76022500D01*
X83832000Y-71243000D02*
X84582000Y-71243000D01*
X83011998Y-71243000D02*
X83832000Y-71243000D01*
X80287500Y-73967498D02*
X83011998Y-71243000D01*
X80287500Y-76000000D02*
X80287500Y-73967498D01*
X90205500Y-71243000D02*
X91500000Y-72537500D01*
X84582000Y-71243000D02*
X90205500Y-71243000D01*
X88893750Y-75143750D02*
X91500000Y-72537500D01*
X98298000Y-47551500D02*
X98351500Y-47498000D01*
X98298000Y-49530000D02*
X98298000Y-47551500D01*
X70109999Y-45560001D02*
X70109999Y-45550001D01*
X69810000Y-45860000D02*
X70109999Y-45560001D01*
X70109999Y-45550001D02*
X70900000Y-44760000D01*
X78760000Y-44760000D02*
X79260000Y-44760000D01*
X70900000Y-44760000D02*
X78760000Y-44760000D01*
X79010000Y-44760000D02*
X79260000Y-44760000D01*
X78760000Y-44760000D02*
X79010000Y-44760000D01*
X79260000Y-44760000D02*
X80500000Y-46000000D01*
X82090000Y-46000000D02*
X82750000Y-45340000D01*
X80500000Y-46000000D02*
X82090000Y-46000000D01*
X77365000Y-65235000D02*
X77380000Y-65250000D01*
X77365000Y-63475000D02*
X77365000Y-65235000D01*
X78635000Y-65185000D02*
X78700000Y-65250000D01*
X78635000Y-63475000D02*
X78635000Y-65185000D01*
X77770000Y-83950000D02*
X77770000Y-85780000D01*
X77770000Y-85780000D02*
X77750000Y-85800000D01*
X79040000Y-85790000D02*
X79050000Y-85800000D01*
X79040000Y-83950000D02*
X79040000Y-85790000D01*
X91184000Y-53462500D02*
X91500000Y-53462500D01*
X88512500Y-56134000D02*
X91184000Y-53462500D01*
X88975000Y-58962500D02*
X88512500Y-58500000D01*
X91500000Y-58962500D02*
X88975000Y-58962500D01*
X90037500Y-63000000D02*
X88525000Y-63000000D01*
X91500000Y-64462500D02*
X90037500Y-63000000D01*
X88712500Y-77250000D02*
X88525000Y-77250000D01*
X91500000Y-74462500D02*
X88712500Y-77250000D01*
X90287500Y-79500000D02*
X88525000Y-79500000D01*
X91500000Y-79962500D02*
X90750000Y-79962500D01*
X90750000Y-79962500D02*
X90287500Y-79500000D01*
X90750000Y-85462500D02*
X90200000Y-84912500D01*
X91500000Y-85462500D02*
X90750000Y-85462500D01*
X90200000Y-84912500D02*
X90162500Y-84912500D01*
X89250000Y-84000000D02*
X88525000Y-84000000D01*
X90162500Y-84912500D02*
X89250000Y-84000000D01*
D32*
G36*
X117756601Y-88285300D02*
G01*
X117448175Y-87823707D01*
X116998693Y-87374225D01*
X116470158Y-87021070D01*
X115882881Y-86777812D01*
X115259432Y-86653800D01*
X114623768Y-86653800D01*
X114000319Y-86777812D01*
X113413042Y-87021070D01*
X112884507Y-87374225D01*
X112435025Y-87823707D01*
X112081870Y-88352242D01*
X111838612Y-88939519D01*
X111714600Y-89562968D01*
X111714600Y-90198632D01*
X111838612Y-90822081D01*
X112081870Y-91409358D01*
X112435025Y-91937893D01*
X112884507Y-92387375D01*
X113346099Y-92695800D01*
X96646048Y-92695800D01*
X96645189Y-91535413D01*
X106044192Y-91535413D01*
X106139956Y-91799814D01*
X106429571Y-91940704D01*
X106741108Y-92022384D01*
X107062595Y-92041718D01*
X107381675Y-91997961D01*
X107686088Y-91892795D01*
X107860044Y-91799814D01*
X107955808Y-91535413D01*
X107000000Y-90579605D01*
X106044192Y-91535413D01*
X96645189Y-91535413D01*
X96645047Y-91345000D01*
X102134249Y-91345000D01*
X102190000Y-91350491D01*
X102245751Y-91345000D01*
X102245752Y-91345000D01*
X102412499Y-91328577D01*
X102626447Y-91263676D01*
X102823623Y-91158284D01*
X102996449Y-91016449D01*
X103031996Y-90973135D01*
X103542536Y-90462595D01*
X105358282Y-90462595D01*
X105402039Y-90781675D01*
X105507205Y-91086088D01*
X105600186Y-91260044D01*
X105864587Y-91355808D01*
X106820395Y-90400000D01*
X107179605Y-90400000D01*
X108135413Y-91355808D01*
X108399814Y-91260044D01*
X108540704Y-90970429D01*
X108622384Y-90658892D01*
X108641718Y-90337405D01*
X108597961Y-90018325D01*
X108492795Y-89713912D01*
X108399814Y-89539956D01*
X108135413Y-89444192D01*
X107179605Y-90400000D01*
X106820395Y-90400000D01*
X105864587Y-89444192D01*
X105600186Y-89539956D01*
X105459296Y-89829571D01*
X105377616Y-90141108D01*
X105358282Y-90462595D01*
X103542536Y-90462595D01*
X104740544Y-89264587D01*
X106044192Y-89264587D01*
X107000000Y-90220395D01*
X107955808Y-89264587D01*
X107860044Y-89000186D01*
X107570429Y-88859296D01*
X107258892Y-88777616D01*
X106937405Y-88758282D01*
X106618325Y-88802039D01*
X106313912Y-88907205D01*
X106139956Y-89000186D01*
X106044192Y-89264587D01*
X104740544Y-89264587D01*
X106965608Y-87039524D01*
X107000000Y-87042911D01*
X107080319Y-87035000D01*
X107161033Y-87035000D01*
X107240201Y-87019253D01*
X107320516Y-87011342D01*
X107397743Y-86987916D01*
X107476912Y-86972168D01*
X107551483Y-86941279D01*
X107628714Y-86917852D01*
X107699892Y-86879806D01*
X107774463Y-86848918D01*
X107841576Y-86804074D01*
X107912752Y-86766030D01*
X107975137Y-86714832D01*
X108042252Y-86669987D01*
X108269987Y-86442252D01*
X108269989Y-86442249D01*
X108677237Y-86035001D01*
X109419680Y-86035001D01*
X109499999Y-86042912D01*
X109580318Y-86035001D01*
X109580321Y-86035001D01*
X109820515Y-86011344D01*
X110128714Y-85917853D01*
X110412751Y-85766032D01*
X110661713Y-85561715D01*
X110712924Y-85499314D01*
X114212915Y-81999324D01*
X114366030Y-81812753D01*
X114517852Y-81528715D01*
X114560515Y-81388072D01*
X115275000Y-81388072D01*
X115399482Y-81375812D01*
X115519180Y-81339502D01*
X115629494Y-81280537D01*
X115726185Y-81201185D01*
X115805537Y-81104494D01*
X115864502Y-80994180D01*
X115900812Y-80874482D01*
X115913072Y-80750000D01*
X115913072Y-79650000D01*
X115911595Y-79635000D01*
X116219249Y-79635000D01*
X116275000Y-79640491D01*
X116330751Y-79635000D01*
X116330752Y-79635000D01*
X116497499Y-79618577D01*
X116711447Y-79553676D01*
X116908623Y-79448284D01*
X117081449Y-79306449D01*
X117116995Y-79263136D01*
X117756601Y-78623531D01*
X117756601Y-88285300D01*
X117756601Y-88285300D01*
G37*
X117756601Y-88285300D02*
X117448175Y-87823707D01*
X116998693Y-87374225D01*
X116470158Y-87021070D01*
X115882881Y-86777812D01*
X115259432Y-86653800D01*
X114623768Y-86653800D01*
X114000319Y-86777812D01*
X113413042Y-87021070D01*
X112884507Y-87374225D01*
X112435025Y-87823707D01*
X112081870Y-88352242D01*
X111838612Y-88939519D01*
X111714600Y-89562968D01*
X111714600Y-90198632D01*
X111838612Y-90822081D01*
X112081870Y-91409358D01*
X112435025Y-91937893D01*
X112884507Y-92387375D01*
X113346099Y-92695800D01*
X96646048Y-92695800D01*
X96645189Y-91535413D01*
X106044192Y-91535413D01*
X106139956Y-91799814D01*
X106429571Y-91940704D01*
X106741108Y-92022384D01*
X107062595Y-92041718D01*
X107381675Y-91997961D01*
X107686088Y-91892795D01*
X107860044Y-91799814D01*
X107955808Y-91535413D01*
X107000000Y-90579605D01*
X106044192Y-91535413D01*
X96645189Y-91535413D01*
X96645047Y-91345000D01*
X102134249Y-91345000D01*
X102190000Y-91350491D01*
X102245751Y-91345000D01*
X102245752Y-91345000D01*
X102412499Y-91328577D01*
X102626447Y-91263676D01*
X102823623Y-91158284D01*
X102996449Y-91016449D01*
X103031996Y-90973135D01*
X103542536Y-90462595D01*
X105358282Y-90462595D01*
X105402039Y-90781675D01*
X105507205Y-91086088D01*
X105600186Y-91260044D01*
X105864587Y-91355808D01*
X106820395Y-90400000D01*
X107179605Y-90400000D01*
X108135413Y-91355808D01*
X108399814Y-91260044D01*
X108540704Y-90970429D01*
X108622384Y-90658892D01*
X108641718Y-90337405D01*
X108597961Y-90018325D01*
X108492795Y-89713912D01*
X108399814Y-89539956D01*
X108135413Y-89444192D01*
X107179605Y-90400000D01*
X106820395Y-90400000D01*
X105864587Y-89444192D01*
X105600186Y-89539956D01*
X105459296Y-89829571D01*
X105377616Y-90141108D01*
X105358282Y-90462595D01*
X103542536Y-90462595D01*
X104740544Y-89264587D01*
X106044192Y-89264587D01*
X107000000Y-90220395D01*
X107955808Y-89264587D01*
X107860044Y-89000186D01*
X107570429Y-88859296D01*
X107258892Y-88777616D01*
X106937405Y-88758282D01*
X106618325Y-88802039D01*
X106313912Y-88907205D01*
X106139956Y-89000186D01*
X106044192Y-89264587D01*
X104740544Y-89264587D01*
X106965608Y-87039524D01*
X107000000Y-87042911D01*
X107080319Y-87035000D01*
X107161033Y-87035000D01*
X107240201Y-87019253D01*
X107320516Y-87011342D01*
X107397743Y-86987916D01*
X107476912Y-86972168D01*
X107551483Y-86941279D01*
X107628714Y-86917852D01*
X107699892Y-86879806D01*
X107774463Y-86848918D01*
X107841576Y-86804074D01*
X107912752Y-86766030D01*
X107975137Y-86714832D01*
X108042252Y-86669987D01*
X108269987Y-86442252D01*
X108269989Y-86442249D01*
X108677237Y-86035001D01*
X109419680Y-86035001D01*
X109499999Y-86042912D01*
X109580318Y-86035001D01*
X109580321Y-86035001D01*
X109820515Y-86011344D01*
X110128714Y-85917853D01*
X110412751Y-85766032D01*
X110661713Y-85561715D01*
X110712924Y-85499314D01*
X114212915Y-81999324D01*
X114366030Y-81812753D01*
X114517852Y-81528715D01*
X114560515Y-81388072D01*
X115275000Y-81388072D01*
X115399482Y-81375812D01*
X115519180Y-81339502D01*
X115629494Y-81280537D01*
X115726185Y-81201185D01*
X115805537Y-81104494D01*
X115864502Y-80994180D01*
X115900812Y-80874482D01*
X115913072Y-80750000D01*
X115913072Y-79650000D01*
X115911595Y-79635000D01*
X116219249Y-79635000D01*
X116275000Y-79640491D01*
X116330751Y-79635000D01*
X116330752Y-79635000D01*
X116497499Y-79618577D01*
X116711447Y-79553676D01*
X116908623Y-79448284D01*
X117081449Y-79306449D01*
X117116995Y-79263136D01*
X117756601Y-78623531D01*
X117756601Y-88285300D01*
G36*
X113224188Y-66583482D02*
G01*
X113260498Y-66703180D01*
X113319463Y-66813494D01*
X113398815Y-66910185D01*
X113495506Y-66989537D01*
X113605820Y-67048502D01*
X113725518Y-67084812D01*
X113850000Y-67097072D01*
X115182941Y-67097072D01*
X115708366Y-67622498D01*
X115285750Y-67624000D01*
X115127000Y-67782750D01*
X115127000Y-69382000D01*
X115147000Y-69382000D01*
X115147000Y-69636000D01*
X115127000Y-69636000D01*
X115127000Y-71235250D01*
X115285750Y-71394000D01*
X116040011Y-71396681D01*
X116040012Y-77129856D01*
X115912001Y-77257868D01*
X115910000Y-77085750D01*
X115751250Y-76927000D01*
X113102000Y-76927000D01*
X113102000Y-76947000D01*
X112848000Y-76947000D01*
X112848000Y-76927000D01*
X110198750Y-76927000D01*
X110040000Y-77085750D01*
X110036928Y-77350000D01*
X110049188Y-77474482D01*
X110085498Y-77594180D01*
X110115335Y-77650000D01*
X110085498Y-77705820D01*
X110049188Y-77825518D01*
X110036928Y-77950000D01*
X110036928Y-79050000D01*
X110049188Y-79174482D01*
X110085498Y-79294180D01*
X110115335Y-79350000D01*
X110085498Y-79405820D01*
X110049188Y-79525518D01*
X110036928Y-79650000D01*
X110036928Y-80750000D01*
X110049188Y-80874482D01*
X110085498Y-80994180D01*
X110144463Y-81104494D01*
X110223815Y-81201185D01*
X110313211Y-81274550D01*
X109081109Y-82506653D01*
X109114502Y-82444180D01*
X109150812Y-82324482D01*
X109163072Y-82200000D01*
X109160000Y-77085750D01*
X109001250Y-76927000D01*
X103952000Y-76927000D01*
X103952000Y-82676250D01*
X104110750Y-82835000D01*
X107518895Y-82837372D01*
X107371284Y-82882149D01*
X107087247Y-83033970D01*
X106838285Y-83238287D01*
X106787074Y-83300688D01*
X105957751Y-84130011D01*
X105957748Y-84130013D01*
X105730013Y-84357748D01*
X105685168Y-84424863D01*
X105633970Y-84487248D01*
X105595926Y-84558424D01*
X105551082Y-84625537D01*
X105520194Y-84700108D01*
X105482148Y-84771286D01*
X105458721Y-84848517D01*
X105427832Y-84923088D01*
X105412084Y-85002257D01*
X105388658Y-85079484D01*
X105380747Y-85159799D01*
X105365000Y-85238967D01*
X105365000Y-85319681D01*
X105357089Y-85400000D01*
X105360476Y-85434392D01*
X101719869Y-89075000D01*
X97985610Y-89075000D01*
X97988072Y-89050000D01*
X97988072Y-87350000D01*
X97975812Y-87225518D01*
X97939502Y-87105820D01*
X97880537Y-86995506D01*
X97826778Y-86930000D01*
X97880537Y-86864494D01*
X97939502Y-86754180D01*
X97975812Y-86634482D01*
X97988072Y-86510000D01*
X97988072Y-84810000D01*
X97975812Y-84685518D01*
X97939502Y-84565820D01*
X97880537Y-84455506D01*
X97801185Y-84358815D01*
X97704494Y-84279463D01*
X97594180Y-84220498D01*
X97474482Y-84184188D01*
X97350000Y-84171928D01*
X96639729Y-84171928D01*
X96638268Y-82200000D01*
X98486928Y-82200000D01*
X98499188Y-82324482D01*
X98535498Y-82444180D01*
X98594463Y-82554494D01*
X98673815Y-82651185D01*
X98770506Y-82730537D01*
X98880820Y-82789502D01*
X99000518Y-82825812D01*
X99125000Y-82838072D01*
X103539250Y-82835000D01*
X103698000Y-82676250D01*
X103698000Y-76927000D01*
X98648750Y-76927000D01*
X98490000Y-77085750D01*
X98486928Y-82200000D01*
X96638268Y-82200000D01*
X96630059Y-71127000D01*
X98550903Y-71127000D01*
X98535498Y-71155820D01*
X98499188Y-71275518D01*
X98486928Y-71400000D01*
X98490000Y-76514250D01*
X98648750Y-76673000D01*
X103698000Y-76673000D01*
X103698000Y-76653000D01*
X103952000Y-76653000D01*
X103952000Y-76673000D01*
X109001250Y-76673000D01*
X109160000Y-76514250D01*
X109160242Y-76111818D01*
X109238553Y-76153676D01*
X109452501Y-76218577D01*
X109675000Y-76240491D01*
X109730751Y-76235000D01*
X110038405Y-76235000D01*
X110036928Y-76250000D01*
X110040000Y-76514250D01*
X110198750Y-76673000D01*
X112848000Y-76673000D01*
X112848000Y-76653000D01*
X113102000Y-76653000D01*
X113102000Y-76673000D01*
X115751250Y-76673000D01*
X115910000Y-76514250D01*
X115913072Y-76250000D01*
X115900812Y-76125518D01*
X115864502Y-76005820D01*
X115834665Y-75950000D01*
X115864502Y-75894180D01*
X115900812Y-75774482D01*
X115913072Y-75650000D01*
X115913072Y-74550000D01*
X115900812Y-74425518D01*
X115864502Y-74305820D01*
X115834665Y-74250000D01*
X115864502Y-74194180D01*
X115900812Y-74074482D01*
X115913072Y-73950000D01*
X115910000Y-73685750D01*
X115751250Y-73527000D01*
X113102000Y-73527000D01*
X113102000Y-73547000D01*
X112848000Y-73547000D01*
X112848000Y-73527000D01*
X112828000Y-73527000D01*
X112828000Y-73273000D01*
X112848000Y-73273000D01*
X112848000Y-72373750D01*
X113102000Y-72373750D01*
X113102000Y-73273000D01*
X115751250Y-73273000D01*
X115910000Y-73114250D01*
X115913072Y-72850000D01*
X115900812Y-72725518D01*
X115864502Y-72605820D01*
X115805537Y-72495506D01*
X115726185Y-72398815D01*
X115629494Y-72319463D01*
X115519180Y-72260498D01*
X115399482Y-72224188D01*
X115275000Y-72211928D01*
X113260750Y-72215000D01*
X113102000Y-72373750D01*
X112848000Y-72373750D01*
X112689250Y-72215000D01*
X110675000Y-72211928D01*
X110610001Y-72218330D01*
X110610001Y-71127000D01*
X111000000Y-71127000D01*
X111024776Y-71124560D01*
X111048601Y-71117333D01*
X111070557Y-71105597D01*
X111089803Y-71089803D01*
X111105597Y-71070557D01*
X111117333Y-71048601D01*
X111124560Y-71024776D01*
X111127000Y-71000000D01*
X111127000Y-70759000D01*
X113211928Y-70759000D01*
X113224188Y-70883482D01*
X113260498Y-71003180D01*
X113319463Y-71113494D01*
X113398815Y-71210185D01*
X113495506Y-71289537D01*
X113605820Y-71348502D01*
X113725518Y-71384812D01*
X113850000Y-71397072D01*
X114714250Y-71394000D01*
X114873000Y-71235250D01*
X114873000Y-69636000D01*
X113373750Y-69636000D01*
X113215000Y-69794750D01*
X113211928Y-70759000D01*
X111127000Y-70759000D01*
X111127000Y-68326072D01*
X112350000Y-68326072D01*
X112474482Y-68313812D01*
X112594180Y-68277502D01*
X112628794Y-68259000D01*
X113211928Y-68259000D01*
X113215000Y-69223250D01*
X113373750Y-69382000D01*
X114873000Y-69382000D01*
X114873000Y-67782750D01*
X114714250Y-67624000D01*
X113850000Y-67620928D01*
X113725518Y-67633188D01*
X113605820Y-67669498D01*
X113495506Y-67728463D01*
X113398815Y-67807815D01*
X113319463Y-67904506D01*
X113260498Y-68014820D01*
X113224188Y-68134518D01*
X113211928Y-68259000D01*
X112628794Y-68259000D01*
X112704494Y-68218537D01*
X112801185Y-68139185D01*
X112880537Y-68042494D01*
X112939502Y-67932180D01*
X112975812Y-67812482D01*
X112988072Y-67688000D01*
X112988072Y-66469000D01*
X113212913Y-66469000D01*
X113224188Y-66583482D01*
X113224188Y-66583482D01*
G37*
X113224188Y-66583482D02*
X113260498Y-66703180D01*
X113319463Y-66813494D01*
X113398815Y-66910185D01*
X113495506Y-66989537D01*
X113605820Y-67048502D01*
X113725518Y-67084812D01*
X113850000Y-67097072D01*
X115182941Y-67097072D01*
X115708366Y-67622498D01*
X115285750Y-67624000D01*
X115127000Y-67782750D01*
X115127000Y-69382000D01*
X115147000Y-69382000D01*
X115147000Y-69636000D01*
X115127000Y-69636000D01*
X115127000Y-71235250D01*
X115285750Y-71394000D01*
X116040011Y-71396681D01*
X116040012Y-77129856D01*
X115912001Y-77257868D01*
X115910000Y-77085750D01*
X115751250Y-76927000D01*
X113102000Y-76927000D01*
X113102000Y-76947000D01*
X112848000Y-76947000D01*
X112848000Y-76927000D01*
X110198750Y-76927000D01*
X110040000Y-77085750D01*
X110036928Y-77350000D01*
X110049188Y-77474482D01*
X110085498Y-77594180D01*
X110115335Y-77650000D01*
X110085498Y-77705820D01*
X110049188Y-77825518D01*
X110036928Y-77950000D01*
X110036928Y-79050000D01*
X110049188Y-79174482D01*
X110085498Y-79294180D01*
X110115335Y-79350000D01*
X110085498Y-79405820D01*
X110049188Y-79525518D01*
X110036928Y-79650000D01*
X110036928Y-80750000D01*
X110049188Y-80874482D01*
X110085498Y-80994180D01*
X110144463Y-81104494D01*
X110223815Y-81201185D01*
X110313211Y-81274550D01*
X109081109Y-82506653D01*
X109114502Y-82444180D01*
X109150812Y-82324482D01*
X109163072Y-82200000D01*
X109160000Y-77085750D01*
X109001250Y-76927000D01*
X103952000Y-76927000D01*
X103952000Y-82676250D01*
X104110750Y-82835000D01*
X107518895Y-82837372D01*
X107371284Y-82882149D01*
X107087247Y-83033970D01*
X106838285Y-83238287D01*
X106787074Y-83300688D01*
X105957751Y-84130011D01*
X105957748Y-84130013D01*
X105730013Y-84357748D01*
X105685168Y-84424863D01*
X105633970Y-84487248D01*
X105595926Y-84558424D01*
X105551082Y-84625537D01*
X105520194Y-84700108D01*
X105482148Y-84771286D01*
X105458721Y-84848517D01*
X105427832Y-84923088D01*
X105412084Y-85002257D01*
X105388658Y-85079484D01*
X105380747Y-85159799D01*
X105365000Y-85238967D01*
X105365000Y-85319681D01*
X105357089Y-85400000D01*
X105360476Y-85434392D01*
X101719869Y-89075000D01*
X97985610Y-89075000D01*
X97988072Y-89050000D01*
X97988072Y-87350000D01*
X97975812Y-87225518D01*
X97939502Y-87105820D01*
X97880537Y-86995506D01*
X97826778Y-86930000D01*
X97880537Y-86864494D01*
X97939502Y-86754180D01*
X97975812Y-86634482D01*
X97988072Y-86510000D01*
X97988072Y-84810000D01*
X97975812Y-84685518D01*
X97939502Y-84565820D01*
X97880537Y-84455506D01*
X97801185Y-84358815D01*
X97704494Y-84279463D01*
X97594180Y-84220498D01*
X97474482Y-84184188D01*
X97350000Y-84171928D01*
X96639729Y-84171928D01*
X96638268Y-82200000D01*
X98486928Y-82200000D01*
X98499188Y-82324482D01*
X98535498Y-82444180D01*
X98594463Y-82554494D01*
X98673815Y-82651185D01*
X98770506Y-82730537D01*
X98880820Y-82789502D01*
X99000518Y-82825812D01*
X99125000Y-82838072D01*
X103539250Y-82835000D01*
X103698000Y-82676250D01*
X103698000Y-76927000D01*
X98648750Y-76927000D01*
X98490000Y-77085750D01*
X98486928Y-82200000D01*
X96638268Y-82200000D01*
X96630059Y-71127000D01*
X98550903Y-71127000D01*
X98535498Y-71155820D01*
X98499188Y-71275518D01*
X98486928Y-71400000D01*
X98490000Y-76514250D01*
X98648750Y-76673000D01*
X103698000Y-76673000D01*
X103698000Y-76653000D01*
X103952000Y-76653000D01*
X103952000Y-76673000D01*
X109001250Y-76673000D01*
X109160000Y-76514250D01*
X109160242Y-76111818D01*
X109238553Y-76153676D01*
X109452501Y-76218577D01*
X109675000Y-76240491D01*
X109730751Y-76235000D01*
X110038405Y-76235000D01*
X110036928Y-76250000D01*
X110040000Y-76514250D01*
X110198750Y-76673000D01*
X112848000Y-76673000D01*
X112848000Y-76653000D01*
X113102000Y-76653000D01*
X113102000Y-76673000D01*
X115751250Y-76673000D01*
X115910000Y-76514250D01*
X115913072Y-76250000D01*
X115900812Y-76125518D01*
X115864502Y-76005820D01*
X115834665Y-75950000D01*
X115864502Y-75894180D01*
X115900812Y-75774482D01*
X115913072Y-75650000D01*
X115913072Y-74550000D01*
X115900812Y-74425518D01*
X115864502Y-74305820D01*
X115834665Y-74250000D01*
X115864502Y-74194180D01*
X115900812Y-74074482D01*
X115913072Y-73950000D01*
X115910000Y-73685750D01*
X115751250Y-73527000D01*
X113102000Y-73527000D01*
X113102000Y-73547000D01*
X112848000Y-73547000D01*
X112848000Y-73527000D01*
X112828000Y-73527000D01*
X112828000Y-73273000D01*
X112848000Y-73273000D01*
X112848000Y-72373750D01*
X113102000Y-72373750D01*
X113102000Y-73273000D01*
X115751250Y-73273000D01*
X115910000Y-73114250D01*
X115913072Y-72850000D01*
X115900812Y-72725518D01*
X115864502Y-72605820D01*
X115805537Y-72495506D01*
X115726185Y-72398815D01*
X115629494Y-72319463D01*
X115519180Y-72260498D01*
X115399482Y-72224188D01*
X115275000Y-72211928D01*
X113260750Y-72215000D01*
X113102000Y-72373750D01*
X112848000Y-72373750D01*
X112689250Y-72215000D01*
X110675000Y-72211928D01*
X110610001Y-72218330D01*
X110610001Y-71127000D01*
X111000000Y-71127000D01*
X111024776Y-71124560D01*
X111048601Y-71117333D01*
X111070557Y-71105597D01*
X111089803Y-71089803D01*
X111105597Y-71070557D01*
X111117333Y-71048601D01*
X111124560Y-71024776D01*
X111127000Y-71000000D01*
X111127000Y-70759000D01*
X113211928Y-70759000D01*
X113224188Y-70883482D01*
X113260498Y-71003180D01*
X113319463Y-71113494D01*
X113398815Y-71210185D01*
X113495506Y-71289537D01*
X113605820Y-71348502D01*
X113725518Y-71384812D01*
X113850000Y-71397072D01*
X114714250Y-71394000D01*
X114873000Y-71235250D01*
X114873000Y-69636000D01*
X113373750Y-69636000D01*
X113215000Y-69794750D01*
X113211928Y-70759000D01*
X111127000Y-70759000D01*
X111127000Y-68326072D01*
X112350000Y-68326072D01*
X112474482Y-68313812D01*
X112594180Y-68277502D01*
X112628794Y-68259000D01*
X113211928Y-68259000D01*
X113215000Y-69223250D01*
X113373750Y-69382000D01*
X114873000Y-69382000D01*
X114873000Y-67782750D01*
X114714250Y-67624000D01*
X113850000Y-67620928D01*
X113725518Y-67633188D01*
X113605820Y-67669498D01*
X113495506Y-67728463D01*
X113398815Y-67807815D01*
X113319463Y-67904506D01*
X113260498Y-68014820D01*
X113224188Y-68134518D01*
X113211928Y-68259000D01*
X112628794Y-68259000D01*
X112704494Y-68218537D01*
X112801185Y-68139185D01*
X112880537Y-68042494D01*
X112939502Y-67932180D01*
X112975812Y-67812482D01*
X112988072Y-67688000D01*
X112988072Y-66469000D01*
X113212913Y-66469000D01*
X113224188Y-66583482D01*
G36*
X117756601Y-66460469D02*
G01*
X116788072Y-65491941D01*
X116788072Y-63959000D01*
X116775812Y-63834518D01*
X116739502Y-63714820D01*
X116680537Y-63604506D01*
X116601185Y-63507815D01*
X116504494Y-63428463D01*
X116394180Y-63369498D01*
X116274482Y-63333188D01*
X116150000Y-63320928D01*
X113850000Y-63320928D01*
X113725518Y-63333188D01*
X113605820Y-63369498D01*
X113495506Y-63428463D01*
X113398815Y-63507815D01*
X113319463Y-63604506D01*
X113260498Y-63714820D01*
X113224188Y-63834518D01*
X113212913Y-63949000D01*
X112988072Y-63949000D01*
X112988072Y-61188000D01*
X112975812Y-61063518D01*
X112939502Y-60943820D01*
X112880537Y-60833506D01*
X112801185Y-60736815D01*
X112704494Y-60657463D01*
X112594180Y-60598498D01*
X112474482Y-60562188D01*
X112350000Y-60549928D01*
X111127000Y-60549928D01*
X111127000Y-58000000D01*
X111124560Y-57975224D01*
X111117333Y-57951399D01*
X111105597Y-57929443D01*
X111089803Y-57910197D01*
X111070557Y-57894403D01*
X111048601Y-57882667D01*
X111024776Y-57875440D01*
X111000000Y-57873000D01*
X106435000Y-57873000D01*
X106435000Y-53435413D01*
X108844192Y-53435413D01*
X108939956Y-53699814D01*
X109229571Y-53840704D01*
X109541108Y-53922384D01*
X109862595Y-53941718D01*
X110181675Y-53897961D01*
X110486088Y-53792795D01*
X110660044Y-53699814D01*
X110755808Y-53435413D01*
X109800000Y-52479605D01*
X108844192Y-53435413D01*
X106435000Y-53435413D01*
X106435000Y-53331192D01*
X106438072Y-53300000D01*
X106438072Y-52362595D01*
X108158282Y-52362595D01*
X108202039Y-52681675D01*
X108307205Y-52986088D01*
X108400186Y-53160044D01*
X108664587Y-53255808D01*
X109620395Y-52300000D01*
X109979605Y-52300000D01*
X110935413Y-53255808D01*
X111199814Y-53160044D01*
X111340704Y-52870429D01*
X111422384Y-52558892D01*
X111441718Y-52237405D01*
X111397961Y-51918325D01*
X111292795Y-51613912D01*
X111199814Y-51439956D01*
X110935413Y-51344192D01*
X109979605Y-52300000D01*
X109620395Y-52300000D01*
X108664587Y-51344192D01*
X108400186Y-51439956D01*
X108259296Y-51729571D01*
X108177616Y-52041108D01*
X108158282Y-52362595D01*
X106438072Y-52362595D01*
X106438072Y-52349131D01*
X106442911Y-52300000D01*
X106438072Y-52250869D01*
X106438072Y-51300000D01*
X106425812Y-51175518D01*
X106422497Y-51164587D01*
X108844192Y-51164587D01*
X109800000Y-52120395D01*
X110755808Y-51164587D01*
X110660044Y-50900186D01*
X110370429Y-50759296D01*
X110058892Y-50677616D01*
X109737405Y-50658282D01*
X109418325Y-50702039D01*
X109113912Y-50807205D01*
X108939956Y-50900186D01*
X108844192Y-51164587D01*
X106422497Y-51164587D01*
X106389502Y-51055820D01*
X106330537Y-50945506D01*
X106251185Y-50848815D01*
X106154494Y-50769463D01*
X106044180Y-50710498D01*
X105935000Y-50677379D01*
X105935000Y-48975751D01*
X105940491Y-48919999D01*
X105918577Y-48697501D01*
X105853676Y-48483553D01*
X105836831Y-48452038D01*
X105748284Y-48286377D01*
X105606449Y-48113551D01*
X105563141Y-48078009D01*
X103112132Y-45627000D01*
X117756600Y-45627000D01*
X117756601Y-66460469D01*
X117756601Y-66460469D01*
G37*
X117756601Y-66460469D02*
X116788072Y-65491941D01*
X116788072Y-63959000D01*
X116775812Y-63834518D01*
X116739502Y-63714820D01*
X116680537Y-63604506D01*
X116601185Y-63507815D01*
X116504494Y-63428463D01*
X116394180Y-63369498D01*
X116274482Y-63333188D01*
X116150000Y-63320928D01*
X113850000Y-63320928D01*
X113725518Y-63333188D01*
X113605820Y-63369498D01*
X113495506Y-63428463D01*
X113398815Y-63507815D01*
X113319463Y-63604506D01*
X113260498Y-63714820D01*
X113224188Y-63834518D01*
X113212913Y-63949000D01*
X112988072Y-63949000D01*
X112988072Y-61188000D01*
X112975812Y-61063518D01*
X112939502Y-60943820D01*
X112880537Y-60833506D01*
X112801185Y-60736815D01*
X112704494Y-60657463D01*
X112594180Y-60598498D01*
X112474482Y-60562188D01*
X112350000Y-60549928D01*
X111127000Y-60549928D01*
X111127000Y-58000000D01*
X111124560Y-57975224D01*
X111117333Y-57951399D01*
X111105597Y-57929443D01*
X111089803Y-57910197D01*
X111070557Y-57894403D01*
X111048601Y-57882667D01*
X111024776Y-57875440D01*
X111000000Y-57873000D01*
X106435000Y-57873000D01*
X106435000Y-53435413D01*
X108844192Y-53435413D01*
X108939956Y-53699814D01*
X109229571Y-53840704D01*
X109541108Y-53922384D01*
X109862595Y-53941718D01*
X110181675Y-53897961D01*
X110486088Y-53792795D01*
X110660044Y-53699814D01*
X110755808Y-53435413D01*
X109800000Y-52479605D01*
X108844192Y-53435413D01*
X106435000Y-53435413D01*
X106435000Y-53331192D01*
X106438072Y-53300000D01*
X106438072Y-52362595D01*
X108158282Y-52362595D01*
X108202039Y-52681675D01*
X108307205Y-52986088D01*
X108400186Y-53160044D01*
X108664587Y-53255808D01*
X109620395Y-52300000D01*
X109979605Y-52300000D01*
X110935413Y-53255808D01*
X111199814Y-53160044D01*
X111340704Y-52870429D01*
X111422384Y-52558892D01*
X111441718Y-52237405D01*
X111397961Y-51918325D01*
X111292795Y-51613912D01*
X111199814Y-51439956D01*
X110935413Y-51344192D01*
X109979605Y-52300000D01*
X109620395Y-52300000D01*
X108664587Y-51344192D01*
X108400186Y-51439956D01*
X108259296Y-51729571D01*
X108177616Y-52041108D01*
X108158282Y-52362595D01*
X106438072Y-52362595D01*
X106438072Y-52349131D01*
X106442911Y-52300000D01*
X106438072Y-52250869D01*
X106438072Y-51300000D01*
X106425812Y-51175518D01*
X106422497Y-51164587D01*
X108844192Y-51164587D01*
X109800000Y-52120395D01*
X110755808Y-51164587D01*
X110660044Y-50900186D01*
X110370429Y-50759296D01*
X110058892Y-50677616D01*
X109737405Y-50658282D01*
X109418325Y-50702039D01*
X109113912Y-50807205D01*
X108939956Y-50900186D01*
X108844192Y-51164587D01*
X106422497Y-51164587D01*
X106389502Y-51055820D01*
X106330537Y-50945506D01*
X106251185Y-50848815D01*
X106154494Y-50769463D01*
X106044180Y-50710498D01*
X105935000Y-50677379D01*
X105935000Y-48975751D01*
X105940491Y-48919999D01*
X105918577Y-48697501D01*
X105853676Y-48483553D01*
X105836831Y-48452038D01*
X105748284Y-48286377D01*
X105606449Y-48113551D01*
X105563141Y-48078009D01*
X103112132Y-45627000D01*
X117756600Y-45627000D01*
X117756601Y-66460469D01*
G36*
X97050928Y-47898000D02*
G01*
X97067992Y-48071254D01*
X97118528Y-48237850D01*
X97200595Y-48391386D01*
X97297704Y-48509714D01*
X97234595Y-48586613D01*
X97152528Y-48740149D01*
X97101992Y-48906745D01*
X97084928Y-49079999D01*
X97084928Y-49980001D01*
X97101992Y-50153255D01*
X97152528Y-50319851D01*
X97234595Y-50473387D01*
X97345038Y-50607962D01*
X97479613Y-50718405D01*
X97633149Y-50800472D01*
X97799745Y-50851008D01*
X97972999Y-50868072D01*
X98623001Y-50868072D01*
X98796255Y-50851008D01*
X98962851Y-50800472D01*
X99116387Y-50718405D01*
X99250962Y-50607962D01*
X99256342Y-50601406D01*
X99321815Y-50681185D01*
X99418506Y-50760537D01*
X99528820Y-50819502D01*
X99648518Y-50855812D01*
X99773000Y-50868072D01*
X100062250Y-50865000D01*
X100221000Y-50706250D01*
X100221000Y-49657000D01*
X100201000Y-49657000D01*
X100201000Y-49403000D01*
X100221000Y-49403000D01*
X100221000Y-49383000D01*
X100475000Y-49383000D01*
X100475000Y-49403000D01*
X100495000Y-49403000D01*
X100495000Y-49657000D01*
X100475000Y-49657000D01*
X100475000Y-50706250D01*
X100557999Y-50789249D01*
X100287248Y-50933969D01*
X100038286Y-51138286D01*
X99987080Y-51200681D01*
X96627000Y-54560762D01*
X96627000Y-47911823D01*
X96767627Y-47817859D01*
X96897861Y-47687625D01*
X97000185Y-47534486D01*
X97050928Y-47411981D01*
X97050928Y-47898000D01*
X97050928Y-47898000D01*
G37*
X97050928Y-47898000D02*
X97067992Y-48071254D01*
X97118528Y-48237850D01*
X97200595Y-48391386D01*
X97297704Y-48509714D01*
X97234595Y-48586613D01*
X97152528Y-48740149D01*
X97101992Y-48906745D01*
X97084928Y-49079999D01*
X97084928Y-49980001D01*
X97101992Y-50153255D01*
X97152528Y-50319851D01*
X97234595Y-50473387D01*
X97345038Y-50607962D01*
X97479613Y-50718405D01*
X97633149Y-50800472D01*
X97799745Y-50851008D01*
X97972999Y-50868072D01*
X98623001Y-50868072D01*
X98796255Y-50851008D01*
X98962851Y-50800472D01*
X99116387Y-50718405D01*
X99250962Y-50607962D01*
X99256342Y-50601406D01*
X99321815Y-50681185D01*
X99418506Y-50760537D01*
X99528820Y-50819502D01*
X99648518Y-50855812D01*
X99773000Y-50868072D01*
X100062250Y-50865000D01*
X100221000Y-50706250D01*
X100221000Y-49657000D01*
X100201000Y-49657000D01*
X100201000Y-49403000D01*
X100221000Y-49403000D01*
X100221000Y-49383000D01*
X100475000Y-49383000D01*
X100475000Y-49403000D01*
X100495000Y-49403000D01*
X100495000Y-49657000D01*
X100475000Y-49657000D01*
X100475000Y-50706250D01*
X100557999Y-50789249D01*
X100287248Y-50933969D01*
X100038286Y-51138286D01*
X99987080Y-51200681D01*
X96627000Y-54560762D01*
X96627000Y-47911823D01*
X96767627Y-47817859D01*
X96897861Y-47687625D01*
X97000185Y-47534486D01*
X97050928Y-47411981D01*
X97050928Y-47898000D01*
G36*
X103665000Y-49390132D02*
G01*
X103665001Y-50665000D01*
X102638000Y-50665000D01*
X102638000Y-49136822D01*
X102641676Y-49099499D01*
X102638000Y-49062177D01*
X102638000Y-49062167D01*
X102627003Y-48950514D01*
X102583546Y-48807253D01*
X102524882Y-48697502D01*
X102512974Y-48675223D01*
X102441799Y-48588497D01*
X102418001Y-48559499D01*
X102389004Y-48535702D01*
X101577072Y-47723771D01*
X101577072Y-47302204D01*
X103665000Y-49390132D01*
X103665000Y-49390132D01*
G37*
X103665000Y-49390132D02*
X103665001Y-50665000D01*
X102638000Y-50665000D01*
X102638000Y-49136822D01*
X102641676Y-49099499D01*
X102638000Y-49062177D01*
X102638000Y-49062167D01*
X102627003Y-48950514D01*
X102583546Y-48807253D01*
X102524882Y-48697502D01*
X102512974Y-48675223D01*
X102441799Y-48588497D01*
X102418001Y-48559499D01*
X102389004Y-48535702D01*
X101577072Y-47723771D01*
X101577072Y-47302204D01*
X103665000Y-49390132D01*
M02*
