G04 #@! TF.GenerationSoftware,KiCad,Pcbnew,(5.1.4)-1*
G04 #@! TF.CreationDate,2023-01-05T18:52:54+01:00*
G04 #@! TF.ProjectId,RasPi-HAT,52617350-692d-4484-9154-2e6b69636164,V00.20*
G04 #@! TF.SameCoordinates,Original*
G04 #@! TF.FileFunction,Copper,L2,Bot*
G04 #@! TF.FilePolarity,Positive*
%FSLAX46Y46*%
G04 Gerber Fmt 4.6, Leading zero omitted, Abs format (unit mm)*
G04 Created by KiCad (PCBNEW (5.1.4)-1) date 2023-01-05 18:52:54*
%MOMM*%
%LPD*%
G04 APERTURE LIST*
%ADD10C,2.500000*%
%ADD11R,1.000000X1.500000*%
%ADD12C,0.500000*%
%ADD13C,0.100000*%
%ADD14O,1.700000X1.700000*%
%ADD15R,1.700000X1.700000*%
%ADD16C,2.000000*%
%ADD17R,2.000000X2.000000*%
%ADD18C,0.600000*%
%ADD19C,0.250000*%
%ADD20C,2.000000*%
%ADD21C,1.000000*%
%ADD22C,0.254000*%
G04 APERTURE END LIST*
D10*
X56600000Y-75800000D03*
X56600000Y-81550000D03*
X56600000Y-61300000D03*
X56600000Y-67050000D03*
X56600000Y-46800000D03*
X56600000Y-52550000D03*
D11*
X90020000Y-45730000D03*
D12*
X91320000Y-45730000D03*
D13*
G36*
X91320000Y-44980602D02*
G01*
X91344534Y-44980602D01*
X91393365Y-44985412D01*
X91441490Y-44994984D01*
X91488445Y-45009228D01*
X91533778Y-45028005D01*
X91577051Y-45051136D01*
X91617850Y-45078396D01*
X91655779Y-45109524D01*
X91690476Y-45144221D01*
X91721604Y-45182150D01*
X91748864Y-45222949D01*
X91771995Y-45266222D01*
X91790772Y-45311555D01*
X91805016Y-45358510D01*
X91814588Y-45406635D01*
X91819398Y-45455466D01*
X91819398Y-45480000D01*
X91820000Y-45480000D01*
X91820000Y-45980000D01*
X91819398Y-45980000D01*
X91819398Y-46004534D01*
X91814588Y-46053365D01*
X91805016Y-46101490D01*
X91790772Y-46148445D01*
X91771995Y-46193778D01*
X91748864Y-46237051D01*
X91721604Y-46277850D01*
X91690476Y-46315779D01*
X91655779Y-46350476D01*
X91617850Y-46381604D01*
X91577051Y-46408864D01*
X91533778Y-46431995D01*
X91488445Y-46450772D01*
X91441490Y-46465016D01*
X91393365Y-46474588D01*
X91344534Y-46479398D01*
X91320000Y-46479398D01*
X91320000Y-46480000D01*
X90770000Y-46480000D01*
X90770000Y-44980000D01*
X91320000Y-44980000D01*
X91320000Y-44980602D01*
X91320000Y-44980602D01*
G37*
D12*
X88720000Y-45730000D03*
D13*
G36*
X89270000Y-46480000D02*
G01*
X88720000Y-46480000D01*
X88720000Y-46479398D01*
X88695466Y-46479398D01*
X88646635Y-46474588D01*
X88598510Y-46465016D01*
X88551555Y-46450772D01*
X88506222Y-46431995D01*
X88462949Y-46408864D01*
X88422150Y-46381604D01*
X88384221Y-46350476D01*
X88349524Y-46315779D01*
X88318396Y-46277850D01*
X88291136Y-46237051D01*
X88268005Y-46193778D01*
X88249228Y-46148445D01*
X88234984Y-46101490D01*
X88225412Y-46053365D01*
X88220602Y-46004534D01*
X88220602Y-45980000D01*
X88220000Y-45980000D01*
X88220000Y-45480000D01*
X88220602Y-45480000D01*
X88220602Y-45455466D01*
X88225412Y-45406635D01*
X88234984Y-45358510D01*
X88249228Y-45311555D01*
X88268005Y-45266222D01*
X88291136Y-45222949D01*
X88318396Y-45182150D01*
X88349524Y-45144221D01*
X88384221Y-45109524D01*
X88422150Y-45078396D01*
X88462949Y-45051136D01*
X88506222Y-45028005D01*
X88551555Y-45009228D01*
X88598510Y-44994984D01*
X88646635Y-44985412D01*
X88695466Y-44980602D01*
X88720000Y-44980602D01*
X88720000Y-44980000D01*
X89270000Y-44980000D01*
X89270000Y-46480000D01*
X89270000Y-46480000D01*
G37*
D11*
X85460000Y-45730000D03*
D12*
X86760000Y-45730000D03*
D13*
G36*
X86760000Y-44980602D02*
G01*
X86784534Y-44980602D01*
X86833365Y-44985412D01*
X86881490Y-44994984D01*
X86928445Y-45009228D01*
X86973778Y-45028005D01*
X87017051Y-45051136D01*
X87057850Y-45078396D01*
X87095779Y-45109524D01*
X87130476Y-45144221D01*
X87161604Y-45182150D01*
X87188864Y-45222949D01*
X87211995Y-45266222D01*
X87230772Y-45311555D01*
X87245016Y-45358510D01*
X87254588Y-45406635D01*
X87259398Y-45455466D01*
X87259398Y-45480000D01*
X87260000Y-45480000D01*
X87260000Y-45980000D01*
X87259398Y-45980000D01*
X87259398Y-46004534D01*
X87254588Y-46053365D01*
X87245016Y-46101490D01*
X87230772Y-46148445D01*
X87211995Y-46193778D01*
X87188864Y-46237051D01*
X87161604Y-46277850D01*
X87130476Y-46315779D01*
X87095779Y-46350476D01*
X87057850Y-46381604D01*
X87017051Y-46408864D01*
X86973778Y-46431995D01*
X86928445Y-46450772D01*
X86881490Y-46465016D01*
X86833365Y-46474588D01*
X86784534Y-46479398D01*
X86760000Y-46479398D01*
X86760000Y-46480000D01*
X86210000Y-46480000D01*
X86210000Y-44980000D01*
X86760000Y-44980000D01*
X86760000Y-44980602D01*
X86760000Y-44980602D01*
G37*
D12*
X84160000Y-45730000D03*
D13*
G36*
X84710000Y-46480000D02*
G01*
X84160000Y-46480000D01*
X84160000Y-46479398D01*
X84135466Y-46479398D01*
X84086635Y-46474588D01*
X84038510Y-46465016D01*
X83991555Y-46450772D01*
X83946222Y-46431995D01*
X83902949Y-46408864D01*
X83862150Y-46381604D01*
X83824221Y-46350476D01*
X83789524Y-46315779D01*
X83758396Y-46277850D01*
X83731136Y-46237051D01*
X83708005Y-46193778D01*
X83689228Y-46148445D01*
X83674984Y-46101490D01*
X83665412Y-46053365D01*
X83660602Y-46004534D01*
X83660602Y-45980000D01*
X83660000Y-45980000D01*
X83660000Y-45480000D01*
X83660602Y-45480000D01*
X83660602Y-45455466D01*
X83665412Y-45406635D01*
X83674984Y-45358510D01*
X83689228Y-45311555D01*
X83708005Y-45266222D01*
X83731136Y-45222949D01*
X83758396Y-45182150D01*
X83789524Y-45144221D01*
X83824221Y-45109524D01*
X83862150Y-45078396D01*
X83902949Y-45051136D01*
X83946222Y-45028005D01*
X83991555Y-45009228D01*
X84038510Y-44994984D01*
X84086635Y-44985412D01*
X84135466Y-44980602D01*
X84160000Y-44980602D01*
X84160000Y-44980000D01*
X84710000Y-44980000D01*
X84710000Y-46480000D01*
X84710000Y-46480000D01*
G37*
D11*
X73130000Y-45860000D03*
D12*
X74430000Y-45860000D03*
D13*
G36*
X74430000Y-45110602D02*
G01*
X74454534Y-45110602D01*
X74503365Y-45115412D01*
X74551490Y-45124984D01*
X74598445Y-45139228D01*
X74643778Y-45158005D01*
X74687051Y-45181136D01*
X74727850Y-45208396D01*
X74765779Y-45239524D01*
X74800476Y-45274221D01*
X74831604Y-45312150D01*
X74858864Y-45352949D01*
X74881995Y-45396222D01*
X74900772Y-45441555D01*
X74915016Y-45488510D01*
X74924588Y-45536635D01*
X74929398Y-45585466D01*
X74929398Y-45610000D01*
X74930000Y-45610000D01*
X74930000Y-46110000D01*
X74929398Y-46110000D01*
X74929398Y-46134534D01*
X74924588Y-46183365D01*
X74915016Y-46231490D01*
X74900772Y-46278445D01*
X74881995Y-46323778D01*
X74858864Y-46367051D01*
X74831604Y-46407850D01*
X74800476Y-46445779D01*
X74765779Y-46480476D01*
X74727850Y-46511604D01*
X74687051Y-46538864D01*
X74643778Y-46561995D01*
X74598445Y-46580772D01*
X74551490Y-46595016D01*
X74503365Y-46604588D01*
X74454534Y-46609398D01*
X74430000Y-46609398D01*
X74430000Y-46610000D01*
X73880000Y-46610000D01*
X73880000Y-45110000D01*
X74430000Y-45110000D01*
X74430000Y-45110602D01*
X74430000Y-45110602D01*
G37*
D12*
X71830000Y-45860000D03*
D13*
G36*
X72380000Y-46610000D02*
G01*
X71830000Y-46610000D01*
X71830000Y-46609398D01*
X71805466Y-46609398D01*
X71756635Y-46604588D01*
X71708510Y-46595016D01*
X71661555Y-46580772D01*
X71616222Y-46561995D01*
X71572949Y-46538864D01*
X71532150Y-46511604D01*
X71494221Y-46480476D01*
X71459524Y-46445779D01*
X71428396Y-46407850D01*
X71401136Y-46367051D01*
X71378005Y-46323778D01*
X71359228Y-46278445D01*
X71344984Y-46231490D01*
X71335412Y-46183365D01*
X71330602Y-46134534D01*
X71330602Y-46110000D01*
X71330000Y-46110000D01*
X71330000Y-45610000D01*
X71330602Y-45610000D01*
X71330602Y-45585466D01*
X71335412Y-45536635D01*
X71344984Y-45488510D01*
X71359228Y-45441555D01*
X71378005Y-45396222D01*
X71401136Y-45352949D01*
X71428396Y-45312150D01*
X71459524Y-45274221D01*
X71494221Y-45239524D01*
X71532150Y-45208396D01*
X71572949Y-45181136D01*
X71616222Y-45158005D01*
X71661555Y-45139228D01*
X71708510Y-45124984D01*
X71756635Y-45115412D01*
X71805466Y-45110602D01*
X71830000Y-45110602D01*
X71830000Y-45110000D01*
X72380000Y-45110000D01*
X72380000Y-46610000D01*
X72380000Y-46610000D01*
G37*
D11*
X68580000Y-45860000D03*
D12*
X69880000Y-45860000D03*
D13*
G36*
X69880000Y-45110602D02*
G01*
X69904534Y-45110602D01*
X69953365Y-45115412D01*
X70001490Y-45124984D01*
X70048445Y-45139228D01*
X70093778Y-45158005D01*
X70137051Y-45181136D01*
X70177850Y-45208396D01*
X70215779Y-45239524D01*
X70250476Y-45274221D01*
X70281604Y-45312150D01*
X70308864Y-45352949D01*
X70331995Y-45396222D01*
X70350772Y-45441555D01*
X70365016Y-45488510D01*
X70374588Y-45536635D01*
X70379398Y-45585466D01*
X70379398Y-45610000D01*
X70380000Y-45610000D01*
X70380000Y-46110000D01*
X70379398Y-46110000D01*
X70379398Y-46134534D01*
X70374588Y-46183365D01*
X70365016Y-46231490D01*
X70350772Y-46278445D01*
X70331995Y-46323778D01*
X70308864Y-46367051D01*
X70281604Y-46407850D01*
X70250476Y-46445779D01*
X70215779Y-46480476D01*
X70177850Y-46511604D01*
X70137051Y-46538864D01*
X70093778Y-46561995D01*
X70048445Y-46580772D01*
X70001490Y-46595016D01*
X69953365Y-46604588D01*
X69904534Y-46609398D01*
X69880000Y-46609398D01*
X69880000Y-46610000D01*
X69330000Y-46610000D01*
X69330000Y-45110000D01*
X69880000Y-45110000D01*
X69880000Y-45110602D01*
X69880000Y-45110602D01*
G37*
D12*
X67280000Y-45860000D03*
D13*
G36*
X67830000Y-46610000D02*
G01*
X67280000Y-46610000D01*
X67280000Y-46609398D01*
X67255466Y-46609398D01*
X67206635Y-46604588D01*
X67158510Y-46595016D01*
X67111555Y-46580772D01*
X67066222Y-46561995D01*
X67022949Y-46538864D01*
X66982150Y-46511604D01*
X66944221Y-46480476D01*
X66909524Y-46445779D01*
X66878396Y-46407850D01*
X66851136Y-46367051D01*
X66828005Y-46323778D01*
X66809228Y-46278445D01*
X66794984Y-46231490D01*
X66785412Y-46183365D01*
X66780602Y-46134534D01*
X66780602Y-46110000D01*
X66780000Y-46110000D01*
X66780000Y-45610000D01*
X66780602Y-45610000D01*
X66780602Y-45585466D01*
X66785412Y-45536635D01*
X66794984Y-45488510D01*
X66809228Y-45441555D01*
X66828005Y-45396222D01*
X66851136Y-45352949D01*
X66878396Y-45312150D01*
X66909524Y-45274221D01*
X66944221Y-45239524D01*
X66982150Y-45208396D01*
X67022949Y-45181136D01*
X67066222Y-45158005D01*
X67111555Y-45139228D01*
X67158510Y-45124984D01*
X67206635Y-45115412D01*
X67255466Y-45110602D01*
X67280000Y-45110602D01*
X67280000Y-45110000D01*
X67830000Y-45110000D01*
X67830000Y-46610000D01*
X67830000Y-46610000D01*
G37*
D14*
X110078520Y-39608760D03*
X110078520Y-42148760D03*
X107538520Y-39608760D03*
X107538520Y-42148760D03*
X104998520Y-39608760D03*
X104998520Y-42148760D03*
X102458520Y-39608760D03*
X102458520Y-42148760D03*
X99918520Y-39608760D03*
X99918520Y-42148760D03*
X97378520Y-39608760D03*
X97378520Y-42148760D03*
X94838520Y-39608760D03*
X94838520Y-42148760D03*
X92298520Y-39608760D03*
X92298520Y-42148760D03*
X89758520Y-39608760D03*
X89758520Y-42148760D03*
X87218520Y-39608760D03*
X87218520Y-42148760D03*
X84678520Y-39608760D03*
X84678520Y-42148760D03*
X82138520Y-39608760D03*
X82138520Y-42148760D03*
X79598520Y-39608760D03*
X79598520Y-42148760D03*
X77058520Y-39608760D03*
X77058520Y-42148760D03*
X74518520Y-39608760D03*
X74518520Y-42148760D03*
X71978520Y-39608760D03*
X71978520Y-42148760D03*
X69438520Y-39608760D03*
X69438520Y-42148760D03*
X66898520Y-39608760D03*
X66898520Y-42148760D03*
X64358520Y-39608760D03*
X64358520Y-42148760D03*
X61818520Y-39608760D03*
D15*
X61818520Y-42148760D03*
D16*
X109800000Y-52300000D03*
D17*
X104800000Y-52300000D03*
D16*
X107000000Y-90400000D03*
X107000000Y-85400000D03*
D15*
X96500000Y-85660000D03*
X96500000Y-88200000D03*
D18*
X77370000Y-56700000D03*
X80859000Y-53471000D03*
X84400000Y-58500000D03*
X79502000Y-53848000D03*
X78635000Y-56865000D03*
X81710000Y-57730000D03*
X79900000Y-65250000D03*
X80750000Y-45000000D03*
X95200040Y-50269960D03*
X80300000Y-85800000D03*
X100330000Y-49530000D03*
X76100000Y-65250000D03*
X102870000Y-76200000D03*
X105410000Y-76200000D03*
X105410000Y-81280000D03*
X102870000Y-81280000D03*
X100330000Y-81280000D03*
X104140000Y-72390000D03*
X101600000Y-72390000D03*
X106680000Y-72390000D03*
X106680000Y-80010000D03*
X105410000Y-78740000D03*
X106680000Y-77470000D03*
X104140000Y-77470000D03*
X106680000Y-74930000D03*
X105410000Y-73660000D03*
X104140000Y-74930000D03*
X104140000Y-80010000D03*
X102870000Y-78740000D03*
X102870000Y-73660000D03*
X101600000Y-74930000D03*
X101600000Y-77470000D03*
X101600000Y-80010000D03*
X100330000Y-78740000D03*
X100330000Y-76200000D03*
X100330000Y-73660000D03*
X113700000Y-76800000D03*
X115000000Y-69509000D03*
X115000000Y-71436000D03*
X115975001Y-73508999D03*
X115975001Y-75540999D03*
X106100000Y-92300000D03*
X110800000Y-89500000D03*
X112522000Y-86106000D03*
X116586000Y-82296000D03*
X114808000Y-84328000D03*
X116840000Y-85598000D03*
X103886000Y-84074000D03*
X101346000Y-84074000D03*
X98300000Y-83200000D03*
X101200000Y-87200000D03*
X97536000Y-77470000D03*
X97536000Y-73406000D03*
X110236000Y-49530000D03*
X113284000Y-49530000D03*
X116332000Y-49530000D03*
X113284000Y-52324000D03*
X116332000Y-52324000D03*
X116332000Y-55372000D03*
X113284000Y-55372000D03*
X113284000Y-58166000D03*
X116332000Y-58166000D03*
X116586000Y-60960000D03*
X114300000Y-61976000D03*
X112014000Y-68834000D03*
X112014000Y-70866000D03*
X106500000Y-49500000D03*
X103500000Y-49500000D03*
X97900000Y-91700000D03*
X76450000Y-85800000D03*
X82900000Y-58200000D03*
X74422000Y-55278000D03*
X95000000Y-46000000D03*
X95500000Y-46500000D03*
X96171599Y-47091597D03*
X78000000Y-77250000D03*
X82000000Y-77750000D03*
X82250000Y-79750000D03*
X79502000Y-77248000D03*
X74422000Y-75078000D03*
X84472000Y-75078000D03*
X64770000Y-81462000D03*
X63500000Y-81400000D03*
X62200000Y-81400000D03*
X61400000Y-80600000D03*
X60650000Y-79850000D03*
X69810000Y-45860000D03*
X82750000Y-45340000D03*
X77380000Y-65250000D03*
X78700000Y-65250000D03*
X77750000Y-85800000D03*
X79050000Y-85800000D03*
D19*
X77370000Y-56275736D02*
X77370000Y-56700000D01*
X77370000Y-55054998D02*
X77370000Y-56275736D01*
X79201999Y-53222999D02*
X77370000Y-55054998D01*
X79802001Y-53222999D02*
X79201999Y-53222999D01*
X80050002Y-53471000D02*
X79802001Y-53222999D01*
X80859000Y-53471000D02*
X80050002Y-53471000D01*
X80859000Y-54959000D02*
X80859000Y-53471000D01*
X84400000Y-58500000D02*
X80859000Y-54959000D01*
X78635000Y-54715000D02*
X79502000Y-53848000D01*
X78635000Y-56865000D02*
X78635000Y-54715000D01*
X79500000Y-57730000D02*
X78635000Y-56865000D01*
X81710000Y-57730000D02*
X79500000Y-57730000D01*
X76810000Y-47010000D02*
X76810000Y-44990000D01*
X79900000Y-65250000D02*
X90150000Y-65250000D01*
X90150000Y-65250000D02*
X93400000Y-62000000D01*
X93400000Y-62000000D02*
X93400000Y-52053590D01*
X93400000Y-52053590D02*
X89177370Y-47830960D01*
X89177370Y-47830960D02*
X77630960Y-47830960D01*
X77630960Y-47830960D02*
X76810000Y-47010000D01*
X95200040Y-50269960D02*
X95200040Y-77173970D01*
X80724264Y-85800000D02*
X80300000Y-85800000D01*
X86574010Y-85800000D02*
X80724264Y-85800000D01*
X95200040Y-77173970D02*
X86574010Y-85800000D01*
X80750000Y-43537280D02*
X80750000Y-45000000D01*
X82138520Y-42148760D02*
X80750000Y-43537280D01*
X78287280Y-43537280D02*
X78275000Y-43525000D01*
X80750000Y-43537280D02*
X78287280Y-43537280D01*
X76810000Y-44990000D02*
X78275000Y-43525000D01*
D20*
X109800000Y-52300000D02*
X113500000Y-56000000D01*
X113500000Y-83900000D02*
X113500000Y-74500000D01*
X107000000Y-90400000D02*
X113500000Y-83900000D01*
X113500000Y-56000000D02*
X113500000Y-74500000D01*
D19*
X80897809Y-63724979D02*
X81072800Y-63899970D01*
X76100000Y-65250000D02*
X77625021Y-63724979D01*
X77625021Y-63724979D02*
X80897809Y-63724979D01*
X81072800Y-63899970D02*
X82000000Y-63899970D01*
X82000000Y-63899970D02*
X87000000Y-63899970D01*
X87000000Y-63899970D02*
X89590800Y-63899970D01*
X89590800Y-63899970D02*
X89945385Y-63545385D01*
X89945385Y-63545385D02*
X92049970Y-61440800D01*
X92049970Y-61440800D02*
X92049970Y-61100000D01*
X66686239Y-43323761D02*
X70803519Y-43323761D01*
X70803519Y-43323761D02*
X71978520Y-42148760D01*
X92049970Y-52629970D02*
X88600990Y-49180990D01*
X92049970Y-61440800D02*
X92049970Y-52629970D01*
X88600990Y-49180990D02*
X67040990Y-49180990D01*
X67040990Y-49180990D02*
X65820000Y-47960000D01*
X65820000Y-47960000D02*
X65820000Y-44190000D01*
X65820000Y-44190000D02*
X66686239Y-43323761D01*
X83313521Y-41774757D02*
X83313521Y-43516479D01*
X84678520Y-39608760D02*
X84678520Y-40409758D01*
X84678520Y-40409758D02*
X83313521Y-41774757D01*
X83313521Y-43516479D02*
X81380000Y-45450000D01*
X81380000Y-46780000D02*
X81980950Y-47380950D01*
X81380000Y-45450000D02*
X81380000Y-46780000D01*
X81980950Y-47380950D02*
X89363771Y-47380951D01*
X89363771Y-47380951D02*
X93850010Y-51867190D01*
X77975021Y-84274979D02*
X76749999Y-85500001D01*
X76749999Y-85500001D02*
X76450000Y-85800000D01*
X86189801Y-84274979D02*
X77975021Y-84274979D01*
X93850010Y-76614770D02*
X86189801Y-84274979D01*
X93850010Y-51867190D02*
X93850010Y-76614770D01*
X70288519Y-38758761D02*
X69438520Y-39608760D01*
X70613521Y-38433759D02*
X70288519Y-38758761D01*
X72542521Y-38433759D02*
X70613521Y-38433759D01*
X73153521Y-40147351D02*
X73153521Y-39044759D01*
X73789931Y-40783761D02*
X73153521Y-40147351D01*
X74892523Y-40783761D02*
X73789931Y-40783761D01*
X75693521Y-41584759D02*
X74892523Y-40783761D01*
X75693521Y-42712761D02*
X75693521Y-41584759D01*
X75082521Y-43323761D02*
X75693521Y-42712761D01*
X73518647Y-43323761D02*
X75082521Y-43323761D01*
X73153521Y-39044759D02*
X72542521Y-38433759D01*
X71830000Y-45012408D02*
X73518647Y-43323761D01*
X71830000Y-45860000D02*
X71830000Y-45012408D01*
X72828519Y-40458759D02*
X71978520Y-39608760D01*
X73153521Y-40783761D02*
X72828519Y-40458759D01*
X73153521Y-42712761D02*
X73153521Y-40783761D01*
X72092511Y-43773771D02*
X73153521Y-42712761D01*
X68831227Y-43773771D02*
X72092511Y-43773771D01*
X67280000Y-45324998D02*
X68831227Y-43773771D01*
X67280000Y-45860000D02*
X67280000Y-45324998D01*
X82475736Y-58200000D02*
X82025736Y-58650000D01*
X82900000Y-58200000D02*
X82475736Y-58200000D01*
X82025736Y-58650000D02*
X77700000Y-58650000D01*
X77700000Y-58650000D02*
X74450000Y-55400000D01*
D21*
X96500000Y-85660000D02*
X96500000Y-47419998D01*
X96500000Y-47419998D02*
X96171599Y-47091597D01*
X96419998Y-47419998D02*
X95500000Y-46500000D01*
X96500000Y-47419998D02*
X96419998Y-47419998D01*
X95500000Y-46500000D02*
X95030236Y-46030236D01*
X96171599Y-47091597D02*
X96171599Y-47091597D01*
D19*
X79000000Y-76250000D02*
X80750000Y-76250000D01*
X78000000Y-77250000D02*
X79000000Y-76250000D01*
X80750000Y-76250000D02*
X82000000Y-77500000D01*
X82000000Y-77500000D02*
X82000000Y-77750000D01*
X82000000Y-77750000D02*
X82000000Y-77750000D01*
X79748000Y-77248000D02*
X79502000Y-77248000D01*
X82250000Y-79750000D02*
X79748000Y-77248000D01*
X74422000Y-75078000D02*
X84472000Y-75078000D01*
D21*
X56600000Y-75800000D02*
X57849999Y-77049999D01*
X57849999Y-77049999D02*
X62200000Y-81400000D01*
X62200000Y-81400000D02*
X63500000Y-81400000D01*
X63500000Y-81400000D02*
X64400000Y-81400000D01*
D19*
X86760000Y-45730000D02*
X89040000Y-43450000D01*
X101283519Y-40973759D02*
X101608521Y-41298761D01*
X94274519Y-40973759D02*
X101283519Y-40973759D01*
X93663519Y-41584759D02*
X94274519Y-40973759D01*
X93663519Y-42712761D02*
X93663519Y-41584759D01*
X92926280Y-43450000D02*
X93663519Y-42712761D01*
X101608521Y-41298761D02*
X102458520Y-42148760D01*
X89040000Y-43450000D02*
X92926280Y-43450000D01*
X101404929Y-40458759D02*
X100768519Y-40458759D01*
X101729931Y-40783761D02*
X101404929Y-40458759D01*
X103022521Y-40783761D02*
X101729931Y-40783761D01*
X103633521Y-41394761D02*
X103022521Y-40783761D01*
X103633521Y-42776479D02*
X103633521Y-41394761D01*
X101204774Y-45205226D02*
X103633521Y-42776479D01*
X91844774Y-45205226D02*
X101204774Y-45205226D01*
X100768519Y-40458759D02*
X99918520Y-39608760D01*
X91320000Y-45730000D02*
X91844774Y-45205226D01*
X91734519Y-38433759D02*
X93663519Y-38433759D01*
X91123519Y-39044759D02*
X91734519Y-38433759D01*
X91123519Y-39982763D02*
X91123519Y-39044759D01*
X90322521Y-40783761D02*
X91123519Y-39982763D01*
X89384517Y-40783761D02*
X90322521Y-40783761D01*
X88583519Y-41584759D02*
X89384517Y-40783761D01*
X88583519Y-42712761D02*
X88583519Y-41584759D01*
X93663519Y-38433759D02*
X93988521Y-38758761D01*
X93988521Y-38758761D02*
X94838520Y-39608760D01*
X84160000Y-45730000D02*
X84160000Y-44882408D01*
X84160000Y-44882408D02*
X84932408Y-44110000D01*
X87186280Y-44110000D02*
X88583519Y-42712761D01*
X84932408Y-44110000D02*
X87186280Y-44110000D01*
X94838520Y-43350841D02*
X94838520Y-42148760D01*
X94289352Y-43900009D02*
X94838520Y-43350841D01*
X89702399Y-43900009D02*
X94289352Y-43900009D01*
X88720000Y-44882408D02*
X89702399Y-43900009D01*
X88720000Y-45730000D02*
X88720000Y-44882408D01*
X88908521Y-38758761D02*
X89758520Y-39608760D01*
X88583519Y-38433759D02*
X88908521Y-38758761D01*
X79034519Y-38433759D02*
X88583519Y-38433759D01*
X78423519Y-39044759D02*
X79034519Y-38433759D01*
X78423519Y-42466481D02*
X78423519Y-39044759D01*
X75030000Y-45860000D02*
X78423519Y-42466481D01*
X74430000Y-45860000D02*
X75030000Y-45860000D01*
X87588940Y-42519180D02*
X87218520Y-42148760D01*
X87218520Y-42148760D02*
X86043519Y-43323761D01*
X86043519Y-43323761D02*
X85082237Y-43323761D01*
X83365997Y-45040001D02*
X85082237Y-43323761D01*
X83049999Y-45040001D02*
X83365997Y-45040001D01*
X82750000Y-45340000D02*
X83049999Y-45040001D01*
X89777200Y-64349980D02*
X90263590Y-63863590D01*
X77679999Y-64950001D02*
X77380000Y-65250000D01*
X78455011Y-64174989D02*
X77679999Y-64950001D01*
X80711409Y-64174989D02*
X78455011Y-64174989D01*
X80886400Y-64349980D02*
X80711409Y-64174989D01*
X89777200Y-64349980D02*
X80886400Y-64349980D01*
X89777200Y-64349980D02*
X92499980Y-61627200D01*
X92499980Y-53170020D02*
X92499979Y-52443569D01*
X92499980Y-61627200D02*
X92499980Y-53170020D01*
X92499979Y-52443569D02*
X88787390Y-48730980D01*
X68580000Y-46860000D02*
X68580000Y-45860000D01*
X70450980Y-48730980D02*
X68580000Y-46860000D01*
X88787390Y-48730980D02*
X70450980Y-48730980D01*
X78999999Y-64950001D02*
X78700000Y-65250000D01*
X79325001Y-64624999D02*
X78999999Y-64950001D01*
X80525009Y-64624999D02*
X79325001Y-64624999D01*
X80700000Y-64799990D02*
X80525009Y-64624999D01*
X92949990Y-61813600D02*
X89963600Y-64799990D01*
X89963600Y-64799990D02*
X80700000Y-64799990D01*
X92949990Y-52257170D02*
X92949990Y-52609990D01*
X91080000Y-50387180D02*
X92949990Y-52257170D01*
X91080000Y-50370000D02*
X91080000Y-50387180D01*
X92949990Y-52609990D02*
X92949990Y-61813600D01*
X73130000Y-45860000D02*
X73130000Y-47590000D01*
X73130000Y-47590000D02*
X73820970Y-48280970D01*
X73820970Y-48280970D02*
X88990970Y-48280970D01*
X88990970Y-48280970D02*
X91080000Y-50370000D01*
X78825011Y-84724989D02*
X86376201Y-84724989D01*
X77750000Y-85800000D02*
X78825011Y-84724989D01*
X86376201Y-84724989D02*
X94300020Y-76801170D01*
X94300020Y-76801170D02*
X94300020Y-54200020D01*
X94300020Y-54200020D02*
X94300018Y-54200018D01*
X85460000Y-45730000D02*
X85460000Y-46189636D01*
X89550172Y-46930942D02*
X94300020Y-51680790D01*
X86201306Y-46930942D02*
X89550172Y-46930942D01*
X85460000Y-46189636D02*
X86201306Y-46930942D01*
X94300020Y-52459980D02*
X94300018Y-52459982D01*
X94300020Y-51680790D02*
X94300020Y-52459980D01*
X94300018Y-54200018D02*
X94300018Y-52459982D01*
X94750030Y-55350030D02*
X94750030Y-55200000D01*
X79349999Y-85500001D02*
X79050000Y-85800000D01*
X79675001Y-85174999D02*
X79349999Y-85500001D01*
X86562601Y-85174999D02*
X79675001Y-85174999D01*
X94750030Y-76987570D02*
X86562601Y-85174999D01*
X94750030Y-55350030D02*
X94750030Y-76987570D01*
X90020000Y-45730000D02*
X90020000Y-46764360D01*
X94750030Y-51494390D02*
X94750030Y-52450030D01*
X90020000Y-46764360D02*
X94750030Y-51494390D01*
X94750030Y-55350030D02*
X94750030Y-52450030D01*
D22*
G36*
X117756601Y-88285300D02*
G01*
X117448175Y-87823707D01*
X116998693Y-87374225D01*
X116470158Y-87021070D01*
X115882881Y-86777812D01*
X115259432Y-86653800D01*
X114623768Y-86653800D01*
X114000319Y-86777812D01*
X113413042Y-87021070D01*
X112884507Y-87374225D01*
X112435025Y-87823707D01*
X112081870Y-88352242D01*
X111838612Y-88939519D01*
X111714600Y-89562968D01*
X111714600Y-90198632D01*
X111838612Y-90822081D01*
X112081870Y-91409358D01*
X112435025Y-91937893D01*
X112884507Y-92387375D01*
X113346099Y-92695800D01*
X96647000Y-92695800D01*
X96647000Y-91535413D01*
X106044192Y-91535413D01*
X106139956Y-91799814D01*
X106429571Y-91940704D01*
X106741108Y-92022384D01*
X107062595Y-92041718D01*
X107381675Y-91997961D01*
X107686088Y-91892795D01*
X107860044Y-91799814D01*
X107955808Y-91535413D01*
X107000000Y-90579605D01*
X106044192Y-91535413D01*
X96647000Y-91535413D01*
X96647000Y-90462595D01*
X105358282Y-90462595D01*
X105402039Y-90781675D01*
X105507205Y-91086088D01*
X105600186Y-91260044D01*
X105864587Y-91355808D01*
X106820395Y-90400000D01*
X107179605Y-90400000D01*
X108135413Y-91355808D01*
X108399814Y-91260044D01*
X108540704Y-90970429D01*
X108622384Y-90658892D01*
X108641718Y-90337405D01*
X108597961Y-90018325D01*
X108492795Y-89713912D01*
X108399814Y-89539956D01*
X108135413Y-89444192D01*
X107179605Y-90400000D01*
X106820395Y-90400000D01*
X105864587Y-89444192D01*
X105600186Y-89539956D01*
X105459296Y-89829571D01*
X105377616Y-90141108D01*
X105358282Y-90462595D01*
X96647000Y-90462595D01*
X96647000Y-89688072D01*
X97350000Y-89688072D01*
X97474482Y-89675812D01*
X97594180Y-89639502D01*
X97704494Y-89580537D01*
X97801185Y-89501185D01*
X97880537Y-89404494D01*
X97939502Y-89294180D01*
X97948478Y-89264587D01*
X106044192Y-89264587D01*
X107000000Y-90220395D01*
X107955808Y-89264587D01*
X107860044Y-89000186D01*
X107570429Y-88859296D01*
X107258892Y-88777616D01*
X106937405Y-88758282D01*
X106618325Y-88802039D01*
X106313912Y-88907205D01*
X106139956Y-89000186D01*
X106044192Y-89264587D01*
X97948478Y-89264587D01*
X97975812Y-89174482D01*
X97988072Y-89050000D01*
X97988072Y-87350000D01*
X97975812Y-87225518D01*
X97939502Y-87105820D01*
X97880537Y-86995506D01*
X97826778Y-86930000D01*
X97880537Y-86864494D01*
X97939502Y-86754180D01*
X97975812Y-86634482D01*
X97988072Y-86510000D01*
X97988072Y-85238967D01*
X105365000Y-85238967D01*
X105365000Y-85561033D01*
X105427832Y-85876912D01*
X105551082Y-86174463D01*
X105730013Y-86442252D01*
X105957748Y-86669987D01*
X106225537Y-86848918D01*
X106523088Y-86972168D01*
X106838967Y-87035000D01*
X107161033Y-87035000D01*
X107476912Y-86972168D01*
X107774463Y-86848918D01*
X108042252Y-86669987D01*
X108269987Y-86442252D01*
X108448918Y-86174463D01*
X108572168Y-85876912D01*
X108635000Y-85561033D01*
X108635000Y-85238967D01*
X108572168Y-84923088D01*
X108448918Y-84625537D01*
X108269987Y-84357748D01*
X108042252Y-84130013D01*
X107774463Y-83951082D01*
X107476912Y-83827832D01*
X107161033Y-83765000D01*
X106838967Y-83765000D01*
X106523088Y-83827832D01*
X106225537Y-83951082D01*
X105957748Y-84130013D01*
X105730013Y-84357748D01*
X105551082Y-84625537D01*
X105427832Y-84923088D01*
X105365000Y-85238967D01*
X97988072Y-85238967D01*
X97988072Y-84810000D01*
X97975812Y-84685518D01*
X97939502Y-84565820D01*
X97880537Y-84455506D01*
X97801185Y-84358815D01*
X97704494Y-84279463D01*
X97635000Y-84242317D01*
X97635000Y-71127000D01*
X111000000Y-71127000D01*
X111024776Y-71124560D01*
X111048601Y-71117333D01*
X111070557Y-71105597D01*
X111089803Y-71089803D01*
X111105597Y-71070557D01*
X111117333Y-71048601D01*
X111124560Y-71024776D01*
X111127000Y-71000000D01*
X111127000Y-58000000D01*
X111124560Y-57975224D01*
X111117333Y-57951399D01*
X111105597Y-57929443D01*
X111089803Y-57910197D01*
X111070557Y-57894403D01*
X111048601Y-57882667D01*
X111024776Y-57875440D01*
X111000000Y-57873000D01*
X97635000Y-57873000D01*
X97635000Y-51300000D01*
X103161928Y-51300000D01*
X103161928Y-53300000D01*
X103174188Y-53424482D01*
X103210498Y-53544180D01*
X103269463Y-53654494D01*
X103348815Y-53751185D01*
X103445506Y-53830537D01*
X103555820Y-53889502D01*
X103675518Y-53925812D01*
X103800000Y-53938072D01*
X105800000Y-53938072D01*
X105924482Y-53925812D01*
X106044180Y-53889502D01*
X106154494Y-53830537D01*
X106251185Y-53751185D01*
X106330537Y-53654494D01*
X106389502Y-53544180D01*
X106422496Y-53435413D01*
X108844192Y-53435413D01*
X108939956Y-53699814D01*
X109229571Y-53840704D01*
X109541108Y-53922384D01*
X109862595Y-53941718D01*
X110181675Y-53897961D01*
X110486088Y-53792795D01*
X110660044Y-53699814D01*
X110755808Y-53435413D01*
X109800000Y-52479605D01*
X108844192Y-53435413D01*
X106422496Y-53435413D01*
X106425812Y-53424482D01*
X106438072Y-53300000D01*
X106438072Y-52362595D01*
X108158282Y-52362595D01*
X108202039Y-52681675D01*
X108307205Y-52986088D01*
X108400186Y-53160044D01*
X108664587Y-53255808D01*
X109620395Y-52300000D01*
X109979605Y-52300000D01*
X110935413Y-53255808D01*
X111199814Y-53160044D01*
X111340704Y-52870429D01*
X111422384Y-52558892D01*
X111441718Y-52237405D01*
X111397961Y-51918325D01*
X111292795Y-51613912D01*
X111199814Y-51439956D01*
X110935413Y-51344192D01*
X109979605Y-52300000D01*
X109620395Y-52300000D01*
X108664587Y-51344192D01*
X108400186Y-51439956D01*
X108259296Y-51729571D01*
X108177616Y-52041108D01*
X108158282Y-52362595D01*
X106438072Y-52362595D01*
X106438072Y-51300000D01*
X106425812Y-51175518D01*
X106422497Y-51164587D01*
X108844192Y-51164587D01*
X109800000Y-52120395D01*
X110755808Y-51164587D01*
X110660044Y-50900186D01*
X110370429Y-50759296D01*
X110058892Y-50677616D01*
X109737405Y-50658282D01*
X109418325Y-50702039D01*
X109113912Y-50807205D01*
X108939956Y-50900186D01*
X108844192Y-51164587D01*
X106422497Y-51164587D01*
X106389502Y-51055820D01*
X106330537Y-50945506D01*
X106251185Y-50848815D01*
X106154494Y-50769463D01*
X106044180Y-50710498D01*
X105924482Y-50674188D01*
X105800000Y-50661928D01*
X103800000Y-50661928D01*
X103675518Y-50674188D01*
X103555820Y-50710498D01*
X103445506Y-50769463D01*
X103348815Y-50848815D01*
X103269463Y-50945506D01*
X103210498Y-51055820D01*
X103174188Y-51175518D01*
X103161928Y-51300000D01*
X97635000Y-51300000D01*
X97635000Y-47475750D01*
X97640491Y-47419998D01*
X97618577Y-47197499D01*
X97553676Y-46983551D01*
X97448284Y-46786375D01*
X97306449Y-46613549D01*
X97263135Y-46578002D01*
X97013595Y-46328462D01*
X96978048Y-46285148D01*
X96805222Y-46143313D01*
X96683250Y-46078118D01*
X96647000Y-46041868D01*
X96647000Y-45965226D01*
X101167452Y-45965226D01*
X101204774Y-45968902D01*
X101242096Y-45965226D01*
X101242107Y-45965226D01*
X101353760Y-45954229D01*
X101497021Y-45910772D01*
X101616328Y-45847000D01*
X117756600Y-45847000D01*
X117756601Y-88285300D01*
X117756601Y-88285300D01*
G37*
X117756601Y-88285300D02*
X117448175Y-87823707D01*
X116998693Y-87374225D01*
X116470158Y-87021070D01*
X115882881Y-86777812D01*
X115259432Y-86653800D01*
X114623768Y-86653800D01*
X114000319Y-86777812D01*
X113413042Y-87021070D01*
X112884507Y-87374225D01*
X112435025Y-87823707D01*
X112081870Y-88352242D01*
X111838612Y-88939519D01*
X111714600Y-89562968D01*
X111714600Y-90198632D01*
X111838612Y-90822081D01*
X112081870Y-91409358D01*
X112435025Y-91937893D01*
X112884507Y-92387375D01*
X113346099Y-92695800D01*
X96647000Y-92695800D01*
X96647000Y-91535413D01*
X106044192Y-91535413D01*
X106139956Y-91799814D01*
X106429571Y-91940704D01*
X106741108Y-92022384D01*
X107062595Y-92041718D01*
X107381675Y-91997961D01*
X107686088Y-91892795D01*
X107860044Y-91799814D01*
X107955808Y-91535413D01*
X107000000Y-90579605D01*
X106044192Y-91535413D01*
X96647000Y-91535413D01*
X96647000Y-90462595D01*
X105358282Y-90462595D01*
X105402039Y-90781675D01*
X105507205Y-91086088D01*
X105600186Y-91260044D01*
X105864587Y-91355808D01*
X106820395Y-90400000D01*
X107179605Y-90400000D01*
X108135413Y-91355808D01*
X108399814Y-91260044D01*
X108540704Y-90970429D01*
X108622384Y-90658892D01*
X108641718Y-90337405D01*
X108597961Y-90018325D01*
X108492795Y-89713912D01*
X108399814Y-89539956D01*
X108135413Y-89444192D01*
X107179605Y-90400000D01*
X106820395Y-90400000D01*
X105864587Y-89444192D01*
X105600186Y-89539956D01*
X105459296Y-89829571D01*
X105377616Y-90141108D01*
X105358282Y-90462595D01*
X96647000Y-90462595D01*
X96647000Y-89688072D01*
X97350000Y-89688072D01*
X97474482Y-89675812D01*
X97594180Y-89639502D01*
X97704494Y-89580537D01*
X97801185Y-89501185D01*
X97880537Y-89404494D01*
X97939502Y-89294180D01*
X97948478Y-89264587D01*
X106044192Y-89264587D01*
X107000000Y-90220395D01*
X107955808Y-89264587D01*
X107860044Y-89000186D01*
X107570429Y-88859296D01*
X107258892Y-88777616D01*
X106937405Y-88758282D01*
X106618325Y-88802039D01*
X106313912Y-88907205D01*
X106139956Y-89000186D01*
X106044192Y-89264587D01*
X97948478Y-89264587D01*
X97975812Y-89174482D01*
X97988072Y-89050000D01*
X97988072Y-87350000D01*
X97975812Y-87225518D01*
X97939502Y-87105820D01*
X97880537Y-86995506D01*
X97826778Y-86930000D01*
X97880537Y-86864494D01*
X97939502Y-86754180D01*
X97975812Y-86634482D01*
X97988072Y-86510000D01*
X97988072Y-85238967D01*
X105365000Y-85238967D01*
X105365000Y-85561033D01*
X105427832Y-85876912D01*
X105551082Y-86174463D01*
X105730013Y-86442252D01*
X105957748Y-86669987D01*
X106225537Y-86848918D01*
X106523088Y-86972168D01*
X106838967Y-87035000D01*
X107161033Y-87035000D01*
X107476912Y-86972168D01*
X107774463Y-86848918D01*
X108042252Y-86669987D01*
X108269987Y-86442252D01*
X108448918Y-86174463D01*
X108572168Y-85876912D01*
X108635000Y-85561033D01*
X108635000Y-85238967D01*
X108572168Y-84923088D01*
X108448918Y-84625537D01*
X108269987Y-84357748D01*
X108042252Y-84130013D01*
X107774463Y-83951082D01*
X107476912Y-83827832D01*
X107161033Y-83765000D01*
X106838967Y-83765000D01*
X106523088Y-83827832D01*
X106225537Y-83951082D01*
X105957748Y-84130013D01*
X105730013Y-84357748D01*
X105551082Y-84625537D01*
X105427832Y-84923088D01*
X105365000Y-85238967D01*
X97988072Y-85238967D01*
X97988072Y-84810000D01*
X97975812Y-84685518D01*
X97939502Y-84565820D01*
X97880537Y-84455506D01*
X97801185Y-84358815D01*
X97704494Y-84279463D01*
X97635000Y-84242317D01*
X97635000Y-71127000D01*
X111000000Y-71127000D01*
X111024776Y-71124560D01*
X111048601Y-71117333D01*
X111070557Y-71105597D01*
X111089803Y-71089803D01*
X111105597Y-71070557D01*
X111117333Y-71048601D01*
X111124560Y-71024776D01*
X111127000Y-71000000D01*
X111127000Y-58000000D01*
X111124560Y-57975224D01*
X111117333Y-57951399D01*
X111105597Y-57929443D01*
X111089803Y-57910197D01*
X111070557Y-57894403D01*
X111048601Y-57882667D01*
X111024776Y-57875440D01*
X111000000Y-57873000D01*
X97635000Y-57873000D01*
X97635000Y-51300000D01*
X103161928Y-51300000D01*
X103161928Y-53300000D01*
X103174188Y-53424482D01*
X103210498Y-53544180D01*
X103269463Y-53654494D01*
X103348815Y-53751185D01*
X103445506Y-53830537D01*
X103555820Y-53889502D01*
X103675518Y-53925812D01*
X103800000Y-53938072D01*
X105800000Y-53938072D01*
X105924482Y-53925812D01*
X106044180Y-53889502D01*
X106154494Y-53830537D01*
X106251185Y-53751185D01*
X106330537Y-53654494D01*
X106389502Y-53544180D01*
X106422496Y-53435413D01*
X108844192Y-53435413D01*
X108939956Y-53699814D01*
X109229571Y-53840704D01*
X109541108Y-53922384D01*
X109862595Y-53941718D01*
X110181675Y-53897961D01*
X110486088Y-53792795D01*
X110660044Y-53699814D01*
X110755808Y-53435413D01*
X109800000Y-52479605D01*
X108844192Y-53435413D01*
X106422496Y-53435413D01*
X106425812Y-53424482D01*
X106438072Y-53300000D01*
X106438072Y-52362595D01*
X108158282Y-52362595D01*
X108202039Y-52681675D01*
X108307205Y-52986088D01*
X108400186Y-53160044D01*
X108664587Y-53255808D01*
X109620395Y-52300000D01*
X109979605Y-52300000D01*
X110935413Y-53255808D01*
X111199814Y-53160044D01*
X111340704Y-52870429D01*
X111422384Y-52558892D01*
X111441718Y-52237405D01*
X111397961Y-51918325D01*
X111292795Y-51613912D01*
X111199814Y-51439956D01*
X110935413Y-51344192D01*
X109979605Y-52300000D01*
X109620395Y-52300000D01*
X108664587Y-51344192D01*
X108400186Y-51439956D01*
X108259296Y-51729571D01*
X108177616Y-52041108D01*
X108158282Y-52362595D01*
X106438072Y-52362595D01*
X106438072Y-51300000D01*
X106425812Y-51175518D01*
X106422497Y-51164587D01*
X108844192Y-51164587D01*
X109800000Y-52120395D01*
X110755808Y-51164587D01*
X110660044Y-50900186D01*
X110370429Y-50759296D01*
X110058892Y-50677616D01*
X109737405Y-50658282D01*
X109418325Y-50702039D01*
X109113912Y-50807205D01*
X108939956Y-50900186D01*
X108844192Y-51164587D01*
X106422497Y-51164587D01*
X106389502Y-51055820D01*
X106330537Y-50945506D01*
X106251185Y-50848815D01*
X106154494Y-50769463D01*
X106044180Y-50710498D01*
X105924482Y-50674188D01*
X105800000Y-50661928D01*
X103800000Y-50661928D01*
X103675518Y-50674188D01*
X103555820Y-50710498D01*
X103445506Y-50769463D01*
X103348815Y-50848815D01*
X103269463Y-50945506D01*
X103210498Y-51055820D01*
X103174188Y-51175518D01*
X103161928Y-51300000D01*
X97635000Y-51300000D01*
X97635000Y-47475750D01*
X97640491Y-47419998D01*
X97618577Y-47197499D01*
X97553676Y-46983551D01*
X97448284Y-46786375D01*
X97306449Y-46613549D01*
X97263135Y-46578002D01*
X97013595Y-46328462D01*
X96978048Y-46285148D01*
X96805222Y-46143313D01*
X96683250Y-46078118D01*
X96647000Y-46041868D01*
X96647000Y-45965226D01*
X101167452Y-45965226D01*
X101204774Y-45968902D01*
X101242096Y-45965226D01*
X101242107Y-45965226D01*
X101353760Y-45954229D01*
X101497021Y-45910772D01*
X101616328Y-45847000D01*
X117756600Y-45847000D01*
X117756601Y-88285300D01*
M02*
