G04 #@! TF.GenerationSoftware,KiCad,Pcbnew,(5.1.4)-1*
G04 #@! TF.CreationDate,2023-01-05T18:52:54+01:00*
G04 #@! TF.ProjectId,RasPi-HAT,52617350-692d-4484-9154-2e6b69636164,V00.20*
G04 #@! TF.SameCoordinates,Original*
G04 #@! TF.FileFunction,Legend,Top*
G04 #@! TF.FilePolarity,Positive*
%FSLAX46Y46*%
G04 Gerber Fmt 4.6, Leading zero omitted, Abs format (unit mm)*
G04 Created by KiCad (PCBNEW (5.1.4)-1) date 2023-01-05 18:52:54*
%MOMM*%
%LPD*%
G04 APERTURE LIST*
%ADD10C,0.150000*%
%ADD11C,0.120000*%
%ADD12C,0.200000*%
%ADD13C,0.100000*%
G04 APERTURE END LIST*
D10*
X85461904Y-89452380D02*
X85461904Y-88452380D01*
X86033333Y-89452380D02*
X85604761Y-88880952D01*
X86033333Y-88452380D02*
X85461904Y-89023809D01*
X86461904Y-89452380D02*
X86461904Y-88452380D01*
X87033333Y-89452380D01*
X87033333Y-88452380D01*
X87414285Y-88452380D02*
X88080952Y-89452380D01*
X88080952Y-88452380D02*
X87414285Y-89452380D01*
X88414285Y-88547619D02*
X88461904Y-88500000D01*
X88557142Y-88452380D01*
X88795238Y-88452380D01*
X88890476Y-88500000D01*
X88938095Y-88547619D01*
X88985714Y-88642857D01*
X88985714Y-88738095D01*
X88938095Y-88880952D01*
X88366666Y-89452380D01*
X88985714Y-89452380D01*
X85461904Y-68252380D02*
X85461904Y-67252380D01*
X86033333Y-68252380D02*
X85604761Y-67680952D01*
X86033333Y-67252380D02*
X85461904Y-67823809D01*
X86461904Y-68252380D02*
X86461904Y-67252380D01*
X87033333Y-68252380D01*
X87033333Y-67252380D01*
X87414285Y-67252380D02*
X88080952Y-68252380D01*
X88080952Y-67252380D02*
X87414285Y-68252380D01*
X88985714Y-68252380D02*
X88414285Y-68252380D01*
X88700000Y-68252380D02*
X88700000Y-67252380D01*
X88604761Y-67395238D01*
X88509523Y-67490476D01*
X88414285Y-67538095D01*
X93952380Y-60023809D02*
X93476190Y-60357142D01*
X93952380Y-60595238D02*
X92952380Y-60595238D01*
X92952380Y-60214285D01*
X93000000Y-60119047D01*
X93047619Y-60071428D01*
X93142857Y-60023809D01*
X93285714Y-60023809D01*
X93380952Y-60071428D01*
X93428571Y-60119047D01*
X93476190Y-60214285D01*
X93476190Y-60595238D01*
X93904761Y-59214285D02*
X93952380Y-59309523D01*
X93952380Y-59500000D01*
X93904761Y-59595238D01*
X93809523Y-59642857D01*
X93428571Y-59642857D01*
X93333333Y-59595238D01*
X93285714Y-59500000D01*
X93285714Y-59309523D01*
X93333333Y-59214285D01*
X93428571Y-59166666D01*
X93523809Y-59166666D01*
X93619047Y-59642857D01*
X93904761Y-58309523D02*
X93952380Y-58404761D01*
X93952380Y-58595238D01*
X93904761Y-58690476D01*
X93857142Y-58738095D01*
X93761904Y-58785714D01*
X93476190Y-58785714D01*
X93380952Y-58738095D01*
X93333333Y-58690476D01*
X93285714Y-58595238D01*
X93285714Y-58404761D01*
X93333333Y-58309523D01*
X93904761Y-57500000D02*
X93952380Y-57595238D01*
X93952380Y-57785714D01*
X93904761Y-57880952D01*
X93809523Y-57928571D01*
X93428571Y-57928571D01*
X93333333Y-57880952D01*
X93285714Y-57785714D01*
X93285714Y-57595238D01*
X93333333Y-57500000D01*
X93428571Y-57452380D01*
X93523809Y-57452380D01*
X93619047Y-57928571D01*
X93952380Y-57023809D02*
X93285714Y-57023809D01*
X92952380Y-57023809D02*
X93000000Y-57071428D01*
X93047619Y-57023809D01*
X93000000Y-56976190D01*
X92952380Y-57023809D01*
X93047619Y-57023809D01*
X93285714Y-56642857D02*
X93952380Y-56404761D01*
X93285714Y-56166666D01*
X93904761Y-55404761D02*
X93952380Y-55500000D01*
X93952380Y-55690476D01*
X93904761Y-55785714D01*
X93809523Y-55833333D01*
X93428571Y-55833333D01*
X93333333Y-55785714D01*
X93285714Y-55690476D01*
X93285714Y-55500000D01*
X93333333Y-55404761D01*
X93428571Y-55357142D01*
X93523809Y-55357142D01*
X93619047Y-55833333D01*
D11*
X63054190Y-73861904D02*
X63320857Y-74661904D01*
X63587523Y-73861904D01*
X63854190Y-74661904D02*
X63854190Y-74128571D01*
X63854190Y-73861904D02*
X63816095Y-73900000D01*
X63854190Y-73938095D01*
X63892285Y-73900000D01*
X63854190Y-73861904D01*
X63854190Y-73938095D01*
X64235142Y-74128571D02*
X64235142Y-74661904D01*
X64235142Y-74204761D02*
X64273238Y-74166666D01*
X64349428Y-74128571D01*
X64463714Y-74128571D01*
X64539904Y-74166666D01*
X64578000Y-74242857D01*
X64578000Y-74661904D01*
X65987523Y-74661904D02*
X65530380Y-74661904D01*
X65758952Y-74661904D02*
X65758952Y-73861904D01*
X65682761Y-73976190D01*
X65606571Y-74052380D01*
X65530380Y-74090476D01*
X66292285Y-73938095D02*
X66330380Y-73900000D01*
X66406571Y-73861904D01*
X66597047Y-73861904D01*
X66673238Y-73900000D01*
X66711333Y-73938095D01*
X66749428Y-74014285D01*
X66749428Y-74090476D01*
X66711333Y-74204761D01*
X66254190Y-74661904D01*
X66749428Y-74661904D01*
X67092285Y-74357142D02*
X67701809Y-74357142D01*
X68006571Y-73861904D02*
X68501809Y-73861904D01*
X68235142Y-74166666D01*
X68349428Y-74166666D01*
X68425619Y-74204761D01*
X68463714Y-74242857D01*
X68501809Y-74319047D01*
X68501809Y-74509523D01*
X68463714Y-74585714D01*
X68425619Y-74623809D01*
X68349428Y-74661904D01*
X68120857Y-74661904D01*
X68044666Y-74623809D01*
X68006571Y-74585714D01*
X68997047Y-73861904D02*
X69073238Y-73861904D01*
X69149428Y-73900000D01*
X69187523Y-73938095D01*
X69225619Y-74014285D01*
X69263714Y-74166666D01*
X69263714Y-74357142D01*
X69225619Y-74509523D01*
X69187523Y-74585714D01*
X69149428Y-74623809D01*
X69073238Y-74661904D01*
X68997047Y-74661904D01*
X68920857Y-74623809D01*
X68882761Y-74585714D01*
X68844666Y-74509523D01*
X68806571Y-74357142D01*
X68806571Y-74166666D01*
X68844666Y-74014285D01*
X68882761Y-73938095D01*
X68920857Y-73900000D01*
X68997047Y-73861904D01*
X69492285Y-73861904D02*
X69758952Y-74661904D01*
X70025619Y-73861904D01*
D10*
X115000000Y-67900000D02*
X115000000Y-68300000D01*
X115000000Y-66700000D02*
X115000000Y-66500000D01*
X114200000Y-66700000D02*
X115800000Y-66700000D01*
X115000000Y-66700000D02*
X114200000Y-67800000D01*
X115900000Y-67800000D02*
X115000000Y-66700000D01*
X114200000Y-67800000D02*
X115900000Y-67800000D01*
X93904761Y-86119047D02*
X93952380Y-85976190D01*
X93952380Y-85738095D01*
X93904761Y-85642857D01*
X93857142Y-85595238D01*
X93761904Y-85547619D01*
X93666666Y-85547619D01*
X93571428Y-85595238D01*
X93523809Y-85642857D01*
X93476190Y-85738095D01*
X93428571Y-85928571D01*
X93380952Y-86023809D01*
X93333333Y-86071428D01*
X93238095Y-86119047D01*
X93142857Y-86119047D01*
X93047619Y-86071428D01*
X93000000Y-86023809D01*
X92952380Y-85928571D01*
X92952380Y-85690476D01*
X93000000Y-85547619D01*
X93904761Y-84738095D02*
X93952380Y-84833333D01*
X93952380Y-85023809D01*
X93904761Y-85119047D01*
X93809523Y-85166666D01*
X93428571Y-85166666D01*
X93333333Y-85119047D01*
X93285714Y-85023809D01*
X93285714Y-84833333D01*
X93333333Y-84738095D01*
X93428571Y-84690476D01*
X93523809Y-84690476D01*
X93619047Y-85166666D01*
X93285714Y-84261904D02*
X93952380Y-84261904D01*
X93380952Y-84261904D02*
X93333333Y-84214285D01*
X93285714Y-84119047D01*
X93285714Y-83976190D01*
X93333333Y-83880952D01*
X93428571Y-83833333D01*
X93952380Y-83833333D01*
X93952380Y-82928571D02*
X92952380Y-82928571D01*
X93904761Y-82928571D02*
X93952380Y-83023809D01*
X93952380Y-83214285D01*
X93904761Y-83309523D01*
X93857142Y-83357142D01*
X93761904Y-83404761D01*
X93476190Y-83404761D01*
X93380952Y-83357142D01*
X93333333Y-83309523D01*
X93285714Y-83214285D01*
X93285714Y-83023809D01*
X93333333Y-82928571D01*
X93952380Y-81023809D02*
X93476190Y-81357142D01*
X93952380Y-81595238D02*
X92952380Y-81595238D01*
X92952380Y-81214285D01*
X93000000Y-81119047D01*
X93047619Y-81071428D01*
X93142857Y-81023809D01*
X93285714Y-81023809D01*
X93380952Y-81071428D01*
X93428571Y-81119047D01*
X93476190Y-81214285D01*
X93476190Y-81595238D01*
X93904761Y-80214285D02*
X93952380Y-80309523D01*
X93952380Y-80500000D01*
X93904761Y-80595238D01*
X93809523Y-80642857D01*
X93428571Y-80642857D01*
X93333333Y-80595238D01*
X93285714Y-80500000D01*
X93285714Y-80309523D01*
X93333333Y-80214285D01*
X93428571Y-80166666D01*
X93523809Y-80166666D01*
X93619047Y-80642857D01*
X93904761Y-79309523D02*
X93952380Y-79404761D01*
X93952380Y-79595238D01*
X93904761Y-79690476D01*
X93857142Y-79738095D01*
X93761904Y-79785714D01*
X93476190Y-79785714D01*
X93380952Y-79738095D01*
X93333333Y-79690476D01*
X93285714Y-79595238D01*
X93285714Y-79404761D01*
X93333333Y-79309523D01*
X93904761Y-78500000D02*
X93952380Y-78595238D01*
X93952380Y-78785714D01*
X93904761Y-78880952D01*
X93809523Y-78928571D01*
X93428571Y-78928571D01*
X93333333Y-78880952D01*
X93285714Y-78785714D01*
X93285714Y-78595238D01*
X93333333Y-78500000D01*
X93428571Y-78452380D01*
X93523809Y-78452380D01*
X93619047Y-78928571D01*
X93952380Y-78023809D02*
X93285714Y-78023809D01*
X92952380Y-78023809D02*
X93000000Y-78071428D01*
X93047619Y-78023809D01*
X93000000Y-77976190D01*
X92952380Y-78023809D01*
X93047619Y-78023809D01*
X93285714Y-77642857D02*
X93952380Y-77404761D01*
X93285714Y-77166666D01*
X93904761Y-76404761D02*
X93952380Y-76500000D01*
X93952380Y-76690476D01*
X93904761Y-76785714D01*
X93809523Y-76833333D01*
X93428571Y-76833333D01*
X93333333Y-76785714D01*
X93285714Y-76690476D01*
X93285714Y-76500000D01*
X93333333Y-76404761D01*
X93428571Y-76357142D01*
X93523809Y-76357142D01*
X93619047Y-76833333D01*
X93952380Y-75476190D02*
X92952380Y-75476190D01*
X92952380Y-75095238D01*
X93000000Y-75000000D01*
X93047619Y-74952380D01*
X93142857Y-74904761D01*
X93285714Y-74904761D01*
X93380952Y-74952380D01*
X93428571Y-75000000D01*
X93476190Y-75095238D01*
X93476190Y-75476190D01*
X93952380Y-74333333D02*
X93904761Y-74428571D01*
X93857142Y-74476190D01*
X93761904Y-74523809D01*
X93476190Y-74523809D01*
X93380952Y-74476190D01*
X93333333Y-74428571D01*
X93285714Y-74333333D01*
X93285714Y-74190476D01*
X93333333Y-74095238D01*
X93380952Y-74047619D01*
X93476190Y-74000000D01*
X93761904Y-74000000D01*
X93857142Y-74047619D01*
X93904761Y-74095238D01*
X93952380Y-74190476D01*
X93952380Y-74333333D01*
X93285714Y-73666666D02*
X93952380Y-73476190D01*
X93476190Y-73285714D01*
X93952380Y-73095238D01*
X93285714Y-72904761D01*
X93904761Y-72142857D02*
X93952380Y-72238095D01*
X93952380Y-72428571D01*
X93904761Y-72523809D01*
X93809523Y-72571428D01*
X93428571Y-72571428D01*
X93333333Y-72523809D01*
X93285714Y-72428571D01*
X93285714Y-72238095D01*
X93333333Y-72142857D01*
X93428571Y-72095238D01*
X93523809Y-72095238D01*
X93619047Y-72571428D01*
X93952380Y-71666666D02*
X93285714Y-71666666D01*
X93476190Y-71666666D02*
X93380952Y-71619047D01*
X93333333Y-71571428D01*
X93285714Y-71476190D01*
X93285714Y-71380952D01*
X93904761Y-65119047D02*
X93952380Y-64976190D01*
X93952380Y-64738095D01*
X93904761Y-64642857D01*
X93857142Y-64595238D01*
X93761904Y-64547619D01*
X93666666Y-64547619D01*
X93571428Y-64595238D01*
X93523809Y-64642857D01*
X93476190Y-64738095D01*
X93428571Y-64928571D01*
X93380952Y-65023809D01*
X93333333Y-65071428D01*
X93238095Y-65119047D01*
X93142857Y-65119047D01*
X93047619Y-65071428D01*
X93000000Y-65023809D01*
X92952380Y-64928571D01*
X92952380Y-64690476D01*
X93000000Y-64547619D01*
X93904761Y-63738095D02*
X93952380Y-63833333D01*
X93952380Y-64023809D01*
X93904761Y-64119047D01*
X93809523Y-64166666D01*
X93428571Y-64166666D01*
X93333333Y-64119047D01*
X93285714Y-64023809D01*
X93285714Y-63833333D01*
X93333333Y-63738095D01*
X93428571Y-63690476D01*
X93523809Y-63690476D01*
X93619047Y-64166666D01*
X93285714Y-63261904D02*
X93952380Y-63261904D01*
X93380952Y-63261904D02*
X93333333Y-63214285D01*
X93285714Y-63119047D01*
X93285714Y-62976190D01*
X93333333Y-62880952D01*
X93428571Y-62833333D01*
X93952380Y-62833333D01*
X93952380Y-61928571D02*
X92952380Y-61928571D01*
X93904761Y-61928571D02*
X93952380Y-62023809D01*
X93952380Y-62214285D01*
X93904761Y-62309523D01*
X93857142Y-62357142D01*
X93761904Y-62404761D01*
X93476190Y-62404761D01*
X93380952Y-62357142D01*
X93333333Y-62309523D01*
X93285714Y-62214285D01*
X93285714Y-62023809D01*
X93333333Y-61928571D01*
X60198095Y-86430000D02*
X60102857Y-86382380D01*
X59960000Y-86382380D01*
X59817142Y-86430000D01*
X59721904Y-86525238D01*
X59674285Y-86620476D01*
X59626666Y-86810952D01*
X59626666Y-86953809D01*
X59674285Y-87144285D01*
X59721904Y-87239523D01*
X59817142Y-87334761D01*
X59960000Y-87382380D01*
X60055238Y-87382380D01*
X60198095Y-87334761D01*
X60245714Y-87287142D01*
X60245714Y-86953809D01*
X60055238Y-86953809D01*
X60674285Y-87382380D02*
X60674285Y-86382380D01*
X61245714Y-87382380D01*
X61245714Y-86382380D01*
X61721904Y-87382380D02*
X61721904Y-86382380D01*
X61960000Y-86382380D01*
X62102857Y-86430000D01*
X62198095Y-86525238D01*
X62245714Y-86620476D01*
X62293333Y-86810952D01*
X62293333Y-86953809D01*
X62245714Y-87144285D01*
X62198095Y-87239523D01*
X62102857Y-87334761D01*
X61960000Y-87382380D01*
X61721904Y-87382380D01*
X76022000Y-90195000D02*
X76276000Y-90195000D01*
X74879000Y-90195000D02*
X74752000Y-90195000D01*
X76022000Y-90195000D02*
X74879000Y-89306000D01*
X76022000Y-90195000D02*
X76022000Y-89306000D01*
X76022000Y-89306000D02*
X76022000Y-91084000D01*
X74879000Y-89306000D02*
X74879000Y-91084000D01*
X74879000Y-91084000D02*
X76022000Y-90195000D01*
D12*
X62344285Y-45292857D02*
X62572857Y-45292857D01*
X62687142Y-45350000D01*
X62801428Y-45464285D01*
X62858571Y-45692857D01*
X62858571Y-46092857D01*
X62801428Y-46321428D01*
X62687142Y-46435714D01*
X62572857Y-46492857D01*
X62344285Y-46492857D01*
X62230000Y-46435714D01*
X62115714Y-46321428D01*
X62058571Y-46092857D01*
X62058571Y-45692857D01*
X62115714Y-45464285D01*
X62230000Y-45350000D01*
X62344285Y-45292857D01*
X63372857Y-45692857D02*
X63372857Y-46892857D01*
X63372857Y-45750000D02*
X63487142Y-45692857D01*
X63715714Y-45692857D01*
X63830000Y-45750000D01*
X63887142Y-45807142D01*
X63944285Y-45921428D01*
X63944285Y-46264285D01*
X63887142Y-46378571D01*
X63830000Y-46435714D01*
X63715714Y-46492857D01*
X63487142Y-46492857D01*
X63372857Y-46435714D01*
X64915714Y-46435714D02*
X64801428Y-46492857D01*
X64572857Y-46492857D01*
X64458571Y-46435714D01*
X64401428Y-46321428D01*
X64401428Y-45864285D01*
X64458571Y-45750000D01*
X64572857Y-45692857D01*
X64801428Y-45692857D01*
X64915714Y-45750000D01*
X64972857Y-45864285D01*
X64972857Y-45978571D01*
X64401428Y-46092857D01*
X65487142Y-45692857D02*
X65487142Y-46492857D01*
X65487142Y-45807142D02*
X65544285Y-45750000D01*
X65658571Y-45692857D01*
X65830000Y-45692857D01*
X65944285Y-45750000D01*
X66001428Y-45864285D01*
X66001428Y-46492857D01*
X66572857Y-46492857D02*
X66572857Y-45292857D01*
X67258571Y-46492857D02*
X66744285Y-45807142D01*
X67258571Y-45292857D02*
X66572857Y-45978571D01*
X67772857Y-46492857D02*
X67772857Y-45292857D01*
X68458571Y-46492857D01*
X68458571Y-45292857D01*
X68915714Y-45292857D02*
X69715714Y-46492857D01*
X69715714Y-45292857D02*
X68915714Y-46492857D01*
X71772857Y-46492857D02*
X71372857Y-45921428D01*
X71087142Y-46492857D02*
X71087142Y-45292857D01*
X71544285Y-45292857D01*
X71658571Y-45350000D01*
X71715714Y-45407142D01*
X71772857Y-45521428D01*
X71772857Y-45692857D01*
X71715714Y-45807142D01*
X71658571Y-45864285D01*
X71544285Y-45921428D01*
X71087142Y-45921428D01*
X72801428Y-46492857D02*
X72801428Y-45864285D01*
X72744285Y-45750000D01*
X72630000Y-45692857D01*
X72401428Y-45692857D01*
X72287142Y-45750000D01*
X72801428Y-46435714D02*
X72687142Y-46492857D01*
X72401428Y-46492857D01*
X72287142Y-46435714D01*
X72230000Y-46321428D01*
X72230000Y-46207142D01*
X72287142Y-46092857D01*
X72401428Y-46035714D01*
X72687142Y-46035714D01*
X72801428Y-45978571D01*
X73315714Y-46435714D02*
X73430000Y-46492857D01*
X73658571Y-46492857D01*
X73772857Y-46435714D01*
X73830000Y-46321428D01*
X73830000Y-46264285D01*
X73772857Y-46150000D01*
X73658571Y-46092857D01*
X73487142Y-46092857D01*
X73372857Y-46035714D01*
X73315714Y-45921428D01*
X73315714Y-45864285D01*
X73372857Y-45750000D01*
X73487142Y-45692857D01*
X73658571Y-45692857D01*
X73772857Y-45750000D01*
X74344285Y-46492857D02*
X74344285Y-45292857D01*
X74801428Y-45292857D01*
X74915714Y-45350000D01*
X74972857Y-45407142D01*
X75030000Y-45521428D01*
X75030000Y-45692857D01*
X74972857Y-45807142D01*
X74915714Y-45864285D01*
X74801428Y-45921428D01*
X74344285Y-45921428D01*
X75544285Y-46492857D02*
X75544285Y-45692857D01*
X75544285Y-45292857D02*
X75487142Y-45350000D01*
X75544285Y-45407142D01*
X75601428Y-45350000D01*
X75544285Y-45292857D01*
X75544285Y-45407142D01*
X77030000Y-46492857D02*
X77030000Y-45292857D01*
X77030000Y-45864285D02*
X77715714Y-45864285D01*
X77715714Y-46492857D02*
X77715714Y-45292857D01*
X78230000Y-46150000D02*
X78801428Y-46150000D01*
X78115714Y-46492857D02*
X78515714Y-45292857D01*
X78915714Y-46492857D01*
X79144285Y-45292857D02*
X79830000Y-45292857D01*
X79487142Y-46492857D02*
X79487142Y-45292857D01*
X80972857Y-45292857D02*
X81372857Y-46492857D01*
X81772857Y-45292857D01*
X82401428Y-45292857D02*
X82515714Y-45292857D01*
X82630000Y-45350000D01*
X82687142Y-45407142D01*
X82744285Y-45521428D01*
X82801428Y-45750000D01*
X82801428Y-46035714D01*
X82744285Y-46264285D01*
X82687142Y-46378571D01*
X82630000Y-46435714D01*
X82515714Y-46492857D01*
X82401428Y-46492857D01*
X82287142Y-46435714D01*
X82230000Y-46378571D01*
X82172857Y-46264285D01*
X82115714Y-46035714D01*
X82115714Y-45750000D01*
X82172857Y-45521428D01*
X82230000Y-45407142D01*
X82287142Y-45350000D01*
X82401428Y-45292857D01*
X83544285Y-45292857D02*
X83658571Y-45292857D01*
X83772857Y-45350000D01*
X83830000Y-45407142D01*
X83887142Y-45521428D01*
X83944285Y-45750000D01*
X83944285Y-46035714D01*
X83887142Y-46264285D01*
X83830000Y-46378571D01*
X83772857Y-46435714D01*
X83658571Y-46492857D01*
X83544285Y-46492857D01*
X83430000Y-46435714D01*
X83372857Y-46378571D01*
X83315714Y-46264285D01*
X83258571Y-46035714D01*
X83258571Y-45750000D01*
X83315714Y-45521428D01*
X83372857Y-45407142D01*
X83430000Y-45350000D01*
X83544285Y-45292857D01*
X84458571Y-46378571D02*
X84515714Y-46435714D01*
X84458571Y-46492857D01*
X84401428Y-46435714D01*
X84458571Y-46378571D01*
X84458571Y-46492857D01*
X84972857Y-45407142D02*
X85030000Y-45350000D01*
X85144285Y-45292857D01*
X85430000Y-45292857D01*
X85544285Y-45350000D01*
X85601428Y-45407142D01*
X85658571Y-45521428D01*
X85658571Y-45635714D01*
X85601428Y-45807142D01*
X84915714Y-46492857D01*
X85658571Y-46492857D01*
X86401428Y-45292857D02*
X86515714Y-45292857D01*
X86629999Y-45350000D01*
X86687142Y-45407142D01*
X86744285Y-45521428D01*
X86801428Y-45750000D01*
X86801428Y-46035714D01*
X86744285Y-46264285D01*
X86687142Y-46378571D01*
X86629999Y-46435714D01*
X86515714Y-46492857D01*
X86401428Y-46492857D01*
X86287142Y-46435714D01*
X86229999Y-46378571D01*
X86172857Y-46264285D01*
X86115714Y-46035714D01*
X86115714Y-45750000D01*
X86172857Y-45521428D01*
X86229999Y-45407142D01*
X86287142Y-45350000D01*
X86401428Y-45292857D01*
D10*
X94290285Y-46172380D02*
X93956952Y-45696190D01*
X93718857Y-46172380D02*
X93718857Y-45172380D01*
X94099809Y-45172380D01*
X94195047Y-45220000D01*
X94242666Y-45267619D01*
X94290285Y-45362857D01*
X94290285Y-45505714D01*
X94242666Y-45600952D01*
X94195047Y-45648571D01*
X94099809Y-45696190D01*
X93718857Y-45696190D01*
X95147428Y-46172380D02*
X95147428Y-45648571D01*
X95099809Y-45553333D01*
X95004571Y-45505714D01*
X94814095Y-45505714D01*
X94718857Y-45553333D01*
X95147428Y-46124761D02*
X95052190Y-46172380D01*
X94814095Y-46172380D01*
X94718857Y-46124761D01*
X94671238Y-46029523D01*
X94671238Y-45934285D01*
X94718857Y-45839047D01*
X94814095Y-45791428D01*
X95052190Y-45791428D01*
X95147428Y-45743809D01*
X95576000Y-46124761D02*
X95671238Y-46172380D01*
X95861714Y-46172380D01*
X95956952Y-46124761D01*
X96004571Y-46029523D01*
X96004571Y-45981904D01*
X95956952Y-45886666D01*
X95861714Y-45839047D01*
X95718857Y-45839047D01*
X95623619Y-45791428D01*
X95576000Y-45696190D01*
X95576000Y-45648571D01*
X95623619Y-45553333D01*
X95718857Y-45505714D01*
X95861714Y-45505714D01*
X95956952Y-45553333D01*
X96433142Y-46172380D02*
X96433142Y-45172380D01*
X96814095Y-45172380D01*
X96909333Y-45220000D01*
X96956952Y-45267619D01*
X97004571Y-45362857D01*
X97004571Y-45505714D01*
X96956952Y-45600952D01*
X96909333Y-45648571D01*
X96814095Y-45696190D01*
X96433142Y-45696190D01*
X97433142Y-46172380D02*
X97433142Y-45505714D01*
X97433142Y-45172380D02*
X97385523Y-45220000D01*
X97433142Y-45267619D01*
X97480761Y-45220000D01*
X97433142Y-45172380D01*
X97433142Y-45267619D01*
X98671238Y-46172380D02*
X98671238Y-45172380D01*
X99052190Y-45172380D01*
X99147428Y-45220000D01*
X99195047Y-45267619D01*
X99242666Y-45362857D01*
X99242666Y-45505714D01*
X99195047Y-45600952D01*
X99147428Y-45648571D01*
X99052190Y-45696190D01*
X98671238Y-45696190D01*
X99814095Y-46172380D02*
X99718857Y-46124761D01*
X99671238Y-46077142D01*
X99623619Y-45981904D01*
X99623619Y-45696190D01*
X99671238Y-45600952D01*
X99718857Y-45553333D01*
X99814095Y-45505714D01*
X99956952Y-45505714D01*
X100052190Y-45553333D01*
X100099809Y-45600952D01*
X100147428Y-45696190D01*
X100147428Y-45981904D01*
X100099809Y-46077142D01*
X100052190Y-46124761D01*
X99956952Y-46172380D01*
X99814095Y-46172380D01*
X100480761Y-45505714D02*
X100671238Y-46172380D01*
X100861714Y-45696190D01*
X101052190Y-46172380D01*
X101242666Y-45505714D01*
X102004571Y-46124761D02*
X101909333Y-46172380D01*
X101718857Y-46172380D01*
X101623619Y-46124761D01*
X101576000Y-46029523D01*
X101576000Y-45648571D01*
X101623619Y-45553333D01*
X101718857Y-45505714D01*
X101909333Y-45505714D01*
X102004571Y-45553333D01*
X102052190Y-45648571D01*
X102052190Y-45743809D01*
X101576000Y-45839047D01*
X102480761Y-46172380D02*
X102480761Y-45505714D01*
X102480761Y-45696190D02*
X102528380Y-45600952D01*
X102576000Y-45553333D01*
X102671238Y-45505714D01*
X102766476Y-45505714D01*
X103861714Y-45791428D02*
X104623619Y-45791428D01*
X104242666Y-46172380D02*
X104242666Y-45410476D01*
X105576000Y-45172380D02*
X105099809Y-45172380D01*
X105052190Y-45648571D01*
X105099809Y-45600952D01*
X105195047Y-45553333D01*
X105433142Y-45553333D01*
X105528380Y-45600952D01*
X105576000Y-45648571D01*
X105623619Y-45743809D01*
X105623619Y-45981904D01*
X105576000Y-46077142D01*
X105528380Y-46124761D01*
X105433142Y-46172380D01*
X105195047Y-46172380D01*
X105099809Y-46124761D01*
X105052190Y-46077142D01*
X105909333Y-45172380D02*
X106242666Y-46172380D01*
X106576000Y-45172380D01*
X93952380Y-54476190D02*
X92952380Y-54476190D01*
X92952380Y-54095238D01*
X93000000Y-54000000D01*
X93047619Y-53952380D01*
X93142857Y-53904761D01*
X93285714Y-53904761D01*
X93380952Y-53952380D01*
X93428571Y-54000000D01*
X93476190Y-54095238D01*
X93476190Y-54476190D01*
X93952380Y-53333333D02*
X93904761Y-53428571D01*
X93857142Y-53476190D01*
X93761904Y-53523809D01*
X93476190Y-53523809D01*
X93380952Y-53476190D01*
X93333333Y-53428571D01*
X93285714Y-53333333D01*
X93285714Y-53190476D01*
X93333333Y-53095238D01*
X93380952Y-53047619D01*
X93476190Y-53000000D01*
X93761904Y-53000000D01*
X93857142Y-53047619D01*
X93904761Y-53095238D01*
X93952380Y-53190476D01*
X93952380Y-53333333D01*
X93285714Y-52666666D02*
X93952380Y-52476190D01*
X93476190Y-52285714D01*
X93952380Y-52095238D01*
X93285714Y-51904761D01*
X93904761Y-51142857D02*
X93952380Y-51238095D01*
X93952380Y-51428571D01*
X93904761Y-51523809D01*
X93809523Y-51571428D01*
X93428571Y-51571428D01*
X93333333Y-51523809D01*
X93285714Y-51428571D01*
X93285714Y-51238095D01*
X93333333Y-51142857D01*
X93428571Y-51095238D01*
X93523809Y-51095238D01*
X93619047Y-51571428D01*
X93952380Y-50666666D02*
X93285714Y-50666666D01*
X93476190Y-50666666D02*
X93380952Y-50619047D01*
X93333333Y-50571428D01*
X93285714Y-50476190D01*
X93285714Y-50380952D01*
X64788000Y-89129000D02*
X64788000Y-89256000D01*
X64788000Y-87986000D02*
X64788000Y-87732000D01*
X63899000Y-87986000D02*
X65677000Y-87986000D01*
X64788000Y-87986000D02*
X63899000Y-87986000D01*
X64788000Y-87986000D02*
X63899000Y-89129000D01*
X65677000Y-89129000D02*
X64788000Y-87986000D01*
X63899000Y-89129000D02*
X65677000Y-89129000D01*
D11*
X66420000Y-85140000D02*
X66420000Y-90540000D01*
X63120000Y-85140000D02*
X63120000Y-90540000D01*
X66420000Y-85140000D02*
X63120000Y-85140000D01*
X78910000Y-91860000D02*
X73510000Y-91860000D01*
X78910000Y-88560000D02*
X73510000Y-88560000D01*
X78910000Y-91860000D02*
X78910000Y-88560000D01*
X63120000Y-82862000D02*
X63120000Y-77462000D01*
X66420000Y-82862000D02*
X66420000Y-77462000D01*
X63120000Y-82862000D02*
X66420000Y-82862000D01*
X63150000Y-69654000D02*
X63150000Y-64254000D01*
X66450000Y-69654000D02*
X66450000Y-64254000D01*
X63150000Y-69654000D02*
X66450000Y-69654000D01*
X63150000Y-56600000D02*
X63150000Y-51200000D01*
X66450000Y-56600000D02*
X66450000Y-51200000D01*
X63150000Y-56600000D02*
X66450000Y-56600000D01*
X58825000Y-85750000D02*
X55175000Y-85750000D01*
X58825000Y-80000000D02*
X55175000Y-80000000D01*
X58825000Y-74250000D02*
X55175000Y-74250000D01*
X58225000Y-84750000D02*
X60000000Y-84750000D01*
X55775000Y-84750000D02*
X50000000Y-84750000D01*
X55775000Y-84750000D02*
X55175000Y-85750000D01*
X58225000Y-84750000D02*
X58825000Y-85750000D01*
X55775000Y-79000000D02*
X55175000Y-80000000D01*
X55775000Y-79000000D02*
X50000000Y-79000000D01*
X58225000Y-79000000D02*
X60000000Y-79000000D01*
X58225000Y-79000000D02*
X58825000Y-80000000D01*
X55775000Y-73250000D02*
X55175000Y-74250000D01*
X58825000Y-74250000D02*
X58225000Y-73250000D01*
X55775000Y-73250000D02*
X50000000Y-73250000D01*
X60000000Y-73250000D02*
X58225000Y-73250000D01*
X50000000Y-73250000D02*
X50000000Y-84750000D01*
X60000000Y-73250000D02*
X60000000Y-84750000D01*
X58825000Y-71250000D02*
X55175000Y-71250000D01*
X58825000Y-65500000D02*
X55175000Y-65500000D01*
X58825000Y-59750000D02*
X55175000Y-59750000D01*
X58225000Y-70250000D02*
X60000000Y-70250000D01*
X55775000Y-70250000D02*
X50000000Y-70250000D01*
X55775000Y-70250000D02*
X55175000Y-71250000D01*
X58225000Y-70250000D02*
X58825000Y-71250000D01*
X55775000Y-64500000D02*
X55175000Y-65500000D01*
X55775000Y-64500000D02*
X50000000Y-64500000D01*
X58225000Y-64500000D02*
X60000000Y-64500000D01*
X58225000Y-64500000D02*
X58825000Y-65500000D01*
X55775000Y-58750000D02*
X55175000Y-59750000D01*
X58825000Y-59750000D02*
X58225000Y-58750000D01*
X55775000Y-58750000D02*
X50000000Y-58750000D01*
X60000000Y-58750000D02*
X58225000Y-58750000D01*
X50000000Y-58750000D02*
X50000000Y-70250000D01*
X60000000Y-58750000D02*
X60000000Y-70250000D01*
X58825000Y-56750000D02*
X55175000Y-56750000D01*
X58825000Y-51000000D02*
X55175000Y-51000000D01*
X58825000Y-45250000D02*
X55175000Y-45250000D01*
X58225000Y-55750000D02*
X60000000Y-55750000D01*
X55775000Y-55750000D02*
X50000000Y-55750000D01*
X55775000Y-55750000D02*
X55175000Y-56750000D01*
X58225000Y-55750000D02*
X58825000Y-56750000D01*
X55775000Y-50000000D02*
X55175000Y-51000000D01*
X55775000Y-50000000D02*
X50000000Y-50000000D01*
X58225000Y-50000000D02*
X60000000Y-50000000D01*
X58225000Y-50000000D02*
X58825000Y-51000000D01*
X55775000Y-44250000D02*
X55175000Y-45250000D01*
X58825000Y-45250000D02*
X58225000Y-44250000D01*
X55775000Y-44250000D02*
X50000000Y-44250000D01*
X60000000Y-44250000D02*
X58225000Y-44250000D01*
X50000000Y-44250000D02*
X50000000Y-55750000D01*
X60000000Y-44250000D02*
X60000000Y-55750000D01*
X85217000Y-71628000D02*
X89662000Y-71628000D01*
X85217000Y-69723000D02*
X85217000Y-71628000D01*
X83947000Y-69723000D02*
X85217000Y-69723000D01*
X83947000Y-71628000D02*
X83947000Y-69723000D01*
X80137000Y-71628000D02*
X83947000Y-71628000D01*
X80137000Y-69723000D02*
X80137000Y-71628000D01*
X78867000Y-69723000D02*
X80137000Y-69723000D01*
X78867000Y-71628000D02*
X78867000Y-69723000D01*
X75057000Y-71628000D02*
X78867000Y-71628000D01*
X75057000Y-69723000D02*
X75057000Y-71628000D01*
X73787000Y-69723000D02*
X75057000Y-69723000D01*
X73787000Y-71628000D02*
X73787000Y-69723000D01*
X66802000Y-71628000D02*
X73787000Y-71628000D01*
X87757000Y-74168000D02*
X89027000Y-74168000D01*
X87757000Y-76073000D02*
X87757000Y-74168000D01*
X86487000Y-76073000D02*
X87757000Y-76073000D01*
X86487000Y-74168000D02*
X86487000Y-76073000D01*
X82677000Y-74168000D02*
X86487000Y-74168000D01*
X82677000Y-76073000D02*
X82677000Y-74168000D01*
X81407000Y-76073000D02*
X82677000Y-76073000D01*
X81407000Y-74168000D02*
X81407000Y-76073000D01*
X77597000Y-74168000D02*
X81407000Y-74168000D01*
X77597000Y-76073000D02*
X77597000Y-74168000D01*
X76327000Y-76073000D02*
X77597000Y-76073000D01*
X76327000Y-74168000D02*
X76327000Y-76073000D01*
X72517000Y-74168000D02*
X76327000Y-74168000D01*
X72517000Y-76073000D02*
X72517000Y-74168000D01*
X71247000Y-76073000D02*
X72517000Y-76073000D01*
X71247000Y-74168000D02*
X71247000Y-76073000D01*
X70104000Y-74168000D02*
X71247000Y-74168000D01*
X66802000Y-90678000D02*
X89662000Y-90678000D01*
X89662000Y-71628000D02*
X89662000Y-90678000D01*
X66802000Y-90678000D02*
X66802000Y-88773000D01*
X66802000Y-71628000D02*
X66802000Y-89408000D01*
X85217000Y-50546000D02*
X89662000Y-50546000D01*
X85217000Y-48641000D02*
X85217000Y-50546000D01*
X83947000Y-48641000D02*
X85217000Y-48641000D01*
X83947000Y-50546000D02*
X83947000Y-48641000D01*
X80137000Y-50546000D02*
X83947000Y-50546000D01*
X80137000Y-48641000D02*
X80137000Y-50546000D01*
X78867000Y-48641000D02*
X80137000Y-48641000D01*
X78867000Y-50546000D02*
X78867000Y-48641000D01*
X75057000Y-50546000D02*
X78867000Y-50546000D01*
X75057000Y-48641000D02*
X75057000Y-50546000D01*
X73787000Y-48641000D02*
X75057000Y-48641000D01*
X73787000Y-50546000D02*
X73787000Y-48641000D01*
X66802000Y-50546000D02*
X73787000Y-50546000D01*
X87757000Y-53086000D02*
X89027000Y-53086000D01*
X87757000Y-54991000D02*
X87757000Y-53086000D01*
X86487000Y-54991000D02*
X87757000Y-54991000D01*
X86487000Y-53086000D02*
X86487000Y-54991000D01*
X82677000Y-53086000D02*
X86487000Y-53086000D01*
X82677000Y-54991000D02*
X82677000Y-53086000D01*
X81407000Y-54991000D02*
X82677000Y-54991000D01*
X81407000Y-53086000D02*
X81407000Y-54991000D01*
X77597000Y-53086000D02*
X81407000Y-53086000D01*
X77597000Y-54991000D02*
X77597000Y-53086000D01*
X76327000Y-54991000D02*
X77597000Y-54991000D01*
X76327000Y-53086000D02*
X76327000Y-54991000D01*
X72517000Y-53086000D02*
X76327000Y-53086000D01*
X72517000Y-54991000D02*
X72517000Y-53086000D01*
X71247000Y-54991000D02*
X72517000Y-54991000D01*
X71247000Y-53086000D02*
X71247000Y-54991000D01*
X70104000Y-53086000D02*
X71247000Y-53086000D01*
X66802000Y-69596000D02*
X89662000Y-69596000D01*
X89662000Y-50546000D02*
X89662000Y-69596000D01*
X66802000Y-69596000D02*
X66802000Y-67691000D01*
X66802000Y-50546000D02*
X66802000Y-68326000D01*
X79337221Y-76510000D02*
X79662779Y-76510000D01*
X79337221Y-75490000D02*
X79662779Y-75490000D01*
X110750000Y-70738000D02*
X110750000Y-58138000D01*
X96950000Y-70738000D02*
X96950000Y-58138000D01*
X96950000Y-58138000D02*
X110750000Y-58138000D01*
X110750000Y-70738000D02*
X96950000Y-70738000D01*
X99061748Y-50240000D02*
X99584252Y-50240000D01*
X99061748Y-48820000D02*
X99584252Y-48820000D01*
X87238748Y-84710000D02*
X87761252Y-84710000D01*
X87238748Y-83290000D02*
X87761252Y-83290000D01*
X87238748Y-80210000D02*
X87761252Y-80210000D01*
X87238748Y-78790000D02*
X87761252Y-78790000D01*
X87238748Y-77960000D02*
X87761252Y-77960000D01*
X87238748Y-76540000D02*
X87761252Y-76540000D01*
X87238748Y-63710000D02*
X87761252Y-63710000D01*
X87238748Y-62290000D02*
X87761252Y-62290000D01*
X87226248Y-59210000D02*
X87748752Y-59210000D01*
X87226248Y-57790000D02*
X87748752Y-57790000D01*
X87226248Y-56844000D02*
X87748752Y-56844000D01*
X87226248Y-55424000D02*
X87748752Y-55424000D01*
X97429000Y-48408000D02*
X100314000Y-48408000D01*
X97429000Y-46588000D02*
X97429000Y-48408000D01*
X100314000Y-46588000D02*
X97429000Y-46588000D01*
X92410000Y-86385000D02*
X92410000Y-83500000D01*
X90590000Y-86385000D02*
X92410000Y-86385000D01*
X90590000Y-83500000D02*
X90590000Y-86385000D01*
X92410000Y-80885000D02*
X92410000Y-78000000D01*
X90590000Y-80885000D02*
X92410000Y-80885000D01*
X90590000Y-78000000D02*
X90590000Y-80885000D01*
X92410000Y-75385000D02*
X92410000Y-72500000D01*
X90590000Y-75385000D02*
X92410000Y-75385000D01*
X90590000Y-72500000D02*
X90590000Y-75385000D01*
X92410000Y-65385000D02*
X92410000Y-62500000D01*
X90590000Y-65385000D02*
X92410000Y-65385000D01*
X90590000Y-62500000D02*
X90590000Y-65385000D01*
X92410000Y-59885000D02*
X92410000Y-57000000D01*
X90590000Y-59885000D02*
X92410000Y-59885000D01*
X90590000Y-57000000D02*
X90590000Y-59885000D01*
X92410000Y-54385000D02*
X92410000Y-51500000D01*
X90590000Y-54385000D02*
X92410000Y-54385000D01*
X90590000Y-51500000D02*
X90590000Y-54385000D01*
X78249721Y-87460000D02*
X78575279Y-87460000D01*
X78249721Y-86440000D02*
X78575279Y-86440000D01*
X77837221Y-67110000D02*
X78162779Y-67110000D01*
X77837221Y-66090000D02*
X78162779Y-66090000D01*
X77587221Y-56010000D02*
X77912779Y-56010000D01*
X77587221Y-54990000D02*
X77912779Y-54990000D01*
X102320354Y-48925000D02*
X102320354Y-49925000D01*
X101820354Y-49425000D02*
X102820354Y-49425000D01*
X112381000Y-51701000D02*
X112381000Y-52899000D01*
X112341000Y-51438000D02*
X112341000Y-53162000D01*
X112301000Y-51238000D02*
X112301000Y-53362000D01*
X112261000Y-51070000D02*
X112261000Y-53530000D01*
X112221000Y-50922000D02*
X112221000Y-53678000D01*
X112181000Y-50790000D02*
X112181000Y-53810000D01*
X112141000Y-50670000D02*
X112141000Y-53930000D01*
X112101000Y-50558000D02*
X112101000Y-54042000D01*
X112061000Y-50454000D02*
X112061000Y-54146000D01*
X112021000Y-50356000D02*
X112021000Y-54244000D01*
X111981000Y-50263000D02*
X111981000Y-54337000D01*
X111941000Y-50175000D02*
X111941000Y-54425000D01*
X111901000Y-50091000D02*
X111901000Y-54509000D01*
X111861000Y-50011000D02*
X111861000Y-54589000D01*
X111821000Y-49935000D02*
X111821000Y-54665000D01*
X111781000Y-49861000D02*
X111781000Y-54739000D01*
X111741000Y-49790000D02*
X111741000Y-54810000D01*
X111701000Y-49721000D02*
X111701000Y-54879000D01*
X111661000Y-49655000D02*
X111661000Y-54945000D01*
X111621000Y-49591000D02*
X111621000Y-55009000D01*
X111581000Y-49530000D02*
X111581000Y-55070000D01*
X111541000Y-49470000D02*
X111541000Y-55130000D01*
X111501000Y-49411000D02*
X111501000Y-55189000D01*
X111461000Y-49355000D02*
X111461000Y-55245000D01*
X111421000Y-49300000D02*
X111421000Y-55300000D01*
X111381000Y-49246000D02*
X111381000Y-55354000D01*
X111341000Y-49194000D02*
X111341000Y-55406000D01*
X111301000Y-49144000D02*
X111301000Y-55456000D01*
X111261000Y-49094000D02*
X111261000Y-55506000D01*
X111221000Y-49046000D02*
X111221000Y-55554000D01*
X111181000Y-48999000D02*
X111181000Y-55601000D01*
X111141000Y-48953000D02*
X111141000Y-55647000D01*
X111101000Y-48908000D02*
X111101000Y-55692000D01*
X111061000Y-48864000D02*
X111061000Y-55736000D01*
X111021000Y-53541000D02*
X111021000Y-55778000D01*
X111021000Y-48822000D02*
X111021000Y-51059000D01*
X110981000Y-53541000D02*
X110981000Y-55820000D01*
X110981000Y-48780000D02*
X110981000Y-51059000D01*
X110941000Y-53541000D02*
X110941000Y-55861000D01*
X110941000Y-48739000D02*
X110941000Y-51059000D01*
X110901000Y-53541000D02*
X110901000Y-55901000D01*
X110901000Y-48699000D02*
X110901000Y-51059000D01*
X110861000Y-53541000D02*
X110861000Y-55940000D01*
X110861000Y-48660000D02*
X110861000Y-51059000D01*
X110821000Y-53541000D02*
X110821000Y-55979000D01*
X110821000Y-48621000D02*
X110821000Y-51059000D01*
X110781000Y-53541000D02*
X110781000Y-56016000D01*
X110781000Y-48584000D02*
X110781000Y-51059000D01*
X110741000Y-53541000D02*
X110741000Y-56053000D01*
X110741000Y-48547000D02*
X110741000Y-51059000D01*
X110701000Y-53541000D02*
X110701000Y-56089000D01*
X110701000Y-48511000D02*
X110701000Y-51059000D01*
X110661000Y-53541000D02*
X110661000Y-56124000D01*
X110661000Y-48476000D02*
X110661000Y-51059000D01*
X110621000Y-53541000D02*
X110621000Y-56158000D01*
X110621000Y-48442000D02*
X110621000Y-51059000D01*
X110581000Y-53541000D02*
X110581000Y-56192000D01*
X110581000Y-48408000D02*
X110581000Y-51059000D01*
X110541000Y-53541000D02*
X110541000Y-56225000D01*
X110541000Y-48375000D02*
X110541000Y-51059000D01*
X110501000Y-53541000D02*
X110501000Y-56257000D01*
X110501000Y-48343000D02*
X110501000Y-51059000D01*
X110461000Y-53541000D02*
X110461000Y-56289000D01*
X110461000Y-48311000D02*
X110461000Y-51059000D01*
X110421000Y-53541000D02*
X110421000Y-56320000D01*
X110421000Y-48280000D02*
X110421000Y-51059000D01*
X110381000Y-53541000D02*
X110381000Y-56350000D01*
X110381000Y-48250000D02*
X110381000Y-51059000D01*
X110341000Y-53541000D02*
X110341000Y-56380000D01*
X110341000Y-48220000D02*
X110341000Y-51059000D01*
X110301000Y-53541000D02*
X110301000Y-56410000D01*
X110301000Y-48190000D02*
X110301000Y-51059000D01*
X110261000Y-53541000D02*
X110261000Y-56438000D01*
X110261000Y-48162000D02*
X110261000Y-51059000D01*
X110221000Y-53541000D02*
X110221000Y-56466000D01*
X110221000Y-48134000D02*
X110221000Y-51059000D01*
X110181000Y-53541000D02*
X110181000Y-56494000D01*
X110181000Y-48106000D02*
X110181000Y-51059000D01*
X110141000Y-53541000D02*
X110141000Y-56521000D01*
X110141000Y-48079000D02*
X110141000Y-51059000D01*
X110101000Y-53541000D02*
X110101000Y-56547000D01*
X110101000Y-48053000D02*
X110101000Y-51059000D01*
X110061000Y-53541000D02*
X110061000Y-56573000D01*
X110061000Y-48027000D02*
X110061000Y-51059000D01*
X110021000Y-53541000D02*
X110021000Y-56598000D01*
X110021000Y-48002000D02*
X110021000Y-51059000D01*
X109981000Y-53541000D02*
X109981000Y-56623000D01*
X109981000Y-47977000D02*
X109981000Y-51059000D01*
X109941000Y-53541000D02*
X109941000Y-56647000D01*
X109941000Y-47953000D02*
X109941000Y-51059000D01*
X109901000Y-53541000D02*
X109901000Y-56671000D01*
X109901000Y-47929000D02*
X109901000Y-51059000D01*
X109861000Y-53541000D02*
X109861000Y-56695000D01*
X109861000Y-47905000D02*
X109861000Y-51059000D01*
X109821000Y-53541000D02*
X109821000Y-56717000D01*
X109821000Y-47883000D02*
X109821000Y-51059000D01*
X109781000Y-53541000D02*
X109781000Y-56740000D01*
X109781000Y-47860000D02*
X109781000Y-51059000D01*
X109741000Y-53541000D02*
X109741000Y-56762000D01*
X109741000Y-47838000D02*
X109741000Y-51059000D01*
X109701000Y-53541000D02*
X109701000Y-56783000D01*
X109701000Y-47817000D02*
X109701000Y-51059000D01*
X109661000Y-53541000D02*
X109661000Y-56804000D01*
X109661000Y-47796000D02*
X109661000Y-51059000D01*
X109621000Y-53541000D02*
X109621000Y-56825000D01*
X109621000Y-47775000D02*
X109621000Y-51059000D01*
X109581000Y-53541000D02*
X109581000Y-56845000D01*
X109581000Y-47755000D02*
X109581000Y-51059000D01*
X109541000Y-53541000D02*
X109541000Y-56864000D01*
X109541000Y-47736000D02*
X109541000Y-51059000D01*
X109501000Y-53541000D02*
X109501000Y-56884000D01*
X109501000Y-47716000D02*
X109501000Y-51059000D01*
X109461000Y-53541000D02*
X109461000Y-56903000D01*
X109461000Y-47697000D02*
X109461000Y-51059000D01*
X109421000Y-53541000D02*
X109421000Y-56921000D01*
X109421000Y-47679000D02*
X109421000Y-51059000D01*
X109381000Y-53541000D02*
X109381000Y-56939000D01*
X109381000Y-47661000D02*
X109381000Y-51059000D01*
X109341000Y-53541000D02*
X109341000Y-56957000D01*
X109341000Y-47643000D02*
X109341000Y-51059000D01*
X109301000Y-53541000D02*
X109301000Y-56974000D01*
X109301000Y-47626000D02*
X109301000Y-51059000D01*
X109261000Y-53541000D02*
X109261000Y-56990000D01*
X109261000Y-47610000D02*
X109261000Y-51059000D01*
X109221000Y-53541000D02*
X109221000Y-57007000D01*
X109221000Y-47593000D02*
X109221000Y-51059000D01*
X109181000Y-53541000D02*
X109181000Y-57023000D01*
X109181000Y-47577000D02*
X109181000Y-51059000D01*
X109141000Y-53541000D02*
X109141000Y-57038000D01*
X109141000Y-47562000D02*
X109141000Y-51059000D01*
X109101000Y-53541000D02*
X109101000Y-57054000D01*
X109101000Y-47546000D02*
X109101000Y-51059000D01*
X109061000Y-53541000D02*
X109061000Y-57068000D01*
X109061000Y-47532000D02*
X109061000Y-51059000D01*
X109021000Y-53541000D02*
X109021000Y-57083000D01*
X109021000Y-47517000D02*
X109021000Y-51059000D01*
X108981000Y-53541000D02*
X108981000Y-57097000D01*
X108981000Y-47503000D02*
X108981000Y-51059000D01*
X108941000Y-53541000D02*
X108941000Y-57111000D01*
X108941000Y-47489000D02*
X108941000Y-51059000D01*
X108901000Y-53541000D02*
X108901000Y-57124000D01*
X108901000Y-47476000D02*
X108901000Y-51059000D01*
X108861000Y-53541000D02*
X108861000Y-57137000D01*
X108861000Y-47463000D02*
X108861000Y-51059000D01*
X108821000Y-53541000D02*
X108821000Y-57150000D01*
X108821000Y-47450000D02*
X108821000Y-51059000D01*
X108781000Y-53541000D02*
X108781000Y-57162000D01*
X108781000Y-47438000D02*
X108781000Y-51059000D01*
X108741000Y-53541000D02*
X108741000Y-57174000D01*
X108741000Y-47426000D02*
X108741000Y-51059000D01*
X108701000Y-53541000D02*
X108701000Y-57185000D01*
X108701000Y-47415000D02*
X108701000Y-51059000D01*
X108661000Y-53541000D02*
X108661000Y-57197000D01*
X108661000Y-47403000D02*
X108661000Y-51059000D01*
X108621000Y-53541000D02*
X108621000Y-57207000D01*
X108621000Y-47393000D02*
X108621000Y-51059000D01*
X108581000Y-53541000D02*
X108581000Y-57218000D01*
X108581000Y-47382000D02*
X108581000Y-51059000D01*
X108541000Y-47372000D02*
X108541000Y-57228000D01*
X108501000Y-47362000D02*
X108501000Y-57238000D01*
X108461000Y-47353000D02*
X108461000Y-57247000D01*
X108421000Y-47344000D02*
X108421000Y-57256000D01*
X108381000Y-47335000D02*
X108381000Y-57265000D01*
X108341000Y-47326000D02*
X108341000Y-57274000D01*
X108301000Y-47318000D02*
X108301000Y-57282000D01*
X108261000Y-47310000D02*
X108261000Y-57290000D01*
X108221000Y-47303000D02*
X108221000Y-57297000D01*
X108181000Y-47296000D02*
X108181000Y-57304000D01*
X108141000Y-47289000D02*
X108141000Y-57311000D01*
X108101000Y-47282000D02*
X108101000Y-57318000D01*
X108061000Y-47276000D02*
X108061000Y-57324000D01*
X108021000Y-47270000D02*
X108021000Y-57330000D01*
X107980000Y-47265000D02*
X107980000Y-57335000D01*
X107940000Y-47260000D02*
X107940000Y-57340000D01*
X107900000Y-47255000D02*
X107900000Y-57345000D01*
X107860000Y-47250000D02*
X107860000Y-57350000D01*
X107820000Y-47246000D02*
X107820000Y-57354000D01*
X107780000Y-47242000D02*
X107780000Y-57358000D01*
X107740000Y-47238000D02*
X107740000Y-57362000D01*
X107700000Y-47235000D02*
X107700000Y-57365000D01*
X107660000Y-47232000D02*
X107660000Y-57368000D01*
X107620000Y-47230000D02*
X107620000Y-57370000D01*
X107580000Y-47227000D02*
X107580000Y-57373000D01*
X107540000Y-47225000D02*
X107540000Y-57375000D01*
X107500000Y-47223000D02*
X107500000Y-57377000D01*
X107460000Y-47222000D02*
X107460000Y-57378000D01*
X107420000Y-47221000D02*
X107420000Y-57379000D01*
X107380000Y-47220000D02*
X107380000Y-57380000D01*
X107340000Y-47220000D02*
X107340000Y-57380000D01*
X107300000Y-47220000D02*
X107300000Y-57380000D01*
X112420000Y-52300000D02*
G75*
G03X112420000Y-52300000I-5120000J0D01*
G01*
X110375000Y-82920354D02*
X109375000Y-82920354D01*
X109875000Y-82420354D02*
X109875000Y-83420354D01*
X107599000Y-92981000D02*
X106401000Y-92981000D01*
X107862000Y-92941000D02*
X106138000Y-92941000D01*
X108062000Y-92901000D02*
X105938000Y-92901000D01*
X108230000Y-92861000D02*
X105770000Y-92861000D01*
X108378000Y-92821000D02*
X105622000Y-92821000D01*
X108510000Y-92781000D02*
X105490000Y-92781000D01*
X108630000Y-92741000D02*
X105370000Y-92741000D01*
X108742000Y-92701000D02*
X105258000Y-92701000D01*
X108846000Y-92661000D02*
X105154000Y-92661000D01*
X108944000Y-92621000D02*
X105056000Y-92621000D01*
X109037000Y-92581000D02*
X104963000Y-92581000D01*
X109125000Y-92541000D02*
X104875000Y-92541000D01*
X109209000Y-92501000D02*
X104791000Y-92501000D01*
X109289000Y-92461000D02*
X104711000Y-92461000D01*
X109365000Y-92421000D02*
X104635000Y-92421000D01*
X109439000Y-92381000D02*
X104561000Y-92381000D01*
X109510000Y-92341000D02*
X104490000Y-92341000D01*
X109579000Y-92301000D02*
X104421000Y-92301000D01*
X109645000Y-92261000D02*
X104355000Y-92261000D01*
X109709000Y-92221000D02*
X104291000Y-92221000D01*
X109770000Y-92181000D02*
X104230000Y-92181000D01*
X109830000Y-92141000D02*
X104170000Y-92141000D01*
X109889000Y-92101000D02*
X104111000Y-92101000D01*
X109945000Y-92061000D02*
X104055000Y-92061000D01*
X110000000Y-92021000D02*
X104000000Y-92021000D01*
X110054000Y-91981000D02*
X103946000Y-91981000D01*
X110106000Y-91941000D02*
X103894000Y-91941000D01*
X110156000Y-91901000D02*
X103844000Y-91901000D01*
X110206000Y-91861000D02*
X103794000Y-91861000D01*
X110254000Y-91821000D02*
X103746000Y-91821000D01*
X110301000Y-91781000D02*
X103699000Y-91781000D01*
X110347000Y-91741000D02*
X103653000Y-91741000D01*
X110392000Y-91701000D02*
X103608000Y-91701000D01*
X110436000Y-91661000D02*
X103564000Y-91661000D01*
X105759000Y-91621000D02*
X103522000Y-91621000D01*
X110478000Y-91621000D02*
X108241000Y-91621000D01*
X105759000Y-91581000D02*
X103480000Y-91581000D01*
X110520000Y-91581000D02*
X108241000Y-91581000D01*
X105759000Y-91541000D02*
X103439000Y-91541000D01*
X110561000Y-91541000D02*
X108241000Y-91541000D01*
X105759000Y-91501000D02*
X103399000Y-91501000D01*
X110601000Y-91501000D02*
X108241000Y-91501000D01*
X105759000Y-91461000D02*
X103360000Y-91461000D01*
X110640000Y-91461000D02*
X108241000Y-91461000D01*
X105759000Y-91421000D02*
X103321000Y-91421000D01*
X110679000Y-91421000D02*
X108241000Y-91421000D01*
X105759000Y-91381000D02*
X103284000Y-91381000D01*
X110716000Y-91381000D02*
X108241000Y-91381000D01*
X105759000Y-91341000D02*
X103247000Y-91341000D01*
X110753000Y-91341000D02*
X108241000Y-91341000D01*
X105759000Y-91301000D02*
X103211000Y-91301000D01*
X110789000Y-91301000D02*
X108241000Y-91301000D01*
X105759000Y-91261000D02*
X103176000Y-91261000D01*
X110824000Y-91261000D02*
X108241000Y-91261000D01*
X105759000Y-91221000D02*
X103142000Y-91221000D01*
X110858000Y-91221000D02*
X108241000Y-91221000D01*
X105759000Y-91181000D02*
X103108000Y-91181000D01*
X110892000Y-91181000D02*
X108241000Y-91181000D01*
X105759000Y-91141000D02*
X103075000Y-91141000D01*
X110925000Y-91141000D02*
X108241000Y-91141000D01*
X105759000Y-91101000D02*
X103043000Y-91101000D01*
X110957000Y-91101000D02*
X108241000Y-91101000D01*
X105759000Y-91061000D02*
X103011000Y-91061000D01*
X110989000Y-91061000D02*
X108241000Y-91061000D01*
X105759000Y-91021000D02*
X102980000Y-91021000D01*
X111020000Y-91021000D02*
X108241000Y-91021000D01*
X105759000Y-90981000D02*
X102950000Y-90981000D01*
X111050000Y-90981000D02*
X108241000Y-90981000D01*
X105759000Y-90941000D02*
X102920000Y-90941000D01*
X111080000Y-90941000D02*
X108241000Y-90941000D01*
X105759000Y-90901000D02*
X102890000Y-90901000D01*
X111110000Y-90901000D02*
X108241000Y-90901000D01*
X105759000Y-90861000D02*
X102862000Y-90861000D01*
X111138000Y-90861000D02*
X108241000Y-90861000D01*
X105759000Y-90821000D02*
X102834000Y-90821000D01*
X111166000Y-90821000D02*
X108241000Y-90821000D01*
X105759000Y-90781000D02*
X102806000Y-90781000D01*
X111194000Y-90781000D02*
X108241000Y-90781000D01*
X105759000Y-90741000D02*
X102779000Y-90741000D01*
X111221000Y-90741000D02*
X108241000Y-90741000D01*
X105759000Y-90701000D02*
X102753000Y-90701000D01*
X111247000Y-90701000D02*
X108241000Y-90701000D01*
X105759000Y-90661000D02*
X102727000Y-90661000D01*
X111273000Y-90661000D02*
X108241000Y-90661000D01*
X105759000Y-90621000D02*
X102702000Y-90621000D01*
X111298000Y-90621000D02*
X108241000Y-90621000D01*
X105759000Y-90581000D02*
X102677000Y-90581000D01*
X111323000Y-90581000D02*
X108241000Y-90581000D01*
X105759000Y-90541000D02*
X102653000Y-90541000D01*
X111347000Y-90541000D02*
X108241000Y-90541000D01*
X105759000Y-90501000D02*
X102629000Y-90501000D01*
X111371000Y-90501000D02*
X108241000Y-90501000D01*
X105759000Y-90461000D02*
X102605000Y-90461000D01*
X111395000Y-90461000D02*
X108241000Y-90461000D01*
X105759000Y-90421000D02*
X102583000Y-90421000D01*
X111417000Y-90421000D02*
X108241000Y-90421000D01*
X105759000Y-90381000D02*
X102560000Y-90381000D01*
X111440000Y-90381000D02*
X108241000Y-90381000D01*
X105759000Y-90341000D02*
X102538000Y-90341000D01*
X111462000Y-90341000D02*
X108241000Y-90341000D01*
X105759000Y-90301000D02*
X102517000Y-90301000D01*
X111483000Y-90301000D02*
X108241000Y-90301000D01*
X105759000Y-90261000D02*
X102496000Y-90261000D01*
X111504000Y-90261000D02*
X108241000Y-90261000D01*
X105759000Y-90221000D02*
X102475000Y-90221000D01*
X111525000Y-90221000D02*
X108241000Y-90221000D01*
X105759000Y-90181000D02*
X102455000Y-90181000D01*
X111545000Y-90181000D02*
X108241000Y-90181000D01*
X105759000Y-90141000D02*
X102436000Y-90141000D01*
X111564000Y-90141000D02*
X108241000Y-90141000D01*
X105759000Y-90101000D02*
X102416000Y-90101000D01*
X111584000Y-90101000D02*
X108241000Y-90101000D01*
X105759000Y-90061000D02*
X102397000Y-90061000D01*
X111603000Y-90061000D02*
X108241000Y-90061000D01*
X105759000Y-90021000D02*
X102379000Y-90021000D01*
X111621000Y-90021000D02*
X108241000Y-90021000D01*
X105759000Y-89981000D02*
X102361000Y-89981000D01*
X111639000Y-89981000D02*
X108241000Y-89981000D01*
X105759000Y-89941000D02*
X102343000Y-89941000D01*
X111657000Y-89941000D02*
X108241000Y-89941000D01*
X105759000Y-89901000D02*
X102326000Y-89901000D01*
X111674000Y-89901000D02*
X108241000Y-89901000D01*
X105759000Y-89861000D02*
X102310000Y-89861000D01*
X111690000Y-89861000D02*
X108241000Y-89861000D01*
X105759000Y-89821000D02*
X102293000Y-89821000D01*
X111707000Y-89821000D02*
X108241000Y-89821000D01*
X105759000Y-89781000D02*
X102277000Y-89781000D01*
X111723000Y-89781000D02*
X108241000Y-89781000D01*
X105759000Y-89741000D02*
X102262000Y-89741000D01*
X111738000Y-89741000D02*
X108241000Y-89741000D01*
X105759000Y-89701000D02*
X102246000Y-89701000D01*
X111754000Y-89701000D02*
X108241000Y-89701000D01*
X105759000Y-89661000D02*
X102232000Y-89661000D01*
X111768000Y-89661000D02*
X108241000Y-89661000D01*
X105759000Y-89621000D02*
X102217000Y-89621000D01*
X111783000Y-89621000D02*
X108241000Y-89621000D01*
X105759000Y-89581000D02*
X102203000Y-89581000D01*
X111797000Y-89581000D02*
X108241000Y-89581000D01*
X105759000Y-89541000D02*
X102189000Y-89541000D01*
X111811000Y-89541000D02*
X108241000Y-89541000D01*
X105759000Y-89501000D02*
X102176000Y-89501000D01*
X111824000Y-89501000D02*
X108241000Y-89501000D01*
X105759000Y-89461000D02*
X102163000Y-89461000D01*
X111837000Y-89461000D02*
X108241000Y-89461000D01*
X105759000Y-89421000D02*
X102150000Y-89421000D01*
X111850000Y-89421000D02*
X108241000Y-89421000D01*
X105759000Y-89381000D02*
X102138000Y-89381000D01*
X111862000Y-89381000D02*
X108241000Y-89381000D01*
X105759000Y-89341000D02*
X102126000Y-89341000D01*
X111874000Y-89341000D02*
X108241000Y-89341000D01*
X105759000Y-89301000D02*
X102115000Y-89301000D01*
X111885000Y-89301000D02*
X108241000Y-89301000D01*
X105759000Y-89261000D02*
X102103000Y-89261000D01*
X111897000Y-89261000D02*
X108241000Y-89261000D01*
X105759000Y-89221000D02*
X102093000Y-89221000D01*
X111907000Y-89221000D02*
X108241000Y-89221000D01*
X105759000Y-89181000D02*
X102082000Y-89181000D01*
X111918000Y-89181000D02*
X108241000Y-89181000D01*
X111928000Y-89141000D02*
X102072000Y-89141000D01*
X111938000Y-89101000D02*
X102062000Y-89101000D01*
X111947000Y-89061000D02*
X102053000Y-89061000D01*
X111956000Y-89021000D02*
X102044000Y-89021000D01*
X111965000Y-88981000D02*
X102035000Y-88981000D01*
X111974000Y-88941000D02*
X102026000Y-88941000D01*
X111982000Y-88901000D02*
X102018000Y-88901000D01*
X111990000Y-88861000D02*
X102010000Y-88861000D01*
X111997000Y-88821000D02*
X102003000Y-88821000D01*
X112004000Y-88781000D02*
X101996000Y-88781000D01*
X112011000Y-88741000D02*
X101989000Y-88741000D01*
X112018000Y-88701000D02*
X101982000Y-88701000D01*
X112024000Y-88661000D02*
X101976000Y-88661000D01*
X112030000Y-88621000D02*
X101970000Y-88621000D01*
X112035000Y-88580000D02*
X101965000Y-88580000D01*
X112040000Y-88540000D02*
X101960000Y-88540000D01*
X112045000Y-88500000D02*
X101955000Y-88500000D01*
X112050000Y-88460000D02*
X101950000Y-88460000D01*
X112054000Y-88420000D02*
X101946000Y-88420000D01*
X112058000Y-88380000D02*
X101942000Y-88380000D01*
X112062000Y-88340000D02*
X101938000Y-88340000D01*
X112065000Y-88300000D02*
X101935000Y-88300000D01*
X112068000Y-88260000D02*
X101932000Y-88260000D01*
X112070000Y-88220000D02*
X101930000Y-88220000D01*
X112073000Y-88180000D02*
X101927000Y-88180000D01*
X112075000Y-88140000D02*
X101925000Y-88140000D01*
X112077000Y-88100000D02*
X101923000Y-88100000D01*
X112078000Y-88060000D02*
X101922000Y-88060000D01*
X112079000Y-88020000D02*
X101921000Y-88020000D01*
X112080000Y-87980000D02*
X101920000Y-87980000D01*
X112080000Y-87940000D02*
X101920000Y-87940000D01*
X112080000Y-87900000D02*
X101920000Y-87900000D01*
X112120000Y-87900000D02*
G75*
G03X112120000Y-87900000I-5120000J0D01*
G01*
X117150000Y-63809000D02*
X117150000Y-69509000D01*
X112850000Y-63809000D02*
X112850000Y-69509000D01*
X117150000Y-63809000D02*
X112850000Y-63809000D01*
X110150000Y-72550000D02*
X111250000Y-72550000D01*
X110150000Y-71600000D02*
X110150000Y-72550000D01*
X108650000Y-71600000D02*
X110150000Y-71600000D01*
X110150000Y-81050000D02*
X115275000Y-81050000D01*
X110150000Y-82000000D02*
X110150000Y-81050000D01*
X108650000Y-82000000D02*
X110150000Y-82000000D01*
X97830000Y-89530000D02*
X96500000Y-89530000D01*
X97830000Y-88200000D02*
X97830000Y-89530000D01*
X97830000Y-86930000D02*
X95170000Y-86930000D01*
X95170000Y-86930000D02*
X95170000Y-84330000D01*
X97830000Y-86930000D02*
X97830000Y-84330000D01*
X97830000Y-84330000D02*
X95170000Y-84330000D01*
X80965000Y-81475000D02*
X80965000Y-78025000D01*
X80965000Y-81475000D02*
X80965000Y-83425000D01*
X75845000Y-81475000D02*
X75845000Y-79525000D01*
X75845000Y-81475000D02*
X75845000Y-83425000D01*
X80560000Y-61000000D02*
X80560000Y-57550000D01*
X80560000Y-61000000D02*
X80560000Y-62950000D01*
X75440000Y-61000000D02*
X75440000Y-59050000D01*
X75440000Y-61000000D02*
X75440000Y-62950000D01*
D10*
X67722380Y-89754285D02*
X66722380Y-89754285D01*
X66722380Y-89516190D01*
X66770000Y-89373333D01*
X66865238Y-89278095D01*
X66960476Y-89230476D01*
X67150952Y-89182857D01*
X67293809Y-89182857D01*
X67484285Y-89230476D01*
X67579523Y-89278095D01*
X67674761Y-89373333D01*
X67722380Y-89516190D01*
X67722380Y-89754285D01*
X66722380Y-88849523D02*
X66722380Y-88230476D01*
X67103333Y-88563809D01*
X67103333Y-88420952D01*
X67150952Y-88325714D01*
X67198571Y-88278095D01*
X67293809Y-88230476D01*
X67531904Y-88230476D01*
X67627142Y-88278095D01*
X67674761Y-88325714D01*
X67722380Y-88420952D01*
X67722380Y-88706666D01*
X67674761Y-88801904D01*
X67627142Y-88849523D01*
X66817619Y-87849523D02*
X66770000Y-87801904D01*
X66722380Y-87706666D01*
X66722380Y-87468571D01*
X66770000Y-87373333D01*
X66817619Y-87325714D01*
X66912857Y-87278095D01*
X67008095Y-87278095D01*
X67150952Y-87325714D01*
X67722380Y-87897142D01*
X67722380Y-87278095D01*
X74295714Y-93162380D02*
X74295714Y-92162380D01*
X74533809Y-92162380D01*
X74676666Y-92210000D01*
X74771904Y-92305238D01*
X74819523Y-92400476D01*
X74867142Y-92590952D01*
X74867142Y-92733809D01*
X74819523Y-92924285D01*
X74771904Y-93019523D01*
X74676666Y-93114761D01*
X74533809Y-93162380D01*
X74295714Y-93162380D01*
X75200476Y-92162380D02*
X75819523Y-92162380D01*
X75486190Y-92543333D01*
X75629047Y-92543333D01*
X75724285Y-92590952D01*
X75771904Y-92638571D01*
X75819523Y-92733809D01*
X75819523Y-92971904D01*
X75771904Y-93067142D01*
X75724285Y-93114761D01*
X75629047Y-93162380D01*
X75343333Y-93162380D01*
X75248095Y-93114761D01*
X75200476Y-93067142D01*
X76771904Y-93162380D02*
X76200476Y-93162380D01*
X76486190Y-93162380D02*
X76486190Y-92162380D01*
X76390952Y-92305238D01*
X76295714Y-92400476D01*
X76200476Y-92448095D01*
X62722380Y-80676285D02*
X61722380Y-80676285D01*
X61722380Y-80438190D01*
X61770000Y-80295333D01*
X61865238Y-80200095D01*
X61960476Y-80152476D01*
X62150952Y-80104857D01*
X62293809Y-80104857D01*
X62484285Y-80152476D01*
X62579523Y-80200095D01*
X62674761Y-80295333D01*
X62722380Y-80438190D01*
X62722380Y-80676285D01*
X61722380Y-79771523D02*
X61722380Y-79152476D01*
X62103333Y-79485809D01*
X62103333Y-79342952D01*
X62150952Y-79247714D01*
X62198571Y-79200095D01*
X62293809Y-79152476D01*
X62531904Y-79152476D01*
X62627142Y-79200095D01*
X62674761Y-79247714D01*
X62722380Y-79342952D01*
X62722380Y-79628666D01*
X62674761Y-79723904D01*
X62627142Y-79771523D01*
X61722380Y-78533428D02*
X61722380Y-78438190D01*
X61770000Y-78342952D01*
X61817619Y-78295333D01*
X61912857Y-78247714D01*
X62103333Y-78200095D01*
X62341428Y-78200095D01*
X62531904Y-78247714D01*
X62627142Y-78295333D01*
X62674761Y-78342952D01*
X62722380Y-78438190D01*
X62722380Y-78533428D01*
X62674761Y-78628666D01*
X62627142Y-78676285D01*
X62531904Y-78723904D01*
X62341428Y-78771523D01*
X62103333Y-78771523D01*
X61912857Y-78723904D01*
X61817619Y-78676285D01*
X61770000Y-78628666D01*
X61722380Y-78533428D01*
X62752380Y-66992095D02*
X61752380Y-66992095D01*
X61752380Y-66754000D01*
X61800000Y-66611142D01*
X61895238Y-66515904D01*
X61990476Y-66468285D01*
X62180952Y-66420666D01*
X62323809Y-66420666D01*
X62514285Y-66468285D01*
X62609523Y-66515904D01*
X62704761Y-66611142D01*
X62752380Y-66754000D01*
X62752380Y-66992095D01*
X61847619Y-66039714D02*
X61800000Y-65992095D01*
X61752380Y-65896857D01*
X61752380Y-65658761D01*
X61800000Y-65563523D01*
X61847619Y-65515904D01*
X61942857Y-65468285D01*
X62038095Y-65468285D01*
X62180952Y-65515904D01*
X62752380Y-66087333D01*
X62752380Y-65468285D01*
X62752380Y-53938095D02*
X61752380Y-53938095D01*
X61752380Y-53700000D01*
X61800000Y-53557142D01*
X61895238Y-53461904D01*
X61990476Y-53414285D01*
X62180952Y-53366666D01*
X62323809Y-53366666D01*
X62514285Y-53414285D01*
X62609523Y-53461904D01*
X62704761Y-53557142D01*
X62752380Y-53700000D01*
X62752380Y-53938095D01*
X62752380Y-52414285D02*
X62752380Y-52985714D01*
X62752380Y-52700000D02*
X61752380Y-52700000D01*
X61895238Y-52795238D01*
X61990476Y-52890476D01*
X62038095Y-52985714D01*
X54370476Y-83482380D02*
X54370476Y-84196666D01*
X54322857Y-84339523D01*
X54227619Y-84434761D01*
X54084761Y-84482380D01*
X53989523Y-84482380D01*
X54751428Y-83482380D02*
X55370476Y-83482380D01*
X55037142Y-83863333D01*
X55180000Y-83863333D01*
X55275238Y-83910952D01*
X55322857Y-83958571D01*
X55370476Y-84053809D01*
X55370476Y-84291904D01*
X55322857Y-84387142D01*
X55275238Y-84434761D01*
X55180000Y-84482380D01*
X54894285Y-84482380D01*
X54799047Y-84434761D01*
X54751428Y-84387142D01*
X55989523Y-83482380D02*
X56084761Y-83482380D01*
X56180000Y-83530000D01*
X56227619Y-83577619D01*
X56275238Y-83672857D01*
X56322857Y-83863333D01*
X56322857Y-84101428D01*
X56275238Y-84291904D01*
X56227619Y-84387142D01*
X56180000Y-84434761D01*
X56084761Y-84482380D01*
X55989523Y-84482380D01*
X55894285Y-84434761D01*
X55846666Y-84387142D01*
X55799047Y-84291904D01*
X55751428Y-84101428D01*
X55751428Y-83863333D01*
X55799047Y-83672857D01*
X55846666Y-83577619D01*
X55894285Y-83530000D01*
X55989523Y-83482380D01*
X59592380Y-84300952D02*
X58592380Y-84300952D01*
X59592380Y-83729523D02*
X59020952Y-84158095D01*
X58592380Y-83729523D02*
X59163809Y-84300952D01*
X59592380Y-83300952D02*
X58592380Y-83300952D01*
X59592380Y-82729523D01*
X58592380Y-82729523D01*
X58592380Y-82348571D02*
X59592380Y-81681904D01*
X58592380Y-81681904D02*
X59592380Y-82348571D01*
X59211428Y-81300952D02*
X59211428Y-80539047D01*
X59592380Y-80920000D02*
X58830476Y-80920000D01*
X58550000Y-76981904D02*
X58502380Y-77077142D01*
X58502380Y-77220000D01*
X58550000Y-77362857D01*
X58645238Y-77458095D01*
X58740476Y-77505714D01*
X58930952Y-77553333D01*
X59073809Y-77553333D01*
X59264285Y-77505714D01*
X59359523Y-77458095D01*
X59454761Y-77362857D01*
X59502380Y-77220000D01*
X59502380Y-77124761D01*
X59454761Y-76981904D01*
X59407142Y-76934285D01*
X59073809Y-76934285D01*
X59073809Y-77124761D01*
X59502380Y-76505714D02*
X58502380Y-76505714D01*
X59502380Y-75934285D01*
X58502380Y-75934285D01*
X59502380Y-75458095D02*
X58502380Y-75458095D01*
X58502380Y-75220000D01*
X58550000Y-75077142D01*
X58645238Y-74981904D01*
X58740476Y-74934285D01*
X58930952Y-74886666D01*
X59073809Y-74886666D01*
X59264285Y-74934285D01*
X59359523Y-74981904D01*
X59454761Y-75077142D01*
X59502380Y-75220000D01*
X59502380Y-75458095D01*
X53970476Y-68812380D02*
X53970476Y-69526666D01*
X53922857Y-69669523D01*
X53827619Y-69764761D01*
X53684761Y-69812380D01*
X53589523Y-69812380D01*
X54399047Y-68907619D02*
X54446666Y-68860000D01*
X54541904Y-68812380D01*
X54780000Y-68812380D01*
X54875238Y-68860000D01*
X54922857Y-68907619D01*
X54970476Y-69002857D01*
X54970476Y-69098095D01*
X54922857Y-69240952D01*
X54351428Y-69812380D01*
X54970476Y-69812380D01*
X55589523Y-68812380D02*
X55684761Y-68812380D01*
X55780000Y-68860000D01*
X55827619Y-68907619D01*
X55875238Y-69002857D01*
X55922857Y-69193333D01*
X55922857Y-69431428D01*
X55875238Y-69621904D01*
X55827619Y-69717142D01*
X55780000Y-69764761D01*
X55684761Y-69812380D01*
X55589523Y-69812380D01*
X55494285Y-69764761D01*
X55446666Y-69717142D01*
X55399047Y-69621904D01*
X55351428Y-69431428D01*
X55351428Y-69193333D01*
X55399047Y-69002857D01*
X55446666Y-68907619D01*
X55494285Y-68860000D01*
X55589523Y-68812380D01*
X59452380Y-69610952D02*
X58452380Y-69610952D01*
X59452380Y-69039523D02*
X58880952Y-69468095D01*
X58452380Y-69039523D02*
X59023809Y-69610952D01*
X59452380Y-68610952D02*
X58452380Y-68610952D01*
X59452380Y-68039523D01*
X58452380Y-68039523D01*
X58452380Y-67658571D02*
X59452380Y-66991904D01*
X58452380Y-66991904D02*
X59452380Y-67658571D01*
X59071428Y-66610952D02*
X59071428Y-65849047D01*
X59452380Y-66230000D02*
X58690476Y-66230000D01*
X58610000Y-62651904D02*
X58562380Y-62747142D01*
X58562380Y-62890000D01*
X58610000Y-63032857D01*
X58705238Y-63128095D01*
X58800476Y-63175714D01*
X58990952Y-63223333D01*
X59133809Y-63223333D01*
X59324285Y-63175714D01*
X59419523Y-63128095D01*
X59514761Y-63032857D01*
X59562380Y-62890000D01*
X59562380Y-62794761D01*
X59514761Y-62651904D01*
X59467142Y-62604285D01*
X59133809Y-62604285D01*
X59133809Y-62794761D01*
X59562380Y-62175714D02*
X58562380Y-62175714D01*
X59562380Y-61604285D01*
X58562380Y-61604285D01*
X59562380Y-61128095D02*
X58562380Y-61128095D01*
X58562380Y-60890000D01*
X58610000Y-60747142D01*
X58705238Y-60651904D01*
X58800476Y-60604285D01*
X58990952Y-60556666D01*
X59133809Y-60556666D01*
X59324285Y-60604285D01*
X59419523Y-60651904D01*
X59514761Y-60747142D01*
X59562380Y-60890000D01*
X59562380Y-61128095D01*
X54260476Y-54542380D02*
X54260476Y-55256666D01*
X54212857Y-55399523D01*
X54117619Y-55494761D01*
X53974761Y-55542380D01*
X53879523Y-55542380D01*
X55260476Y-55542380D02*
X54689047Y-55542380D01*
X54974761Y-55542380D02*
X54974761Y-54542380D01*
X54879523Y-54685238D01*
X54784285Y-54780476D01*
X54689047Y-54828095D01*
X55879523Y-54542380D02*
X55974761Y-54542380D01*
X56070000Y-54590000D01*
X56117619Y-54637619D01*
X56165238Y-54732857D01*
X56212857Y-54923333D01*
X56212857Y-55161428D01*
X56165238Y-55351904D01*
X56117619Y-55447142D01*
X56070000Y-55494761D01*
X55974761Y-55542380D01*
X55879523Y-55542380D01*
X55784285Y-55494761D01*
X55736666Y-55447142D01*
X55689047Y-55351904D01*
X55641428Y-55161428D01*
X55641428Y-54923333D01*
X55689047Y-54732857D01*
X55736666Y-54637619D01*
X55784285Y-54590000D01*
X55879523Y-54542380D01*
X59452380Y-55110952D02*
X58452380Y-55110952D01*
X59452380Y-54539523D02*
X58880952Y-54968095D01*
X58452380Y-54539523D02*
X59023809Y-55110952D01*
X59452380Y-54110952D02*
X58452380Y-54110952D01*
X59452380Y-53539523D01*
X58452380Y-53539523D01*
X58452380Y-53158571D02*
X59452380Y-52491904D01*
X58452380Y-52491904D02*
X59452380Y-53158571D01*
X59071428Y-52110952D02*
X59071428Y-51349047D01*
X59452380Y-51730000D02*
X58690476Y-51730000D01*
X58500000Y-48151904D02*
X58452380Y-48247142D01*
X58452380Y-48390000D01*
X58500000Y-48532857D01*
X58595238Y-48628095D01*
X58690476Y-48675714D01*
X58880952Y-48723333D01*
X59023809Y-48723333D01*
X59214285Y-48675714D01*
X59309523Y-48628095D01*
X59404761Y-48532857D01*
X59452380Y-48390000D01*
X59452380Y-48294761D01*
X59404761Y-48151904D01*
X59357142Y-48104285D01*
X59023809Y-48104285D01*
X59023809Y-48294761D01*
X59452380Y-47675714D02*
X58452380Y-47675714D01*
X59452380Y-47104285D01*
X58452380Y-47104285D01*
X59452380Y-46628095D02*
X58452380Y-46628095D01*
X58452380Y-46390000D01*
X58500000Y-46247142D01*
X58595238Y-46151904D01*
X58690476Y-46104285D01*
X58880952Y-46056666D01*
X59023809Y-46056666D01*
X59214285Y-46104285D01*
X59309523Y-46151904D01*
X59404761Y-46247142D01*
X59452380Y-46390000D01*
X59452380Y-46628095D01*
X69561904Y-86700000D02*
X69466666Y-86652380D01*
X69323809Y-86652380D01*
X69180952Y-86700000D01*
X69085714Y-86795238D01*
X69038095Y-86890476D01*
X68990476Y-87080952D01*
X68990476Y-87223809D01*
X69038095Y-87414285D01*
X69085714Y-87509523D01*
X69180952Y-87604761D01*
X69323809Y-87652380D01*
X69419047Y-87652380D01*
X69561904Y-87604761D01*
X69609523Y-87557142D01*
X69609523Y-87223809D01*
X69419047Y-87223809D01*
X70038095Y-87652380D02*
X70038095Y-86652380D01*
X70609523Y-87652380D01*
X70609523Y-86652380D01*
X71038095Y-86747619D02*
X71085714Y-86700000D01*
X71180952Y-86652380D01*
X71419047Y-86652380D01*
X71514285Y-86700000D01*
X71561904Y-86747619D01*
X71609523Y-86842857D01*
X71609523Y-86938095D01*
X71561904Y-87080952D01*
X70990476Y-87652380D01*
X71609523Y-87652380D01*
X86552380Y-73126071D02*
X87552380Y-72792738D01*
X86552380Y-72459404D01*
X87504761Y-71697500D02*
X87552380Y-71792738D01*
X87552380Y-71983214D01*
X87504761Y-72078452D01*
X87457142Y-72126071D01*
X87361904Y-72173690D01*
X87076190Y-72173690D01*
X86980952Y-72126071D01*
X86933333Y-72078452D01*
X86885714Y-71983214D01*
X86885714Y-71792738D01*
X86933333Y-71697500D01*
X87504761Y-70840357D02*
X87552380Y-70935595D01*
X87552380Y-71126071D01*
X87504761Y-71221309D01*
X87457142Y-71268928D01*
X87361904Y-71316547D01*
X87076190Y-71316547D01*
X86980952Y-71268928D01*
X86933333Y-71221309D01*
X86885714Y-71126071D01*
X86885714Y-70935595D01*
X86933333Y-70840357D01*
X86647619Y-70459404D02*
X86600000Y-70411785D01*
X86552380Y-70316547D01*
X86552380Y-70078452D01*
X86600000Y-69983214D01*
X86647619Y-69935595D01*
X86742857Y-69887976D01*
X86838095Y-69887976D01*
X86980952Y-69935595D01*
X87552380Y-70507023D01*
X87552380Y-69887976D01*
X84052380Y-75616547D02*
X84052380Y-74997500D01*
X84433333Y-75330833D01*
X84433333Y-75187976D01*
X84480952Y-75092738D01*
X84528571Y-75045119D01*
X84623809Y-74997500D01*
X84861904Y-74997500D01*
X84957142Y-75045119D01*
X85004761Y-75092738D01*
X85052380Y-75187976D01*
X85052380Y-75473690D01*
X85004761Y-75568928D01*
X84957142Y-75616547D01*
X84052380Y-74711785D02*
X85052380Y-74378452D01*
X84052380Y-74045119D01*
X84052380Y-73807023D02*
X84052380Y-73187976D01*
X84433333Y-73521309D01*
X84433333Y-73378452D01*
X84480952Y-73283214D01*
X84528571Y-73235595D01*
X84623809Y-73187976D01*
X84861904Y-73187976D01*
X84957142Y-73235595D01*
X85004761Y-73283214D01*
X85052380Y-73378452D01*
X85052380Y-73664166D01*
X85004761Y-73759404D01*
X84957142Y-73807023D01*
X81494380Y-72773690D02*
X81494380Y-72202261D01*
X82494380Y-72487976D02*
X81494380Y-72487976D01*
X82494380Y-71964166D02*
X81827714Y-71440357D01*
X81827714Y-71964166D02*
X82494380Y-71440357D01*
X79952380Y-74097500D02*
X79476190Y-74430833D01*
X79952380Y-74668928D02*
X78952380Y-74668928D01*
X78952380Y-74287976D01*
X79000000Y-74192738D01*
X79047619Y-74145119D01*
X79142857Y-74097500D01*
X79285714Y-74097500D01*
X79380952Y-74145119D01*
X79428571Y-74192738D01*
X79476190Y-74287976D01*
X79476190Y-74668928D01*
X79952380Y-73764166D02*
X79285714Y-73240357D01*
X79285714Y-73764166D02*
X79952380Y-73240357D01*
X77366761Y-72883214D02*
X77414380Y-72740357D01*
X77414380Y-72502261D01*
X77366761Y-72407023D01*
X77319142Y-72359404D01*
X77223904Y-72311785D01*
X77128666Y-72311785D01*
X77033428Y-72359404D01*
X76985809Y-72407023D01*
X76938190Y-72502261D01*
X76890571Y-72692738D01*
X76842952Y-72787976D01*
X76795333Y-72835595D01*
X76700095Y-72883214D01*
X76604857Y-72883214D01*
X76509619Y-72835595D01*
X76462000Y-72787976D01*
X76414380Y-72692738D01*
X76414380Y-72454642D01*
X76462000Y-72311785D01*
X77414380Y-71454642D02*
X76890571Y-71454642D01*
X76795333Y-71502261D01*
X76747714Y-71597500D01*
X76747714Y-71787976D01*
X76795333Y-71883214D01*
X77366761Y-71454642D02*
X77414380Y-71549880D01*
X77414380Y-71787976D01*
X77366761Y-71883214D01*
X77271523Y-71930833D01*
X77176285Y-71930833D01*
X77081047Y-71883214D01*
X77033428Y-71787976D01*
X77033428Y-71549880D01*
X76985809Y-71454642D01*
X76747714Y-71073690D02*
X77414380Y-70835595D01*
X76747714Y-70597500D01*
X77366761Y-69835595D02*
X77414380Y-69930833D01*
X77414380Y-70121309D01*
X77366761Y-70216547D01*
X77271523Y-70264166D01*
X76890571Y-70264166D01*
X76795333Y-70216547D01*
X76747714Y-70121309D01*
X76747714Y-69930833D01*
X76795333Y-69835595D01*
X76890571Y-69787976D01*
X76985809Y-69787976D01*
X77081047Y-70264166D01*
X73900000Y-75283214D02*
X73852380Y-75378452D01*
X73852380Y-75521309D01*
X73900000Y-75664166D01*
X73995238Y-75759404D01*
X74090476Y-75807023D01*
X74280952Y-75854642D01*
X74423809Y-75854642D01*
X74614285Y-75807023D01*
X74709523Y-75759404D01*
X74804761Y-75664166D01*
X74852380Y-75521309D01*
X74852380Y-75426071D01*
X74804761Y-75283214D01*
X74757142Y-75235595D01*
X74423809Y-75235595D01*
X74423809Y-75426071D01*
X74852380Y-74807023D02*
X73852380Y-74807023D01*
X74852380Y-74235595D01*
X73852380Y-74235595D01*
X74852380Y-73759404D02*
X73852380Y-73759404D01*
X73852380Y-73521309D01*
X73900000Y-73378452D01*
X73995238Y-73283214D01*
X74090476Y-73235595D01*
X74280952Y-73187976D01*
X74423809Y-73187976D01*
X74614285Y-73235595D01*
X74709523Y-73283214D01*
X74804761Y-73378452D01*
X74852380Y-73521309D01*
X74852380Y-73759404D01*
X72352380Y-72659404D02*
X71352380Y-72659404D01*
X72352380Y-72087976D02*
X71780952Y-72516547D01*
X71352380Y-72087976D02*
X71923809Y-72659404D01*
X72352380Y-71659404D02*
X71352380Y-71659404D01*
X72352380Y-71087976D01*
X71352380Y-71087976D01*
X71352380Y-70707023D02*
X72352380Y-70040357D01*
X71352380Y-70040357D02*
X72352380Y-70707023D01*
X70261904Y-66700000D02*
X70166666Y-66652380D01*
X70023809Y-66652380D01*
X69880952Y-66700000D01*
X69785714Y-66795238D01*
X69738095Y-66890476D01*
X69690476Y-67080952D01*
X69690476Y-67223809D01*
X69738095Y-67414285D01*
X69785714Y-67509523D01*
X69880952Y-67604761D01*
X70023809Y-67652380D01*
X70119047Y-67652380D01*
X70261904Y-67604761D01*
X70309523Y-67557142D01*
X70309523Y-67223809D01*
X70119047Y-67223809D01*
X70738095Y-67652380D02*
X70738095Y-66652380D01*
X71309523Y-67652380D01*
X71309523Y-66652380D01*
X72309523Y-67652380D02*
X71738095Y-67652380D01*
X72023809Y-67652380D02*
X72023809Y-66652380D01*
X71928571Y-66795238D01*
X71833333Y-66890476D01*
X71738095Y-66938095D01*
X86552380Y-51726071D02*
X87552380Y-51392738D01*
X86552380Y-51059404D01*
X87504761Y-50297500D02*
X87552380Y-50392738D01*
X87552380Y-50583214D01*
X87504761Y-50678452D01*
X87457142Y-50726071D01*
X87361904Y-50773690D01*
X87076190Y-50773690D01*
X86980952Y-50726071D01*
X86933333Y-50678452D01*
X86885714Y-50583214D01*
X86885714Y-50392738D01*
X86933333Y-50297500D01*
X87504761Y-49440357D02*
X87552380Y-49535595D01*
X87552380Y-49726071D01*
X87504761Y-49821309D01*
X87457142Y-49868928D01*
X87361904Y-49916547D01*
X87076190Y-49916547D01*
X86980952Y-49868928D01*
X86933333Y-49821309D01*
X86885714Y-49726071D01*
X86885714Y-49535595D01*
X86933333Y-49440357D01*
X86647619Y-49059404D02*
X86600000Y-49011785D01*
X86552380Y-48916547D01*
X86552380Y-48678452D01*
X86600000Y-48583214D01*
X86647619Y-48535595D01*
X86742857Y-48487976D01*
X86838095Y-48487976D01*
X86980952Y-48535595D01*
X87552380Y-49107023D01*
X87552380Y-48487976D01*
X84052380Y-54616547D02*
X84052380Y-53997500D01*
X84433333Y-54330833D01*
X84433333Y-54187976D01*
X84480952Y-54092738D01*
X84528571Y-54045119D01*
X84623809Y-53997500D01*
X84861904Y-53997500D01*
X84957142Y-54045119D01*
X85004761Y-54092738D01*
X85052380Y-54187976D01*
X85052380Y-54473690D01*
X85004761Y-54568928D01*
X84957142Y-54616547D01*
X84052380Y-53711785D02*
X85052380Y-53378452D01*
X84052380Y-53045119D01*
X84052380Y-52807023D02*
X84052380Y-52187976D01*
X84433333Y-52521309D01*
X84433333Y-52378452D01*
X84480952Y-52283214D01*
X84528571Y-52235595D01*
X84623809Y-52187976D01*
X84861904Y-52187976D01*
X84957142Y-52235595D01*
X85004761Y-52283214D01*
X85052380Y-52378452D01*
X85052380Y-52664166D01*
X85004761Y-52759404D01*
X84957142Y-52807023D01*
X81494380Y-51573690D02*
X81494380Y-51002261D01*
X82494380Y-51287976D02*
X81494380Y-51287976D01*
X82494380Y-50764166D02*
X81827714Y-50240357D01*
X81827714Y-50764166D02*
X82494380Y-50240357D01*
X79852380Y-52997500D02*
X79376190Y-53330833D01*
X79852380Y-53568928D02*
X78852380Y-53568928D01*
X78852380Y-53187976D01*
X78900000Y-53092738D01*
X78947619Y-53045119D01*
X79042857Y-52997500D01*
X79185714Y-52997500D01*
X79280952Y-53045119D01*
X79328571Y-53092738D01*
X79376190Y-53187976D01*
X79376190Y-53568928D01*
X79852380Y-52664166D02*
X79185714Y-52140357D01*
X79185714Y-52664166D02*
X79852380Y-52140357D01*
X77304761Y-51783214D02*
X77352380Y-51640357D01*
X77352380Y-51402261D01*
X77304761Y-51307023D01*
X77257142Y-51259404D01*
X77161904Y-51211785D01*
X77066666Y-51211785D01*
X76971428Y-51259404D01*
X76923809Y-51307023D01*
X76876190Y-51402261D01*
X76828571Y-51592738D01*
X76780952Y-51687976D01*
X76733333Y-51735595D01*
X76638095Y-51783214D01*
X76542857Y-51783214D01*
X76447619Y-51735595D01*
X76400000Y-51687976D01*
X76352380Y-51592738D01*
X76352380Y-51354642D01*
X76400000Y-51211785D01*
X77352380Y-50354642D02*
X76828571Y-50354642D01*
X76733333Y-50402261D01*
X76685714Y-50497500D01*
X76685714Y-50687976D01*
X76733333Y-50783214D01*
X77304761Y-50354642D02*
X77352380Y-50449880D01*
X77352380Y-50687976D01*
X77304761Y-50783214D01*
X77209523Y-50830833D01*
X77114285Y-50830833D01*
X77019047Y-50783214D01*
X76971428Y-50687976D01*
X76971428Y-50449880D01*
X76923809Y-50354642D01*
X76685714Y-49973690D02*
X77352380Y-49735595D01*
X76685714Y-49497500D01*
X77304761Y-48735595D02*
X77352380Y-48830833D01*
X77352380Y-49021309D01*
X77304761Y-49116547D01*
X77209523Y-49164166D01*
X76828571Y-49164166D01*
X76733333Y-49116547D01*
X76685714Y-49021309D01*
X76685714Y-48830833D01*
X76733333Y-48735595D01*
X76828571Y-48687976D01*
X76923809Y-48687976D01*
X77019047Y-49164166D01*
X74000000Y-54183214D02*
X73952380Y-54278452D01*
X73952380Y-54421309D01*
X74000000Y-54564166D01*
X74095238Y-54659404D01*
X74190476Y-54707023D01*
X74380952Y-54754642D01*
X74523809Y-54754642D01*
X74714285Y-54707023D01*
X74809523Y-54659404D01*
X74904761Y-54564166D01*
X74952380Y-54421309D01*
X74952380Y-54326071D01*
X74904761Y-54183214D01*
X74857142Y-54135595D01*
X74523809Y-54135595D01*
X74523809Y-54326071D01*
X74952380Y-53707023D02*
X73952380Y-53707023D01*
X74952380Y-53135595D01*
X73952380Y-53135595D01*
X74952380Y-52659404D02*
X73952380Y-52659404D01*
X73952380Y-52421309D01*
X74000000Y-52278452D01*
X74095238Y-52183214D01*
X74190476Y-52135595D01*
X74380952Y-52087976D01*
X74523809Y-52087976D01*
X74714285Y-52135595D01*
X74809523Y-52183214D01*
X74904761Y-52278452D01*
X74952380Y-52421309D01*
X74952380Y-52659404D01*
X72452380Y-51559404D02*
X71452380Y-51559404D01*
X72452380Y-50987976D02*
X71880952Y-51416547D01*
X71452380Y-50987976D02*
X72023809Y-51559404D01*
X72452380Y-50559404D02*
X71452380Y-50559404D01*
X72452380Y-49987976D01*
X71452380Y-49987976D01*
X71452380Y-49607023D02*
X72452380Y-48940357D01*
X71452380Y-48940357D02*
X72452380Y-49607023D01*
X101433333Y-61652380D02*
X100957142Y-61652380D01*
X100957142Y-60652380D01*
X101671428Y-60652380D02*
X102290476Y-60652380D01*
X101957142Y-61033333D01*
X102100000Y-61033333D01*
X102195238Y-61080952D01*
X102242857Y-61128571D01*
X102290476Y-61223809D01*
X102290476Y-61461904D01*
X102242857Y-61557142D01*
X102195238Y-61604761D01*
X102100000Y-61652380D01*
X101814285Y-61652380D01*
X101719047Y-61604761D01*
X101671428Y-61557142D01*
X112257142Y-48857142D02*
X112209523Y-48904761D01*
X112066666Y-48952380D01*
X111971428Y-48952380D01*
X111828571Y-48904761D01*
X111733333Y-48809523D01*
X111685714Y-48714285D01*
X111638095Y-48523809D01*
X111638095Y-48380952D01*
X111685714Y-48190476D01*
X111733333Y-48095238D01*
X111828571Y-48000000D01*
X111971428Y-47952380D01*
X112066666Y-47952380D01*
X112209523Y-48000000D01*
X112257142Y-48047619D01*
X112590476Y-47952380D02*
X113209523Y-47952380D01*
X112876190Y-48333333D01*
X113019047Y-48333333D01*
X113114285Y-48380952D01*
X113161904Y-48428571D01*
X113209523Y-48523809D01*
X113209523Y-48761904D01*
X113161904Y-48857142D01*
X113114285Y-48904761D01*
X113019047Y-48952380D01*
X112733333Y-48952380D01*
X112638095Y-48904761D01*
X112590476Y-48857142D01*
X114161904Y-48952380D02*
X113590476Y-48952380D01*
X113876190Y-48952380D02*
X113876190Y-47952380D01*
X113780952Y-48095238D01*
X113685714Y-48190476D01*
X113590476Y-48238095D01*
D13*
X109533333Y-46661904D02*
X110028571Y-46661904D01*
X109761904Y-46966666D01*
X109876190Y-46966666D01*
X109952380Y-47004761D01*
X109990476Y-47042857D01*
X110028571Y-47119047D01*
X110028571Y-47309523D01*
X109990476Y-47385714D01*
X109952380Y-47423809D01*
X109876190Y-47461904D01*
X109647619Y-47461904D01*
X109571428Y-47423809D01*
X109533333Y-47385714D01*
X110295238Y-46661904D02*
X110790476Y-46661904D01*
X110523809Y-46966666D01*
X110638095Y-46966666D01*
X110714285Y-47004761D01*
X110752380Y-47042857D01*
X110790476Y-47119047D01*
X110790476Y-47309523D01*
X110752380Y-47385714D01*
X110714285Y-47423809D01*
X110638095Y-47461904D01*
X110409523Y-47461904D01*
X110333333Y-47423809D01*
X110295238Y-47385714D01*
X111285714Y-46661904D02*
X111361904Y-46661904D01*
X111438095Y-46700000D01*
X111476190Y-46738095D01*
X111514285Y-46814285D01*
X111552380Y-46966666D01*
X111552380Y-47157142D01*
X111514285Y-47309523D01*
X111476190Y-47385714D01*
X111438095Y-47423809D01*
X111361904Y-47461904D01*
X111285714Y-47461904D01*
X111209523Y-47423809D01*
X111171428Y-47385714D01*
X111133333Y-47309523D01*
X111095238Y-47157142D01*
X111095238Y-46966666D01*
X111133333Y-46814285D01*
X111171428Y-46738095D01*
X111209523Y-46700000D01*
X111285714Y-46661904D01*
X112238095Y-46928571D02*
X112238095Y-47461904D01*
X111895238Y-46928571D02*
X111895238Y-47347619D01*
X111933333Y-47423809D01*
X112009523Y-47461904D01*
X112123809Y-47461904D01*
X112200000Y-47423809D01*
X112238095Y-47385714D01*
X112885714Y-47042857D02*
X112619047Y-47042857D01*
X112619047Y-47461904D02*
X112619047Y-46661904D01*
X113000000Y-46661904D01*
X114485714Y-46623809D02*
X113800000Y-47652380D01*
X115742857Y-46661904D02*
X115361904Y-46661904D01*
X115323809Y-47042857D01*
X115361904Y-47004761D01*
X115438095Y-46966666D01*
X115628571Y-46966666D01*
X115704761Y-47004761D01*
X115742857Y-47042857D01*
X115780952Y-47119047D01*
X115780952Y-47309523D01*
X115742857Y-47385714D01*
X115704761Y-47423809D01*
X115628571Y-47461904D01*
X115438095Y-47461904D01*
X115361904Y-47423809D01*
X115323809Y-47385714D01*
X116276190Y-46661904D02*
X116352380Y-46661904D01*
X116428571Y-46700000D01*
X116466666Y-46738095D01*
X116504761Y-46814285D01*
X116542857Y-46966666D01*
X116542857Y-47157142D01*
X116504761Y-47309523D01*
X116466666Y-47385714D01*
X116428571Y-47423809D01*
X116352380Y-47461904D01*
X116276190Y-47461904D01*
X116200000Y-47423809D01*
X116161904Y-47385714D01*
X116123809Y-47309523D01*
X116085714Y-47157142D01*
X116085714Y-46966666D01*
X116123809Y-46814285D01*
X116161904Y-46738095D01*
X116200000Y-46700000D01*
X116276190Y-46661904D01*
X116771428Y-46661904D02*
X117038095Y-47461904D01*
X117304761Y-46661904D01*
D10*
X100857142Y-92357142D02*
X100809523Y-92404761D01*
X100666666Y-92452380D01*
X100571428Y-92452380D01*
X100428571Y-92404761D01*
X100333333Y-92309523D01*
X100285714Y-92214285D01*
X100238095Y-92023809D01*
X100238095Y-91880952D01*
X100285714Y-91690476D01*
X100333333Y-91595238D01*
X100428571Y-91500000D01*
X100571428Y-91452380D01*
X100666666Y-91452380D01*
X100809523Y-91500000D01*
X100857142Y-91547619D01*
X101190476Y-91452380D02*
X101809523Y-91452380D01*
X101476190Y-91833333D01*
X101619047Y-91833333D01*
X101714285Y-91880952D01*
X101761904Y-91928571D01*
X101809523Y-92023809D01*
X101809523Y-92261904D01*
X101761904Y-92357142D01*
X101714285Y-92404761D01*
X101619047Y-92452380D01*
X101333333Y-92452380D01*
X101238095Y-92404761D01*
X101190476Y-92357142D01*
X102428571Y-91452380D02*
X102523809Y-91452380D01*
X102619047Y-91500000D01*
X102666666Y-91547619D01*
X102714285Y-91642857D01*
X102761904Y-91833333D01*
X102761904Y-92071428D01*
X102714285Y-92261904D01*
X102666666Y-92357142D01*
X102619047Y-92404761D01*
X102523809Y-92452380D01*
X102428571Y-92452380D01*
X102333333Y-92404761D01*
X102285714Y-92357142D01*
X102238095Y-92261904D01*
X102190476Y-92071428D01*
X102190476Y-91833333D01*
X102238095Y-91642857D01*
X102285714Y-91547619D01*
X102333333Y-91500000D01*
X102428571Y-91452380D01*
D13*
X109833333Y-83961904D02*
X110328571Y-83961904D01*
X110061904Y-84266666D01*
X110176190Y-84266666D01*
X110252380Y-84304761D01*
X110290476Y-84342857D01*
X110328571Y-84419047D01*
X110328571Y-84609523D01*
X110290476Y-84685714D01*
X110252380Y-84723809D01*
X110176190Y-84761904D01*
X109947619Y-84761904D01*
X109871428Y-84723809D01*
X109833333Y-84685714D01*
X110595238Y-83961904D02*
X111090476Y-83961904D01*
X110823809Y-84266666D01*
X110938095Y-84266666D01*
X111014285Y-84304761D01*
X111052380Y-84342857D01*
X111090476Y-84419047D01*
X111090476Y-84609523D01*
X111052380Y-84685714D01*
X111014285Y-84723809D01*
X110938095Y-84761904D01*
X110709523Y-84761904D01*
X110633333Y-84723809D01*
X110595238Y-84685714D01*
X111585714Y-83961904D02*
X111661904Y-83961904D01*
X111738095Y-84000000D01*
X111776190Y-84038095D01*
X111814285Y-84114285D01*
X111852380Y-84266666D01*
X111852380Y-84457142D01*
X111814285Y-84609523D01*
X111776190Y-84685714D01*
X111738095Y-84723809D01*
X111661904Y-84761904D01*
X111585714Y-84761904D01*
X111509523Y-84723809D01*
X111471428Y-84685714D01*
X111433333Y-84609523D01*
X111395238Y-84457142D01*
X111395238Y-84266666D01*
X111433333Y-84114285D01*
X111471428Y-84038095D01*
X111509523Y-84000000D01*
X111585714Y-83961904D01*
X112538095Y-84228571D02*
X112538095Y-84761904D01*
X112195238Y-84228571D02*
X112195238Y-84647619D01*
X112233333Y-84723809D01*
X112309523Y-84761904D01*
X112423809Y-84761904D01*
X112500000Y-84723809D01*
X112538095Y-84685714D01*
X113185714Y-84342857D02*
X112919047Y-84342857D01*
X112919047Y-84761904D02*
X112919047Y-83961904D01*
X113300000Y-83961904D01*
X114785714Y-83923809D02*
X114100000Y-84952380D01*
X116042857Y-83961904D02*
X115661904Y-83961904D01*
X115623809Y-84342857D01*
X115661904Y-84304761D01*
X115738095Y-84266666D01*
X115928571Y-84266666D01*
X116004761Y-84304761D01*
X116042857Y-84342857D01*
X116080952Y-84419047D01*
X116080952Y-84609523D01*
X116042857Y-84685714D01*
X116004761Y-84723809D01*
X115928571Y-84761904D01*
X115738095Y-84761904D01*
X115661904Y-84723809D01*
X115623809Y-84685714D01*
X116576190Y-83961904D02*
X116652380Y-83961904D01*
X116728571Y-84000000D01*
X116766666Y-84038095D01*
X116804761Y-84114285D01*
X116842857Y-84266666D01*
X116842857Y-84457142D01*
X116804761Y-84609523D01*
X116766666Y-84685714D01*
X116728571Y-84723809D01*
X116652380Y-84761904D01*
X116576190Y-84761904D01*
X116500000Y-84723809D01*
X116461904Y-84685714D01*
X116423809Y-84609523D01*
X116385714Y-84457142D01*
X116385714Y-84266666D01*
X116423809Y-84114285D01*
X116461904Y-84038095D01*
X116500000Y-84000000D01*
X116576190Y-83961904D01*
X117071428Y-83961904D02*
X117338095Y-84761904D01*
X117604761Y-83961904D01*
D10*
X115452380Y-63214285D02*
X114452380Y-63214285D01*
X114452380Y-62976190D01*
X114500000Y-62833333D01*
X114595238Y-62738095D01*
X114690476Y-62690476D01*
X114880952Y-62642857D01*
X115023809Y-62642857D01*
X115214285Y-62690476D01*
X115309523Y-62738095D01*
X115404761Y-62833333D01*
X115452380Y-62976190D01*
X115452380Y-63214285D01*
X114452380Y-62309523D02*
X114452380Y-61690476D01*
X114833333Y-62023809D01*
X114833333Y-61880952D01*
X114880952Y-61785714D01*
X114928571Y-61738095D01*
X115023809Y-61690476D01*
X115261904Y-61690476D01*
X115357142Y-61738095D01*
X115404761Y-61785714D01*
X115452380Y-61880952D01*
X115452380Y-62166666D01*
X115404761Y-62261904D01*
X115357142Y-62309523D01*
X114452380Y-61357142D02*
X114452380Y-60738095D01*
X114833333Y-61071428D01*
X114833333Y-60928571D01*
X114880952Y-60833333D01*
X114928571Y-60785714D01*
X115023809Y-60738095D01*
X115261904Y-60738095D01*
X115357142Y-60785714D01*
X115404761Y-60833333D01*
X115452380Y-60928571D01*
X115452380Y-61214285D01*
X115404761Y-61309523D01*
X115357142Y-61357142D01*
D13*
X117323809Y-63309523D02*
X117361904Y-63195238D01*
X117361904Y-63004761D01*
X117323809Y-62928571D01*
X117285714Y-62890476D01*
X117209523Y-62852380D01*
X117133333Y-62852380D01*
X117057142Y-62890476D01*
X117019047Y-62928571D01*
X116980952Y-63004761D01*
X116942857Y-63157142D01*
X116904761Y-63233333D01*
X116866666Y-63271428D01*
X116790476Y-63309523D01*
X116714285Y-63309523D01*
X116638095Y-63271428D01*
X116600000Y-63233333D01*
X116561904Y-63157142D01*
X116561904Y-62966666D01*
X116600000Y-62852380D01*
X117323809Y-62547619D02*
X117361904Y-62433333D01*
X117361904Y-62242857D01*
X117323809Y-62166666D01*
X117285714Y-62128571D01*
X117209523Y-62090476D01*
X117133333Y-62090476D01*
X117057142Y-62128571D01*
X117019047Y-62166666D01*
X116980952Y-62242857D01*
X116942857Y-62395238D01*
X116904761Y-62471428D01*
X116866666Y-62509523D01*
X116790476Y-62547619D01*
X116714285Y-62547619D01*
X116638095Y-62509523D01*
X116600000Y-62471428D01*
X116561904Y-62395238D01*
X116561904Y-62204761D01*
X116600000Y-62090476D01*
X116942857Y-61480952D02*
X116980952Y-61366666D01*
X117019047Y-61328571D01*
X117095238Y-61290476D01*
X117209523Y-61290476D01*
X117285714Y-61328571D01*
X117323809Y-61366666D01*
X117361904Y-61442857D01*
X117361904Y-61747619D01*
X116561904Y-61747619D01*
X116561904Y-61480952D01*
X116600000Y-61404761D01*
X116638095Y-61366666D01*
X116714285Y-61328571D01*
X116790476Y-61328571D01*
X116866666Y-61366666D01*
X116904761Y-61404761D01*
X116942857Y-61480952D01*
X116942857Y-61747619D01*
X116561904Y-60566666D02*
X116561904Y-60947619D01*
X116942857Y-60985714D01*
X116904761Y-60947619D01*
X116866666Y-60871428D01*
X116866666Y-60680952D01*
X116904761Y-60604761D01*
X116942857Y-60566666D01*
X117019047Y-60528571D01*
X117209523Y-60528571D01*
X117285714Y-60566666D01*
X117323809Y-60604761D01*
X117361904Y-60680952D01*
X117361904Y-60871428D01*
X117323809Y-60947619D01*
X117285714Y-60985714D01*
X116828571Y-59842857D02*
X117361904Y-59842857D01*
X116523809Y-60033333D02*
X117095238Y-60223809D01*
X117095238Y-59728571D01*
X116942857Y-59157142D02*
X116980952Y-59042857D01*
X117019047Y-59004761D01*
X117095238Y-58966666D01*
X117209523Y-58966666D01*
X117285714Y-59004761D01*
X117323809Y-59042857D01*
X117361904Y-59119047D01*
X117361904Y-59423809D01*
X116561904Y-59423809D01*
X116561904Y-59157142D01*
X116600000Y-59080952D01*
X116638095Y-59042857D01*
X116714285Y-59004761D01*
X116790476Y-59004761D01*
X116866666Y-59042857D01*
X116904761Y-59080952D01*
X116942857Y-59157142D01*
X116942857Y-59423809D01*
X116828571Y-57671428D02*
X117361904Y-57671428D01*
X116523809Y-57861904D02*
X117095238Y-58052380D01*
X117095238Y-57557142D01*
X116561904Y-57100000D02*
X116561904Y-57023809D01*
X116600000Y-56947619D01*
X116638095Y-56909523D01*
X116714285Y-56871428D01*
X116866666Y-56833333D01*
X117057142Y-56833333D01*
X117209523Y-56871428D01*
X117285714Y-56909523D01*
X117323809Y-56947619D01*
X117361904Y-57023809D01*
X117361904Y-57100000D01*
X117323809Y-57176190D01*
X117285714Y-57214285D01*
X117209523Y-57252380D01*
X117057142Y-57290476D01*
X116866666Y-57290476D01*
X116714285Y-57252380D01*
X116638095Y-57214285D01*
X116600000Y-57176190D01*
X116561904Y-57100000D01*
X116561904Y-56604761D02*
X117361904Y-56338095D01*
X116561904Y-56071428D01*
X116561904Y-54814285D02*
X116561904Y-55195238D01*
X116942857Y-55233333D01*
X116904761Y-55195238D01*
X116866666Y-55119047D01*
X116866666Y-54928571D01*
X116904761Y-54852380D01*
X116942857Y-54814285D01*
X117019047Y-54776190D01*
X117209523Y-54776190D01*
X117285714Y-54814285D01*
X117323809Y-54852380D01*
X117361904Y-54928571D01*
X117361904Y-55119047D01*
X117323809Y-55195238D01*
X117285714Y-55233333D01*
X117133333Y-54471428D02*
X117133333Y-54090476D01*
X117361904Y-54547619D02*
X116561904Y-54280952D01*
X117361904Y-54014285D01*
D10*
X96952380Y-77761904D02*
X97761904Y-77761904D01*
X97857142Y-77714285D01*
X97904761Y-77666666D01*
X97952380Y-77571428D01*
X97952380Y-77380952D01*
X97904761Y-77285714D01*
X97857142Y-77238095D01*
X97761904Y-77190476D01*
X96952380Y-77190476D01*
X96952380Y-76809523D02*
X96952380Y-76190476D01*
X97333333Y-76523809D01*
X97333333Y-76380952D01*
X97380952Y-76285714D01*
X97428571Y-76238095D01*
X97523809Y-76190476D01*
X97761904Y-76190476D01*
X97857142Y-76238095D01*
X97904761Y-76285714D01*
X97952380Y-76380952D01*
X97952380Y-76666666D01*
X97904761Y-76761904D01*
X97857142Y-76809523D01*
X98652380Y-87733333D02*
X99366666Y-87733333D01*
X99509523Y-87780952D01*
X99604761Y-87876190D01*
X99652380Y-88019047D01*
X99652380Y-88114285D01*
X99652380Y-87257142D02*
X98652380Y-87257142D01*
X98652380Y-86876190D01*
X98700000Y-86780952D01*
X98747619Y-86733333D01*
X98842857Y-86685714D01*
X98985714Y-86685714D01*
X99080952Y-86733333D01*
X99128571Y-86780952D01*
X99176190Y-86876190D01*
X99176190Y-87257142D01*
X98652380Y-86352380D02*
X98652380Y-85733333D01*
X99033333Y-86066666D01*
X99033333Y-85923809D01*
X99080952Y-85828571D01*
X99128571Y-85780952D01*
X99223809Y-85733333D01*
X99461904Y-85733333D01*
X99557142Y-85780952D01*
X99604761Y-85828571D01*
X99652380Y-85923809D01*
X99652380Y-86209523D01*
X99604761Y-86304761D01*
X99557142Y-86352380D01*
X81257380Y-82236904D02*
X82066904Y-82236904D01*
X82162142Y-82189285D01*
X82209761Y-82141666D01*
X82257380Y-82046428D01*
X82257380Y-81855952D01*
X82209761Y-81760714D01*
X82162142Y-81713095D01*
X82066904Y-81665476D01*
X81257380Y-81665476D01*
X81352619Y-81236904D02*
X81305000Y-81189285D01*
X81257380Y-81094047D01*
X81257380Y-80855952D01*
X81305000Y-80760714D01*
X81352619Y-80713095D01*
X81447857Y-80665476D01*
X81543095Y-80665476D01*
X81685952Y-80713095D01*
X82257380Y-81284523D01*
X82257380Y-80665476D01*
X80952380Y-60861904D02*
X81761904Y-60861904D01*
X81857142Y-60814285D01*
X81904761Y-60766666D01*
X81952380Y-60671428D01*
X81952380Y-60480952D01*
X81904761Y-60385714D01*
X81857142Y-60338095D01*
X81761904Y-60290476D01*
X80952380Y-60290476D01*
X81952380Y-59290476D02*
X81952380Y-59861904D01*
X81952380Y-59576190D02*
X80952380Y-59576190D01*
X81095238Y-59671428D01*
X81190476Y-59766666D01*
X81238095Y-59861904D01*
M02*
