M48
; DRILL file {KiCad (5.1.4)-1} date 05/01/2023 18:52:55
; FORMAT={-:-/ absolute / inch / decimal}
; #@! TF.CreationDate,2023-01-05T18:52:55+01:00
; #@! TF.GenerationSoftware,Kicad,Pcbnew,(5.1.4)-1
; #@! TF.FileFunction,Plated,1,2,PTH
FMAT,2
INCH
T1C0.0118
T2C0.0157
T3C0.0394
T4C0.0433
%
G90
G05
T1
X2.93Y-2.9558
X2.9961Y-2.5689
X3.0098Y-3.378
X3.0465Y-2.5689
X3.061Y-3.378
X3.0709Y-3.0413
X3.0984Y-2.5689
X3.1122Y-3.378
X3.13Y-3.0413
X3.1457Y-2.5689
X3.1614Y-3.378
X3.2283Y-3.061
X3.2382Y-3.1398
X3.7402Y-1.811
X3.7598Y-1.8307
X3.7863Y-1.854
X3.84Y-2.89
X3.84Y-3.05
X3.8701Y-3.2756
X3.95Y-2.9
X3.95Y-3.0
X3.95Y-3.1
X3.95Y-3.2
X3.9843Y-3.4331
X3.99Y-3.31
X4.0Y-2.85
X4.0Y-2.95
X4.0Y-3.05
X4.0Y-3.15
X4.05Y-2.9
X4.05Y-3.0
X4.05Y-3.1
X4.05Y-3.2
X4.09Y-3.31
X4.1Y-2.85
X4.1Y-2.95
X4.1Y-3.05
X4.1Y-3.15
X4.15Y-2.9
X4.15Y-3.0
X4.15Y-3.1
X4.15Y-3.2
X4.1772Y-3.6339
X4.2Y-2.85
X4.2Y-2.95
X4.2Y-3.05
X4.2Y-3.15
X4.34Y-1.95
X4.3622Y-3.5236
X4.41Y-2.71
X4.41Y-2.79
X4.43Y-3.39
X4.46Y-1.95
X4.46Y-2.06
X4.46Y-2.18
X4.46Y-2.29
X4.4764Y-3.0236
X4.5Y-2.44
X4.52Y-3.32
X4.5276Y-2.7366
X4.5276Y-2.8124
X4.5659Y-2.8941
X4.5659Y-2.9741
X4.58Y-1.95
X4.58Y-2.06
X4.58Y-2.18
X4.58Y-2.29
X4.59Y-2.4
X4.59Y-3.24
X4.6Y-3.37
T2
X2.3878Y-3.1437
X2.4173Y-3.1732
X2.4488Y-3.2047
X2.5Y-3.2047
X2.55Y-3.2072
X2.7484Y-1.8055
X2.93Y-2.1763
X3.0461Y-2.2323
X3.0959Y-2.2388
X3.13Y-2.12
X3.1791Y-1.7717
X3.1834Y-2.1052
X3.2169Y-2.2728
X3.2579Y-1.785
X3.2638Y-2.2913
X3.3228Y-2.3031
X3.3257Y-2.9558
X3.748Y-1.9791
X3.8543Y-3.6102
X3.95Y-1.95
X4.0748Y-1.9488
X4.1929Y-1.9488
T3
X4.126Y-2.0591
X4.3228Y-2.0591
X4.2126Y-3.3622
X4.2126Y-3.5591
X2.4338Y-1.5594
X2.4338Y-1.6594
X2.5338Y-1.5594
X2.5338Y-1.6594
X2.6338Y-1.5594
X2.6338Y-1.6594
X2.7338Y-1.5594
X2.7338Y-1.6594
X2.8338Y-1.5594
X2.8338Y-1.6594
X2.9338Y-1.5594
X2.9338Y-1.6594
X3.0338Y-1.5594
X3.0338Y-1.6594
X3.1338Y-1.5594
X3.1338Y-1.6594
X3.2338Y-1.5594
X3.2338Y-1.6594
X3.3338Y-1.5594
X3.3338Y-1.6594
X3.4338Y-1.5594
X3.4338Y-1.6594
X3.5338Y-1.5594
X3.5338Y-1.6594
X3.6338Y-1.5594
X3.6338Y-1.6594
X3.7338Y-1.5594
X3.7338Y-1.6594
X3.8338Y-1.5594
X3.8338Y-1.6594
X3.9338Y-1.5594
X3.9338Y-1.6594
X4.0338Y-1.5594
X4.0338Y-1.6594
X4.1338Y-1.5594
X4.1338Y-1.6594
X4.2338Y-1.5594
X4.2338Y-1.6594
X4.3338Y-1.5594
X4.3338Y-1.6594
X3.7992Y-3.3724
X3.7992Y-3.4724
T4
X2.2283Y-2.4134
X2.2283Y-2.6398
X2.2283Y-2.9843
X2.2283Y-3.2106
X2.2283Y-1.8425
X2.2283Y-2.0689
T0
M30
